<svg width="442" height="620" viewBox="0 0 442 620" fill="none" xmlns="http://www.w3.org/2000/svg">
<path d="M417.975 213.052C418.092 213.013 418.3 213.169 418.3 213.404V227.692C418.3 227.927 418.092 228.084 417.975 228.044V213.052Z" fill="#6583F6"/>
<path d="M229.994 32.2537C228.432 33.1272 226.544 32.8534 224.787 32.9056C223.928 32.5666 230.072 32.2537 229.994 32.2537Z" fill="#BEE9F2"/>
<path d="M417.975 209.793C417.741 209.819 417.636 209.493 417.636 209.154V204.578C417.897 204.552 417.988 204.878 417.988 205.217V209.793H417.975Z" fill="#BEE9F2"/>
<path d="M214.385 399.312C210.949 398.986 208.215 398.713 204.817 398.204L200.795 397.591L196.876 396.966L194.181 396.509C179.601 394.059 159.163 388.974 145.598 382.99C140.677 380.826 136.303 378.297 132.033 375.103C130.08 373.642 127.164 374.125 125.745 375.833C124.222 377.658 124.157 380.526 126.162 382.286C141.992 396.131 180.109 404.032 201.289 407.304C186.826 411.632 178.703 417.682 169.772 429.611L158.238 444.773C155.388 448.527 152.432 451.865 149.139 455.202C139.779 464.667 128.284 471.264 114.485 469.53C108.692 468.8 103.641 465.867 99.4489 461.721C93.2002 455.541 89.5942 447.484 87.993 438.867C87.2249 434.734 86.8474 428.463 87.1338 424.122L87.4332 419.572C87.6806 415.843 88.0321 412.154 87.4723 408.517L86.9255 404.918C86.6391 403.054 86.7172 401.242 86.0793 399.482C84.9077 396.223 83.8923 393.081 82.1869 390.03C79.2839 384.815 75.001 380.826 69.5464 378.362C67.125 377.267 64.3131 378.388 63.2326 380.669C62.1521 382.951 63.3889 385.689 65.7191 387.005C67.5286 388.035 69.3902 388.857 70.692 390.499C68.557 390.734 66.7345 390.395 64.8339 390.747C61.8527 391.295 59.1319 392.494 56.6585 394.228L47.1033 400.929C41.6357 404.762 35.1006 407.813 28.3312 406.6C24.9725 406 22.2908 404.214 20.3902 401.411C17.0966 396.549 17.0706 390.708 18.0339 384.919C21.8092 367.476 35.6474 349.433 53.1436 343.553C64.0918 354.778 79.2058 365.442 94.9316 367.854C97.7305 368.023 99.9957 366.798 100.634 364.112C101.141 362 99.8134 359.223 97.2098 358.741C91.8073 357.724 86.8214 356.173 81.8745 353.565C61.0326 342.601 47.4027 324.753 40.2948 302.343C37.8474 294.625 36.142 287.076 35.2698 279.072C35.0615 277.142 34.7361 275.199 34.6059 273.283L33.968 263.179C33.5905 257.182 33.5514 251.303 33.968 245.279L34.645 235.202L35.2178 228.983L35.6864 224.929C35.8817 223.273 36.2983 221.761 36.2983 219.922C44.6559 222.843 55.7472 221.539 61.2539 214.825C64.6125 210.731 65.4978 205.907 64.183 200.901C61.6965 191.436 54.0549 184.409 45.8145 179.403C46.6867 176.405 47.4808 173.693 48.7826 170.681C52.5188 173.497 56.4502 175.218 60.8373 175.596C70.2233 176.405 78.0862 170.538 79.7395 161.164C81.7704 149.679 75.6258 138.18 68.7523 128.95C71.2257 124.869 73.7382 121.167 76.7975 117.281C78.62 120.371 80.3123 122.979 82.4994 125.599C87.2119 130.905 95.5565 134.921 102.612 132.587C110.397 130.019 113.691 121.049 113.626 113.37C114.94 112.536 115.8 111.232 116.737 110.02C120.564 105.053 124.04 100.164 126.917 94.5448C131.018 86.7356 134.533 75.3412 134.233 66.3717C146.379 59.5794 158.915 54.169 172.155 50.1927C173.665 49.7364 174.954 49.5278 176.399 48.7195C179.497 52.0179 182.908 54.6514 186.891 56.8286C193.661 60.5181 200.625 63.3471 207.863 66.0588C210.74 67.1409 213.565 67.9883 216.156 69.631C213.253 77.9095 211.391 82.5507 211.912 91.1943C211.99 92.4328 212.498 93.6453 212.81 94.7795C214.463 100.816 219.619 104.701 225.841 105.092C246.136 106.369 266.223 68.8357 267.083 51.5355L267.46 44.0653L274.19 45.356C277.328 45.9557 280.205 46.7379 283.342 47.5723C284.344 47.833 286.388 47.6896 287.013 48.7456C289.734 53.4129 292.676 57.6238 296.087 61.8218C301.346 68.3273 308.727 72.6686 317.554 72.3557C316.226 77.2707 316.707 82.0032 318.009 86.8138C319.676 92.9804 323.737 98.1691 329.869 100.229C334.139 101.663 339.841 99.7988 343.056 97.0088C346.271 94.2189 348.706 91.1291 350.724 87.1267C353.457 89.4864 355.775 91.9244 358.17 94.4796C360.565 97.0349 363.143 99.6293 365.382 102.537C365.681 102.915 366.202 103.071 366.293 103.501C366.462 104.427 361.516 109.811 361.997 117.334C362.258 121.519 364.08 125.417 367.634 127.594C370.316 129.236 373.323 130.527 376.421 131.101C379.52 131.674 382.331 131.101 385.56 131.27C387.526 134.908 389.765 138.467 391.353 142.352C392.316 144.698 394.087 146.08 397.094 145.976C393.865 151.647 391.444 161.542 392.655 167.865C394.009 174.892 398.708 180.811 404.84 184.475C405.608 184.931 406.011 185.778 405.959 186.652C405.855 188.399 406.272 189.963 406.519 191.606L407.105 195.543L407.743 201.071L408.224 207.198C408.927 216.011 408.992 224.746 408.237 233.559L407.743 239.361L407.118 245.214L406.493 250.129L404.736 261.889C404.696 262.189 404.15 262.358 403.941 262.215C399.411 259.32 393.892 258.238 388.593 257.586C385.833 257.247 381.876 257.964 382.188 256.713C382.813 254.184 382.475 251.746 382.227 249.204C381.329 240.26 376.538 231.929 366.254 232.881C361.503 233.324 357.376 235.502 353.77 238.644C352.533 239.713 351.791 241.16 350.776 242.424C349.838 243.585 349.76 244.797 349.253 246.166C345.191 257.143 341.272 266.608 339.02 278.211C337.51 286.007 336.703 294.859 342.314 301.208C345.464 304.781 350.086 306.567 354.785 305.693C362.948 304.181 368.676 296.15 372.529 289.136L377.97 290.244C379.65 289.957 381.225 290.375 382.865 290.479C388.033 290.792 392.785 289.827 398.161 288.419C390.962 309.656 382.227 329.382 366.528 345.156C362.544 349.159 358.105 352.418 353.549 355.638C349.279 358.65 344.67 360.631 340.231 363.135C338.018 364.386 337.432 367.137 338.461 369.132C339.489 371.126 342.171 372.443 344.579 371.348C349.825 368.962 354.785 366.198 359.602 363.004C363.481 360.436 366.684 357.346 370.381 354.556C371.761 353.513 372.737 351.87 374.299 351.023C375.666 350.541 377.97 350.671 379.585 350.906C389.96 352.353 398.76 358.089 405.373 366.068C410.958 372.808 414.668 380.435 415.814 389.17C417.259 400.147 412.26 410.133 401.806 414.435C391.353 418.738 381.902 420.172 372.229 425.53C355.553 434.773 351.518 450.678 348.055 468.005L345.777 479.412C343.303 491.797 338.044 506.008 328.541 514.638C323.555 519.175 316.825 522.356 310.003 521.47C305.199 520.857 301.346 517.819 298.86 513.713C295.267 507.781 293.353 501.406 291.491 494.679C288.237 482.932 285.008 471.329 280.179 460.039C273.058 443.417 261.81 429.037 248.167 417.369C244.678 414.383 241.216 411.997 237.219 409.872C237.011 409.755 237.18 409.377 237.44 409.247C239.185 409.547 244.444 408.608 246.358 408.256C258.595 406.066 278.018 400.994 288.771 395.023C291.023 393.772 291.817 391.19 290.945 389.143C290.072 387.097 287.469 385.506 285.034 386.575C280.14 388.713 275.492 390.904 270.272 392.494C261.224 395.258 252.346 397.761 242.96 399.195C237.31 400.056 226.336 400.408 220.946 399.886L214.398 399.26L214.385 399.312ZM181.463 125.677C185.72 121.701 188.896 117.281 191.838 112.262C195.861 105.418 198.321 98.0909 199.271 90.1513C200.013 83.9196 199.232 76.1234 195.145 71.0911C189.573 64.3249 180.773 64.1554 174.16 69.5658C170.241 62.9951 163.485 63.1255 156.989 63.7122C149.972 65.081 144.465 69.4094 141.497 75.8757C139.857 79.4479 139.519 83.3199 140.091 87.3484C141.029 94.0364 145.494 102.876 151.873 106.122C149.764 111.793 147.733 117.699 149.035 123.604C150.102 128.441 154.047 133.539 159.137 134.06C168.262 134.986 174.85 131.87 181.476 125.677H181.463ZM291.179 127.698C295.931 132.026 301.164 134.412 307.399 133.434C313.01 132.561 316.746 127.881 317.645 122.327C318.543 116.773 317.801 111.558 315.978 106.291C313.258 98.4168 309.274 91.3638 304.77 84.415C302.127 80.3475 299.654 76.4363 296.529 72.7599C295.241 71.2476 293.639 70.0742 291.739 69.4876C290.489 69.0965 289.317 69.631 288.146 70.0091C286.974 70.3871 285.776 69.6571 284.657 70.1003C277.276 73.0597 272.85 77.9486 270.884 85.823C270.181 88.639 270.506 94.6882 271.431 97.3608C275.44 108.886 282.053 119.38 291.166 127.685L291.179 127.698ZM294.538 163.55C297.245 163.733 299.445 162.168 299.849 159.743C300.174 157.709 299.159 155.076 296.673 154.346L242.869 138.662C241.085 138.141 239.458 138.141 237.87 138.91C236.191 139.731 235.149 141.413 235.214 143.16C235.397 147.971 240.526 147.919 242.205 148.401L290.372 162.312C291.817 162.729 292.858 163.433 294.538 163.55ZM378.426 187.004C378.778 182.884 378.686 179.038 378.465 175.049C377.124 165.818 374.677 156.966 370.212 148.831C367.4 143.695 363.104 137.489 356.517 138.154C355.111 138.297 353.757 138.102 352.377 138.349C343.225 140.018 339.658 147.932 338.708 156.484C337.393 168.361 339.528 180.511 345.36 190.941C348.537 196.638 353.366 201.058 359.472 203.026C364.718 204.708 370.303 203.196 373.701 199.037C376.525 195.569 377.697 191.515 378.439 187.004H378.426ZM93.5777 207.746C97.8477 206.625 101.245 204.356 104.305 201.423C108.184 197.694 111.386 193.561 114.172 188.907C118.013 182.48 121.723 176.261 125.042 169.56C128.792 161.986 132.437 150.748 126.318 143.629C121.788 138.362 114.563 138.089 108.835 141.504C103.107 144.92 106.817 142.3 102.092 147.827C93.005 158.439 84.7906 169.599 77.9821 181.789C75.5868 186.078 74.3761 190.576 75.053 195.282C76.3418 204.226 84.6734 210.079 93.6038 207.733L93.5777 207.746ZM137.449 183.562L196.564 157.722C199.441 156.458 199.779 152.625 198.282 150.539C196.512 148.062 193.192 147.775 190.823 149.861L133.595 175.023C131.265 176.04 130.992 179.142 131.786 181.007C132.502 182.675 135.04 184.631 137.436 183.588L137.449 183.562ZM223.459 182.623C224.618 191.019 226.219 198.92 228.861 206.755C230.267 210.914 232.09 214.668 234.004 218.54C236.047 222.699 238.872 226.011 242.114 229.27C247.139 234.328 253.322 237.548 260.482 238.513C264.453 239.048 270.545 238.983 274.594 238.096C283.524 236.14 291.609 231.356 297.428 224.277C302.908 217.615 305.173 207.85 304.158 199.324C303.117 190.563 301.034 182.024 297.167 174.162C295.983 171.75 293.301 170.59 291.036 171.464C288.901 172.285 287.169 174.931 288.237 177.265C290.84 182.897 292.845 188.529 293.835 194.696C294.056 196.051 294.46 197.433 294.564 198.828C294.811 201.853 294.967 204.891 294.499 207.863C293.639 213.326 291.01 218.241 286.792 221.708C279.502 227.705 271.457 230.339 262.084 229.166C257.605 228.605 253.687 226.858 250.328 223.964C246.332 220.509 243.272 216.454 241.124 211.605C239.901 208.828 238.664 206.259 237.688 203.339C235.175 195.83 233.991 188.19 232.52 180.511C232.025 177.917 229.122 176.535 227.039 177.083C224.735 177.695 223.081 179.859 223.459 182.636V182.623ZM142.005 228.37C144.296 233.077 146.639 237.275 149.998 241.081C155.348 247.157 162.534 251.172 170.397 252.867C172.142 253.245 173.665 253.297 175.344 253.506C184.027 254.588 194.22 252.098 201.328 246.844C208.436 241.59 212.511 233.846 214.464 225.268C215.674 219.948 215.713 214.642 215.193 209.167C214.463 201.605 211.56 190.837 208.827 183.744C207.863 181.254 205.051 180.277 202.838 181.15C200.625 182.024 199.271 184.592 200.092 187.082C203.307 196.795 207.121 209.545 205.793 219.766C205.064 225.411 203.307 230.756 199.818 235.228C193.713 243.076 183.559 244.953 174.212 243.819C168.145 243.076 162.873 240.351 158.421 236.193C155.947 233.898 154.203 231.069 152.524 228.044C148.345 220.535 145.598 212.452 144.114 203.952C143.645 201.253 142.461 198.92 139.479 198.489C137.839 198.255 136.095 199.441 135.314 200.458C134.103 202.022 134.285 203.6 134.637 205.36C136.225 213.313 138.386 220.9 142.031 228.357L142.005 228.37ZM97.6524 281.848C101.545 273.061 106.544 256.882 106.244 247.222C106.479 242.92 105.398 238.67 102.755 235.241C98.5246 229.739 90.9221 229.192 85.3764 232.998C82.981 234.641 81.6662 236.505 80.2603 238.943C77.0188 244.562 74.0637 250.038 71.7204 256.126C69.3772 262.215 66.8256 268.225 64.8208 274.574C63.519 278.719 62.7379 282.904 63.3238 287.168C64.1439 293.112 67.802 298.184 73.4258 300.035C84.374 303.646 93.799 290.518 97.6394 281.835L97.6524 281.848ZM170.124 306.058L171.387 299.97C174.342 300.178 176.854 299.97 179.575 299.67L185.121 299.057L189.755 298.471L194.364 297.858L198.79 297.336L203.346 296.711L207.278 296.163C208.644 295.968 209.842 295.785 211.196 295.563L214.867 294.964C216.091 294.768 217.327 294.612 218.642 294.351L242.088 289.866L252.476 287.559L279.723 281.053C281.819 280.558 283.811 280.101 285.737 279.254C287.937 278.289 289.031 275.838 288.289 273.596C287.729 271.901 285.568 269.854 283.29 270.402L266.718 274.417C247.725 279.019 228.94 283.269 209.621 286.151L205.012 286.842L201.38 287.402L196.798 287.989L192.124 288.602L187.477 289.136C185.121 289.41 178.885 290.362 176.971 290.283C175.761 290.231 174.654 290.961 173.248 290.518L175.175 279.632C175.644 276.999 174.316 274.391 171.829 273.739C169.551 273.14 166.622 274.43 166.127 277.064L163.355 291.835L160.439 305.824C159.801 308.9 162.183 311.821 165.203 311.638C168.223 311.456 169.538 308.783 170.111 306.045L170.124 306.058ZM232.91 352.144C237.61 345.026 237.414 335.274 232.155 328.56C229.799 325.549 226.648 323.306 223.029 322.459C220.855 321.95 218.369 322.12 216.208 322.485C206.054 324.219 200.053 335.326 201.602 344.765C202.812 352.196 208.215 358.206 215.726 359.497C222.326 360.644 229.213 357.724 232.91 352.131V352.144ZM153.669 374.138C165.268 375.676 176.138 369.927 178.495 357.933C178.534 354.96 178.872 352.014 178.351 349.146C176.854 340.854 171.452 334.31 163.719 331.285C157.366 328.808 150.219 329.069 144.478 333.032C142.734 334.231 141.159 336.043 139.935 337.79C137.41 341.376 136.264 345.574 135.366 349.824C134.793 352.522 135.001 355.038 135.327 357.698C136.42 366.941 145.103 372.599 153.682 374.138H153.669Z" fill="#FDFDFE"/>
<path d="M230.306 94.949C227.885 96.1223 224.605 96.1484 222.951 94.0364C218.981 88.978 222.847 78.6266 225.034 72.8251C229.838 60.0618 236.881 48.3023 245.759 38.0291C248.519 37.286 250.341 33.3227 252.685 33.6878C254.064 33.8964 255.132 35.2913 255.77 36.4256C258.425 41.158 258.347 47.1551 257.384 52.4872C255.275 64.1684 250.237 74.911 242.895 84.1804C239.38 88.626 235.54 92.4198 230.306 94.9359V94.949Z" fill="#F9C1F9"/>
<path d="M21.2103 170.707H16.0031C15.9771 170.447 16.2895 170.368 16.641 170.368H20.5724C20.9109 170.368 21.2364 170.447 21.2103 170.707Z" fill="#BEE9F2"/>
<path d="M52.0241 210.366C45.1896 214.095 35.4 210.327 29.0993 206.846L21.1192 202.44C17.1227 200.236 13.6338 197.433 10.913 193.744C9.54614 191.893 9.62424 187.682 10.0669 186.117C10.6266 184.188 12.0456 181.958 13.8942 181.059C16.5629 179.768 19.6091 180.094 22.5382 180.407C27.9016 180.981 32.6923 183.223 37.4569 185.635C44.6298 189.259 54.7058 196.586 55.2786 205.282C55.4218 207.42 53.8596 209.362 52.0241 210.366Z" fill="#BEE9F2"/>
<path d="M407.482 174.801C404.892 172.702 402.822 169.886 402.171 166.705C401.077 161.308 403.33 152.247 407.339 148.036C408.094 147.241 409.461 146.928 410.359 146.119C412.039 144.62 414.538 144.138 416.777 143.734C420.813 143.017 424.666 144.972 427.296 148.049C432.425 154.085 432.503 163.811 428.728 170.694C424.51 178.36 414.473 180.498 407.482 174.814V174.801Z" fill="#6583F6"/>
<path d="M219.814 60.7788L213.188 57.8846C204.843 54.7818 183.728 47.5723 180.981 38.342C180.604 37.0513 181.437 34.8481 182.153 33.8964C185.147 29.9201 198.594 32.1494 202.851 34.0267C208.436 36.1127 213.591 38.7462 218.981 41.2623L228.302 45.6167C225.047 50.5186 222.47 55.3554 219.814 60.7658V60.7788Z" fill="#BEE9F2"/>
<path d="M62.6598 166.262C59.2882 166.288 56.3721 164.749 53.9377 162.677C49.9152 159.274 46.5435 155.402 43.1067 151.373C40.1646 147.932 37.8474 144.203 35.5953 140.292C32.7834 135.403 29.1123 125.795 34.1893 121.519C35.4391 120.476 37.0663 119.85 38.4332 118.924C45.7103 113.996 73.7773 142.978 70.4186 159.691C69.6636 163.446 66.7866 166.223 62.6468 166.262H62.6598Z" fill="#F9C1F9"/>
<path d="M103.784 116.956C103.732 119.133 101.805 124.491 97.2879 123.735C90.18 122.535 85.6888 114.57 83.0461 108.39C80.0129 101.324 76.5371 91.3507 77.7217 83.7501C78.4768 78.8743 85.077 72.7468 88.5918 75.9018C91.3517 78.3658 93.3564 81.4035 95.1529 84.7018C99.4098 92.5371 102.443 100.907 103.797 109.772C104.161 112.171 103.849 114.557 103.797 116.956H103.784Z" fill="#6583F6"/>
<path d="M118.872 89.6559C116.698 93.554 114.758 97.1783 111.712 100.933C109.629 93.4106 107.038 86.3445 103.003 79.4088C105.619 74.1548 109.928 66.3587 114.745 63.0864C117.219 61.1047 123.363 60.7006 124.131 63.9729C124.431 65.2636 124.938 66.7368 124.86 68.1057C124.392 75.7063 122.178 82.8506 118.885 89.6429L118.872 89.6559Z" fill="#BEE9F2"/>
<path d="M351.192 296.189C343.433 293.53 349.812 272.37 351.817 266.738L355.345 256.817C356.686 253.05 357.975 249.373 360.214 246.009C361.945 243.402 365.733 241.942 368.78 242.45C373.375 243.207 373.063 254.849 372.633 258.251C371.344 268.316 368.129 277.872 363.052 286.62C360.982 290.192 355.605 297.701 351.179 296.189H351.192Z" fill="#BEE9F2"/>
<path d="M397.159 278.407C392.798 280.779 386.341 281.327 381.563 280.871C379.884 280.714 378.231 281.04 376.669 280.049C378.335 275.747 379.65 271.523 380.704 266.921C385.091 266.282 399.372 267.442 400.661 272.735C401.247 275.147 399.294 277.246 397.159 278.394V278.407Z" fill="#FB9AFA"/>
<path d="M321.915 60.8049C316.851 64.8333 309.977 62.2781 305.603 58.1714C304.288 56.9329 303.299 55.5509 302.114 54.1169C295.345 45.8905 290.932 36.2691 289.161 25.7743C288.836 23.8318 288.64 22.3586 289.369 20.39C290.775 16.5832 293.21 13.1153 296.647 10.7817C297.558 10.1689 298.795 10.1689 299.901 9.60832C308.324 12.998 317.228 27.5995 321.016 35.4869C322.813 39.2416 323.997 42.9702 324.779 47.0638C325.273 49.6452 324.909 52.2917 324.896 54.873C324.037 57.0111 323.776 59.3187 321.915 60.7919V60.8049Z" fill="#BEE9F2"/>
<path d="M332.576 91.0248C327.148 89.3561 325.443 80.204 326.549 75.2108C326.679 74.6372 327.434 69.5919 327.291 68.7705C331.743 65.2375 334.008 59.3317 334.477 53.7388C334.633 51.8223 334.829 50.1406 334.438 48.185C334.178 46.8813 334.438 45.5385 333.813 44.2608C335.453 41.145 336.417 37.3512 340.609 36.217C342.665 35.6564 344.696 36.9862 345.894 38.681C350.32 44.9518 349.305 55.9942 348.094 63.308C346.883 70.6218 344.891 77.6879 341.494 84.2716C340.127 86.9051 335.987 92.0678 332.589 91.0118L332.576 91.0248Z" fill="#F9C1F9"/>
<path d="M358.456 56.6852V48.537C359.211 50.8837 358.547 53.4259 358.834 56.0333C358.873 56.3462 358.508 56.5548 358.456 56.6852Z" fill="#6583F6"/>
<path d="M410.815 109.094C402.509 115.482 389.088 123.265 378.322 121.753C376.226 121.453 374.065 120.554 372.412 119.224C371.318 118.351 371.305 116.356 371.592 115.013C373.687 104.922 386.471 98.5342 395.115 94.623C400.296 92.2764 405.204 89.9818 410.555 88.0133C413.627 86.879 417.142 86.9572 419.706 89.1605C421.711 90.8814 422.037 93.9451 421.19 96.4091C419.615 100.959 414.538 106.226 410.815 109.094Z" fill="#BEE9F2"/>
<path d="M430.98 97.074V91.2073C431.514 91.5202 431.475 96.1875 430.98 97.074Z" fill="#BEE9F2"/>
<path d="M181.463 125.677C174.837 131.87 168.249 134.986 159.124 134.06C154.034 133.539 150.089 128.441 149.022 123.604C147.72 117.699 149.751 111.806 151.86 106.122C145.481 102.876 141.016 94.0364 140.078 87.3484C139.518 83.3199 139.844 79.4479 141.484 75.8757C144.465 69.4224 149.972 65.081 156.976 63.7122C163.472 63.1385 170.241 62.9951 174.147 69.5658C180.747 64.1554 189.56 64.3119 195.132 71.0911C199.219 76.1365 200 83.9326 199.258 90.1513C198.308 98.0779 195.848 105.418 191.825 112.262C188.883 117.268 185.707 121.701 181.45 125.677L181.463 125.677ZM161.792 87.7655C163.771 84.4281 165.594 81.3252 167.976 78.079C167.221 76.658 166.661 74.6242 165.229 73.6073C158.798 70.9868 151.261 74.6503 149.516 81.5078C148.254 86.5009 151.482 94.245 155.869 97.7259L161.792 87.7655ZM160.373 124.478C163.784 125.599 167.104 124.178 169.929 122.575C174.954 119.706 178.586 115.391 181.762 110.58C185.928 104.27 188.805 97.4521 189.742 89.9036C190.263 85.7448 190.302 80.0215 187.516 76.7623C185.85 74.8197 183.207 74.6763 181.215 76.2277C180.018 79.122 177.336 80.9472 175.448 83.8153C170.892 90.725 166.622 97.6737 162.873 105.092C160.673 109.446 158.824 113.696 158.121 118.52C157.835 120.502 158.317 123.787 160.373 124.465V124.478Z" fill="#324FB6"/>
<path d="M223.459 182.623C223.081 179.846 224.735 177.682 227.039 177.069C229.122 176.522 232.025 177.904 232.52 180.498C233.991 188.177 235.175 195.83 237.688 203.326C238.664 206.246 239.901 208.815 241.124 211.592C243.259 216.441 246.319 220.496 250.328 223.951C253.687 226.845 257.605 228.592 262.084 229.153C271.457 230.326 279.502 227.692 286.792 221.695C291.01 218.227 293.626 213.312 294.499 207.85C294.967 204.878 294.798 201.84 294.564 198.815C294.447 197.433 294.056 196.051 293.835 194.683C292.845 188.529 290.827 182.897 288.237 177.252C287.156 174.918 288.901 172.272 291.036 171.45C293.301 170.577 295.983 171.737 297.167 174.149C301.047 182.024 303.117 190.55 304.158 199.311C305.173 207.837 302.895 217.589 297.428 224.264C291.622 231.33 283.524 236.127 274.594 238.083C270.532 238.969 264.453 239.035 260.482 238.5C253.322 237.535 247.152 234.315 242.114 229.257C238.872 225.998 236.06 222.686 234.004 218.527C232.103 214.655 230.267 210.901 228.861 206.742C226.219 198.92 224.618 191.006 223.459 182.61V182.623Z" fill="#324FB6"/>
<path d="M142.005 228.37C138.373 220.926 136.199 213.326 134.611 205.373C134.259 203.613 134.077 202.035 135.288 200.471C136.069 199.454 137.813 198.281 139.453 198.502C142.435 198.92 143.619 201.253 144.088 203.965C145.572 212.465 148.319 220.548 152.498 228.057C154.177 231.082 155.934 233.898 158.395 236.206C162.847 240.364 168.119 243.089 174.186 243.832C183.533 244.967 193.687 243.089 199.792 235.241C203.281 230.769 205.038 225.424 205.767 219.779C207.082 209.558 203.281 196.821 200.066 187.095C199.245 184.605 200.651 182.011 202.812 181.163C204.973 180.316 207.85 181.267 208.801 183.757C211.534 190.85 214.437 201.618 215.166 209.18C215.7 214.655 215.648 219.961 214.437 225.281C212.485 233.859 208.449 241.577 201.302 246.857C194.155 252.137 184.014 254.588 175.318 253.519C173.639 253.31 172.116 253.258 170.371 252.88C162.508 251.198 155.322 247.183 149.972 241.095C146.613 237.275 144.27 233.077 141.979 228.383L142.005 228.37Z" fill="#324FB6"/>
<path d="M170.124 306.058C169.551 308.796 168.314 311.456 165.216 311.651C162.118 311.847 159.814 308.926 160.452 305.837L163.368 291.848L166.14 277.077C166.635 274.443 169.564 273.153 171.842 273.752C174.329 274.404 175.657 277.012 175.188 279.645L173.261 290.531C174.654 290.974 175.761 290.244 176.985 290.296C178.898 290.375 185.134 289.423 187.49 289.149L192.138 288.615L196.811 288.002L201.393 287.415L205.025 286.855L209.634 286.164C228.953 283.282 247.738 279.032 266.731 274.43L283.303 270.415C285.581 269.867 287.742 271.914 288.302 273.609C289.044 275.851 287.951 278.302 285.75 279.267C283.824 280.114 281.832 280.558 279.736 281.066L252.489 287.572L242.101 289.879L218.655 294.364C217.354 294.612 216.104 294.768 214.88 294.977L211.209 295.576C209.855 295.798 208.657 295.981 207.291 296.176L203.359 296.724L198.803 297.349L194.377 297.871L189.768 298.484L185.134 299.07L179.588 299.683C176.867 299.983 174.355 300.179 171.4 299.983L170.137 306.071L170.124 306.058Z" fill="#324FB6"/>
<path d="M97.6524 281.848C93.7991 290.531 84.387 303.659 73.4388 300.048C67.815 298.197 64.1569 293.125 63.3368 287.181C62.751 282.904 63.519 278.733 64.8339 274.587C66.8386 268.238 69.3381 262.358 71.7334 256.139C74.1288 249.921 77.0318 244.562 80.2733 238.956C81.6792 236.505 82.9941 234.654 85.3894 233.012C90.9221 229.218 98.5376 229.752 102.769 235.254C105.411 238.683 106.492 242.946 106.257 247.235C106.557 256.882 101.558 273.074 97.6654 281.861L97.6524 281.848ZM89.3599 277.377C93.1351 268.212 95.8299 258.786 96.9494 248.943C97.2619 246.192 96.7411 240.625 93.4736 239.999C92.6144 239.843 90.9351 240.273 90.2451 241.225C87.5243 244.98 85.2071 248.969 83.2284 253.323C79.4792 261.576 76.4069 269.867 73.4518 278.394C73.0483 279.554 73.0352 280.571 72.8139 281.731C72.3323 284.365 72.4364 287.22 74.0637 289.345C79.2449 296.059 87.6155 281.562 89.3339 277.364L89.3599 277.377Z" fill="#324FB6"/>
<path d="M291.179 127.698C282.053 119.393 275.44 108.899 271.444 97.3739C270.519 94.7013 270.181 88.6521 270.897 85.8361C272.863 77.9747 277.289 73.0728 284.67 70.1134C285.79 69.6571 287.052 70.3741 288.159 70.0221C289.33 69.644 290.502 69.1225 291.752 69.5006C293.652 70.0873 295.254 71.2606 296.542 72.7729C299.667 76.4494 302.14 80.3605 304.783 84.4281C309.3 91.3768 313.271 98.4299 315.991 106.304C317.814 111.571 318.543 116.916 317.658 122.34C316.772 127.763 313.023 132.561 307.413 133.447C301.177 134.425 295.944 132.026 291.192 127.711L291.179 127.698ZM308.285 121.18C310.55 112.862 302.309 97.8954 297.818 91.09C294.993 86.8008 292.468 82.4725 289.083 78.6396C288.588 78.079 287.573 79.148 287.052 79.3827C283.251 81.0645 280.14 84.8452 280.022 89.2387C279.97 91.3116 279.957 93.1759 280.686 95.1967C284.032 104.583 289.565 113.201 296.751 120.071C298.821 122.04 301.138 123.631 303.728 124.256C306.111 124.843 307.699 123.331 308.285 121.193V121.18Z" fill="#324FB6"/>
<path d="M378.426 187.004C377.684 191.528 376.525 195.582 373.687 199.037C370.29 203.183 364.705 204.708 359.459 203.026C353.366 201.071 348.537 196.638 345.347 190.941C339.528 180.511 337.38 168.361 338.695 156.484C339.645 147.919 343.225 140.005 352.364 138.349C353.731 138.102 355.098 138.297 356.504 138.154C363.091 137.489 367.387 143.695 370.199 148.831C374.664 156.966 377.111 165.818 378.452 175.049C378.673 179.051 378.765 182.884 378.413 187.004H378.426ZM366.697 192.61C368.194 190.485 368.689 188.047 369.053 185.504C370.602 174.853 365.616 156.953 358.56 148.466C357.727 147.462 356.79 147.658 355.618 147.632C353.666 147.593 351.804 148.036 350.541 149.783C349.122 151.791 348.68 154.255 348.263 156.693C347.482 161.138 347.612 165.258 348.25 169.756C349.461 178.321 353.106 190.615 361.945 193.887C363.82 194.578 365.59 194.2 366.697 192.623V192.61Z" fill="#324FB6"/>
<path d="M153.669 374.138C145.103 372.599 136.42 366.928 135.314 357.698C135.001 355.025 134.78 352.509 135.353 349.824C136.251 345.574 137.397 341.376 139.922 337.79C141.146 336.043 142.734 334.231 144.465 333.032C150.206 329.069 157.34 328.808 163.706 331.285C171.452 334.31 176.854 340.854 178.338 349.146C178.859 352.014 178.521 354.96 178.482 357.933C176.125 369.927 165.255 375.676 153.656 374.138H153.669ZM162.587 364.047C166.856 362.417 169.096 358.989 169.317 354.765C169.681 347.842 165.958 341.936 159.358 339.746C155.127 338.338 150.389 339.159 147.733 343.136C145.077 347.112 142.487 356.616 146.952 360.788C151.079 364.647 157.223 366.107 162.587 364.06V364.047Z" fill="#324FB6"/>
<path d="M232.91 352.144C229.213 357.737 222.326 360.657 215.726 359.51C208.215 358.207 202.812 352.196 201.602 344.778C200.053 335.339 206.054 324.232 216.208 322.498C218.369 322.133 220.855 321.963 223.029 322.472C226.648 323.319 229.799 325.562 232.155 328.573C237.414 335.287 237.61 345.026 232.91 352.157V352.144ZM226.505 338.39C226.024 335.626 224.331 333.032 221.519 331.937C219.124 330.998 216.143 331.911 214.177 333.736C211.704 336.017 210.597 339.55 210.923 342.875C211.326 347.06 214.646 350.502 218.916 350.319C224.409 350.084 227.599 344.609 226.505 338.39Z" fill="#324FB6"/>
<path d="M137.449 183.562C135.04 184.618 132.515 182.662 131.799 180.981C131.005 179.129 131.278 176.026 133.608 174.997L190.836 149.835C193.205 147.749 196.525 148.036 198.295 150.513C199.792 152.599 199.454 156.445 196.577 157.696L137.462 183.536L137.449 183.562Z" fill="#324FB6"/>
<path d="M294.538 163.55C292.858 163.433 291.817 162.729 290.372 162.312L242.205 148.401C240.526 147.919 235.397 147.971 235.214 143.16C235.149 141.413 236.191 139.731 237.87 138.91C239.549 138.089 241.085 138.141 242.869 138.662L296.673 154.346C299.159 155.076 300.174 157.709 299.849 159.743C299.458 162.168 297.245 163.746 294.538 163.55Z" fill="#324FB6"/>
<path d="M160.373 124.478C158.317 123.8 157.835 120.515 158.121 118.533C158.811 113.709 160.673 109.459 162.873 105.105C166.609 97.6868 170.892 90.725 175.448 83.8284C177.349 80.9602 180.031 79.135 181.215 76.2408C183.207 74.6894 185.85 74.8328 187.516 76.7753C190.315 80.0215 190.263 85.7448 189.742 89.9167C188.805 97.4651 185.928 104.284 181.762 110.593C178.586 115.391 174.941 119.719 169.929 122.588C167.117 124.191 163.784 125.599 160.373 124.491V124.478Z" fill="#F9C1F9"/>
<path d="M161.792 87.7655L155.869 97.7259C151.482 94.245 148.254 86.5009 149.516 81.5078C151.261 74.6503 158.798 70.9868 165.229 73.6073C166.661 74.6242 167.221 76.658 167.976 78.079C165.581 81.3122 163.771 84.4281 161.792 87.7655Z" fill="#FB9AFA"/>
<path d="M93.5777 207.746C84.6474 210.092 76.3158 204.239 75.027 195.295C74.3501 190.589 75.5607 186.091 77.9561 181.802C84.7645 169.612 92.9919 158.439 102.066 147.84C106.791 142.313 103.081 144.933 108.809 141.517C114.537 138.102 121.762 138.362 126.292 143.642C132.411 150.761 128.779 161.999 125.016 169.573C121.697 176.261 117.987 182.493 114.146 188.92C111.36 193.574 108.158 197.707 104.279 201.436C101.219 204.369 97.8216 206.638 93.5517 207.759L93.5777 207.746ZM113.717 170.786C116.229 166.392 123.038 153.707 118.82 149.535C117.219 147.945 114.784 149.014 113.261 150.044C111.634 151.139 110.775 152.234 109.525 153.668C100.842 163.798 92.9789 174.436 86.3918 186.065C85.129 188.307 84.2047 190.628 84.3479 193.105C84.4781 195.23 85.3894 197.42 87.3681 198.216C97.6394 202.309 109.707 177.76 113.704 170.773L113.717 170.786Z" fill="#324FB6"/>
<path d="M113.717 170.786C109.72 177.76 97.6524 202.322 87.3811 198.229C85.4024 197.433 84.4781 195.243 84.361 193.118C84.2178 190.641 85.129 188.307 86.4048 186.078C92.9789 174.449 100.855 163.811 109.538 153.681C110.775 152.234 111.634 151.139 113.274 150.057C114.81 149.04 117.232 147.958 118.833 149.548C123.051 153.72 116.242 166.405 113.73 170.799L113.717 170.786Z" fill="#BEE9F2"/>
<path d="M89.3599 277.377C87.6285 281.575 79.2579 296.072 74.0897 289.358C72.4494 287.233 72.3583 284.391 72.84 281.744C73.0483 280.584 73.0743 279.567 73.4779 278.407C76.433 269.88 79.5052 261.589 83.2544 253.336C85.2332 248.982 87.5374 244.993 90.2712 241.238C90.9611 240.286 92.6404 239.856 93.4996 240.012C96.7672 240.625 97.2879 246.205 96.9755 248.956C95.8559 258.786 93.1612 268.225 89.3859 277.39L89.3599 277.377Z" fill="#FB9AFA"/>
<path d="M308.285 121.18C307.699 123.318 306.124 124.817 303.728 124.243C301.151 123.617 298.821 122.027 296.751 120.058C289.565 113.188 284.032 104.57 280.686 95.1836C279.97 93.1629 279.97 91.2986 280.022 89.2257C280.127 84.8322 283.251 81.0645 287.052 79.3697C287.573 79.135 288.588 78.079 289.083 78.6266C292.468 82.4725 294.993 86.8008 297.818 91.077C302.296 97.8823 310.55 112.849 308.285 121.167L308.285 121.18Z" fill="#FB9AFA"/>
<path d="M366.697 192.61C365.59 194.187 363.82 194.578 361.945 193.874C353.106 190.602 349.461 178.308 348.25 169.743C347.612 165.258 347.495 161.138 348.263 156.679C348.693 154.255 349.122 151.778 350.541 149.77C351.804 148.036 353.666 147.593 355.618 147.619C356.79 147.645 357.727 147.436 358.56 148.453C365.603 156.927 370.589 174.827 369.053 185.491C368.689 188.034 368.194 190.472 366.697 192.597V192.61Z" fill="#F9C1F9"/>
<path d="M162.587 364.047C157.21 366.094 151.079 364.647 146.952 360.775C142.5 356.603 144.986 347.242 147.733 343.123C150.48 339.003 155.14 338.338 159.358 339.733C165.958 341.923 169.668 347.842 169.317 354.752C169.096 358.976 166.856 362.404 162.587 364.034V364.047Z" fill="#FB9AFA"/>
<path d="M226.505 338.39C227.599 344.596 224.409 350.084 218.916 350.319C214.646 350.502 211.339 347.047 210.923 342.875C210.597 339.55 211.704 336.017 214.177 333.736C216.143 331.924 219.124 331.011 221.519 331.937C224.318 333.032 226.011 335.639 226.505 338.39Z" fill="#BEE9F2"/>
<path d="M299.914 0C300.786 1.73393 301.658 -0.690965 306.176 1.90341C310.927 4.61512 314.677 8.50017 318.074 12.7503C318.829 13.702 319.532 14.4972 320.209 15.488L322.709 19.2036C324.505 21.8632 326.119 24.4836 327.604 27.3257C328.411 28.8771 329.543 30.2199 329.699 32.1494C332.277 29.6984 334.555 27.5864 337.914 26.9867C340.257 26.5695 343.108 26.4001 345.464 27.0519C351.14 28.6424 356.217 35.0045 356.998 40.3628C357.129 41.2232 358.105 43.6611 358.209 46.2555C358.235 46.9726 358.261 47.9634 358.443 48.537V56.6852C358.196 59.8401 357.662 62.252 357.363 65.4461C357.115 68.1839 355.358 75.263 355.371 75.2239C355.332 75.9279 354.278 77.023 354.798 77.6488C355.84 78.8873 357.142 79.7999 358.326 80.9211C360.787 83.2678 363.156 85.5753 365.473 88.0784L369.834 92.7848C370.967 94.0103 371.774 95.3661 373.089 96.6047C374.377 94.8316 381.655 90.4512 383.438 89.5647L389.088 86.7747L395.584 83.8284C399.541 82.0292 408.094 78.0269 412.078 77.9226C414.291 77.8704 416.608 77.5966 418.613 78.1051C425.473 79.8651 430.004 84.4932 430.954 91.2204V97.0871C429.926 98.9253 430.824 101.572 425.226 108.286C423.989 109.772 422.844 111.337 421.412 112.614C419.016 114.752 416.777 116.851 414.135 118.676C408.198 122.77 402.171 126.381 395.31 128.937L401.195 140.448C402.34 138.793 407.417 135.716 409.344 135.416C416.855 134.256 416.986 132.431 425.669 135.377C431.305 137.293 435.38 141.817 438.01 147.006C440.626 152.169 438.999 150.748 440.314 153.811C440.717 154.75 440.275 156.028 441.056 156.706V163.876C440.288 164.228 440.197 167.696 439.351 169.99C438.7 171.763 438.557 173.81 437.02 175.205C436.695 176.939 435.38 178.008 434.378 179.312C430.589 184.279 422.141 188.36 415.58 187.59C415.957 188.164 416.309 194.239 416.322 194.161C416.087 195.191 416.673 195.934 416.894 196.808C417.272 198.359 416.634 200.028 417.116 201.514C417.48 202.648 417.637 203.535 417.623 204.591V209.167C417.61 209.506 417.715 209.832 417.949 209.806V228.044C417.949 229.531 417.949 231.004 417.649 232.607C417.35 234.211 418.014 236.153 417.48 237.718C416.947 239.282 417.038 240.716 416.894 242.385C416.79 243.65 415.71 250.442 416.022 251.498C416.296 252.437 415.606 253.128 415.502 253.897L414.838 258.421C414.33 261.85 413.223 268.016 412.494 271.393L411.974 273.818L411.297 276.347L410.646 278.928C410.346 280.114 410.398 281.34 409.917 282.513C408.381 286.268 408.316 288.38 406.727 292.956L404.111 300.504L398.93 313.229C397.797 316.005 396.482 318.496 395.128 321.194C391.587 328.273 387.526 334.896 382.54 341.258C383.1 342.132 384.362 341.819 385.339 342.132L390.572 343.788C400.96 347.086 411.18 356.707 417.116 365.99L418.639 368.375C422.128 373.825 423.156 379.926 424.367 382.221C424.77 382.99 424.093 384.268 424.497 384.959C425.304 386.301 424.927 387.54 425.135 388.961C425.578 392.077 425.447 398.074 424.575 400.707C424.224 401.776 424.471 402.885 423.794 403.927C422.948 405.257 422.792 406.939 422.024 408.321C419.042 413.679 415.514 418.034 409.904 421.058L409.669 428.607C409.604 430.523 409.149 432.596 408.667 434.46L408.003 437.029L407.378 439.349C406.949 440.927 406.884 442.204 406.884 443.678C406.675 443.651 406.493 443.99 406.519 444.316C406.74 447.276 406.181 450.118 406.884 452.803C407.391 454.785 407.157 457.014 407.808 459.009L409.904 465.436C411.023 468.865 412.325 472.203 413.236 475.723C414.265 479.647 414.786 483.245 415.866 487.404C416.218 488.747 415.853 490.324 416.296 491.563V496.465C416.296 496.791 416.348 497.103 416.582 497.103V499.711C416.478 499.685 416.296 499.841 416.296 500.063V511.77C416.296 512.826 416.061 513.687 415.944 514.703C415.202 520.87 415.944 527.193 415.593 533.594C415.58 533.92 415.879 534.142 415.983 534.246C416.348 534.702 416.309 535.902 416.309 536.514V544.011C415.996 544.884 416.1 546.097 415.788 547.075L414.994 549.565C413.861 553.085 410.073 556.97 407.209 559.251C403.746 562.002 400.062 563.905 396.196 565.874C388.033 570.02 385.104 570.971 376.656 574.035L367.126 577.477L353.9 582.196L345.048 585.338L326.705 592.013L321.094 593.956C318.829 594.738 316.759 595.703 314.455 596.433C313.544 596.72 312.503 597.098 311.591 597.437L304.679 599.979L296.607 602.925L287.898 605.963C287.234 606.198 286.714 606.432 285.998 606.667L276.976 609.613L268.111 612.455C265.039 613.433 260.547 614.633 257.397 615.402L248.519 617.566L245.655 617.983C238.221 619.065 239.575 619.169 231.322 618.857C227.221 618.7 221.428 616.94 217.523 615.389L154.32 590.253L148.852 588.089C124.3 578.376 100.152 568.155 76.1596 557.139L72.7358 555.562L54.862 546.149C47.8974 542.472 37.2616 535.133 32.4709 528.823C28.6567 523.803 26.3134 520.153 25.1938 513.687L24.569 510.075C24.1915 507.885 24.4258 500.715 24.8424 498.107C25.1288 496.308 25.0116 494.666 25.1418 492.853L25.4933 487.977C26.0921 479.621 26.5347 483.349 25.4933 474.601L25.0637 471.068L21.5618 457.718C21.3145 456.767 21.3926 455.958 20.963 455.033C20.4813 454.003 21.1582 452.608 20.8719 451.526C20.1168 448.801 20.9109 441.787 21.4056 438.75L21.9133 435.699L22.9938 430.562C24.4909 423.444 25.5974 422.166 22.6423 414.918C14.3107 412.232 8.98636 403.523 8.14018 395.193C7.61946 390.03 7.86681 385.78 9.0905 380.748C14.1155 361.583 28.1229 343.827 46.4133 335.718C39.0451 325.666 33.942 314.989 30.5313 303.451L28.2661 295.824C28.3572 294.312 27.7584 292.943 27.472 291.574L26.8471 288.589L26.1962 284.664L25.4933 279.802C25.5584 280.245 24.5039 268.277 24.5299 269.046L24.2826 258.499C24.2175 255.892 24.2305 253.297 24.2826 250.69L24.5039 240.091C24.4909 240.912 25.5584 227.653 25.5063 228.084C25.7406 226.167 26.0791 224.459 26.1702 222.556C26.2353 221.096 27.0424 219.805 26.6519 218.227C26.5347 217.745 27.2247 217.419 27.446 216.833C22.8766 214.655 18.6067 212.152 14.2196 209.61C10.6136 207.524 6.16144 203.43 3.47972 200.067C1.33174 197.368 0.0820015 193.796 0.0169112 190.276C-0.0481791 187.277 0.0169111 184.383 1.27966 181.724C2.62052 178.882 4.36495 176.261 6.63009 174.084C8.56978 172.233 13.1391 170.707 15.951 170.707H21.1582C23.2411 170.707 25.0767 170.72 27.1596 171.503C28.4223 171.972 29.8543 171.816 31.1171 172.428C33.0177 173.367 35.1136 173.549 36.9882 174.905L39.6048 167.37C40.0475 166.092 40.3469 164.841 41.2972 163.68C35.2178 157.957 28.6046 148.74 25.1288 141.035C22.6033 135.442 21.7701 131.596 22.1737 125.417C22.4861 120.619 24.9335 116.604 28.3963 113.462C29.3987 112.549 30.323 111.206 31.755 111.024C33.6035 110.776 35.2698 109.303 38.0948 108.964C46.3612 107.947 53.4691 112.992 59.197 118.272C60.2385 119.237 61.332 119.954 62.1131 121.427C64.0398 118.311 65.8623 115.704 67.9582 113.005L72.2542 107.425C70.5228 103.462 68.2186 94.9881 67.9191 90.8814L67.6848 87.6221C67.073 78.9264 71.9938 71.0651 79.5313 66.9323C81.5751 65.8111 83.5278 65.4461 85.8841 65.407C90.9872 65.3288 93.2653 66.9323 96.6891 70.5175C100.464 64.2597 102.326 61.0004 107.793 56.1767C110.085 54.156 112.923 53.113 115.787 52.1092L121.879 52.2395C125.563 52.3178 128.961 53.8952 131.187 57.0241C144.036 49.9711 157.457 44.4043 171.53 40.2976C170.853 38.8374 171.022 37.6771 171.27 36.4125L171.868 33.4531C172.558 30.0504 173.743 28.6033 176.138 26.2567C177.922 24.5097 179.953 23.6232 182.309 22.9061C183.311 22.6063 184.34 22.6454 185.342 22.4107C188.727 21.6285 191.838 21.6546 195.223 22.4107C196.42 22.6715 197.631 22.6193 198.894 22.9192L203.658 24.0664C207.98 25.1094 211.847 27.1823 215.856 29.1118L221.194 31.667C222.405 32.2407 223.446 32.9577 224.748 32.9186C226.505 32.8665 228.393 33.1402 229.955 32.2667L237.948 32.2146C239.575 30.9109 240.604 29.1509 242.296 28.0036C244.6 26.4522 247.139 25.0442 249.938 24.3141C252.034 23.7666 255.002 24.1968 257.033 25.0051C260.547 26.4001 263.034 29.4377 264.583 32.697C265 33.5574 265.065 34.6525 266.354 34.5482C269.947 34.2745 272.094 35.3696 275.362 35.9302L280.335 36.7906C280.712 36.8558 281.155 37.3642 281.494 37.1165C281.949 36.7906 281.233 34.809 280.869 33.2967L280.231 30.7153C279.228 26.6347 278.734 20.7159 280.283 16.8309C281.48 13.8193 282.899 10.7556 285.191 8.42195L289.864 3.66342C291.127 2.37275 292.728 1.89038 294.381 1.32978C298.013 0.104297 297.532 0.97778 298.886 0H299.914ZM321.915 60.8049C323.776 59.3317 324.037 57.0241 324.896 54.8861C324.922 52.3047 325.286 49.6452 324.779 47.0769C323.997 42.9963 322.826 39.2677 321.016 35.4999C317.228 27.6125 308.324 13.011 299.901 9.62136C298.795 10.182 297.558 10.1689 296.647 10.7947C293.197 13.1153 290.775 16.5962 289.369 20.403C288.64 22.3716 288.823 23.8448 289.161 25.7873C290.932 36.2822 295.345 45.9035 302.114 54.1299C303.299 55.564 304.275 56.959 305.603 58.1844C309.977 62.2911 316.851 64.8333 321.915 60.8179V60.8049ZM219.814 60.7788C222.47 55.3815 225.047 50.5317 228.302 45.6297L218.981 41.2754C213.591 38.7592 208.436 36.1257 202.851 34.0398C198.594 32.1624 185.147 29.9331 182.153 33.9094C181.437 34.8611 180.604 37.0644 180.981 38.3551C183.728 47.5723 204.843 54.7948 213.188 57.8976L219.814 60.7919V60.7788ZM230.306 94.949C235.54 92.4198 239.38 88.626 242.895 84.1934C250.237 74.911 255.275 64.1815 257.384 52.5003C258.347 47.1681 258.425 41.1841 255.77 36.4386C255.132 35.3044 254.064 33.9094 252.685 33.7008C250.341 33.3358 248.519 37.286 245.759 38.0422C236.881 48.3154 229.838 60.0748 225.034 72.8381C222.847 78.6396 218.981 88.991 222.951 94.0494C224.605 96.1484 227.872 96.1223 230.306 94.962V94.949ZM332.576 91.0248C335.987 92.0808 340.127 86.9181 341.481 84.2847C344.878 77.7009 346.87 70.674 348.081 63.321C349.292 55.9681 350.307 44.9649 345.881 38.694C344.683 36.9862 342.652 35.6694 340.596 36.23C336.404 37.3642 335.44 41.158 333.8 44.2739C334.425 45.5515 334.152 46.8943 334.425 48.198C334.816 50.1406 334.62 51.8223 334.464 53.7518C333.995 59.3447 331.73 65.2636 327.278 68.7836C327.421 69.6049 326.666 74.6503 326.536 75.2239C325.429 80.204 327.135 89.3561 332.563 91.0379L332.576 91.0248ZM214.385 399.312L220.933 399.938C226.323 400.447 237.297 400.108 242.947 399.247C252.333 397.813 261.211 395.31 270.259 392.546C275.479 390.956 280.14 388.765 285.021 386.627C287.469 385.558 290.02 387.044 290.932 389.196C291.843 391.347 291.023 393.824 288.758 395.075C278.005 401.046 258.595 406.118 246.345 408.308C244.431 408.647 239.172 409.586 237.427 409.299C237.167 409.429 236.985 409.807 237.206 409.925C241.203 412.05 244.665 414.435 248.154 417.421C261.81 429.076 273.045 443.469 280.166 460.091C284.995 471.368 288.224 482.971 291.478 494.731C293.34 501.458 295.254 507.833 298.847 513.765C301.333 517.884 305.186 520.909 309.99 521.522C316.812 522.395 323.542 519.214 328.528 514.69C338.031 506.06 343.29 491.849 345.764 479.464L348.042 468.057C351.492 450.744 355.54 434.825 372.216 425.582C381.889 420.224 391.535 418.698 401.793 414.488C412.052 410.277 417.246 400.199 415.801 389.222C414.655 380.487 410.932 372.86 405.36 366.12C398.76 358.141 389.96 352.405 379.572 350.958C377.957 350.736 375.653 350.593 374.286 351.075C372.724 351.91 371.748 353.552 370.368 354.608C366.684 357.398 363.468 360.488 359.589 363.056C354.772 366.25 349.799 369.014 344.566 371.4C342.158 372.495 339.515 371.27 338.448 369.184C337.38 367.098 338.005 364.425 340.218 363.187C344.644 360.684 349.266 358.702 353.536 355.69C358.092 352.47 362.531 349.211 366.515 345.209C382.214 329.421 390.949 309.696 398.148 288.471C392.785 289.879 388.033 290.844 382.852 290.531C381.212 290.427 379.65 290.01 377.957 290.296L372.516 289.188C368.663 296.202 362.935 304.233 354.772 305.745C350.073 306.619 345.464 304.833 342.301 301.261C336.69 294.912 337.497 286.059 339.007 278.263C341.259 266.66 345.165 257.182 349.24 246.218C349.747 244.849 349.825 243.637 350.763 242.476C351.778 241.212 352.52 239.778 353.757 238.696C357.363 235.554 361.49 233.377 366.241 232.933C376.525 231.982 381.316 240.312 382.214 249.256C382.475 251.798 382.813 254.236 382.175 256.765C381.863 258.017 385.82 257.3 388.58 257.639C393.866 258.29 399.385 259.372 403.928 262.267C404.137 262.397 404.684 262.241 404.723 261.941L406.48 250.181L407.105 245.266L407.73 239.413L408.224 233.611C408.979 224.798 408.914 216.063 408.211 207.25L407.73 201.123L407.092 195.595L406.506 191.658C406.259 190.002 405.829 188.451 405.946 186.704C405.998 185.817 405.582 184.983 404.827 184.527C398.708 180.863 394.009 174.957 392.642 167.917C391.418 161.608 393.852 151.712 397.081 146.028C394.074 146.133 392.303 144.751 391.34 142.404C389.752 138.519 387.513 134.96 385.547 131.322C382.318 131.153 379.428 131.714 376.408 131.153C373.388 130.592 370.303 129.289 367.621 127.646C364.067 125.469 362.245 121.571 361.984 117.386C361.516 109.863 366.462 104.479 366.28 103.553C366.202 103.123 365.668 102.98 365.369 102.589C363.13 99.6814 360.669 97.2044 358.157 94.5318C355.644 91.8592 353.444 89.5386 350.711 87.1789C348.706 91.1813 346.232 94.2841 343.043 97.061C339.854 99.8379 334.139 101.715 329.856 100.281C323.724 98.2343 319.662 93.0325 317.996 86.866C316.694 82.0553 316.213 77.3229 317.541 72.4079C308.714 72.7208 301.333 68.3794 296.074 61.8739C292.676 57.676 289.734 53.4781 287 48.7977C286.375 47.7548 284.331 47.8982 283.329 47.6244C280.192 46.8031 277.315 46.0078 274.177 45.4081L267.447 44.1174L267.069 51.5877C266.197 68.8879 246.123 106.422 225.828 105.144C219.606 104.753 214.45 100.868 212.797 94.8316C212.485 93.6844 211.964 92.4719 211.899 91.2464C211.378 82.6159 213.24 77.9617 216.143 69.6831C213.539 68.0405 210.727 67.1931 207.85 66.111C200.612 63.3993 193.648 60.5833 186.878 56.8807C182.895 54.7035 179.484 52.0701 176.386 48.7717C174.941 49.58 173.652 49.7886 172.142 50.2449C158.915 54.2212 146.366 59.6316 134.22 66.4239C134.52 75.4064 131.018 86.8008 126.904 94.597C124.027 100.216 120.551 105.105 116.724 110.072C115.787 111.284 114.927 112.588 113.613 113.423C113.691 121.114 110.384 130.071 102.599 132.639C95.5435 134.973 87.1989 130.957 82.4864 125.651C80.2993 123.031 78.607 120.423 76.7844 117.334C73.7252 121.219 71.2127 124.921 68.7393 129.002C75.6128 138.219 81.7573 149.718 79.7265 161.216C78.0732 170.59 70.1973 176.457 60.8243 175.648C56.4372 175.27 52.5057 173.562 48.7696 170.733C47.4808 173.745 46.6737 176.457 45.8014 179.455C54.0419 184.461 61.6835 191.488 64.1699 200.953C65.4848 205.96 64.5995 210.783 61.2409 214.877C55.7342 221.591 44.6428 222.908 36.2852 219.974C36.2852 221.813 35.8556 223.325 35.6734 224.981L35.2047 229.035L34.6319 235.254L33.955 245.332C33.5514 251.342 33.5775 257.221 33.955 263.231L34.5929 273.335C34.7101 275.252 35.0485 277.194 35.2568 279.124C36.129 287.128 37.8344 294.677 40.2818 302.395C47.3897 324.806 61.0196 342.653 81.8615 353.617C86.8214 356.225 91.7943 357.789 97.1968 358.793C99.8004 359.276 101.128 362.052 100.621 364.164C99.9826 366.85 97.7305 368.063 94.9186 367.906C79.1928 365.494 64.0788 354.843 53.1306 343.605C35.6343 349.485 21.7961 367.528 18.0209 384.972C17.0576 390.76 17.0706 396.614 20.3772 401.464C22.2778 404.266 24.9465 406.04 28.3182 406.652C35.0746 407.865 41.6227 404.814 47.0902 400.981L56.6455 394.28C59.1189 392.546 61.8397 391.347 64.8208 390.799C66.7345 390.447 68.557 390.799 70.679 390.551C69.3772 388.896 67.5026 388.074 65.7061 387.058C63.3758 385.741 62.1001 383.107 63.2196 380.722C64.3392 378.336 67.099 377.319 69.5334 378.414C74.9879 380.878 79.2709 384.867 82.1739 390.082C83.8663 393.133 84.8817 396.275 86.0663 399.534C86.6912 401.281 86.6261 403.106 86.9125 404.97L87.4593 408.569C88.019 412.206 87.6675 415.896 87.4202 419.624L87.1208 424.174C86.8344 428.515 87.2119 434.786 87.98 438.919C89.5812 447.536 93.1872 455.58 99.4359 461.773C103.628 465.919 108.679 468.865 114.472 469.582C128.271 471.303 139.766 464.719 149.126 455.254C152.432 451.917 155.375 448.579 158.225 444.825L169.759 429.663C178.69 417.734 186.813 411.672 201.276 407.356C180.096 404.097 141.979 396.183 126.149 382.338C124.131 380.578 124.209 377.723 125.732 375.885C127.151 374.177 130.067 373.695 132.02 375.155C136.29 378.349 140.664 380.865 145.585 383.042C159.15 389.026 179.588 394.111 194.168 396.562L196.863 397.018L200.782 397.644L204.804 398.256C208.202 398.765 210.923 399.039 214.372 399.365L214.385 399.312ZM118.872 89.6559C122.165 82.8636 124.378 75.7193 124.847 68.1187C124.938 66.7498 124.431 65.2766 124.118 63.9859C123.35 60.7136 117.206 61.1178 114.732 63.0994C109.915 66.3717 105.606 74.1679 102.99 79.4218C107.025 86.3575 109.616 93.4236 111.699 100.946C114.745 97.1783 116.698 93.554 118.859 89.669L118.872 89.6559ZM103.784 116.956C103.836 114.557 104.148 112.171 103.784 109.772C102.43 100.907 99.4099 92.5371 95.1399 84.7018C93.3434 81.4035 91.3386 78.3658 88.5788 75.9018C85.0509 72.7468 78.4638 78.8743 77.7087 83.7501C76.5241 91.3507 80.0129 101.324 83.0331 108.39C85.6888 114.57 90.167 122.548 97.2749 123.735C101.779 124.491 103.719 119.133 103.771 116.956H103.784ZM410.815 109.094C414.551 106.226 419.615 100.959 421.19 96.4091C422.05 93.9451 421.711 90.8814 419.706 89.1605C417.142 86.9572 413.614 86.8921 410.555 88.0133C405.204 89.9818 400.283 92.2894 395.115 94.623C386.458 98.5342 373.674 104.935 371.592 115.013C371.318 116.343 371.331 118.351 372.412 119.224C374.065 120.541 376.226 121.453 378.322 121.753C389.075 123.265 402.509 115.482 410.815 109.094ZM62.6598 166.262C66.8126 166.223 69.6766 163.446 70.4316 159.691C73.7903 142.978 45.7233 114.009 38.4462 118.924C37.0793 119.85 35.4391 120.476 34.2024 121.519C29.1123 125.795 32.7834 135.403 35.6083 140.292C37.8604 144.203 40.1777 147.932 43.1197 151.373C46.5565 155.402 49.9282 159.261 53.9508 162.677C56.3851 164.736 59.3012 166.288 62.6729 166.262H62.6598ZM407.482 174.801C414.486 180.485 424.51 178.36 428.728 170.681C432.503 163.811 432.438 154.072 427.296 148.036C424.666 144.959 420.813 142.991 416.777 143.721C414.551 144.125 412.039 144.594 410.359 146.106C409.448 146.915 408.094 147.228 407.339 148.023C403.33 152.234 401.078 161.295 402.171 166.692C402.809 169.886 404.879 172.689 407.482 174.788L407.482 174.801ZM52.0241 210.366C53.8726 209.362 55.4218 207.42 55.2786 205.282C54.7058 196.586 44.6298 189.259 37.4569 185.635C32.6923 183.236 27.9016 180.981 22.5382 180.407C19.5961 180.094 16.5629 179.768 13.8942 181.059C12.0456 181.958 10.6266 184.188 10.0669 186.117C9.61123 187.682 9.54614 191.893 10.913 193.744C13.6338 197.446 17.1227 200.236 21.1192 202.44L29.0993 206.846C35.4 210.327 45.1896 214.095 52.0241 210.366ZM351.192 296.189C355.618 297.701 360.982 290.192 363.065 286.62C368.142 277.872 371.37 268.316 372.646 258.251C373.076 254.849 373.388 243.22 368.793 242.45C365.746 241.942 361.958 243.402 360.227 246.009C357.988 249.373 356.699 253.063 355.358 256.817L351.83 266.738C349.825 272.37 343.433 293.53 351.205 296.189H351.192ZM397.159 278.407C399.281 277.246 401.247 275.16 400.661 272.749C399.372 267.455 385.091 266.295 380.704 266.934C379.65 271.523 378.335 275.76 376.669 280.062C378.231 281.053 379.884 280.727 381.563 280.884C386.341 281.327 392.798 280.792 397.159 278.42L397.159 278.407ZM224.995 555.353L221.142 540.765L220.387 537.31L219.84 533.607C219.176 529.096 218.916 526.632 219.215 522.174C219.384 519.71 219.371 517.441 219.853 514.99L222.352 502.344L222.99 497.468C223.902 490.494 223.797 482.463 218.772 477.013C210.337 467.874 198.113 461.108 187.191 455.189L169.447 445.581L165.672 450.574C159.957 458.136 151.925 466.688 143.788 471.681C143.867 472.998 144.869 473.989 144.739 475.345C144.127 481.211 139.831 486.687 133.973 488.043C130.315 488.89 126.526 487.195 124.144 484.588C122.712 483.023 122.126 481.224 121.098 479.373C110.423 479.777 102.118 476.74 94.2026 469.843C90.3883 466.518 87.5894 462.607 84.9988 458.201C80.8591 451.161 78.7111 443.286 77.904 435.112C77.3052 429.011 77.7608 423.131 77.8389 417.004C78.2945 416.195 77.8389 415.374 77.0448 414.983L57.3094 405.27C50.1755 410.629 42.2866 415.713 33.3171 416.391C34.4497 420.367 34.1112 424.943 33.3692 428.489L31.1561 439.023C30.0756 444.134 29.8413 451.109 31.1561 456.206L34.5669 469.348C35.9468 474.693 35.7775 482.828 35.2698 488.408C35.0485 490.911 34.5929 493.284 34.5408 495.8L34.4367 501.002C34.3716 504.196 34.1112 507.233 34.4367 510.453C35.374 519.553 42.8203 526.88 50.0193 531.73C60.0042 538.47 73.595 545.393 84.7124 550.438C104.552 559.447 124.405 567.934 144.674 575.991L183.832 591.544L215.557 604.294C218.109 605.324 220.413 606.263 223.394 607.045C220.66 598.454 220.439 594.66 222.483 586.003L223.784 580.475C225.711 572.288 226.323 567.491 225.62 558.99C225.529 557.856 225.268 556.605 224.943 555.34L224.995 555.353ZM402.106 471.838C399.45 464.38 396.886 457.145 397.211 449.531C396.729 448.54 397.107 447.576 397.107 446.585C397.146 442.1 397.992 437.915 399.112 433.574C399.828 430.797 400.453 428.137 400.231 425.282L384.31 430.471C373.831 433.887 365.981 440.927 362.167 451.395C359.615 458.383 358.274 465.449 356.777 472.724L353.809 487.221C353.588 488.29 353.093 489.099 353.002 490.455C368.129 481.876 385.117 475.201 402.093 471.851L402.106 471.838ZM260.652 505.786C268.814 504.769 276.247 504.117 284.214 503.961L281.741 495.148C278.278 482.802 274.19 467.744 267.838 456.35C261.615 457.797 255.64 459.583 249.782 462.19C239.276 466.857 233.001 473.884 232.78 485.852C232.715 489.568 233.118 493.127 232.741 496.856C232.194 498.316 232.454 499.828 232.181 501.301L229.291 516.45C239.549 510.584 248.896 507.129 260.652 505.773V505.786ZM234.576 553.71C244.757 548.091 255.119 545.015 266.171 543.802C270.754 543.75 275.167 543.437 279.736 543.841L286.883 544.493L292.116 545.093C297.154 545.667 305.759 546.331 310.641 545.888L315.653 545.432L320.261 544.767C333.735 542.811 347.573 535.823 359.498 529.448C368.09 524.846 376.473 520.388 385.287 516.268C392.473 513.204 398.565 510.349 406.636 510.884C407.287 506.386 407.222 502.175 407.235 497.755C407.235 495.735 407.131 493.831 406.571 491.876C406.48 489.047 405.595 483.78 404.618 481.133C391.9 482.541 362.83 494.3 353.262 501.301L346.467 506.268C340.413 517.65 331.665 527.219 318.842 530.4C305.069 533.803 293.626 526.437 288.107 513.713C284.826 513.817 281.689 513.661 278.434 513.817L272.889 514.078L265.742 514.743C252.008 516.02 241.177 519.618 229.773 527.506C229.07 528.001 228.367 528.21 228.718 529.318C229.239 530.948 229.2 532.695 229.512 534.376C230.228 538.144 230.996 541.716 232.168 545.341C233.066 548.104 233.444 550.894 234.55 553.723L234.576 553.71ZM234.72 574.713L234.03 578.298L230.97 592.196C230.111 596.107 231.309 602.326 233.509 605.598C234.329 606.823 235.305 607.919 235.618 609.418C237.558 609.613 240.617 609.066 242.504 608.766L246.436 608.127C254.95 606.745 263.008 604.086 271.222 601.309L293.639 593.747L374.456 564.622C382.878 561.585 390.936 558.195 398.578 553.619C400.088 552.707 401.351 551.572 402.64 550.477C407.287 546.527 407.04 542.759 406.714 537.179L406.415 531.952C406.194 528.119 406.376 524.455 406.233 520.544C402.223 519.149 391.314 523.764 387.63 525.681L359.185 540.413C345.92 547.283 333.982 552.576 319.064 554.584C317.02 554.858 315.015 555.171 312.945 555.301C309.443 555.51 294.082 555.34 291.791 554.792L289.864 554.336C290.437 554.467 277.276 553.241 277.484 553.241L268.072 553.085C266.249 553.802 264.466 553.593 262.591 553.906C253.986 555.314 245.98 558.221 238.404 562.484C237.532 562.98 235.891 563.606 235.748 564.648C235.266 568.103 235.423 571.128 234.72 574.726V574.713Z" fill="#324FB6"/>
<path d="M416.009 534.246C415.918 534.129 415.606 533.92 415.619 533.594C415.983 527.193 415.241 520.87 415.97 514.703L415.996 534.259L416.009 534.246Z" fill="#6583F6"/>
<path d="M416.348 511.757V500.05C416.348 499.828 416.53 499.672 416.647 499.698L416.686 511.405C416.686 511.64 416.478 511.796 416.361 511.757H416.348Z" fill="#BEE9F2"/>
<path d="M406.91 452.803C406.22 450.118 406.779 447.276 406.545 444.316C406.519 443.99 406.688 443.651 406.91 443.677V452.803Z" fill="#BEE9F2"/>
<path d="M416.348 544.011V536.514C416.556 536.475 416.751 536.827 416.712 537.153C416.439 539.552 417.103 541.886 416.348 544.011Z" fill="#BEE9F2"/>
<path d="M416.634 497.103C416.4 497.103 416.348 496.791 416.348 496.465V491.563C416.986 493.323 416.634 495.226 416.634 497.103Z" fill="#BEE9F2"/>
<path d="M234.72 574.713C235.41 571.102 235.266 568.077 235.748 564.635C235.891 563.592 237.532 562.954 238.404 562.471C245.98 558.208 253.986 555.301 262.591 553.893C264.453 553.593 266.236 553.802 268.072 553.072L277.484 553.228C277.276 553.228 290.424 554.453 289.864 554.323L291.791 554.779C294.082 555.327 309.443 555.496 312.945 555.288C315.015 555.171 317.02 554.845 319.064 554.571C333.982 552.563 345.92 547.27 359.185 540.4L387.63 525.668C391.314 523.764 402.236 519.136 406.233 520.531C406.376 524.429 406.194 528.093 406.415 531.938L406.714 537.166C407.04 542.746 407.287 546.501 402.64 550.464C401.351 551.559 400.088 552.694 398.578 553.606C390.936 558.182 382.891 561.572 374.456 564.609L293.639 593.734L271.222 601.296C262.995 604.073 254.95 606.719 246.436 608.114L242.504 608.753C240.617 609.066 237.571 609.6 235.618 609.405C235.305 607.905 234.329 606.81 233.509 605.585C231.309 602.313 230.111 596.094 230.97 592.183L234.03 578.285L234.72 574.7V574.713ZM260.326 588.063C262.956 587.203 264.987 584.465 265.416 581.897C265.807 579.589 265.13 577.712 263.724 576.225C262.435 574.87 260.404 574.048 258.413 574.374C255.874 574.791 254.872 576.63 254.221 578.781C253.661 580.645 252.645 582.222 253.231 584.348C254.038 587.268 257.02 589.132 260.326 588.063Z" fill="#6583F6"/>
<path d="M234.576 553.71C233.47 550.881 233.092 548.104 232.194 545.328C231.022 541.69 230.254 538.118 229.538 534.363C229.226 532.695 229.265 530.935 228.744 529.305C228.393 528.197 229.083 527.988 229.799 527.493C241.203 519.605 252.034 516.007 265.768 514.73L272.915 514.065L278.46 513.804C281.715 513.647 284.852 513.804 288.133 513.7C293.652 526.424 305.095 533.803 318.868 530.387C331.691 527.219 340.439 517.65 346.493 506.255L353.288 501.288C362.856 494.287 391.926 482.515 404.644 481.12C405.621 483.767 406.506 489.033 406.597 491.863C407.157 493.818 407.261 495.721 407.261 497.742C407.248 502.162 407.313 506.373 406.662 510.871C398.591 510.349 392.499 513.191 385.313 516.255C376.499 520.388 368.116 524.846 359.524 529.435C347.599 535.81 333.761 542.798 320.287 544.754L315.679 545.419L310.667 545.875C305.785 546.318 297.18 545.653 292.142 545.08L286.909 544.48L279.762 543.828C275.18 543.411 270.78 543.737 266.197 543.789C255.145 545.002 244.783 548.065 234.602 553.697L234.576 553.71Z" fill="#6583F6"/>
<path d="M260.652 505.786C248.896 507.142 239.549 510.584 229.291 516.464L232.181 501.314C232.467 499.841 232.207 498.316 232.741 496.869C233.105 493.14 232.702 489.581 232.78 485.865C233.001 473.884 239.276 466.87 249.782 462.203C255.64 459.596 261.615 457.81 267.838 456.363C274.19 467.77 278.278 482.815 281.741 495.161L284.214 503.974C276.247 504.13 268.814 504.782 260.652 505.799V505.786Z" fill="#6583F6"/>
<path d="M260.326 588.063C257.02 589.145 254.038 587.268 253.231 584.348C252.645 582.222 253.661 580.658 254.221 578.781C254.872 576.63 255.874 574.778 258.413 574.374C260.417 574.048 262.448 574.87 263.724 576.225C265.143 577.712 265.807 579.589 265.416 581.897C264.987 584.465 262.943 587.203 260.326 588.063Z" fill="#324FB6"/>
<path d="M402.106 471.838C385.117 475.201 368.142 481.863 353.015 490.441C353.106 489.099 353.601 488.277 353.822 487.208L356.79 472.711C358.287 465.436 359.628 458.37 362.18 451.382C365.994 440.914 373.844 433.874 384.323 430.458L400.244 425.269C400.466 428.137 399.841 430.797 399.125 433.561C398.005 437.902 397.159 442.087 397.12 446.572C397.12 447.563 396.742 448.527 397.224 449.518C396.899 457.132 399.476 464.354 402.119 471.825L402.106 471.838ZM375.25 464.25C379.025 463.729 382.006 460.847 382.722 457.379C383.438 453.912 381.55 451.395 378.582 450.183C376.46 449.31 374.26 449.231 372.49 450.939C369.912 453.416 367.517 455.411 368.207 459.687C368.715 462.816 371.813 464.719 375.237 464.25H375.25Z" fill="#6583F6"/>
<path d="M375.25 464.25C371.826 464.719 368.728 462.816 368.22 459.687C367.517 455.411 369.912 453.416 372.503 450.939C374.273 449.231 376.473 449.323 378.595 450.183C381.563 451.395 383.425 453.99 382.735 457.379C382.045 460.769 379.038 463.729 375.263 464.25H375.25Z" fill="#324FB6"/>
<path d="M224.995 555.353C225.334 556.618 225.581 557.869 225.672 559.003C226.375 567.491 225.763 572.301 223.837 580.489L222.535 586.016C220.491 594.673 220.712 598.467 223.446 607.058C220.465 606.263 218.161 605.324 215.609 604.307L183.884 591.557L144.726 576.004C124.457 567.947 104.604 559.46 84.7645 550.451C73.6471 545.406 60.0562 538.483 50.0714 531.743C42.8854 526.893 35.426 519.566 34.4887 510.466C34.1503 507.246 34.4106 504.222 34.4887 501.015L34.5929 495.813C34.645 493.297 35.0876 490.924 35.3219 488.421C35.8296 482.841 35.9988 474.706 34.6189 469.361L31.2082 456.219C29.8934 451.122 30.1277 444.147 31.2082 439.036L33.4213 428.502C34.1633 424.956 34.5018 420.38 33.3692 416.404C42.3386 415.726 50.2146 410.655 57.3615 405.283L77.0969 414.996C77.891 415.387 78.3466 416.208 77.891 417.017C77.8129 423.144 77.3442 429.024 77.9561 435.125C78.7632 443.299 80.9112 451.174 85.0509 458.214C87.6415 462.62 90.4404 466.545 94.2547 469.856C102.17 476.753 110.475 479.777 121.15 479.386C122.178 481.25 122.764 483.036 124.196 484.601C126.579 487.221 130.367 488.903 134.025 488.056C139.883 486.7 144.179 481.211 144.791 475.358C144.934 474.002 143.932 472.998 143.84 471.694C151.977 466.714 160.009 458.149 165.724 450.587L169.499 445.594L187.243 455.202C198.165 461.121 210.389 467.887 218.825 477.026C223.837 482.463 223.941 490.494 223.042 497.482L222.405 502.357L219.905 515.003C219.423 517.454 219.436 519.723 219.267 522.187C218.968 526.645 219.215 529.109 219.892 533.62L220.439 537.323L221.194 540.778L225.047 555.366L224.995 555.353ZM51.946 459.465C58.1946 459.687 62.3995 453.964 61.9569 448.293C61.7616 445.881 60.9805 443.912 59.2491 442.765C57.3355 441.487 54.9922 441.266 52.8963 442.257C51.3992 442.961 49.6938 442.934 48.2488 443.834C45.2026 445.737 43.9529 449.649 44.9032 453.26C45.6452 456.063 48.2749 459.335 51.946 459.465ZM77.5525 518.849C86.1054 521.613 95.2831 518.849 100.946 511.809C104.747 507.064 105.828 500.571 104.903 494.679C104.057 489.242 101.271 484.562 97.0145 481.12C89.2167 474.823 77.891 475.671 70.6529 482.45C67.6718 485.24 64.964 492.045 64.4043 496.034C63.4539 502.866 64.4433 508.654 69.1819 513.882C71.4601 516.385 74.3891 517.832 77.5655 518.862L77.5525 518.849ZM200.86 500.206C205.624 498.876 208.293 493.727 207.421 489.112C206.718 485.37 203.776 482.606 200.131 482.411C198.126 482.306 196.499 482.515 194.832 483.414C192.88 484.457 191.695 486.296 191.929 488.629C191.005 490.428 190.575 492.41 190.979 494.574C191.773 498.916 196.29 501.497 200.86 500.219V500.206ZM161.623 516.685C167.195 513.713 168.327 506.699 164.904 501.745C162.417 498.146 158.095 497.638 154.672 500.089C151.69 502.227 150.167 505.173 150.232 508.837C150.284 511.914 150.974 514.599 153.552 516.281C155.817 517.767 158.876 518.145 161.623 516.685ZM125.745 539.669C129.69 539.018 132.71 536.241 133.986 533.151C135.561 529.331 135.236 525.25 132.866 522.161C130.497 519.071 126.982 519.084 123.376 519.684L121.163 520.062C116.854 520.792 114.368 526.072 114.667 530.491C115.045 536.306 119.796 540.647 125.758 539.669H125.745ZM172.702 554.649C176.282 557.426 181.241 557.361 184.834 555.04C188.427 552.72 190.185 548.73 189.651 544.285C189.078 539.565 185.589 535.615 180.942 534.559C177.401 533.751 173.977 534.885 171.621 537.166C166.935 541.69 167.664 550.738 172.702 554.649Z" fill="#6583F6"/>
<path d="M77.5525 518.849C74.3761 517.819 71.447 516.385 69.1689 513.869C64.4303 508.641 63.4409 502.866 64.3912 496.021C64.938 492.032 67.6458 485.227 70.6399 482.437C77.891 475.657 89.2167 474.81 97.0015 481.107C101.258 484.549 104.044 489.229 104.89 494.665C105.815 500.571 104.734 507.064 100.933 511.796C95.2701 518.849 86.0924 521.613 77.5395 518.836L77.5525 518.849ZM87.4853 509.945C93.1221 508.341 96.1553 503.452 95.7778 497.69C95.5044 493.479 93.3695 489.438 89.3859 487.391C86.0012 485.657 81.0544 485.839 78.1774 488.642C74.3631 492.332 72.9051 497.99 73.8033 502.957C74.9098 509.085 82.0307 511.483 87.4983 509.945H87.4853Z" fill="#324FB6"/>
<path d="M172.702 554.649C167.664 550.738 166.935 541.69 171.621 537.166C173.977 534.885 177.401 533.751 180.942 534.559C185.589 535.615 189.091 539.565 189.651 544.285C190.185 548.717 188.336 552.772 184.834 555.04C181.333 557.309 176.282 557.426 172.702 554.649Z" fill="#324FB6"/>
<path d="M125.745 539.669C119.796 540.647 115.032 536.306 114.654 530.491C114.368 526.072 116.841 520.792 121.15 520.062L123.363 519.684C126.969 519.084 130.497 519.084 132.853 522.161C135.21 525.237 135.535 529.331 133.973 533.151C132.697 536.241 129.69 539.018 125.732 539.669H125.745Z" fill="#324FB6"/>
<path d="M161.623 516.685C158.876 518.145 155.817 517.754 153.552 516.281C150.974 514.599 150.284 511.914 150.232 508.837C150.18 505.186 151.69 502.227 154.672 500.089C158.095 497.638 162.417 498.146 164.904 501.745C168.327 506.699 167.195 513.713 161.623 516.685Z" fill="#324FB6"/>
<path d="M51.946 459.465C48.2749 459.335 45.6452 456.063 44.9032 453.26C43.9529 449.649 45.2026 445.737 48.2488 443.834C49.7069 442.921 51.3992 442.961 52.8963 442.257C54.9922 441.279 57.3355 441.487 59.2491 442.765C60.9805 443.925 61.7616 445.881 61.9569 448.293C62.3995 453.964 58.1946 459.674 51.946 459.465Z" fill="#324FB6"/>
<path d="M200.86 500.206C196.29 501.484 191.786 498.889 190.979 494.561C190.588 492.397 191.005 490.415 191.929 488.616C191.682 486.283 192.88 484.444 194.832 483.401C196.499 482.502 198.139 482.293 200.131 482.398C203.776 482.593 206.731 485.357 207.421 489.099C208.28 493.714 205.624 498.863 200.86 500.193L200.86 500.206Z" fill="#324FB6"/>
<path d="M87.4853 509.945C82.0177 511.496 74.8968 509.085 73.7903 502.957C72.892 497.977 74.3501 492.332 78.1644 488.642C81.0544 485.852 85.9882 485.657 89.3729 487.391C93.3564 489.438 95.4914 493.479 95.7648 497.69C96.1423 503.452 93.1091 508.341 87.4723 509.945H87.4853Z" fill="#6583F6"/>
</svg>
