<svg width="377" height="608" viewBox="0 0 377 608" fill="none" xmlns="http://www.w3.org/2000/svg">
<path d="M214.75 168.42L213.21 168.53C211.99 168.62 210.76 168.41 209.49 168.42L201.96 168.46L199.24 168.42C200.09 168.25 200.98 168.16 201.97 168.16H212.51C213.33 168.17 214.06 168.26 214.74 168.42H214.75Z" fill="#BEE9F2"/>
<path d="M93 288.17C92.75 288.79 92.73 286.54 92.73 286.45V279.16C92.75 277.84 92.82 276.6 93 275.42C93.32 274.95 93.18 276.86 93.16 277.02C93 278.25 92.99 279.42 92.99 280.66V288.16L93 288.17Z" fill="#BEE9F2"/>
<path d="M160 57.67C159.84 57.08 159.72 56.44 159.72 55.71L159.75 48.92C160 48.3 160.02 50.54 160.02 50.64L160 57.67Z" fill="#BEE9F2"/>
<path d="M159.77 48.17L159.72 44.89C159.71 44.07 159.8 43.34 160 42.67L160.02 46.19C160.02 46.3 160.02 48.76 159.78 48.17H159.77Z" fill="#BEE9F2"/>
<path d="M224.25 169.67C223.19 169.67 222.03 169.44 221 169.19C222.12 169.14 223.29 168.95 224.25 169.67Z" fill="#BEE9F2"/>
<path d="M193.25 169.19C193.13 169.23 190.01 169.83 190.25 169.45C191.21 169.1 192.24 169.11 193.25 169.19Z" fill="#BEE9F2"/>
<path d="M160.5 62.42C160.22 61.53 160.19 60.6 160.25 59.67C160.53 60.56 160.56 61.49 160.5 62.42Z" fill="#3250B6"/>
<path d="M160.25 41.17C160.22 40.41 160.26 39.65 160.5 38.92C160.53 39.68 160.48 40.44 160.25 41.17Z" fill="#3250B6"/>
<path d="M161 65.67C160.9 65.08 160.84 64.51 160.75 63.92C160.95 64.05 161.15 64.23 161.19 64.56C161.17 64.99 161.08 65.34 161 65.67Z" fill="#3250B6"/>
<path d="M161.5 68.42L161.25 67.17C161.42 67.29 161.62 67.41 161.73 67.67C161.7 67.98 161.6 68.21 161.5 68.42Z" fill="#3250B6"/>
<path d="M96.01 256.44C95.98 255.83 96.15 255.25 96.25 254.67C96.16 255.23 96.28 255.92 96.01 256.44Z" fill="#BEE9F2"/>
<path d="M162.05 71.17C161.92 70.77 161.82 70.34 161.75 69.92C161.83 69.92 162.13 69.82 162.17 69.94C162.29 70.3 162.25 71.47 162.05 71.17Z" fill="#3250B6"/>
<path d="M162.05 71.17C162.25 71.48 162.29 70.3 162.17 69.94C162.13 69.82 161.83 69.92 161.75 69.92L161.5 68.42C161.6 68.21 161.7 67.98 161.73 67.67C161.61 67.41 161.42 67.28 161.25 67.17L161 65.67C161.08 65.34 161.17 64.99 161.19 64.56C161.15 64.23 160.95 64.05 160.75 63.92L160.5 62.42C160.55 61.49 160.53 60.56 160.25 59.67L160 57.67L160.02 50.64C160.02 50.54 160 48.3 159.75 48.92L159.77 48.17C160.01 48.76 160.01 46.3 160.01 46.19L159.99 42.67L160.24 41.17C160.47 40.44 160.52 39.68 160.49 38.92L160.74 37.42C160.99 38.01 160.98 36.04 160.99 36.17L161.24 35.42L161.49 34.42C162.37 30.97 164.55 24.79 166.45 21.64L168.8 17.74C170.79 14.43 174.74 9.82 177.83 7.5C179.18 6.49 183.08 3.7 184.41 3.08C187.26 1.73 190.21 0.84 193.33 0.25L197.97 0L200.5 0.15C204.36 0.37 207.54 1.35 210.81 3.35C212.87 4.62 215 6.28 216.48 8.19C217.25 9.18 218.09 10.08 218.77 11.15C219.53 12.35 220.29 13.5 220.85 14.8L222.06 17.61C222.6 18.87 223.19 20.06 223.51 21.4L224.88 27.28C225.58 30.29 225.32 30.08 225.79 32.38C226.19 34.36 225.87 36.14 226.14 38.77C226.5 42.2 225.89 44.71 226.01 48.69C226.06 50.29 225.78 51.76 225.64 53.33L225.34 56.53C225.21 57.92 224.88 59.23 224.67 60.62L224.08 64.53C223.29 69.8 220.77 79.67 219.07 84.76L216.13 93.58L212.67 103.08C211.54 105.58 210.78 108.1 209.68 110.6L208.54 113.21L206.6 118.02L204.41 123.33L202.1 129.02C201.52 130.44 200.97 131.74 200.55 133.23C200.13 134.72 199.17 136.19 197.69 136.84C196.41 137.41 194.87 137.34 193.58 136.86C192.6 136.5 191.84 135.76 191.24 134.95L189.11 132.08L186.04 127.65L182.27 121.67L180.32 118.36C179.15 116.38 178.06 114.46 177.04 112.39L174.72 107.71L171.95 101.49C171.02 99.41 170.29 97.34 169.48 95.21L168.04 91.4L165.66 84.27C164.49 80.77 163.49 77.35 162.69 73.75C162.48 72.82 162.34 71.97 162.07 71.16L162.05 71.17ZM195.06 122.59L196.63 118.8L198.23 114.84L200.93 108.34L202.84 103.47C203.39 102.08 203.96 100.77 204.48 99.37L206.3 94.41C206.93 92.68 207.57 91.04 208.15 89.29L210.15 83.28L211.78 77.92L213.17 72.76C214.26 68.71 215.1 64.73 215.69 60.58L216.19 57.06C216.53 54.7 217.23 48.1 217.24 45.91L217.26 38.66C217.26 35.41 216.52 30.61 215.82 27.38C214.38 20.68 211.02 12.69 204.19 10C200.37 8.5 196.19 8.53 192.27 9.68C190.49 10.2 188.78 10.87 187.2 11.85C181.88 15.13 178.62 18.74 175.41 24.08C174.02 26.4 172.83 28.76 171.88 31.3C170.59 34.76 169.57 38.09 169.11 41.76L168.58 45.98C168.4 47.38 168.54 48.76 168.5 50.17C168.44 52.18 168.7 54.08 168.85 56.06L169.12 59.56L169.69 63.5C169.92 65.06 170.31 66.5 170.61 68.06C171.5 72.66 172.7 77.04 174.16 81.48L175.96 86.96L177.35 90.81C178.92 95.16 182.07 102.66 184.19 106.71L186.95 112L193.37 122.56C193.64 123 193.91 123.32 194.3 123.69C194.63 123.46 194.87 123.09 195.08 122.59H195.06Z" fill="#C0EAF2"/>
<path d="M354 72.67H345C344.37 72.37 347.07 72.4 347.23 72.4H351.78C351.93 72.4 354.63 72.37 354.01 72.67H354Z" fill="#3250B6"/>
<path d="M345 72.67H354C354.66 72.67 355.33 72.96 356 72.92C356 73.05 355.99 73.18 356.06 73.43C356.35 73.38 356.54 73.26 356.75 73.17C361.14 74.19 364.89 75.69 368.52 78.64C371.61 81.16 375.33 85.94 376.28 89.63L377 92.41V99.41L376.58 101.23C375.88 104.26 373.59 108.88 371.63 111.29L369.5 113.91C368.67 114.93 367.68 115.74 366.68 116.59L364.65 118.32L361.98 120.4C360.15 121.82 356.06 124.32 353.96 125.37L348.12 128.29C344.48 130.11 340.68 131.29 336.92 132.83L333.54 134.21L328.25 136.17C326.73 136.73 325.32 137.43 323.77 137.94C321.54 138.68 319.5 139.64 317.32 140.47L312.25 142.41C309.97 143.28 305.76 145.16 303.65 146.32L300.42 148.09C298.11 149.35 295.86 150.58 293.78 152.19L291.38 154.05C288.51 156.27 288.66 157.9 286.55 158.98C285.05 159.75 283.22 159.57 281.92 158.52C280.62 157.47 279.24 155.95 279.24 154.2V151.16C279.24 149.89 279.41 148.73 279.57 147.49L279.92 144.83L281.07 139.74C281.37 138.4 281.74 137.16 282.19 135.86L283.55 131.96C284.21 130.06 284.96 128.29 285.81 126.46L287.95 121.85C288.82 119.98 291.89 114.42 293.01 112.66L295.25 109.15C296.43 107.31 299.65 102.72 300.99 101.13L303.28 98.41L305.83 95.45L310.82 90.45C311.67 89.59 312.63 88.95 313.53 88.15C316.37 85.63 319.53 83.35 322.8 81.41L326.72 79.08C328.41 78.08 331.83 76.52 333.52 75.91L334.27 75.64L334.77 75.39L335.52 75.14C336.35 74.86 337.18 74.5 338.12 74.26L342.52 73.14C342.39 73.13 344.36 73.14 343.77 72.89C344.18 72.83 344.61 72.64 345.02 72.64L345 72.67ZM308.94 134.12L317.55 130.74L321.91 129.07L327.83 126.78L334.52 124.22L338.14 122.81C346.01 119.73 354.13 115.77 360.51 110.19C363.74 107.37 365.86 104.62 367.44 100.59C368.48 97.94 368.6 93.96 367.36 91.3C365.74 87.84 362.94 85.09 359.5 83.46C356.06 81.83 351.6 81.09 347.7 81.35C345.83 81.48 344.1 81.99 342.3 82.43C339.03 83.21 336.03 84.42 333.04 85.92C328.56 88.18 323.46 91.34 319.71 94.62L317.3 96.73C315.28 98.49 313.45 100.34 311.68 102.36L309.23 105.16L306.89 108.07C303.13 112.74 298.74 120.42 295.94 125.85C293.51 130.57 291.59 135.67 290.07 140.76C289.72 141.94 289.54 143.08 289.01 144.21C289.16 144.44 289.37 144.45 289.57 144.3C290.85 143.32 292.14 142.51 293.53 141.73L298.02 139.22L301.32 137.51C303.82 136.22 306.31 135.18 308.93 134.14L308.94 134.12Z" fill="#C0EAF2"/>
<path d="M356.75 73.17C356.54 73.26 356.35 73.38 356.06 73.43C355.99 73.18 356.01 73.05 356 72.92C355.81 72.93 357.32 72.94 356.75 73.17Z" fill="#3250B6"/>
<path d="M160.75 37.42C160.82 37 160.87 36.57 161 36.17C160.99 36.04 161 38.01 160.75 37.42Z" fill="#3250B6"/>
<path d="M343.75 72.92C344.34 73.17 342.37 73.16 342.5 73.17C342.91 73.07 343.34 72.98 343.75 72.92Z" fill="#3250B6"/>
<path d="M93 289.42C92.92 289.1 93.06 288.74 93 288.42C93.09 288.39 93.17 288.38 93.18 288.48C93.2 288.75 93.2 288.91 93.2 289.12C93.2 289.33 93.2 289.49 93 289.42Z" fill="#BEE9F2"/>
<path d="M308.94 134.12C306.31 135.15 303.82 136.19 301.33 137.49L298.03 139.2L293.54 141.71C292.14 142.49 290.86 143.3 289.58 144.28C289.38 144.44 289.17 144.42 289.02 144.19C289.55 143.05 289.72 141.92 290.08 140.74C291.61 135.66 293.53 130.56 295.95 125.83C298.75 120.39 303.14 112.72 306.9 108.05L309.24 105.14L311.69 102.34C313.46 100.32 315.29 98.47 317.31 96.71L319.72 94.6C323.47 91.32 328.57 88.16 333.05 85.9C336.03 84.4 339.04 83.19 342.31 82.41C344.12 81.98 345.84 81.46 347.71 81.33C351.62 81.07 355.94 81.74 359.51 83.44C363.08 85.14 365.75 87.82 367.37 91.28C368.61 93.94 368.49 97.92 367.45 100.57C365.87 104.6 363.75 107.35 360.52 110.17C354.14 115.75 346.01 119.71 338.15 122.79L334.53 124.2L327.84 126.76L321.92 129.05L317.56 130.72L308.95 134.1L308.94 134.12Z" fill="#FEFEFE"/>
<path d="M195.06 122.59C194.85 123.09 194.61 123.45 194.28 123.69C193.89 123.32 193.61 123 193.35 122.56L186.93 112L184.17 106.71C182.06 102.67 178.91 95.16 177.33 90.81L175.94 86.96L174.14 81.48C172.68 77.04 171.48 72.66 170.59 68.06C170.29 66.5 169.9 65.06 169.67 63.5L169.1 59.56L168.83 56.06C168.68 54.07 168.42 52.18 168.48 50.17C168.52 48.75 168.38 47.38 168.56 45.98L169.09 41.76C169.55 38.09 170.57 34.76 171.86 31.3C172.81 28.75 173.99 26.39 175.39 24.08C178.6 18.74 181.86 15.13 187.18 11.85C188.76 10.88 190.47 10.21 192.25 9.68C196.18 8.53 200.35 8.5 204.17 10C211 12.68 214.36 20.67 215.8 27.38C216.49 30.62 217.24 35.41 217.24 38.66L217.22 45.91C217.22 48.1 216.51 54.69 216.17 57.06L215.67 60.58C215.08 64.74 214.24 68.72 213.15 72.76L211.76 77.92L210.13 83.28L208.13 89.29C207.55 91.04 206.91 92.68 206.28 94.41L204.46 99.37C203.94 100.78 203.37 102.08 202.82 103.47L200.91 108.34L198.21 114.84L196.61 118.8L195.04 122.59H195.06Z" fill="#FEFEFE"/>
<path d="M0 155.42V153.67C0.27 152.72 0.22 151.89 0.32 150.99C0.69 147.58 1.97 144.36 3.3 141.22C4.08 139.39 7.44 134.2 9.02 132.68C10.57 130.54 12.42 128.79 14.45 127.12C15.53 126.24 16.52 125.36 17.67 124.58L20.65 122.56C23.03 120.94 25.82 119.28 28.44 118.1C31.71 116.63 34.81 115.3 38.36 114.52L44.92 113.08L47.83 112.73C49.15 112.57 50.4 112.34 51.75 112.4C55.13 112.56 56.65 111.88 59.66 112.25C62.67 112.62 64.73 112.16 67.06 112.6C67.88 112.75 68.67 112.89 69.51 112.9C70.66 112.9 71.69 113.17 72.81 113.36C80.28 114.64 84.25 115.58 91.41 118.01L95.7 119.47L98.34 120.59C100.53 121.51 102.63 122.36 104.77 123.41C107.14 124.57 109.47 125.59 111.72 126.97L116.37 129.82C117.43 130.47 122.75 134.48 123.45 135.23C124.02 135.84 124.6 136.39 125.26 136.92C126.58 137.97 127.22 139.15 128.7 140.48C130.18 141.81 132.3 144.99 133.34 146.85C134.61 149.1 135.95 151.09 135.9 153.91C135.87 155.91 134.61 157.56 132.71 158.12C131.9 158.36 131.11 158.55 130.27 158.68C126.02 159.37 118.66 161.82 114.56 163.46L106.69 166.6L102.62 168.28C101.25 168.85 99.93 169.37 98.58 169.99C97.34 170.56 96.11 171 94.83 171.49L89.03 173.68L83.78 175.43L77.95 177.34L73.9 178.54L69.31 179.71L65.26 180.67C62.55 181.31 54.59 182.8 52.05 182.95C51.07 183.01 50.15 183.16 49.19 183.33C45.68 183.98 44.29 183.4 40.93 183.82C37.85 184.2 36.44 183.52 34.03 183.67C31.38 183.83 22.43 182.13 20.13 181.07L17.73 179.96C12.94 177.74 9.69 175.58 6.25 171.44C3.8 168.49 1.51 164.29 0.68 160.53C0.04 157.61 0.52 157.8 0.02 155.42H0ZM76.09 168.52L80.8 167C84.25 165.89 87.57 164.75 90.92 163.39L95.89 161.36L100.54 159.48L105.14 157.6L113.21 154.41L117.61 152.83C119.79 152.05 121.96 151.51 124.2 150.89C124.53 150.79 124.82 150.73 125.03 150.51C124.75 149.55 122.81 147.18 122.16 146.5C117.88 142.03 116.52 140.83 111.43 137.23C110.27 136.41 109.05 135.79 107.85 135.04C104.1 132.7 94.95 128.62 90.69 127.19L86 125.61C81.56 124.12 73.65 122.37 69 121.89L64.7 121.44C63.38 121.3 62.1 121.18 60.75 121.18H54.48C53.37 121.18 52.31 121.24 51.21 121.37L46.98 121.89C43.47 122.32 38.86 123.48 35.54 124.73C30.4 126.67 24.6 130.29 20.37 133.78C14.83 138.36 10.28 145.05 9.08 152.27C8.53 156.65 9.56 160.75 12.03 164.35C14.96 168.6 19.31 171.34 24.15 172.98C26.1 173.64 31.07 174.59 33 174.65L36.38 174.77C38.07 174.83 39.67 174.93 41.36 174.8C42.24 174.73 43.08 174.71 43.97 174.72C45.34 174.74 46.6 174.52 47.95 174.39L50.89 174.11L54.62 173.56L58.69 172.87C62.84 172.17 66.84 171.28 70.86 170.07L76.06 168.51L76.09 168.52Z" fill="#C0EAF2"/>
<path d="M76.09 168.52L70.89 170.08C66.87 171.29 62.86 172.18 58.72 172.88L54.65 173.57L50.92 174.12L47.98 174.4C46.64 174.53 45.37 174.75 44 174.73C43.11 174.72 42.27 174.75 41.39 174.81C39.71 174.94 38.1 174.84 36.41 174.78L33.03 174.66C31.1 174.59 26.12 173.65 24.18 172.99C19.35 171.35 14.99 168.61 12.06 164.36C9.58 160.76 8.56 156.66 9.11 152.28C10.3 145.06 14.85 138.37 20.4 133.79C24.63 130.29 30.43 126.68 35.57 124.74C38.89 123.49 43.5 122.33 47.01 121.9L51.24 121.38C52.33 121.25 53.39 121.19 54.51 121.19H60.78C62.12 121.19 63.4 121.31 64.73 121.45L69.03 121.9C73.68 122.38 81.58 124.13 86.03 125.62L90.72 127.2C94.98 128.63 104.13 132.71 107.88 135.05C109.08 135.8 110.3 136.42 111.46 137.24C116.55 140.84 117.91 142.04 122.19 146.51C122.84 147.19 124.78 149.56 125.06 150.52C124.85 150.73 124.56 150.79 124.23 150.9C121.99 151.52 119.82 152.06 117.64 152.84L113.24 154.42L105.17 157.61L100.57 159.49L95.92 161.37L90.95 163.4C87.6 164.76 84.28 165.9 80.83 167.01L76.12 168.53L76.09 168.52Z" fill="#FEFEFE"/>
<path d="M214.75 168.42C215.58 168.36 216.5 168.78 217.49 168.67C218.81 168.51 219.89 168.93 221 169.2C222.03 169.45 223.19 169.67 224.25 169.68C225.51 169.68 226.66 169.72 227.99 170.09C229.07 170.39 230.21 170.54 231.36 170.8C234.49 171.5 237.54 172.06 240.56 173.13C242.69 173.89 244.7 174.7 246.89 175.3C247.55 175.48 248.04 175.85 248.51 176.17C248.78 176.35 249.23 176.27 249.51 176.42C250.64 176.7 251.66 177.38 252.84 177.84C254.97 178.68 256.93 179.66 258.97 180.69L262.96 182.72C264.33 183.42 265.63 184.17 266.91 185.03L270.63 187.55L274.48 190.2L278.3 193.12C278.93 193.6 279.54 194.02 280.08 194.6C281.25 195.87 282.38 196.23 283.46 197.47C284.37 198.52 285.42 199.32 286.44 200.25C287.58 201.3 288.64 202.36 289.68 203.5C290.53 204.43 291.25 205.39 292.21 206.23C292.88 206.82 293.41 207.52 293.92 208.26C294.43 209 295.02 209.48 295.55 210.15L297.74 212.95L300.72 216.98C301.63 218.21 302.37 219.47 303.19 220.76L305.81 224.88C306.85 226.52 307.72 228.15 308.54 229.91L311.31 235.86C311.99 237.31 312.68 238.69 313.23 240.2L315.9 247.53C316.65 249.6 318.23 255.66 318.52 257.67C318.68 258.76 318.07 258.14 319.02 259.92C319.56 260.93 319.41 262.08 319.52 263.17L319.81 266.13C319.83 266.33 319.85 266.51 320.02 266.42V266.67L320.27 267.17C320.3 267.23 320.27 267.35 320.27 267.42C320.27 267.39 320.18 270.74 320.49 270.17C320.49 270.34 320.51 270.5 320.51 270.67C320.51 270.44 320.55 272.33 320.76 271.67V271.92C320.76 272.38 320.62 276.69 320.98 276.42L321.01 277.67C321.01 277.72 320.9 281.56 321.26 280.92V286.17C321.26 287.01 321.16 287.85 320.98 288.67C320.71 289.92 320.65 292.37 320.51 293.92C320.49 294.16 320.51 294.42 320.51 294.67C320.14 294.03 320.26 297.69 320.26 297.67C320.26 297.74 320.29 297.86 320.26 297.92L320.01 298.42L319.98 298.92C319.81 298.84 319.81 299.01 319.79 299.19L319.51 301.92V302.98C319.53 303.68 319.38 304.41 319.01 304.92C318.47 305.68 318.61 306.55 318.51 307.42C318.28 309.42 316.49 315.91 315.69 318.1L314.76 320.67C314.45 321.02 314.32 321.47 314.26 321.92C313.36 324.48 312.32 326.99 311.14 329.54L309.64 332.81L307.81 336.48C307.57 336.95 307.29 337.33 307.01 337.67L306.01 339.42C305.82 340.04 305.5 340.63 305.12 341.27C303.88 343.34 300.6 348.23 299.13 350.04C298.42 350.92 297.93 351.9 297.57 352.98L296.44 356.36C296.24 356.95 296.01 357.46 295.77 357.93C295.5 358.3 295.36 358.73 295.27 359.18C295.05 360.32 293.6 364.49 293.02 365.68C292.76 366.05 292.59 366.48 292.52 366.93C292.42 367.63 292.27 368.35 291.94 369.09C291.06 371.06 289.98 374.85 288.98 377.4C288.42 378.82 287.87 380.17 287.46 381.65C287.22 382.5 286.9 383.25 286.52 383.93L286.27 384.93C285.86 386.56 285.15 387.89 284.58 389.75C284.38 390.4 284.11 390.95 283.77 391.43L283.52 392.68L283.27 392.93C283.03 393.4 282.87 393.91 282.77 394.43C282.68 395.13 282.51 395.84 282.17 396.57C281.28 398.46 281.46 399.36 280.52 400.68L280.27 401.68L279.77 403.18C279.51 403.95 279.32 404.77 278.97 405.62C278.22 407.4 278.06 408.54 277.27 409.93L277.02 410.93C276.46 413.18 275.2 416.01 274.38 418.55C274.13 419.33 273.85 420.03 273.52 420.68L273.27 421.43C273.12 422.45 272.69 423.41 272.31 424.47L269.16 433.32C268.71 434.58 268.19 435.72 267.82 437C267.61 437.72 267.31 438.34 267.02 438.93L266.77 439.93C266.51 440.98 266.08 441.99 265.68 443.09L263.83 448.25C263.49 449.21 263.24 450.13 262.76 450.92L262.26 452.17C262.12 452.86 261.94 453.57 261.67 454.32L260.24 458.42C260.01 459.07 259.78 459.65 259.5 460.17C259.25 460.54 259.05 460.97 259 461.42C258.9 462.26 258.65 463.08 258.27 463.94C257.3 466.14 256.76 468.8 255.75 470.92C255.48 471.29 255.35 471.73 255.25 472.17C255.07 472.96 253.99 476.2 253.5 476.92L253.25 477.92L252.99 478.41L252.5 479.67C252.47 479.74 252.5 479.84 252.5 479.92C252.16 480.26 252.08 480.72 252 481.17C251.87 481.86 251.65 482.55 251.39 483.3L249.59 488.51L248.17 492.34L246.7 496.62L245.1 501.02L242.52 508.45L240.11 515.29C239.93 515.81 239.7 516.26 239.5 516.67C239.3 517.08 239.12 517.49 239 517.92C238.76 519.43 238.02 520.98 237.37 522.8L234.48 530.91L232.83 535.77L230.21 543.14L228.35 548.28L226.09 554.78L224.09 560.28C223.39 562.21 222.84 564.11 222.07 566.01C221.45 567.54 221.26 568.82 220.49 569.94L220.24 571.19L219.99 571.44L219.74 572.44C219.57 573.13 219.36 573.83 218.99 574.44C218.75 574.83 218.55 575.23 218.49 575.69C218.42 576.26 218.24 576.84 218.02 577.47L215.88 583.59C215.52 584.61 215.21 585.58 214.74 586.44C214.47 586.93 214.36 587.4 214.24 587.94C213.87 589.54 212.22 593.67 211.58 595.53L210.55 598.51L208.9 603.37C208.39 604.87 207.5 606.28 206.04 607C204.23 607.89 202.04 607.45 200.68 606.02C200.06 605.38 199.74 604.56 199.46 603.73L198.15 599.79L196.29 594.16L194.76 589.69L193.04 584.41L191.51 579.94L189.79 574.66L188.26 570.19L186.54 564.92L185.1 560.62L182.67 553.29L181.41 549.55L179.55 543.92L178.02 539.45L176.3 534.17L174.77 529.7L173.05 524.42L171.52 519.95L169.8 514.68L168.36 510.38L165.16 500.79L162.68 493.3L161.27 489.21L159.55 483.93L158.02 479.46L156.3 474.18L154.77 469.71L153.05 464.43L151.52 459.96L149.86 454.88L148.41 450.54L145.93 443.06L144.52 438.96L142.8 433.68L141.27 429.21L139.55 423.93L138.02 419.46L136.3 414.18L134.77 409.71L133.05 404.44L127.09 386.62L125.23 380.98L123.76 376.69L121.98 371.23L120.51 366.94L118.73 361.48L117.21 357L115.51 351.71C115.22 350.8 114.85 349.94 114.31 349.17L112.45 346.53C109.88 342.87 107.71 339.26 105.73 335.26L103.99 331.74L100.77 324.47L98.82 318.91C97.83 316.11 96.88 313.4 96.24 310.49L95.34 306.37C94.87 304.2 93.75 298.71 93.73 296.75C93.73 296.14 93.62 295.57 93.5 294.99C92.99 292.5 93.52 291.6 93 289.48C93.2 289.55 93.2 289.41 93.2 289.18C93.2 288.95 93.2 288.8 93.18 288.54C93.18 288.44 93.09 288.45 93 288.48C92.99 288.4 93 288.31 93 288.23V280.73C92.99 279.48 93 278.32 93.16 277.09C93.18 276.93 93.33 275.01 93 275.49C93.12 274.71 93.33 273.93 93.26 273C93.12 271.11 93.7 269.96 93.73 268.46C93.76 266.77 94.94 260.3 95.37 258.35C95.53 257.63 95.72 257.07 96.01 256.51C96.28 255.99 96.17 255.3 96.25 254.74C96.61 252.69 97.87 248.63 98.68 246.42L100.83 240.55L103.15 235.13L104.88 231.37L106.12 229.09C106.98 227.51 107.73 225.95 108.66 224.41C109.59 222.87 110.5 221.46 111.51 219.99L114.55 215.54L118.36 210.6C118.67 210.2 121.21 207.14 121.43 206.92C122.9 205.52 124.55 203.17 126.19 201.68L130.64 197.64C131.67 196.7 132.64 195.83 133.73 194.97L138.35 191.33C139.35 190.54 140.31 189.82 141.38 189.1L146.74 185.47L149.84 183.56C150.74 183.01 151.67 182.58 152.61 182.09L156.05 180.28C157.4 179.57 158.76 178.99 160.17 178.38L164.02 176.72C165.21 176.21 166.33 175.66 167.59 175.29C169.24 174.79 170.77 174.23 172.35 173.56C175.81 172.39 179.28 171.58 182.89 170.84L186.1 170.18C186.82 170.03 187.5 169.82 188.27 169.73L190.25 169.49C190.01 169.87 193.13 169.28 193.25 169.23C194.16 168.9 195.13 168.55 196.25 168.71C197.37 168.87 198.31 168.44 199.25 168.45L201.97 168.49L209.5 168.45C210.77 168.45 211.99 168.65 213.22 168.56L214.76 168.45L214.75 168.42ZM312.34 282.52C312.34 224.38 265.21 177.25 207.07 177.25C148.93 177.25 101.8 224.38 101.8 282.52C101.8 340.66 148.93 387.79 207.07 387.79C265.21 387.79 312.34 340.66 312.34 282.52ZM268.25 401.76C268.57 402.47 269.23 404.29 269.66 404.36C269.75 404.38 269.96 404.36 270.02 404.16C270.36 402.87 270.85 401.73 271.29 400.48L278.35 380.55L279.92 376.05C280.01 375.79 280.02 375.55 279.84 375.47C279.72 375.42 279.56 375.44 279.38 375.54L273.51 378.68L265.99 382.67C264.53 383.44 263.15 384.2 261.65 384.88C261.1 385.13 260.86 385.62 261.12 386.17L261.98 387.96L268.25 401.77V401.76ZM231.52 434.97L238.5 430.19L242.86 427.27L252.23 420.92L259.85 415.79C260.83 415.13 261.77 414.52 262.78 413.9C263.39 413.53 263.67 412.87 263.36 412.17L258.24 400.94L254.59 392.84L253.38 390C253.26 389.72 253.01 389.57 252.72 389.72L245.97 393.35L241.69 395.59L229.3 402.18L221.95 406.07L220.56 406.76C220.04 407.02 219.9 407.58 220.18 408.11C220.85 409.39 221.33 410.67 221.88 412.02L226.59 423.56L228.28 427.63L230.81 433.8C231.06 434.2 231.08 434.72 231.52 434.96V434.97ZM192.83 461.01L195.03 459.46L200.12 456.05L209.97 449.42L214.59 446.28L223 440.65C223.58 440.26 223.79 439.64 223.49 439.02C222.99 437.96 222.57 436.91 222.11 435.82L219.92 430.52L217.3 424.12L215.48 419.72L213.02 413.69C212.6 412.66 212.27 411.02 211.47 411.53C210.3 412.29 209.12 412.9 207.89 413.55L203.32 415.96L199.92 417.78L195.83 419.95L192.39 421.79L182.45 427.08C181.35 427.67 180.32 428.18 179.18 428.66C178.97 428.75 178.8 428.89 178.77 429.04C178.72 429.28 179.87 431.71 180.18 432.48L182.85 439.09L186.9 449.01L191.07 459.31C191.28 459.83 191.42 460.33 191.68 460.82C191.92 461.26 192.35 461.35 192.83 461.01ZM246.43 470.46L247.99 466.16L251.84 455.21L254.86 446.8L257.74 438.66L259.37 434.03L260.88 429.77L262.44 425.55C262.51 425.35 262.54 425.19 262.48 425.08C262.18 424.52 261.11 425.58 260.42 426.04L246.04 435.69L235.59 442.74C235.02 443.13 234.96 443.81 235.12 444.43L241.02 458.61L244.8 467.85C245.43 469.38 245.92 471.89 246.45 470.45L246.43 470.46ZM182.09 468.17L183.58 467.26C185 466.4 183.7 464.47 183.19 463.21L179.8 454.87L176.17 446.01L174.29 441.37L172.48 436.94C172.05 435.88 171.64 434.88 171.32 433.76C171.25 433.53 171.07 433.27 170.83 433.32C170.48 433.39 170.19 433.53 169.87 433.7L165.27 436.19L161.67 438.1L155.83 441.26C155.27 441.56 154.95 442.08 155.17 442.67L155.81 444.39L166.47 476.4C166.69 477.05 166.79 477.51 167.08 478.13C167.34 478.16 167.58 477.99 167.86 477.82L177.99 470.96L182.09 468.17ZM220.91 501.98L232.19 494.9L238.2 491.14C239.02 490.63 239.54 489.9 239.88 489L241.76 483.85C242.33 482.29 241.12 482.18 240.23 479.98L237.05 472.15L235.51 468.42L228.25 450.71C227.87 449.78 227.6 448.29 226.69 448.74C226.16 449 225.79 449.39 225.29 449.73L198.74 467.65L196.13 469.37C195.62 469.71 195.44 470.33 195.71 470.9C196.38 472.31 196.93 473.7 197.52 475.15L199.91 481.02L208.5 502.2C209.26 504.08 210.1 505.86 210.68 507.82C210.75 508.71 213.13 506.9 213.62 506.58L220.9 502.01L220.91 501.98ZM185.78 524.06L200.57 514.76C201.89 513.93 203.62 513.29 203.04 511.97L202.17 509.99L200.01 504.67L198.43 500.75L196.61 496.32L192.79 486.89L190.34 480.81C189.78 479.42 189.17 478.12 188.7 476.69C188.55 476.25 188.36 475.85 188.1 475.48C187.53 474.67 186.46 475.85 185.7 476.36L181.4 479.28L171.97 485.6L170.57 486.5C170.18 486.75 170.01 487.17 170.17 487.64L171.6 491.76L173.61 497.74L176.92 507.67L180.43 518.16L181.86 522.49L182.58 524.84C183.01 526.24 184.84 524.61 185.77 524.03L185.78 524.06ZM220.59 531.99L222.5 536.67C222.56 536.81 222.83 537 222.93 536.87C223.26 536.46 223.3 535.92 223.48 535.39L227.85 523.05L229.6 517.97L231.32 513.21L234.47 504.35C234.55 504.12 234.3 503.87 234.11 503.99L232.15 505.3L227.65 508.09L218.32 513.97C217.31 514.6 216.38 515.22 215.33 515.77C214.6 516.15 214.39 516.87 214.7 517.63L217.22 523.73L219.11 528.33L220.59 531.99ZM203.98 588.64C204.06 588.87 204.46 588.99 204.55 588.73L205.64 585.52L207.36 580.77L209.49 574.6L213.05 564.66L215.99 556.35L218 550.84C218.63 549.12 217.57 547.9 216.63 545.57L212.82 536.15L209.34 527.62L207.1 522.03C206.95 521.74 206.86 521.42 206.61 521.29L204.22 522.89L194.27 529.14L189.18 532.33C188.33 532.86 187.53 533.37 186.64 533.83C185.37 534.49 186.34 535.95 186.76 537.19L197.12 568.25L198.67 572.97L200.44 578.18L202.04 583.1L203.97 588.65L203.98 588.64Z" fill="#3250B6"/>
<path d="M320.5 293.92C320.65 292.37 320.7 289.92 320.97 288.67C320.96 290.28 321.28 292.49 320.5 293.92Z" fill="#BEE9F2"/>
<path d="M321.25 286.17V281.17C321.63 280.23 321.63 287.11 321.25 286.17Z" fill="#BEE9F2"/>
<path d="M319.5 301.92L319.78 299.19C319.8 299 319.79 298.83 319.97 298.92C320.02 300.06 320.1 300.9 319.5 301.92Z" fill="#BEE9F2"/>
<path d="M318.5 307.42C318.6 306.55 318.46 305.68 319 304.92C319 305.78 318.91 306.65 318.5 307.42Z" fill="#BEE9F2"/>
<path d="M320.25 297.67C320.25 297.67 320.13 294.03 320.5 294.67C320.5 294.67 320.62 298.31 320.25 297.67Z" fill="#BEE9F2"/>
<path d="M252.5 479.92C252.16 480.26 252.08 480.72 252 481.17C252.32 480.83 252.45 480.38 252.5 479.92Z" fill="#BEE9F2"/>
<path d="M282.75 394.42C282.85 393.9 283.01 393.39 283.25 392.92C283.25 393.47 283.18 394.05 282.75 394.42Z" fill="#BEE9F2"/>
<path d="M295.25 359.17C295.34 358.72 295.48 358.29 295.75 357.92C295.7 358.38 295.57 358.83 295.25 359.17Z" fill="#BEE9F2"/>
<path d="M292.5 366.92C292.57 366.47 292.74 366.04 293 365.67C292.95 366.13 292.82 366.58 292.5 366.92Z" fill="#BEE9F2"/>
<path d="M286.25 384.92L286.5 383.92L286.45 384.65C286.44 384.86 286.44 385 286.25 384.92Z" fill="#BEE9F2"/>
<path d="M249.5 176.42C249.22 176.27 248.77 176.35 248.5 176.17L249.5 176.42Z" fill="#BEE9F2"/>
<path d="M277 410.92L277.25 409.92L277.2 410.65C277.19 410.86 277.19 411 277 410.92Z" fill="#BEE9F2"/>
<path d="M252.99 478.41L252.5 479.67C252.83 479.33 252.95 478.87 252.99 478.41Z" fill="#BEE9F2"/>
<path d="M314.25 321.92C314.31 321.47 314.44 321.02 314.75 320.67C314.6 321.09 314.41 321.5 314.25 321.92Z" fill="#BEE9F2"/>
<path d="M306 339.42L307 337.67C306.87 338.36 306.56 338.99 306 339.42Z" fill="#BEE9F2"/>
<path d="M259.5 460.17C259.25 460.54 259.05 460.97 259 461.42C259.32 461.08 259.45 460.63 259.5 460.17Z" fill="#BEE9F2"/>
<path d="M218.5 575.67C218.56 575.21 218.76 574.81 219 574.42C218.95 574.88 218.82 575.33 218.5 575.67Z" fill="#BEE9F2"/>
<path d="M255.75 470.92C255.48 471.29 255.35 471.73 255.25 472.17C255.47 471.78 255.63 471.36 255.75 470.92Z" fill="#BEE9F2"/>
<path d="M239 517.92C239.11 517.48 239.29 517.07 239.5 516.67C239.46 517.13 239.33 517.59 239 517.92Z" fill="#BEE9F2"/>
<path d="M219.75 572.42L220 571.42L219.95 572.15C219.94 572.36 219.94 572.5 219.75 572.42Z" fill="#BEE9F2"/>
<path d="M266.75 439.92L267 438.92L266.95 439.65C266.94 439.86 266.94 440 266.75 439.92Z" fill="#BEE9F2"/>
<path d="M262.25 452.17L262.75 450.92C262.7 451.38 262.57 451.83 262.25 452.17Z" fill="#C0EAF2"/>
<path d="M214.25 587.92C214.37 587.38 214.48 586.91 214.75 586.42C214.62 586.93 214.46 587.43 214.25 587.92Z" fill="#BEE9F2"/>
<path d="M220.91 501.98L213.63 506.55C213.13 506.86 210.76 508.67 210.69 507.79C210.11 505.83 209.27 504.06 208.51 502.17L199.92 480.99L197.53 475.12C196.94 473.67 196.39 472.28 195.72 470.87C195.45 470.3 195.63 469.67 196.14 469.34L198.75 467.62L225.3 449.7C225.79 449.37 226.17 448.97 226.7 448.71C227.6 448.27 227.88 449.76 228.26 450.68L235.52 468.39L237.06 472.12L240.24 479.95C241.14 482.15 242.34 482.27 241.77 483.82L239.89 488.97C239.56 489.88 239.03 490.6 238.21 491.11L232.2 494.87L220.92 501.95L220.91 501.98Z" fill="#BEE9F2"/>
<path d="M192.83 461.01C192.35 461.35 191.92 461.26 191.68 460.82C191.41 460.33 191.28 459.84 191.07 459.31L186.9 449.01L182.85 439.09L180.18 432.48C179.87 431.71 178.72 429.27 178.77 429.04C178.8 428.9 178.97 428.75 179.18 428.66C180.32 428.18 181.35 427.66 182.45 427.08L192.39 421.79L195.83 419.95L199.92 417.78L203.32 415.96L207.89 413.55C209.12 412.9 210.3 412.29 211.47 411.53C212.27 411.01 212.6 412.66 213.02 413.69L215.48 419.72L217.3 424.12L219.92 430.52L222.11 435.82C222.56 436.91 222.99 437.96 223.49 439.02C223.79 439.65 223.58 440.26 223 440.65L214.59 446.28L209.97 449.42L200.12 456.05L195.03 459.46L192.83 461.01Z" fill="#BEE9F2"/>
<path d="M203.98 588.64L202.05 583.09L200.45 578.17L198.68 572.96L197.13 568.24L186.77 537.18C186.36 535.94 185.39 534.49 186.65 533.82C187.54 533.36 188.34 532.85 189.19 532.32L194.28 529.13L204.23 522.88L206.62 521.28C206.87 521.41 206.96 521.72 207.11 522.02L209.35 527.61L212.83 536.14L216.64 545.56C217.59 547.9 218.64 549.11 218.01 550.83L216 556.34L213.06 564.65L209.5 574.59L207.37 580.76L205.65 585.51L204.56 588.72C204.47 588.98 204.07 588.85 203.99 588.63L203.98 588.64Z" fill="#BEE9F2"/>
<path d="M231.52 434.97C231.07 434.73 231.06 434.21 230.81 433.81L228.28 427.64L226.59 423.57L221.88 412.03C221.33 410.68 220.85 409.4 220.18 408.12C219.9 407.59 220.03 407.02 220.56 406.77L221.95 406.08L229.3 402.19L241.69 395.6L245.97 393.36L252.72 389.73C253 389.58 253.26 389.73 253.38 390.01L254.59 392.85L258.24 400.95L263.36 412.18C263.68 412.88 263.39 413.53 262.78 413.91C261.77 414.53 260.83 415.14 259.85 415.8L252.23 420.93L242.86 427.28L238.5 430.2L231.52 434.98L231.52 434.97Z" fill="#BEE9F2"/>
<path d="M185.78 524.06C184.85 524.65 183.02 526.27 182.59 524.87L181.87 522.52L180.44 518.19L176.93 507.7L173.62 497.77L171.61 491.79L170.18 487.67C170.02 487.2 170.18 486.78 170.58 486.53L171.98 485.63L181.41 479.31L185.71 476.39C186.46 475.88 187.53 474.7 188.11 475.51C188.37 475.88 188.56 476.27 188.71 476.72C189.18 478.15 189.79 479.45 190.35 480.84L192.8 486.92L196.62 496.35L198.44 500.78L200.02 504.7L202.18 510.02L203.05 512C203.63 513.32 201.9 513.96 200.58 514.79L185.79 524.09L185.78 524.06Z" fill="#BEE9F2"/>
<path d="M182.09 468.17L177.99 470.96L167.86 477.82C167.58 477.98 167.35 478.15 167.08 478.13C166.79 477.51 166.69 477.05 166.47 476.4L155.81 444.39L155.17 442.67C154.95 442.08 155.27 441.56 155.83 441.26L161.67 438.1L165.27 436.19L169.87 433.7C170.18 433.53 170.48 433.39 170.83 433.32C171.07 433.28 171.26 433.53 171.32 433.76C171.64 434.88 172.05 435.87 172.48 436.94L174.29 441.37L176.17 446.01L179.8 454.87L183.19 463.21C183.7 464.46 185 466.39 183.58 467.26L182.09 468.17Z" fill="#BEE9F2"/>
<path d="M246.43 470.46C245.9 471.91 245.41 469.39 244.78 467.86L241 458.62L235.1 444.44C234.94 443.81 235 443.14 235.57 442.75L246.02 435.7L260.4 426.05C261.09 425.58 262.16 424.53 262.46 425.09C262.52 425.2 262.5 425.36 262.42 425.56L260.86 429.78L259.35 434.04L257.72 438.67L254.84 446.81L251.82 455.22L247.97 466.17L246.41 470.47L246.43 470.46Z" fill="#BEE9F2"/>
<path d="M220.59 531.99L219.11 528.33L217.22 523.73L214.7 517.63C214.39 516.87 214.6 516.15 215.33 515.77C216.37 515.22 217.31 514.61 218.32 513.97L227.65 508.09L232.15 505.3L234.11 503.99C234.3 503.86 234.56 504.11 234.47 504.35L231.32 513.21L229.6 517.97L227.85 523.05L223.48 535.39C223.29 535.92 223.25 536.45 222.93 536.87C222.83 537 222.56 536.81 222.5 536.67L220.59 531.99Z" fill="#BEE9F2"/>
<path d="M268.25 401.76L261.98 387.95L261.12 386.16C260.86 385.62 261.09 385.13 261.65 384.87C263.14 384.19 264.53 383.43 265.99 382.66L273.51 378.67L279.38 375.53C279.56 375.43 279.72 375.41 279.84 375.46C280.03 375.54 280.01 375.78 279.92 376.04L278.35 380.54L271.29 400.47C270.85 401.71 270.36 402.86 270.02 404.15C269.97 404.35 269.75 404.37 269.66 404.35C269.24 404.27 268.57 402.45 268.25 401.75V401.76Z" fill="#BEE9F2"/>
<path d="M320.97 276.42C320.61 276.69 320.75 272.38 320.75 271.92C321.19 271.47 320.96 276.07 320.97 276.42Z" fill="#BEE9F2"/>
<path d="M320 266.42C319.82 266.51 319.8 266.33 319.79 266.13L319.5 263.17C320.25 264.17 320 265.31 320 266.42Z" fill="#BEE9F2"/>
<path d="M319 259.92C318.05 258.14 318.66 258.76 318.5 257.67C318.92 258.34 319.01 259.14 319 259.92Z" fill="#BEE9F2"/>
<path d="M321.25 280.92C320.88 281.56 321 277.72 321 277.67C321.38 277.01 321.25 280.89 321.25 280.92Z" fill="#BEE9F2"/>
<path d="M320.47 270.17C320.16 270.74 320.25 267.39 320.25 267.42C320.64 266.85 320.47 270.16 320.47 270.17Z" fill="#BEE9F2"/>
<path d="M320.75 271.67C320.54 272.33 320.49 270.44 320.5 270.67C320.69 270.58 320.69 270.72 320.7 270.93L320.75 271.67Z" fill="#BEE9F2"/>
<path d="M312.34 282.52C312.34 340.66 265.21 387.79 207.07 387.79C148.93 387.79 101.8 340.66 101.8 282.52C101.8 224.38 148.93 177.25 207.07 177.25C265.21 177.25 312.34 224.38 312.34 282.52ZM284.53 274.42C284.53 240.03 256.65 212.14 222.25 212.14C187.85 212.14 159.97 240.02 159.97 274.42C159.97 308.82 187.85 336.7 222.25 336.7C256.65 336.7 284.53 308.82 284.53 274.42Z" fill="#FDFDFE"/>
<path d="M284.53 274.42C284.53 308.81 256.65 336.7 222.25 336.7C187.85 336.7 159.97 308.82 159.97 274.42C159.97 240.02 187.85 212.14 222.25 212.14C256.65 212.14 284.53 240.02 284.53 274.42ZM275.68 274.44C275.68 244.92 251.75 220.98 222.22 220.98C192.69 220.98 168.76 244.91 168.76 274.44C168.76 303.97 192.69 327.9 222.22 327.9C251.75 327.9 275.68 303.97 275.68 274.44Z" fill="#3250B6"/>
<path d="M275.68 274.44C275.68 303.96 251.75 327.9 222.22 327.9C192.69 327.9 168.76 303.97 168.76 274.44C168.76 244.91 192.69 220.98 222.22 220.98C251.75 220.98 275.68 244.91 275.68 274.44ZM198.98 265.67C198.59 266.32 198.36 267.08 198.3 267.95L198.03 271.69C197.95 272.82 198.12 273.89 198.17 275.01C198.41 279.66 200.41 284.85 203.03 288.64C204.12 290.22 205.12 291.83 206.61 293.06L209.76 295.65C211.1 296.76 212.53 297.6 214.12 298.32L217.03 299.63C219.31 300.66 224.58 301.51 227 301.41C231.98 301.21 234.59 300.83 239.14 298.83C244.08 296.67 248 293.16 251.15 288.83C253.01 286.27 254.7 282.22 255.47 279.11C256.66 274.28 256.47 267.55 254.73 262.9C252.74 257.6 250.53 254.16 246.34 250.34C242.54 246.88 237.05 244.18 231.96 243.49C230 243.22 227.85 242.78 226.22 243.09C223.43 243.62 222.1 243.2 219.19 244.12C219.01 244.18 218.89 244.21 219.01 244.36C216.95 243.04 215.98 242.01 213.3 241.39C212.14 241.12 210.99 240.89 209.77 240.93C206.65 241.02 203.72 242.05 201.26 243.92C199.61 245.17 197.64 248.08 196.77 249.91C195.8 251.95 195.44 254.14 195.49 256.42C195.51 257.56 195.47 258.65 195.72 259.75C196.3 262.3 197.55 263.82 199 265.68L198.98 265.67Z" fill="#FAC2FA"/>
<path d="M198.98 265.67L200.48 266.7C203.87 269.03 207.99 269.96 212.05 268.99C215.19 268.24 218.03 266.79 220.21 264.38C223.34 261.37 224.85 256.53 223.63 252.31C223.11 250.51 221.9 247.62 220.76 246.43L220.25 245.9L218.98 244.37C218.86 244.22 218.98 244.19 219.16 244.13C222.06 243.21 223.4 243.63 226.19 243.1C227.82 242.79 229.98 243.24 231.93 243.5C237.02 244.19 242.51 246.9 246.31 250.35C250.51 254.17 252.71 257.61 254.7 262.91C256.45 267.56 256.64 274.29 255.44 279.12C254.67 282.23 252.99 286.28 251.12 288.84C247.97 293.16 244.05 296.67 239.11 298.84C234.57 300.83 231.95 301.21 226.97 301.42C224.55 301.52 219.28 300.67 217 299.64L214.09 298.33C212.5 297.61 211.07 296.77 209.73 295.66L206.58 293.07C205.09 291.84 204.09 290.23 203 288.65C200.38 284.86 198.38 279.67 198.14 275.02C198.08 273.9 197.91 272.83 198 271.7L198.27 267.96C198.33 267.09 198.57 266.33 198.95 265.68L198.98 265.67Z" fill="#3250B6"/>
<path d="M218.99 244.36L220.26 245.89L220.77 246.42C221.91 247.61 223.12 250.5 223.64 252.3C224.86 256.52 223.34 261.36 220.22 264.37C218.04 266.78 215.21 268.23 212.06 268.98C207.99 269.95 203.88 269.02 200.49 266.69L198.99 265.66C197.54 263.8 196.29 262.28 195.71 259.73C195.46 258.63 195.5 257.54 195.48 256.4C195.43 254.12 195.79 251.93 196.76 249.89C197.64 248.05 199.6 245.15 201.25 243.9C203.71 242.04 206.64 241.01 209.76 240.91C210.99 240.87 212.13 241.1 213.29 241.37C215.97 242 216.94 243.02 219 244.34L218.99 244.36Z" fill="#FDFDFE"/>
</svg>
