<svg width="519" height="384" viewBox="0 0 519 384" fill="none" xmlns="http://www.w3.org/2000/svg">
<path d="M269.75 0.02L273 0.52V0.77C271.36 0.19 269.54 0.91 268 0.02H269.75Z" fill="#BEE9F2"/>
<path d="M501.97 207.77C501.48 202.01 501.74 196.12 501.74 190.27C502.34 196.01 501.8 201.92 501.97 207.77Z" fill="#BEE9F2"/>
<path d="M502.5 233.27C502.01 228.19 502.39 222.95 502.25 217.77C502.77 222.85 502.37 228.09 502.5 233.27Z" fill="#BEE9F2"/>
<path d="M501.75 181.52C501.75 176.33 501.46 171.1 502 166.02C501.83 171.2 502.34 176.44 501.75 181.52Z" fill="#BEE9F2"/>
<path d="M163.75 103.52C163.32 102.33 163.32 100.71 163.75 99.52V103.52Z" fill="#BEE9F2"/>
<path d="M79.75 141.52C78.69 142.05 77.42 141.73 76.25 141.77C77.3 141.24 78.58 141.59 79.75 141.52Z" fill="#BEE9F2"/>
<path d="M251.5 0.27C250.68 0.79 249.67 0.44 248.75 0.52C249.54 -0.07 250.59 0.42 251.5 0.27Z" fill="#BEE9F2"/>
<path d="M164 93.77L164.25 91.27C164.11 92.1 164.57 93.11 164 93.77Z" fill="#BEE9F2"/>
<path d="M502 164.02C502.08 163.27 501.73 162.35 502.25 161.77C502.25 162.52 502.56 163.44 502 164.02Z" fill="#6583F6"/>
<path d="M502.25 291.02C502.24 290.49 502.12 289.93 502.5 289.52C502.5 290.04 502.64 290.62 502.25 291.02Z" fill="#BEE9F2"/>
<path d="M450.5 102.77L449.5 102.54C449.84 102.54 450.34 102.38 450.5 102.77Z" fill="#BEE9F2"/>
<path d="M274 0.52C273.85 0.81 273.31 0.88 273 0.77V0.52C273.26 0.61 273.71 0.48 274 0.52Z" fill="#6583F6"/>
<path d="M369.75 85.27C369.38 85.18 369.08 85.1 368.74 85.03C369.08 85.03 369.57 84.9 369.75 85.27Z" fill="#BEE9F2"/>
<path d="M517.74 131.04C517.55 130.82 517.44 130.57 517.5 130.27C517.59 130.51 517.89 130.72 517.74 131.04Z" fill="#BEE9F2"/>
<path d="M505 153.77C504.87 154.06 504.52 154.03 504.25 154.02C504.48 153.76 504.73 153.87 505 153.77Z" fill="#BEE9F2"/>
<path d="M346 56.02C345.89 55.78 345.63 55.59 345.75 55.27C345.86 55.51 346.12 55.7 346 56.02Z" fill="#BEE9F2"/>
<path d="M379 87.52C378.74 87.46 378.37 87.61 378.25 87.27C378.51 87.33 378.88 87.19 379 87.52Z" fill="#BEE9F2"/>
<path d="M518 142.77C518.07 142.6 518.05 142.37 518.25 142.27C518.18 142.44 518.2 142.67 518 142.77Z" fill="#BEE9F2"/>
<path d="M0.25 186.77H0V184.27C0.56 184.93 0.13 185.93 0.25 186.77Z" fill="#BEE9F2"/>
<path d="M0 180.52V178.02H0.25C0.13 178.85 0.56 179.86 0 180.52Z" fill="#BEE9F2"/>
<path d="M503.5 280.02C503.07 272.42 503 264.71 503 257.02C503.54 259.7 503.1 262.49 503.34 265.4C503.75 270.32 503.35 275.18 503.5 280.02Z" fill="#BEE9F2"/>
<path d="M503 252.77C502.51 249.77 502.83 246.61 502.75 243.52C503.31 246.52 503 249.67 503 252.77Z" fill="#BEE9F2"/>
<path d="M502.25 161.52C502.25 160.35 501.96 159.11 502.47 158.02C502.36 159.18 502.83 160.47 502.25 161.52Z" fill="#BEE9F2"/>
<path d="M33.25 207.74C32.04 207.59 30.9 207.76 29.75 207.52C30.91 207.67 32.17 207.22 33.25 207.74Z" fill="#BEE9F2"/>
<path d="M503.25 282.52C503.26 281.77 503.03 280.85 503.5 280.27C503.38 281.02 503.81 281.94 503.25 282.52Z" fill="#FDFDFE"/>
<path d="M502.75 156.27C502.88 155.73 502.43 154.85 503 154.52C503.13 155.17 502.97 155.71 502.75 156.27Z" fill="#BEE9F2"/>
<path d="M502.75 288.52C502.6 287.88 502.82 287.33 502.97 286.77C502.99 287.37 503.18 288.04 502.75 288.52Z" fill="#BEE9F2"/>
<path d="M303 382.52C302.42 382.52 301.66 382.77 301.25 382.27C301.83 382.35 302.59 382.01 303 382.52Z" fill="#BEE9F2"/>
<path d="M310 382.52C309.55 382.85 309.05 382.81 308.5 382.77C308.83 382.3 309.5 382.57 310 382.52Z" fill="#BEE9F2"/>
<path d="M87.51 360.26C86.94 360.48 86.47 360.14 86 360.02C86.57 359.85 87.03 360.11 87.51 360.26Z" fill="#BEE9F2"/>
<path d="M352.72 77.77C352.65 77.38 352.3 76.98 352.5 76.52C352.83 76.85 352.79 77.34 352.72 77.77Z" fill="#BEE9F2"/>
<path d="M81 359.02C80.58 358.99 80 359.19 79.75 358.77C80.25 358.84 80.55 358.86 81 359.02Z" fill="#BEE9F2"/>
<path d="M21.26 206.01C20.92 206.01 20.43 206.14 20.25 205.77C20.58 205.86 21.02 205.65 21.26 206.01Z" fill="#BEE9F2"/>
<path d="M23 206.52C22.66 206.41 22.27 206.63 22 206.27C22.34 206.27 22.82 206.15 23 206.52Z" fill="#BEE9F2"/>
<path d="M42 296.02C42.07 295.69 41.83 295.18 42.25 295.02C42.16 295.34 42.43 295.86 42 296.02Z" fill="#BEE9F2"/>
<path d="M312.25 382.02C312.07 382.39 311.59 382.27 311.25 382.27C311.55 381.94 311.89 382.13 312.25 382.02Z" fill="#BEE9F2"/>
<path d="M350.5 68.27C350.32 67.91 350.36 67.64 350.25 67.27C350.62 67.45 350.5 67.93 350.5 68.27Z" fill="#BEE9F2"/>
<path d="M71.01 356.76C70.63 356.84 70.29 356.76 70 356.52C70.4 356.33 70.7 356.68 71.01 356.76Z" fill="#BEE9F2"/>
<path d="M360.5 364.52C360.37 364.81 360.02 364.78 359.75 364.77C360.01 364.63 360.23 364.62 360.5 364.52Z" fill="#BEE9F2"/>
<path d="M392.75 351.52C392.51 351.62 392.32 351.89 392 351.77C392.23 351.66 392.43 351.39 392.75 351.52Z" fill="#BEE9F2"/>
<path d="M428.25 336.27C428.01 336.38 427.82 336.63 427.5 336.52C427.74 336.42 427.93 336.14 428.25 336.27Z" fill="#BEE9F2"/>
<path d="M447.5 327.77C447.29 327.98 447.03 328.05 446.75 328.02C446.98 327.87 447.18 327.68 447.5 327.77Z" fill="#BEE9F2"/>
<path d="M448.5 327.27C448.26 327.38 448.07 327.63 447.75 327.52C447.96 327.31 448.22 327.24 448.5 327.27Z" fill="#BEE9F2"/>
<path d="M317.75 380.27C317.62 380.56 317.27 380.53 317 380.52C317.26 380.41 317.48 380.36 317.75 380.27Z" fill="#BEE9F2"/>
<path d="M348.25 61.52C348.11 61.25 348.09 61.07 348 60.77C348.29 60.9 348.26 61.25 348.25 61.52Z" fill="#BEE9F2"/>
<path d="M380.5 356.52C380.4 356.71 380.2 356.77 380 356.77C380.17 356.69 380.32 356.59 380.5 356.52Z" fill="#BEE9F2"/>
<path d="M352.25 75.52C351.87 75.11 351.99 74.55 352 74.02C352.14 74.49 352.45 74.95 352.25 75.52Z" fill="#BEE9F2"/>
<path d="M519 140.52H518.75C518.88 139.86 518.45 139 519 138.52V140.52Z" fill="#BEE9F2"/>
<path d="M519 136.02C518.44 135.53 518.89 134.68 518.75 134.02H519V136.02Z" fill="#BEE9F2"/>
<path d="M239.73 139.46C244.13 137.82 248.5 135.96 253 134.7C254.41 134.3 255.7 133.92 256.98 133.22C259.43 131.87 262.59 132.16 264.76 130.55C265.29 130.39 266.19 130.29 266.72 130.06C266.89 130.1 267.15 130.41 267.35 130.27C267.55 130.13 267.69 129.95 267.54 129.78C267.83 129.74 268.13 129.67 268.43 129.69C268.88 129.73 269.54 129.65 269.56 129.1C270.57 129.17 271.44 128.5 272.44 128.48C272.68 128.48 272.83 128.32 273.03 128.25C273.57 128.05 274.14 127.94 274.7 127.8C274.75 128.09 275.13 128.02 275.32 127.98C275.63 127.93 275.87 127.73 275.99 127.46C276.33 127.46 276.7 127.25 277.04 127.3C277.46 127.36 277.88 127.32 278.18 126.97C278.52 127.01 278.9 126.8 279.24 126.82C279.66 127.19 280.23 126.9 280.53 126.49L281.69 126.47C281.88 126.47 282.29 126.5 282.25 126.22C282.39 126.23 282.54 126.17 282.68 126.19C283.48 126.31 284.45 126.38 285 125.71C285.39 125.71 285.8 125.46 286.21 125.54C286.77 125.95 287.8 125.74 288.07 125.1C288.63 125.15 289.19 125.1 289.74 125.06L292.25 125.02C296.16 124.96 300.22 124.36 304.04 123.74C306.68 123.31 309.38 123.38 312.14 123.14C318.27 122.6 324.3 122.3 330.07 120.69C332.51 120.01 335.26 119.71 337.47 118.28C337.91 117.99 338.76 118.18 339.21 117.76C339.31 117.67 339.59 117.78 339.74 117.6C339.82 117.51 339.94 117.45 339.8 117.3C346.53 114.43 352.26 109.05 353.37 101.57C353.98 97.48 353.88 93.56 353.86 89.27L383.88 96.31C399.02 99.86 414.15 102.93 429.45 105.86C446.46 109.12 463.13 113.25 480.24 118.04C474.7 119.54 469.52 120.56 464.35 122.64C456.95 125.64 449.91 128.92 443.18 133.25L424.35 145.39C406.08 157.16 392.67 157.26 371.31 157.63C356.42 157.89 341.73 160.12 328.12 166.45C319.63 170.39 311.95 175.55 304.23 180.69C292.53 188.49 279.38 191.65 265.5 189.3C263.66 188.99 261.97 191.18 261.88 192.65C261.78 194.42 263.14 196.16 264.96 196.48C280.6 199.27 295.61 195.21 308.7 186.44C332.09 170.78 342.75 165.92 371.72 164.9L388.08 164.32C403.34 163.78 417.26 159.16 429.79 150.54C448.34 137.77 473.64 121.57 496.81 125.29C501.85 126.1 506.5 127.69 509.62 131.53C512.74 135.37 512.45 140.12 508.67 143.25C506.12 145.36 503.17 146.8 499.88 147.71L479.89 153.23C464.75 157.41 443 172 427.8 179.85C416.49 185.69 404.57 189.51 391.96 191.25C368.59 194.46 355.45 190.72 331.5 199.59L302.52 210.32C294.27 213.37 285.79 215.26 276.99 215.26C269.38 215.26 262.24 213.65 254.84 212.19C240.72 209.42 226.41 208.55 212.25 211.34L190.92 215.55C178.85 217.93 166.64 219.49 154.34 219.16C122.67 218.31 109.87 200.92 77.18 199.35C60.65 198.56 45.29 201.52 30.84 200.23C24.35 199.65 18.26 198.04 13.18 194.14C8.1 190.24 6.08 184.4 7.73 177.89C11.34 163.66 24.86 155.22 38.73 152.27C47.76 150.35 56.8 149.85 66.07 149.59C87.07 149 114.26 146.36 133.34 137.03C144.78 131.44 154.98 124.04 164.44 115.32C164.5 117.94 165.65 120.41 165.21 122.67C163.82 129.74 175.06 136.82 180.59 139.36C188.25 142.87 196.4 144.54 204.89 145.08C216.76 145.83 228.69 143.54 239.72 139.43L239.73 139.46ZM375.96 124.06C378.54 122.63 379.4 119.4 378.07 117.07C376.61 114.5 373.87 114 371.18 115.25C370.07 115.77 369.2 116.56 368.8 117.48C368.05 119.21 369.57 123.32 371.45 124.28C372.92 125.03 374.51 124.87 375.96 124.06ZM339.19 141.84C340.37 139.29 338.42 136.25 335.76 135.79C333.38 135.38 331.61 137.07 331.13 139.2C330.65 141.33 331.9 143.37 333.92 144.17C335.79 144.91 338.18 144.03 339.19 141.84ZM387.49 142.97C388.5 140.74 388.08 138.41 386.25 137.08C384.84 136.05 383.29 135.65 381.84 136.48C380.39 137.31 379.98 138.78 379.93 140.51C379.87 142.6 380.76 144.44 382.78 145.09C384.54 145.66 386.64 144.83 387.48 142.96L387.49 142.97ZM143.98 157.88C146.42 155.39 146.44 151.36 143.72 149.47C141 147.58 137.03 148.54 135.52 151.45C134.1 154.19 134.25 156.97 136.67 158.8C138.83 160.43 141.94 159.95 143.97 157.88H143.98ZM210.85 165.06C212.65 162.62 212.73 159.63 210.53 157.85C208.33 156.07 205.39 156.56 203.42 158.45C201.87 159.93 201.08 161.93 201.69 164.19C202.16 165.92 203.74 167.48 205.91 167.67C207.71 167.82 209.69 166.64 210.86 165.06H210.85ZM230.52 191.14C232.84 191.68 235.07 190.49 235.45 188.4C235.87 186.07 234.28 184.45 232.07 183.97C226.94 182.86 222.08 182.25 216.71 182.53C206.16 183.09 195.98 185.18 185.81 188.01L174.93 191.03C167.12 193.2 158.89 193.85 150.87 192.16C145.97 191.13 141.62 189.04 137.18 186.83L116.66 176.62C106.93 171.78 96.9 168.79 86.22 166.79C66.96 163.19 47.23 162.46 28.02 166.23C25.63 166.7 23.93 168.59 24.38 170.72C24.91 173.24 27.13 173.93 29.47 173.42C51.38 168.69 77.6 171.22 99.05 177.39C105.96 179.38 112.16 182.54 118.53 185.69L137.93 195.29C148.09 200.32 159.07 201.65 170.29 199.52C176.25 198.39 181.87 196.71 187.76 195.02C196.83 192.41 205.73 190.68 215.14 189.87C220.34 189.42 225.3 189.91 230.51 191.13L230.52 191.14ZM165.33 181.9C168.08 182.67 170.34 181.09 171.3 179.02C172.26 176.95 172.14 174.11 170.3 172.54C168.28 170.82 165.78 170.51 163.47 171.86C161.81 172.83 159.73 175 160.47 177.39C161.07 179.31 163.35 181.34 165.32 181.9H165.33ZM281.59 176.03C281.59 173.29 279.37 171.07 276.63 171.07C273.89 171.07 271.67 173.29 271.67 176.03C271.67 178.77 273.89 180.99 276.63 180.99C279.37 180.99 281.59 178.77 281.59 176.03ZM55.47 186.91C56.04 185.13 55.31 183.33 53.92 182.47C52.37 181.51 50.68 182.12 49.3 183.09C47.92 184.06 46.86 185.22 47.07 186.88C47.25 188.36 48.42 189.65 49.98 190.02C52.45 190.59 54.67 189.42 55.47 186.92V186.91Z" fill="#FDFDFE"/>
<path d="M230.52 191.14C225.31 189.92 220.35 189.43 215.15 189.88C205.74 190.69 196.84 192.41 187.77 195.03C181.88 196.73 176.26 198.4 170.3 199.53C159.07 201.66 148.1 200.33 137.94 195.3L118.54 185.7C112.17 182.55 105.98 179.39 99.06 177.4C77.61 171.24 51.39 168.71 29.48 173.43C27.14 173.93 24.92 173.25 24.39 170.73C23.95 168.61 25.64 166.71 28.03 166.24C47.24 162.47 66.97 163.2 86.23 166.8C96.9 168.8 106.94 171.79 116.67 176.63L137.19 186.84C141.62 189.05 145.98 191.13 150.88 192.17C158.9 193.86 167.12 193.21 174.94 191.04L185.82 188.02C195.98 185.2 206.16 183.11 216.72 182.54C222.08 182.25 226.95 182.87 232.08 183.98C234.29 184.46 235.88 186.07 235.46 188.41C235.08 190.5 232.85 191.69 230.53 191.15L230.52 191.14Z" fill="#324FB6"/>
<path d="M143.98 157.88C141.95 159.95 138.83 160.43 136.68 158.8C134.26 156.97 134.1 154.19 135.53 151.45C137.04 148.54 140.92 147.52 143.73 149.47C146.54 151.42 146.43 155.39 143.99 157.88H143.98Z" fill="#324FB6"/>
<path d="M165.33 181.9C163.36 181.35 161.08 179.31 160.48 177.39C159.74 175 161.82 172.83 163.48 171.86C165.79 170.51 168.29 170.82 170.31 172.54C172.15 174.11 172.31 176.86 171.31 179.02C170.31 181.18 168.08 182.67 165.34 181.9H165.33Z" fill="#324FB6"/>
<path d="M210.85 165.06C209.68 166.64 207.7 167.82 205.9 167.67C203.74 167.48 202.16 165.92 201.68 164.19C201.06 161.93 201.85 159.93 203.41 158.45C205.39 156.56 208.4 156.13 210.52 157.85C212.64 159.57 212.65 162.62 210.84 165.06H210.85Z" fill="#324FB6"/>
<path d="M375.96 124.06C374.51 124.86 372.92 125.03 371.45 124.28C369.58 123.33 368.05 119.21 368.8 117.48C369.2 116.56 370.07 115.77 371.18 115.25C373.87 113.99 376.61 114.5 378.07 117.07C379.4 119.4 378.54 122.63 375.96 124.06Z" fill="#324FB6"/>
<path d="M276.63 180.99C279.37 180.99 281.59 178.77 281.59 176.03C281.59 173.29 279.37 171.07 276.63 171.07C273.89 171.07 271.67 173.29 271.67 176.03C271.67 178.77 273.89 180.99 276.63 180.99Z" fill="#324FB6"/>
<path d="M387.49 142.97C386.64 144.83 384.55 145.67 382.79 145.1C380.78 144.45 379.89 142.61 379.94 140.52C379.99 138.79 380.39 137.33 381.85 136.49C383.31 135.65 384.85 136.06 386.26 137.09C388.08 138.42 388.51 140.75 387.5 142.98L387.49 142.97Z" fill="#324FB6"/>
<path d="M339.19 141.84C338.17 144.03 335.79 144.9 333.92 144.17C331.9 143.38 330.67 141.22 331.13 139.2C331.61 137.07 333.38 135.38 335.76 135.79C338.42 136.25 340.38 139.29 339.19 141.84Z" fill="#324FB6"/>
<path d="M55.47 186.91C54.67 189.41 52.45 190.58 49.98 190.01C48.42 189.65 47.25 188.35 47.07 186.87C46.87 185.21 47.97 184.02 49.3 183.08C50.63 182.14 52.37 181.51 53.92 182.46C55.3 183.31 56.04 185.12 55.47 186.9V186.91Z" fill="#324FB6"/>
<path d="M268 0.02C269.54 0.91 271.36 0.19 273 0.77C273.31 0.88 273.85 0.81 274 0.52C290.16 2.49 305.26 8.77 318.11 19.2C330.06 28.89 339.52 41.28 345.75 55.27C345.63 55.59 345.89 55.78 346 56.02C346.74 57.57 347.52 59.13 348 60.77C348.09 61.07 348.11 61.25 348.25 61.52C349.17 63.32 349.67 65.33 350.25 67.27C350.36 67.64 350.32 67.91 350.5 68.27C351.38 70.05 351.45 72.12 352 74.02C351.99 74.55 351.87 75.11 352.25 75.52C352.49 75.78 352.46 76.2 352.5 76.52C352.3 76.98 352.65 77.38 352.72 77.77C352.93 78.98 353.31 80.15 353.28 81.42L368.74 85.02C369.07 85.1 369.37 85.18 369.75 85.26L378.25 87.26C378.37 87.6 378.74 87.45 379 87.51L392.7 90.77L422.49 96.99C431.58 98.89 440.54 100.52 449.5 102.54L450.5 102.77L477.67 109.64C488.11 112.28 497.99 116.29 507.94 120.23C509.59 120.88 510.22 121.78 511.37 122.9C513.71 125.17 516.35 127.22 517.5 130.27C517.44 130.58 517.55 130.82 517.74 131.04C518.41 131.83 518.54 133.01 518.75 134.02C518.89 134.68 518.44 135.53 519 136.02L519 138.52C518.45 139 518.88 139.86 518.75 140.52C518.64 141.12 518.47 141.71 518.25 142.27C518.05 142.37 518.07 142.6 518 142.77C515.76 148.23 510.46 151.74 505 153.77C504.73 153.87 504.48 153.77 504.25 154.02C503.95 154.36 503.35 154.31 503 154.52C502.43 154.85 502.88 155.73 502.75 156.27C502.55 156.77 502.72 157.5 502.47 158.02C501.96 159.11 502.25 160.35 502.25 161.52V161.77C501.73 162.35 502.08 163.27 502 164.02C501.93 164.68 502.02 165.36 502 166.02C501.45 171.1 501.75 176.33 501.75 181.52V190.27C501.75 196.12 501.49 202.01 501.98 207.77L502.26 217.77C502.4 222.95 502.02 228.19 502.51 233.27L502.76 243.52C502.84 246.61 502.52 249.77 503.01 252.77V257.02C503.01 264.71 503.08 272.42 503.51 280.02C503.51 280.1 503.52 280.19 503.51 280.27C503.04 280.85 503.27 281.77 503.26 282.52C503.24 283.94 503.35 285.38 502.98 286.77C502.83 287.33 502.62 287.88 502.76 288.52C502.72 288.84 502.75 289.26 502.51 289.52C502.13 289.93 502.25 290.49 502.26 291.02C500.4 300.46 491.84 305.52 483.9 309.93C472.35 316.34 460.47 321.87 448.51 327.27C448.23 327.24 447.97 327.31 447.76 327.52L447.51 327.77C447.19 327.68 446.99 327.87 446.76 328.02C445.77 328.68 444.57 328.96 443.51 329.52C443.18 329.39 443 329.66 442.76 329.77L428.26 336.27C427.94 336.14 427.75 336.42 427.51 336.52L407.51 345.27C407.18 345.13 406.99 345.41 406.76 345.52C402.2 347.71 397.45 349.57 392.76 351.52C392.44 351.39 392.24 351.66 392.01 351.77C388.24 353.49 384.4 355.09 380.51 356.52C380.33 356.59 380.18 356.69 380.01 356.77C378.79 357.32 377.53 357.83 376.26 358.27C375.97 358.37 375.78 358.35 375.51 358.52C374.05 359.42 372.31 359.78 370.76 360.52C370.44 360.38 370.24 360.68 370.01 360.77L365.01 362.77C364.74 362.88 364.52 362.9 364.26 363.02C363.04 363.59 361.78 364.07 360.51 364.52C360.24 364.62 360.02 364.63 359.76 364.77C358.18 365.6 356.42 366.09 354.76 366.77C354.49 366.88 354.27 366.84 354.01 367.02C352.89 367.78 351.47 367.92 350.26 368.52C349.98 368.49 349.69 368.54 349.51 368.77L349.01 369.02C348.6 368.89 348.32 369.08 348.01 369.27C346.48 370.18 344.69 370.66 343.01 371.27C342.74 371.37 342.52 371.37 342.26 371.52C340.63 372.44 338.79 372.94 337.01 373.52L336.25 373.76L330.76 375.77L330.01 376.02L324.26 378.02C323.99 378.11 323.77 378.16 323.51 378.27C321.65 379.07 319.69 379.68 317.76 380.27C317.49 380.35 317.26 380.41 317.01 380.52C315.48 381.16 313.85 381.55 312.26 382.02C311.9 382.13 311.56 381.94 311.26 382.27C311 382.56 310.29 382.31 310.01 382.52C309.51 382.57 308.84 382.3 308.51 382.77C308.18 382.75 307.84 382.77 307.51 382.77H305.26C305.09 382.77 304.93 382.79 304.76 382.77C304.43 382.3 303.76 382.52 303.26 382.52H303.01C302.6 382.01 301.84 382.35 301.26 382.27C296.38 381.57 291.43 381.43 286.51 381.02C285.65 380.95 284.75 380.63 283.76 380.77C282.33 380.97 280.93 380.54 279.51 380.52C278.46 379.97 277.18 380.37 276.01 380.27C275.12 380.19 274.13 380.29 273.26 379.99C271.97 379.55 270.61 379.77 269.26 379.77H269.01C268.76 379.37 268.18 379.51 267.76 379.52C263.33 379.67 258.94 378.91 254.51 378.77C253.71 378.25 252.68 378.58 251.76 378.52C250.61 378.45 249.39 378.48 248.26 378.24C247.13 378 245.97 377.96 244.76 378.02C244.68 378.02 244.59 378.02 244.51 378.02C244.26 377.62 243.68 377.76 243.26 377.77C242.93 377.77 242.58 377.72 242.26 377.77C241.12 377.17 239.76 377.69 238.51 377.52L225.01 376.52C224.13 376 223.01 376.33 222.01 376.27C220.79 376.2 219.48 376.26 218.26 375.99C216.95 375.7 215.63 375.75 214.26 375.77C214.18 375.77 214.09 375.77 214.01 375.77C213.76 375.34 213.18 375.53 212.76 375.52L211.51 375.49C210.09 375 208.51 375.37 207.01 375.27C206.17 375.21 205.33 375.27 204.51 374.99C203.08 374.5 201.51 374.86 200.01 374.77L191.76 374.27C190.96 373.72 189.93 374.12 189.01 374.02C188.15 373.92 187.1 374.08 186.26 373.77C185.28 373.41 184.31 373.51 183.26 373.52C182.73 373.27 181.81 373.59 181.26 373.27C180.34 372.73 179.27 373.14 178.26 373.02L168.01 371.99C167.3 371.92 166.55 371.58 165.76 371.77C165.12 371.53 164.15 371.8 163.51 371.49C162.73 371.11 161.88 371.3 161.01 371.27C160.93 371.27 160.84 371.27 160.76 371.27C160.64 370.96 160.28 371.03 160.01 371.02C159.76 371.02 159.5 371.05 159.26 371.02C158.6 370.45 157.59 370.91 156.76 370.77L147.76 369.74C147.1 369.29 146.27 369.6 145.51 369.52C143.69 369.06 141.75 369.54 140.01 368.74C139.3 368.41 138.56 368.5 137.76 368.52L129.76 367.52C129.28 367.1 128.61 367.29 128.01 367.27C126.52 366.84 124.92 367.24 123.51 366.49C122.89 366.16 122.22 366.25 121.51 366.27C119.26 365.88 116.96 365.92 114.76 365.24C114.28 365.09 113.82 364.86 113.26 365.02L111.76 364.77C111.35 364.4 110.78 364.51 110.26 364.52C107.34 364.02 104.39 363.68 101.51 363.02C101.12 362.93 100.74 362.55 100.26 362.77C99.97 362.62 99.53 362.68 99.26 362.49C98.81 362.18 98.29 362.24 97.76 362.27C94.35 361.62 90.84 361.28 87.52 360.26C87.04 360.11 86.58 359.85 86.01 360.02C84.37 359.6 82.62 359.58 81.01 359.02C80.56 358.86 80.26 358.84 79.76 358.77C76.81 358.33 73.9 357.53 71.02 356.76C70.71 356.68 70.41 356.33 70.01 356.52C69.84 356.37 69.42 356.47 69.26 356.27C68.95 355.84 68.41 356.14 68.01 356.02C66.34 355.55 64.62 355.19 63.02 354.51C62.76 354.4 62.59 354.22 62.26 354.27C62.06 354.3 61.64 354.17 61.51 354.02C61.31 353.78 61.03 353.85 60.76 353.77C59.47 353.38 58.19 352.92 57.01 352.27C56.77 352.14 56.58 351.92 56.26 352.02C44.65 347.27 36.77 337.67 37.2 324.52C37.32 320.98 37.23 317.75 38 314.23L42.01 296.01C42.44 295.85 42.17 295.33 42.26 295.01C48.71 271.18 35.4 262.59 40.28 242.72C41.96 235.88 44.71 229.64 46.97 223C48.38 218.86 50.78 210.87 46.88 207.75C42.15 207.94 37.71 208.26 33.26 207.72C32.18 207.2 30.92 207.65 29.76 207.5C27.54 207.05 25.2 207.19 23.01 206.5C22.83 206.13 22.35 206.25 22.01 206.25C21.89 206.09 21.4 206.2 21.27 205.99C21.03 205.63 20.59 205.83 20.26 205.75C11.48 203.45 1.58 196.3 0.26 186.75C0.14 185.91 0.57 184.91 0.01 184.25V180.5C0.57 179.84 0.14 178.83 0.26 178C1.42 170.07 6.03 163 11.98 157.43C25.12 145.13 44.36 142.9 61.57 142.28L76.25 141.75C77.42 141.71 78.69 142.03 79.75 141.5C91.47 140.76 103.24 138.9 114.69 135.98C132.83 131.35 148.72 120.29 161.95 107.46C162.66 106.77 163.77 106.9 163.77 106.08L163.75 103.5V99.5C163.75 97.56 163.81 95.67 164 93.75C164.57 93.09 164.11 92.08 164.25 91.25C167.34 60.4 179.39 31.1 207.17 14.13C219.84 6.39 234.13 1.76 248.75 0.5C249.67 0.42 250.68 0.77 251.5 0.25C251.65 0.15 251.9 0.19 252 0H268V0.02ZM192.3 98.74C195.25 66.2 216.16 38.86 246.83 27.71C261.46 22.39 277.5 20.77 293.04 23.51C303.26 25.31 312.76 28.93 322.28 33.29C314.92 25.14 306.22 18.95 297.01 14.67C292.36 14.71 288.58 12.39 284.25 12.01C261.77 10.04 239.77 16.35 220.81 28.22C198.24 42.36 183.28 65.72 180.48 92.31C179.45 102.09 178.99 123.84 183.61 132.6C186.26 134.42 189.9 135.09 192.91 135.95C193.2 129.34 191.63 123.47 191.37 117.26C191.11 111.05 191.73 104.89 192.29 98.72L192.3 98.74ZM239.73 139.46C228.7 143.57 216.77 145.86 204.9 145.11C196.41 144.57 188.26 142.9 180.6 139.39C175.07 136.85 163.83 129.77 165.22 122.7C165.66 120.44 164.51 117.97 164.45 115.35C154.99 124.06 144.79 131.46 133.35 137.06C114.27 146.39 87.08 149.03 66.08 149.62C56.82 149.88 47.77 150.38 38.74 152.3C24.87 155.25 11.35 163.69 7.74 177.92C6.09 184.42 7.99 190.17 13.19 194.17C18.39 198.17 24.36 199.69 30.85 200.26C45.31 201.54 60.66 198.59 77.19 199.38C109.88 200.94 122.68 218.34 154.35 219.19C166.66 219.52 178.86 217.96 190.93 215.58L212.26 211.37C226.43 208.58 240.73 209.44 254.85 212.22C262.25 213.67 269.39 215.29 277 215.29C285.8 215.29 294.29 213.41 302.53 210.35L331.51 199.62C355.45 190.75 368.6 194.5 391.97 191.28C404.58 189.55 416.5 185.72 427.81 179.88C443.01 172.03 464.76 157.44 479.9 153.26L499.89 147.74C503.18 146.83 506.13 145.39 508.68 143.28C512.46 140.15 512.74 135.39 509.63 131.56C506.52 127.73 501.85 126.12 496.82 125.32C473.65 121.6 448.35 137.81 429.8 150.57C417.27 159.19 403.35 163.81 388.09 164.35L371.73 164.93C342.76 165.96 332.11 170.82 308.71 186.47C295.62 195.23 280.61 199.3 264.97 196.51C263.15 196.18 261.79 194.45 261.89 192.68C261.97 191.22 263.67 189.02 265.51 189.33C279.39 191.68 292.54 188.52 304.24 180.72C311.95 175.58 319.64 170.43 328.13 166.48C341.74 160.15 356.44 157.92 371.32 157.66C392.67 157.29 406.09 157.2 424.36 145.42L443.19 133.28C449.92 128.94 456.96 125.66 464.36 122.67C469.52 120.58 474.71 119.56 480.25 118.07C463.14 113.28 446.47 109.14 429.46 105.89C414.16 102.96 399.03 99.89 383.89 96.34L353.87 89.3C353.89 93.59 353.99 97.52 353.38 101.6C352.27 109.08 346.54 114.46 339.81 117.33C339.72 117.37 339.55 117.28 339.42 117.35C339.27 117.42 339.08 117.6 339.22 117.79C338.77 118.2 337.93 118.02 337.48 118.31L323.13 100.76L342.89 76.97C344.57 74.95 343.12 72.19 341.04 71.39C338.8 70.52 336.52 71.72 335.87 74.18L318.35 95.12L302.15 75.71L317.82 56.9C318.98 55.69 319.26 53.88 318.38 52.37C317.68 51.17 316.17 50.38 314.44 50.53C313.04 50.65 311.84 51.74 311.31 53.42L297.45 70L281.25 50.63L291.82 37.88C293.48 35.88 291.97 33.21 290.08 32.41C287.42 31.29 285.99 32.95 284.65 35C282.31 38.56 279.26 41.47 276.56 45L268.37 34.99C267.26 33.64 266.92 32.16 264.98 32.09C263.4 32.03 261.83 32.84 261.12 34.1C260.24 35.7 260.76 37.4 261.86 38.71L271.86 50.61L255.67 70.01C251.06 64.35 246.25 59.17 241.99 53.38C240.57 51.45 239.34 49.64 236.56 50.8C234.61 51.61 233.47 53.97 234.68 56.17L250.94 75.69L234.71 95.12L217.1 74C216.37 71.49 214.05 70.46 211.81 71.47C209.87 72.34 208.55 74.96 210.18 76.93L229.97 100.76L210.74 123.94C209.27 125.72 209.42 128.17 211.04 129.39C212.88 130.77 215.05 130.12 216.46 128.42L234.7 106.43L250.86 125.77L239.75 139.49L239.73 139.46ZM301.16 218.56C299.1 218.95 297.09 219.49 294.77 220.33C299.24 225.71 301.33 231.82 301.65 238.68C302.55 257.87 291.92 265.96 299.43 288.4L305.07 305.26C309.1 317.29 309.31 329.74 306.39 342.09L302.8 357.29C301.46 362.98 301.47 368.97 303.32 374.55C304.53 375.8 307.17 375.73 308.75 375.27C324.82 370.48 340.62 364.32 356.41 358.2C380.68 348.8 404.53 338.67 428.32 328.17C444.75 320.91 461.14 313.69 476.93 305.29C482.22 302.48 487.34 299.82 491.64 295.66C494.96 292.45 495.64 287.92 495.86 283.37C496.18 276.75 496.05 270.3 495.89 263.63L494.86 222.02L494.68 205.01C494.51 188.84 493.69 173.35 495.34 156.73C481.99 159.42 469.9 164.3 458.25 171.06C429.28 187.87 414.08 197.97 379.07 199.79L367.63 200.38C356.46 200.96 345.66 202.2 335.1 206.09L301.17 218.58L301.16 218.56ZM60.23 206.81C58.67 206.88 57.08 206.86 55.28 207.2C57.07 212.05 56.63 216.7 55.18 221.52C53.35 227.63 51.04 233.39 48.88 239.43C41.17 261.02 56.13 267.17 49.84 294.83L46.68 308.74C45.36 314.54 44.34 320.3 44.56 326.18C44.86 334.15 48.94 342.29 56.23 343.77C56.14 343.9 56.19 344.01 56.27 344.1C56.42 344.29 56.65 344.18 56.81 344.23L58.45 344.83C58.32 344.97 58.45 345.05 58.52 345.11C58.7 345.26 58.89 345.24 59.05 345.26C60.18 345.47 61.09 346.35 62.27 346.3C69.87 349.65 78.75 350.92 87.12 352.67C109.28 357.31 131.45 360.72 153.97 363.03L186.21 366.34L234.99 369.81L295.61 374.22C294.22 367.42 294.43 360.7 296.03 354.02L299.28 340.51C306.58 310.16 289.13 294.92 289.36 272.78C289.48 260.84 294.45 253.18 294.35 240.03C294.31 234.5 292.87 229.3 289.24 225.04C288.46 224.13 287.91 223.09 287.64 221.73C268.08 225.11 253.06 217.26 233.25 217.04C241.16 227.15 237.76 242.08 229.02 249.98C224.63 253.95 218.7 255.91 213.01 255.06C205.75 253.98 199.94 249.11 197.02 243.23C193.4 235.95 194.09 228.22 198.42 221.44C185.68 224.33 173.32 226.1 160.52 226.51C145.77 226.98 131.71 224.04 118.22 218.26C94.94 208.28 85.66 205.64 60.23 206.83V206.81ZM223.08 245.39C232.04 238.58 232.57 224.07 225.8 220.5C224.27 219.69 222.65 219.27 221.91 217.47C217.48 217.76 213.01 218.53 208.59 219.43C208.18 221.01 207.4 222.15 206.29 223.33C202.39 227.47 200.82 232.99 202.91 238.57C204.66 243.21 208.92 247.18 214.4 247.89C217.32 248.27 220.52 247.34 223.08 245.4V245.39Z" fill="#324FB6"/>
<path d="M192.3 98.74C191.74 104.92 191.13 111.03 191.38 117.28C191.63 123.53 193.2 129.36 192.92 135.97C189.91 135.11 186.27 134.44 183.62 132.62C178.99 123.85 179.46 102.11 180.49 92.33C183.29 65.74 198.25 42.38 220.82 28.24C239.78 16.37 261.78 10.06 284.26 12.03C288.59 12.41 292.37 14.73 297.02 14.69C306.23 18.97 314.93 25.16 322.29 33.31C312.77 28.95 303.27 25.33 293.05 23.53C277.51 20.79 261.46 22.42 246.84 27.73C216.17 38.88 195.26 66.22 192.31 98.76L192.3 98.74Z" fill="#FDFDFE"/>
<path d="M339.8 117.31C339.95 117.46 339.82 117.52 339.74 117.61C339.59 117.78 339.32 117.67 339.21 117.77C339.07 117.58 339.26 117.4 339.41 117.33C339.54 117.27 339.7 117.35 339.8 117.31Z" fill="#6583F6"/>
<path d="M289.74 125.06C289.18 125.09 288.62 125.14 288.07 125.1C287.43 125.05 286.71 125.11 286.21 125.54C285.8 125.46 285.4 125.72 285 125.71C284.28 125.71 283.03 125.45 282.68 126.19C282.54 126.17 282.39 126.23 282.25 126.22C282.16 126.08 282 125.99 281.89 126.04C281.72 126.12 281.52 126.33 281.69 126.47L280.53 126.49C280.11 126.17 279.52 126.42 279.24 126.82C278.89 126.8 278.52 127.01 278.18 126.97C277.76 126.92 277.32 126.93 277.04 127.3C276.7 127.25 276.33 127.46 275.99 127.46C275.52 127.03 275.12 127.69 274.7 127.79C274.14 127.93 273.57 128.03 273.03 128.24C273.09 128.02 272.76 127.94 272.62 128.02C272.45 128.11 272.29 128.31 272.44 128.47C271.43 128.49 270.57 129.16 269.56 129.09C269.12 129.06 268.44 129.14 268.43 129.68C268.13 129.66 267.83 129.73 267.54 129.77C267.25 129.81 266.83 129.71 266.72 130.05C266.19 130.28 265.29 130.38 264.76 130.54C262.89 129.59 261.98 127.44 260.33 125.78L276.52 106.38L291.68 124.5C290.73 124.88 290.15 124.58 289.74 125.07V125.06Z" fill="#324FB6"/>
<path d="M330.08 120.69C324.31 122.3 318.28 122.61 312.15 123.14C309.39 123.38 306.69 123.31 304.05 123.74L318.37 106.37L330.09 120.68L330.08 120.69Z" fill="#324FB6"/>
<path d="M337.48 118.29C335.27 119.72 332.51 120.01 330.08 120.7L318.36 106.39L304.04 123.76C300.22 124.38 296.16 124.98 292.25 125.04L289.74 125.08C290.15 124.59 290.73 124.9 291.68 124.51L276.52 106.39L260.33 125.79C261.98 127.45 262.89 129.6 264.76 130.55C262.58 132.16 259.42 131.88 256.98 133.22C256.73 132.53 256.19 132.09 255.49 131.52C254.73 132.76 253.54 133.47 253.01 134.71C248.51 135.97 244.14 137.83 239.74 139.47L250.85 125.75L234.69 106.41L216.45 128.4C215.04 130.1 212.87 130.75 211.03 129.37C209.4 128.15 209.25 125.7 210.73 123.92L229.96 100.74L210.17 76.91C208.54 74.94 209.85 72.32 211.8 71.45C214.04 70.45 216.36 71.48 217.09 73.98L234.7 95.1L250.93 75.67L234.67 56.15C233.46 53.95 234.6 51.59 236.55 50.78C239.33 49.62 240.57 51.43 241.98 53.36C246.23 59.14 251.04 64.33 255.66 69.99L271.85 50.59L261.85 38.69C260.75 37.38 260.23 35.68 261.11 34.08C261.81 32.81 263.39 32 264.97 32.07C266.91 32.15 267.25 33.62 268.36 34.97L276.55 44.98C279.26 41.45 282.31 38.54 284.64 34.98C285.99 32.93 287.41 31.27 290.07 32.39C291.96 33.18 293.47 35.85 291.81 37.86L281.24 50.61L297.44 69.98L311.3 53.4C311.83 51.72 313.02 50.63 314.43 50.51C316.16 50.36 317.67 51.15 318.37 52.35C319.26 53.87 318.97 55.67 317.81 56.88L302.14 75.69L318.34 95.1L335.86 74.16C336.51 71.7 338.79 70.5 341.03 71.37C343.1 72.17 344.55 74.93 342.88 76.95L323.12 100.74L337.47 118.29H337.48ZM276.55 95.01L292.71 75.65L276.55 56.32L260.38 75.67L276.56 95L276.55 95.01ZM255.62 120.1L271.8 100.72L255.65 81.36L239.43 100.78L255.62 120.1ZM297.49 120.1L313.63 100.7L297.46 81.36L281.3 100.7L297.49 120.1Z" fill="#6583F6"/>
<path d="M256.97 133.21C255.7 133.91 254.41 134.3 252.99 134.69C253.52 133.46 254.71 132.75 255.47 131.5C256.17 132.07 256.72 132.51 256.96 133.2L256.97 133.21Z" fill="#324FB6"/>
<path d="M255.62 120.1L239.43 100.78L255.65 81.35L271.8 100.71L255.62 120.1Z" fill="#324FB6"/>
<path d="M297.49 120.1L281.29 100.7L297.45 81.36L313.62 100.7L297.49 120.1Z" fill="#324FB6"/>
<path d="M276.55 95.01L260.38 75.67L276.55 56.32L292.71 75.65L276.55 95.01Z" fill="#324FB6"/>
<path d="M307.5 382.77H305.25V383.02H307.5V382.77Z" fill="#6583F6"/>
<path d="M304.75 382.77C304.25 382.72 303.58 382.98 303.25 382.52C303.75 382.52 304.42 382.3 304.75 382.77Z" fill="#BEE9F2"/>
<path d="M349 369.02C348.75 369.31 348.36 369.31 348 369.27C348.31 369.08 348.59 368.89 349 369.02Z" fill="#BEE9F2"/>
<path d="M350.25 368.52C350.01 368.64 349.82 368.88 349.5 368.77C349.68 368.54 349.97 368.49 350.25 368.52Z" fill="#BEE9F2"/>
<path d="M354.75 366.77C354.62 367.06 354.27 367.03 354 367.02C354.26 366.84 354.48 366.88 354.75 366.77Z" fill="#BEE9F2"/>
<path d="M337 373.52C336.87 373.81 336.52 373.78 336.24 373.76L337 373.52Z" fill="#BEE9F2"/>
<path d="M365 362.77C364.87 363.06 364.52 363.03 364.25 363.02C364.51 362.9 364.73 362.88 365 362.77Z" fill="#BEE9F2"/>
<path d="M370.75 360.52C370.51 360.63 370.32 360.88 370 360.77C370.23 360.68 370.43 360.38 370.75 360.52Z" fill="#BEE9F2"/>
<path d="M376.25 358.27C376.12 358.56 375.77 358.53 375.5 358.52C375.77 358.35 375.96 358.37 376.25 358.27Z" fill="#BEE9F2"/>
<path d="M330.75 375.77C330.62 376.06 330.27 376.03 330 376.02L330.75 375.77Z" fill="#BEE9F2"/>
<path d="M407.5 345.27C407.26 345.37 407.07 345.64 406.75 345.52C406.98 345.41 407.17 345.13 407.5 345.27Z" fill="#BEE9F2"/>
<path d="M324.25 378.02C324.12 378.31 323.77 378.28 323.5 378.27C323.76 378.16 323.98 378.11 324.25 378.02Z" fill="#BEE9F2"/>
<path d="M443.5 329.52C443.26 329.64 443.07 329.87 442.75 329.77C442.99 329.66 443.17 329.39 443.5 329.52Z" fill="#BEE9F2"/>
<path d="M343 371.27C342.87 371.56 342.52 371.53 342.25 371.52C342.51 371.37 342.73 371.37 343 371.27Z" fill="#BEE9F2"/>
<path d="M62.26 346.31C47.89 334.45 49.45 322.67 53.86 306.2C55.68 299.41 56.97 292.8 57.35 285.68C57.88 275.63 53.68 266.39 52.53 255.6C51.05 241.72 59.18 238.46 61.34 220.94C61.94 216.08 61.1 211.47 60.23 206.82C85.67 205.64 94.94 208.27 118.22 218.25C131.71 224.03 145.77 226.97 160.52 226.5C173.32 226.09 185.68 224.32 198.42 221.43C194.09 228.2 193.4 235.94 197.02 243.22C199.94 249.09 205.76 253.96 213.01 255.05C218.7 255.9 224.63 253.94 229.02 249.97C237.76 242.07 241.16 227.14 233.25 217.03C253.06 217.25 268.07 225.1 287.64 221.72C287.91 223.08 288.47 224.12 289.24 225.03C292.87 229.29 294.31 234.49 294.35 240.02C294.45 253.17 289.48 260.83 289.36 272.77C289.13 294.92 306.58 310.15 299.28 340.5L296.03 354.01C294.42 360.69 294.21 367.41 295.61 374.21L234.99 369.8L186.21 366.33L153.97 363.02C131.45 360.71 109.28 357.3 87.12 352.66C78.75 350.91 69.87 349.64 62.27 346.29L62.26 346.31ZM148.01 262.3C145.97 254.93 144.67 247.55 143.23 240.09C142.96 238.69 141.92 237.76 140.97 237.33C139.73 236.77 138.43 236.92 137.22 237.56C129.15 241.83 120.06 244.55 110.99 243.88C105.55 243.48 101.11 241.57 96.98 238.29C93.38 235.44 90.33 232.26 88.64 227.92C88.26 226.93 84.56 223.33 83.11 223.26C81.66 223.19 80.81 223.88 79.62 224.71L61.48 237.45C59.36 238.94 59.01 240.39 58.88 242.76C58.76 244.89 59.51 245.74 60.21 247.63C65.17 261.08 75.22 272.66 88.74 278.07C106.48 285.17 131.03 276.52 146.61 267.53C148.84 266.24 148.54 264.2 148.02 262.32L148.01 262.3ZM266.11 360.38C272.66 360.97 275.04 363.5 277.14 359.36C280.17 353.39 281.46 346.9 282.77 340.25C285.67 325.5 285.96 310.6 285.29 295.51C284.76 283.6 282.6 272.11 280.42 260.45C279.87 257.53 278.09 255.63 274.63 255.98L249.39 258.54C247.96 258.68 246.35 259.17 245.48 260.16C244.81 260.92 243.96 262.8 243.98 264.18C244.3 288.97 248.6 301.39 239.64 327.8C237.02 335.53 233.69 342.74 230.32 350.18C228.52 354.16 233.62 357.47 237.02 357.77L266.1 360.37L266.11 360.38ZM162.35 342.89C178.57 329.8 204.88 312.12 222.67 301.03C224.85 299.67 226.07 297.55 225.49 294.93C223.13 284.29 219.74 273.87 215.6 263.82C215.02 262.41 213.8 261.4 212.89 260.88C211.59 260.14 209.91 260.58 208.49 261.11C187.53 268.88 168.38 281.29 152.14 296.63C147.78 300.75 143.5 304.63 139.96 309.54L139.79 314.68C142.33 319.53 153.96 342.93 158.29 343.9C159.68 344.21 161.11 343.88 162.34 342.89H162.35ZM104.07 338.27C117.8 331.48 121.08 314.5 113.6 302.63C109.95 296.83 103.16 292.44 96.27 293.57C81.13 296.04 73.94 308.48 75.63 323.08C76.38 329.57 80.04 334.97 85.18 337.92C91.25 341.41 98.01 341.27 104.07 338.27Z" fill="#6583F6"/>
<path d="M60.23 206.81C61.1 211.46 61.94 216.07 61.34 220.93C59.18 238.46 51.05 241.71 52.53 255.59C53.68 266.38 57.88 275.61 57.35 285.67C56.97 292.79 55.68 299.4 53.86 306.19C49.45 322.66 47.89 334.44 62.26 346.3C61.07 346.35 60.17 345.47 59.04 345.26C59.19 345.07 58.99 344.89 58.84 344.82C58.71 344.77 58.55 344.86 58.45 344.82L56.81 344.22C56.97 344.02 56.74 343.86 56.6 343.83L56.24 343.76C48.95 342.28 44.87 334.14 44.57 326.17C44.35 320.29 45.37 314.53 46.69 308.73L49.85 294.82C56.14 267.16 41.18 261.01 48.89 239.42C51.05 233.38 53.36 227.62 55.19 221.51C56.64 216.69 57.08 212.05 55.29 207.19C57.09 206.85 58.67 206.87 60.24 206.8L60.23 206.81Z" fill="#FDFDFE"/>
<path d="M223.08 245.39C220.52 247.34 217.32 248.26 214.4 247.88C208.92 247.18 204.66 243.2 202.91 238.56C200.81 232.98 202.38 227.46 206.29 223.32C207.4 222.14 208.18 220.99 208.59 219.42C213.01 218.53 217.48 217.75 221.91 217.46C222.65 219.27 224.27 219.69 225.8 220.49C232.57 224.06 232.04 238.57 223.08 245.38L223.08 245.39Z" fill="#FD9AFB"/>
<path d="M204.5 374.99C203 374.89 201.39 375.36 200 374.77C201.5 374.86 203.07 374.5 204.5 374.99Z" fill="#BEE9F2"/>
<path d="M211.5 375.49C210 375.46 208.39 375.85 207 375.27C208.5 375.37 210.08 375 211.5 375.49Z" fill="#BEE9F2"/>
<path d="M273.25 379.99C271.92 379.89 270.47 380.35 269.25 379.77C270.6 379.77 271.96 379.55 273.25 379.99Z" fill="#BEE9F2"/>
<path d="M218.25 375.99C216.92 375.89 215.47 376.35 214.25 375.77C215.62 375.75 216.94 375.7 218.25 375.99Z" fill="#BEE9F2"/>
<path d="M242.25 377.77C240.97 377.97 239.7 377.61 238.5 377.52C239.75 377.69 241.11 377.17 242.25 377.77Z" fill="#BEE9F2"/>
<path d="M279.5 380.52C278.33 380.5 277.05 380.76 276 380.27C277.17 380.37 278.45 379.97 279.5 380.52Z" fill="#BEE9F2"/>
<path d="M248.25 378.24C247.09 378.14 245.8 378.6 244.75 378.02C245.96 377.96 247.1 377.99 248.25 378.24Z" fill="#BEE9F2"/>
<path d="M181.25 373.27C180.22 373.48 179.2 373.12 178.25 373.02C179.26 373.14 180.33 372.73 181.25 373.27Z" fill="#BEE9F2"/>
<path d="M186.25 373.77C185.21 373.72 184.21 373.97 183.25 373.52C184.3 373.51 185.27 373.41 186.25 373.77Z" fill="#BEE9F2"/>
<path d="M225 376.52C224 376.45 222.88 376.79 222 376.27C223 376.33 224.12 376 225 376.52Z" fill="#BEE9F2"/>
<path d="M286.5 381.02C285.59 380.87 284.54 381.36 283.75 380.77C284.74 380.63 285.64 380.95 286.5 381.02Z" fill="#BEE9F2"/>
<path d="M254.5 378.77C253.58 378.74 252.54 379.02 251.75 378.52C252.67 378.58 253.7 378.25 254.5 378.77Z" fill="#BEE9F2"/>
<path d="M191.75 374.27C190.83 374.21 189.8 374.55 189 374.02C189.92 374.12 190.95 373.72 191.75 374.27Z" fill="#BEE9F2"/>
<path d="M159.25 371.02C158.41 370.92 157.46 371.29 156.75 370.77C157.58 370.91 158.59 370.45 159.25 371.02Z" fill="#BEE9F2"/>
<path d="M163.5 371.49C162.67 371.41 161.67 371.84 161 371.27C161.87 371.3 162.72 371.11 163.5 371.49Z" fill="#BEE9F2"/>
<path d="M168 371.99C167.18 372.12 166.47 372.04 165.75 371.77C166.54 371.58 167.29 371.92 168 371.99Z" fill="#BEE9F2"/>
<path d="M147.75 369.74C146.93 369.94 146.22 369.7 145.5 369.52C146.26 369.6 147.09 369.29 147.75 369.74Z" fill="#BEE9F2"/>
<path d="M140 368.74C139.24 368.7 138.39 369.01 137.75 368.52C138.55 368.5 139.29 368.42 140 368.74Z" fill="#BEE9F2"/>
<path d="M123.5 366.49C122.77 366.74 122.12 366.37 121.5 366.27C122.21 366.26 122.88 366.16 123.5 366.49Z" fill="#BEE9F2"/>
<path d="M129.75 367.52C129.1 367.69 128.56 367.43 128 367.27C128.6 367.29 129.27 367.1 129.75 367.52Z" fill="#BEE9F2"/>
<path d="M114.75 365.24C114.23 365.28 113.66 365.4 113.25 365.02C113.81 364.87 114.27 365.09 114.75 365.24Z" fill="#BEE9F2"/>
<path d="M111.75 364.77C111.23 364.77 110.66 364.89 110.25 364.52C110.77 364.52 111.34 364.4 111.75 364.77Z" fill="#BEE9F2"/>
<path d="M99.25 362.49C98.69 362.76 98.21 362.36 97.75 362.27C98.28 362.24 98.8 362.18 99.25 362.49Z" fill="#BEE9F2"/>
<path d="M69.25 356.27C68.83 356.25 68.25 356.45 68 356.02C68.41 356.13 68.94 355.84 69.25 356.27Z" fill="#BEE9F2"/>
<path d="M214 375.77C213.58 375.74 213 375.94 212.75 375.52C213.17 375.52 213.75 375.34 214 375.77Z" fill="#6583F6"/>
<path d="M244.5 378.02C244.08 377.99 243.5 378.19 243.25 377.77C243.67 377.77 244.25 377.62 244.5 378.02Z" fill="#6583F6"/>
<path d="M101.5 363.02C101.06 363.05 100.58 363.1 100.25 362.77C100.73 362.55 101.11 362.93 101.5 363.02Z" fill="#BEE9F2"/>
<path d="M269 379.77C268.58 379.77 268 379.94 267.75 379.52C268.17 379.51 268.75 379.37 269 379.77Z" fill="#6583F6"/>
<path d="M59.04 345.27C58.88 345.24 58.7 345.27 58.51 345.12C58.43 345.06 58.31 344.98 58.44 344.84C58.54 344.88 58.7 344.79 58.83 344.84C58.98 344.9 59.19 345.09 59.03 345.28L59.04 345.27Z" fill="#6583F6"/>
<path d="M56.8 344.24C56.65 344.18 56.41 344.3 56.26 344.11C56.19 344.02 56.13 343.9 56.22 343.78L56.58 343.85C56.73 343.88 56.96 344.04 56.79 344.24H56.8Z" fill="#6583F6"/>
<path d="M57 352.27C56.68 352.39 56.49 352.12 56.25 352.02C56.57 351.92 56.76 352.14 57 352.27Z" fill="#BEE9F2"/>
<path d="M160.75 371.27C160.48 371.27 160.12 371.32 160 371.02C160.27 371.03 160.63 370.96 160.75 371.27Z" fill="#6583F6"/>
<path d="M63.01 354.51C62.74 354.53 62.38 354.56 62.25 354.27C62.58 354.22 62.75 354.4 63.01 354.51Z" fill="#BEE9F2"/>
<path d="M61.5 354.02C61.23 354.03 60.88 354.06 60.75 353.77C61.02 353.85 61.3 353.78 61.5 354.02Z" fill="#BEE9F2"/>
<path d="M104.07 338.27C98.01 341.27 91.25 341.41 85.18 337.92C80.04 334.97 76.38 329.57 75.63 323.08C73.94 308.48 81.13 296.04 96.27 293.57C103.15 292.45 109.94 296.84 113.6 302.63C121.08 314.5 117.8 331.48 104.07 338.27ZM100.72 331.83C106.6 329 109.75 323.76 110.18 317.34C110.57 311.55 108.12 305.52 103.37 302.31C99.3 299.57 95.65 300.64 91.93 302.96C90.08 304.12 87.98 304.35 86.43 306.6C81.21 314.16 80.64 326.85 88.59 331.48C92.55 333.79 96.62 333.8 100.72 331.82V331.83Z" fill="#324FB6"/>
<path d="M100.72 331.83C96.63 333.8 92.55 333.79 88.59 331.49C80.64 326.86 81.2 314.17 86.43 306.61C87.98 304.36 90.08 304.13 91.93 302.97C95.65 300.64 99.3 299.57 103.37 302.32C108.12 305.53 110.57 311.55 110.18 317.35C109.74 323.76 106.6 329.01 100.72 331.84V331.83Z" fill="#FD9AFB"/>
<path d="M266.11 360.38L237.03 357.78C233.63 357.48 228.53 354.17 230.33 350.19C233.69 342.75 237.02 335.54 239.65 327.81C248.61 301.4 244.31 288.98 243.99 264.19C243.97 262.82 244.82 260.94 245.49 260.17C246.36 259.18 247.97 258.7 249.4 258.55L274.64 255.99C278.09 255.64 279.88 257.54 280.43 260.46C282.61 272.11 284.77 283.61 285.3 295.52C285.97 310.61 285.68 325.51 282.78 340.26C281.47 346.91 280.18 353.4 277.15 359.37C275.05 363.5 272.67 360.97 266.12 360.39L266.11 360.38ZM238.02 350.49L255.51 352.07L271.84 353.75C275.51 342.81 277.14 331.75 277.97 320.47C278.44 309.83 278.41 299.38 277.56 288.77C276.55 280.15 275.28 271.83 273.48 263.33L251.11 265.67L252.47 290.52C253.05 303.75 251.06 316.42 246.86 328.9C244.36 336.34 241.82 343.43 238.01 350.49H238.02Z" fill="#324FB6"/>
<path d="M238.02 350.49C241.83 343.43 244.36 336.34 246.87 328.9C251.07 316.42 253.07 303.75 252.48 290.52L251.12 265.67L273.49 263.33C275.29 271.82 276.56 280.14 277.57 288.77C278.42 299.38 278.45 309.83 277.98 320.47C277.14 331.75 275.52 342.81 271.85 353.75L255.52 352.07L238.03 350.49H238.02Z" fill="#FD9AFB"/>
<path d="M162.35 342.89C161.12 343.88 159.69 344.21 158.3 343.9C153.97 342.93 142.34 319.54 139.8 314.68L139.97 309.54C143.5 304.62 147.78 300.75 152.15 296.63C168.39 281.29 187.54 268.88 208.5 261.11C209.92 260.58 211.6 260.14 212.9 260.88C213.81 261.39 215.02 262.4 215.61 263.82C219.75 273.88 223.14 284.3 225.5 294.93C226.08 297.55 224.86 299.67 222.68 301.03C204.89 312.12 178.58 329.81 162.36 342.89L162.35 342.89ZM159.91 335.59C167.85 329.21 175.84 323.51 184.11 317.86C195.27 310.03 206.42 302.53 218.16 295.34C215.94 286.07 213.12 277.33 209.65 268.4C191.55 275.4 174.87 285.87 160.56 298.78C155.73 303.19 151.01 307.41 146.8 312.49C150.88 320.53 155.06 328.15 159.9 335.6L159.91 335.59Z" fill="#324FB6"/>
<path d="M159.91 335.59C155.07 328.14 150.89 320.52 146.81 312.48C151.02 307.4 155.74 303.18 160.57 298.77C174.88 285.86 191.55 275.4 209.66 268.39C213.13 277.32 215.95 286.06 218.17 295.33C206.43 302.53 195.28 310.02 184.12 317.85C175.85 323.5 167.86 329.2 159.92 335.58L159.91 335.59Z" fill="#BEE9F2"/>
<path d="M148.01 262.3C148.53 264.18 148.83 266.22 146.6 267.51C131.03 276.5 106.47 285.15 88.73 278.05C75.21 272.64 65.16 261.06 60.2 247.61C59.5 245.72 58.75 244.87 58.87 242.74C59 240.38 59.36 238.92 61.47 237.43L79.61 224.69C80.8 223.86 81.59 223.16 83.1 223.24C84.61 223.32 88.24 226.92 88.63 227.9C90.32 232.24 93.37 235.42 96.97 238.27C101.11 241.55 105.54 243.46 110.98 243.86C120.06 244.53 129.14 241.81 137.21 237.54C138.41 236.9 139.72 236.75 140.96 237.31C141.92 237.74 142.95 238.68 143.22 240.07C144.66 247.54 145.97 254.92 148 262.28L148.01 262.3ZM140.56 262.67L136.88 245.86C129.57 249.12 122.04 251.14 114.31 251.17C105.89 251.51 98.49 248.88 92.08 243.68C87.97 240.34 84.52 236.68 82.38 231.69L66.16 243.07L70.07 252.01C74.84 260.18 81.88 267.32 90.72 271.06C105.76 277.42 126.48 269.88 140.56 262.68V262.67Z" fill="#324FB6"/>
<path d="M140.56 262.67C126.47 269.87 105.75 277.41 90.72 271.05C81.87 267.31 74.84 260.17 70.07 252L66.16 243.06L82.38 231.68C84.52 236.66 87.97 240.33 92.08 243.67C98.49 248.88 105.89 251.5 114.31 251.16C122.03 251.13 129.57 249.11 136.88 245.85L140.56 262.66V262.67Z" fill="#FD9AFB"/>
<path d="M308.75 375.25C309.34 373.66 307.37 372.8 306.85 371.62C305.58 365.42 306.73 359.13 308.23 353.03L312.65 335.03C315.21 324.59 314 314.35 310.47 304.23L304.2 286.25C297.31 266.49 305.78 260.54 306.44 241.01C306.72 232.86 304.79 225.62 301.15 218.54L335.08 206.05C345.64 202.16 356.44 200.92 367.61 200.34L379.05 199.75C414.06 197.93 429.26 187.83 458.23 171.02C469.88 164.26 481.97 159.37 495.32 156.69C493.67 173.31 494.49 188.8 494.66 204.97L494.84 221.98L495.87 263.59C496.04 270.26 496.16 276.71 495.84 283.33C495.62 287.89 494.94 292.41 491.62 295.62C487.32 299.77 482.2 302.43 476.91 305.25C461.12 313.65 444.72 320.87 428.3 328.13C404.51 338.64 380.66 348.76 356.39 358.16C340.6 364.28 324.8 370.43 308.73 375.23L308.75 375.25ZM398.18 270.77C417.54 263.63 436.39 255.76 454.77 246.54C461.21 243.31 467.47 239.81 472.95 235.33C475.3 233.41 476.09 230.77 475.87 227.8C474.84 213.76 473.02 199.84 470.71 185.95C470.23 183.07 468.95 181.28 466.18 180.77C464.86 180.53 463.6 179.82 462.15 180.78C451.55 187.86 440.64 194.44 429.19 200.22L392.17 218.88L378.63 224.54C377.09 225.18 375.34 227.79 375.83 229.69L385.96 268.98C386.29 270.27 387.63 270.9 388.39 271.3C389.44 271.84 390.83 271.15 391.78 270.84C393.63 271.65 395.81 271.62 398.17 270.75L398.18 270.77ZM318.55 241.55C320.96 247.85 327.27 250.25 333.52 249.91C341.12 249.5 347.79 244.71 349.64 237.48C351.49 230.25 348.18 222.12 341.55 218.62C336.66 216.04 332.31 216.99 327.86 219.56C326.47 220.36 325.01 219.89 323.56 221.45C318.71 226.67 315.84 234.45 318.56 241.55H318.55ZM354.35 344.89C356.45 345.63 357.96 344.59 359.5 343.46C368.84 336.64 378.31 330.15 387.16 322.79C389.3 321.01 390.36 318.63 388.86 316.28C389.95 314.49 389.27 312.92 388.1 311.39C379.22 299.8 369.96 288.58 362.55 275.98L352.5 258.9C351.64 257.43 349.94 256.85 348.67 256.73C346.88 256.56 346.38 257.99 345.24 259.09C334.43 269.51 324.07 277.1 313.01 287.08C312.59 288.9 312.68 290.54 312.53 292.48C318.5 302.11 324.8 311.3 331.64 320.37L349.14 343.55C350.42 345.25 352.35 346.07 354.34 344.89H354.35ZM464.33 291.51C469.15 279.29 462.35 265.45 449.8 262.4C437.25 259.35 418.93 272 419.2 287.92C419.38 298.64 427.83 306.87 438.41 307.91C448.99 308.95 460.22 301.93 464.33 291.51Z" fill="#6583F6"/>
<path d="M301.16 218.56C304.8 225.63 306.73 232.88 306.45 241.03C305.78 260.55 297.31 266.5 304.21 286.27L310.48 304.25C314.01 314.37 315.22 324.61 312.66 335.05L308.24 353.05C306.74 359.15 305.59 365.44 306.86 371.64C307.38 372.82 309.35 373.68 308.76 375.27C307.19 375.74 304.55 375.8 303.33 374.55C301.48 368.96 301.46 362.97 302.81 357.29L306.4 342.09C309.31 329.75 309.11 317.29 305.08 305.26L299.44 288.4C291.93 265.97 302.56 257.87 301.66 238.68C301.34 231.82 299.25 225.71 294.78 220.33C297.1 219.5 299.12 218.96 301.17 218.56H301.16Z" fill="#FDFDFE"/>
<path d="M398.18 270.77C395.82 271.64 393.64 271.67 391.79 270.86C390.84 271.17 389.45 271.86 388.4 271.32C387.63 270.92 386.3 270.29 385.97 269L375.84 229.71C375.35 227.81 377.1 225.2 378.64 224.56L392.18 218.9L429.2 200.24C440.65 194.47 451.56 187.88 462.16 180.8C463.6 179.84 464.86 180.55 466.19 180.79C468.97 181.29 470.24 183.09 470.72 185.97C473.03 199.86 474.85 213.78 475.88 227.82C476.1 230.79 475.31 233.43 472.96 235.35C467.48 239.83 461.23 243.33 454.78 246.56C436.39 255.77 417.55 263.65 398.19 270.79L398.18 270.77ZM392.34 264.65C397.98 263.45 402.6 261.46 407.48 259.47C423.16 253.29 438.48 246.77 453.48 239.05C458.86 236.28 463.98 233.31 468.78 229.39C467.58 215.68 466.11 202.22 463.75 188.43C454.71 194.36 445.72 199.88 436.17 204.72L394.9 225.65L383.42 230.37L392.33 264.65H392.34Z" fill="#324FB6"/>
<path d="M392.34 264.65L383.43 230.37L394.91 225.65L436.18 204.72C445.73 199.88 454.71 194.36 463.76 188.43C466.12 202.22 467.59 215.68 468.79 229.39C464 233.32 458.87 236.29 453.49 239.05C438.49 246.77 423.17 253.29 407.49 259.47C402.61 261.46 397.99 263.46 392.35 264.65H392.34Z" fill="#FD9AFB"/>
<path d="M354.35 344.89C352.36 346.07 350.43 345.25 349.15 343.55L331.65 320.37C324.81 311.3 318.5 302.11 312.54 292.48C312.69 290.54 312.6 288.9 313.02 287.08C324.07 277.11 334.44 269.51 345.25 259.09C346.39 257.99 346.9 256.56 348.68 256.73C349.95 256.85 351.64 257.43 352.51 258.9L362.56 275.98C369.97 288.58 379.23 299.81 388.11 311.39C389.28 312.92 389.96 314.49 388.87 316.28C390.37 318.63 389.31 321.01 387.17 322.79C378.32 330.15 368.85 336.64 359.51 343.46C357.96 344.59 356.45 345.63 354.36 344.89L354.35 344.89ZM354.22 338.23L383.07 316.76C374.29 305.38 366 294.32 358.17 282.61L348.44 266.12C338.93 275.08 329.9 281.91 319.98 290.57C325.31 299.27 330.98 307.36 337.06 315.44L354.21 338.23H354.22Z" fill="#324FB6"/>
<path d="M354.22 338.23L337.07 315.44C330.99 307.36 325.32 299.26 319.99 290.57C329.91 281.91 338.94 275.08 348.45 266.12L358.18 282.61C366.01 294.32 374.3 305.38 383.08 316.76L354.23 338.23H354.22Z" fill="#BEE9F2"/>
<path d="M318.55 241.55C315.83 234.45 318.7 226.67 323.55 221.45C325 219.89 326.46 220.37 327.85 219.56C332.3 216.99 336.65 216.04 341.54 218.62C348.17 222.11 351.53 230.07 349.63 237.48C347.73 244.89 341.11 249.5 333.51 249.91C327.26 250.24 320.95 247.85 318.54 241.55H318.55ZM325.72 239.68C327.6 242.73 331.32 242.97 334.46 242.51C338.97 241.85 342.57 238.47 342.82 234.11C343.07 229.75 340.76 225.08 335.85 224.41C330.94 223.74 329.72 231.12 326.02 230.89C324.71 233.42 324.1 237.05 325.72 239.69V239.68Z" fill="#324FB6"/>
<path d="M325.72 239.68C324.09 237.04 324.71 233.42 326.02 230.88C329.72 231.11 330.89 223.73 335.85 224.4C340.81 225.07 343.07 229.63 342.82 234.1C342.57 238.57 338.98 241.84 334.46 242.5C331.32 242.96 327.6 242.72 325.72 239.67L325.72 239.68Z" fill="#BEE9F2"/>
<path d="M464.33 291.51C460.22 301.93 449.44 308.99 438.41 307.91C427.38 306.83 419.37 298.64 419.2 287.92C418.93 272 437.28 259.35 449.8 262.4C462.32 265.45 469.15 279.29 464.33 291.51ZM439.27 300.68C448.41 301.31 456.95 294.58 458.41 285.55C459.63 278.03 454.46 269.67 446.45 269.29C439.24 268.95 432.13 274.2 428.65 280.01C425.98 284.48 425.58 289.4 428.15 293.86C430.26 297.52 434.34 300.34 439.28 300.68H439.27Z" fill="#324FB6"/>
<path d="M439.27 300.68C434.34 300.34 430.26 297.52 428.14 293.86C425.57 289.4 425.96 284.48 428.64 280.01C432.12 274.2 439.23 268.95 446.44 269.29C454.46 269.67 459.62 278.03 458.4 285.55C456.94 294.58 448.4 301.31 439.26 300.68L439.27 300.68Z" fill="#BEE9F2"/>
</svg>
