<svg width="1007" height="643" viewBox="0 0 1007 643" fill="none" xmlns="http://www.w3.org/2000/svg">
<path d="M643.06 212.581V201.631C643.92 202.571 643.69 210.871 643.06 212.581Z" fill="#BFE9F2"/>
<path d="M612.58 162.571H604.48C605.7 162.451 607.1 161.951 608.77 161.941C610.24 161.941 611.55 162.501 612.58 162.571Z" fill="#BFE9F2"/>
<path d="M522.55 641.181C519.95 642.091 517.2 641.501 514.45 641.661C516.99 640.581 519.84 641.461 522.55 641.181Z" fill="#BFE9F2"/>
<path d="M491.58 641.651C488.97 641.601 486.43 641.951 483.96 641.171C486.5 641.461 489.21 640.551 491.58 641.651Z" fill="#BFE9F2"/>
<path d="M629.13 209.591C614.75 200.641 600.09 193.611 583.8 187.411C589.07 181.301 596.53 178.321 603.93 176.771C611.33 175.221 618.74 177.671 622.81 184.331C627.24 191.611 629.7 199.881 629.13 209.591Z" fill="#F9C1F9"/>
<path d="M490.49 627.651L480.2 626.691C467.47 625.501 450.6 622.231 438.34 618.261C420.34 612.431 403.24 605.031 387.21 595.061C376.44 588.371 366.8 580.931 357.2 572.701C348.37 565.131 340.67 556.961 333.2 547.841C335.26 546.811 337.23 546.431 339.37 546.011L363.5 541.281L374.39 539.511L381.43 538.501L387.27 537.681L394.42 536.741L418.19 534.261C426.25 533.421 434.96 532.671 443.02 532.171L457.27 531.291L474.91 530.321L490.94 530.001C496.65 529.891 502.15 529.451 507.92 529.451H541.47C545.8 529.451 549.91 529.911 554.18 530.001L567.84 530.291L583.53 531.301L596.38 532.151C598.43 532.291 600.43 532.891 602.54 532.731C603.87 532.631 626.98 534.721 630.18 535.331C637.66 536.021 644.75 537.101 652.12 538.261C660.3 539.541 668.18 540.861 676.3 544.111C668.91 553.241 661.72 561.721 653.11 569.341C639.62 581.271 625.57 592.061 609.73 600.631C597.6 607.191 585.41 612.441 572.41 616.821C559.41 621.201 548.01 623.931 533.82 625.741L526.3 626.701L516.67 627.621C508.02 628.451 499.38 628.471 490.47 627.641L490.49 627.651ZM453.76 574.721L472.9 581.751C486.28 586.661 499.04 590.261 513.5 590.221C528.22 590.181 546.75 586.171 560.77 581.721L577.42 576.431C592.67 571.581 607.74 567.311 623.47 564.311C627.57 563.531 636.66 561.941 640.18 563.081C644.17 564.371 648.68 562.451 649.67 558.521C650.66 554.591 648.36 550.661 643.96 549.761C637.87 548.511 631.39 548.941 624.96 550.021C611 552.351 597.51 555.521 584.03 559.811L558.7 567.871C547.24 571.521 535.94 574.331 524 575.671C509.47 577.301 496.1 575.501 482.47 570.441L463.93 563.561C456.68 560.871 449.55 558.851 441.81 558.101C428.21 556.781 413.63 557.531 402.19 565.561C398.87 567.891 397.8 572.001 399.82 575.161C401.84 578.321 406.16 579.411 409.53 577.151C412.9 574.891 416.36 573.581 420.26 572.631C430.11 570.231 444.67 571.381 453.75 574.721H453.76Z" fill="#FCFCFD"/>
<path d="M604.48 162.571H612.58C618.63 162.931 623.98 165.721 628.82 169.711C632.61 172.831 637.95 181.191 639.08 185.871C639.31 186.841 640.51 187.521 640.53 189.081C640.56 191.581 642.12 193.921 642.44 196.481L643.07 201.621V212.571C642.86 213.141 643.26 213.881 642.73 214.671C642.15 215.541 641.73 217.111 642.24 218.141C643.14 219.941 645.38 220.461 646.67 221.761C647.96 223.061 657.15 230.131 660.75 233.531C676.12 248.091 683.96 256.801 696.28 274.101C697.01 275.121 697.53 276.531 698.91 276.781C701.63 277.281 704.58 276.351 707.27 277.061C709.09 277.541 710.68 277.521 712.66 277.831L718.3 278.711C719.14 278.841 727.66 279.531 731.22 280.001L738.36 280.941C740.47 281.221 750.71 282.541 751.82 282.861C753.17 283.251 755.03 283.101 756.46 283.331L762.3 284.251C768.11 285.171 773.6 286.231 779.05 287.031L786.23 288.091C789.41 288.561 793.1 289.311 796.35 289.941L801.18 290.881L810.06 292.441L814.45 293.281C816.12 293.601 817.57 293.851 819.23 294.221L823.5 295.191L831.53 296.701L835.44 297.551C840.22 298.591 845.4 299.731 850.19 300.861L854.43 301.861L858.48 302.951L868.44 305.411L881.78 309.211L903.59 315.931L917.77 320.741C935 326.591 954.08 335.701 969.48 345.221C971.86 346.691 973.93 348.011 976.11 349.621L978.58 351.441C986.38 357.201 991.9 362.211 997.46 370.231C998.61 371.881 999.26 373.381 1000.29 375.111L1001.85 377.731C1002.93 379.541 1005.31 387.281 1005.09 387.791C1004.58 388.991 1005.89 389.771 1005.93 390.721C1006.15 397.391 1006.48 395.731 1004.9 402.101L1003.79 406.581C1001.87 414.331 992.03 427.161 985.47 432.451C982.42 434.911 979.62 437.341 976.34 439.541C966.97 445.821 957.62 451.421 947.4 456.211C942.19 458.651 937.29 461.151 931.94 463.161L920.08 467.621C908.13 472.121 896.32 476.151 884.03 479.511L874.95 481.991L848.95 488.801L843.5 489.901C842.13 490.181 840.65 490.481 839.26 490.811L835.34 491.731C831.28 492.681 827.24 493.521 823.12 494.281L819.1 495.021L814.46 496.141C812.84 496.531 811.32 496.781 809.61 497.051L803.39 498.051L798.52 498.931C794.77 499.611 791.54 500.121 788.01 500.881C784.67 501.591 781.5 501.891 778.18 502.421L764.71 504.581L754.41 506.141C747.43 507.201 740.92 508.111 733.95 508.971L724.95 510.081L720.63 510.551C718.49 510.781 715.53 510.201 713.73 511.791C712.25 513.101 711.49 515.381 710.59 517.211C706.76 525.051 702.38 532.491 697.26 539.541C695.2 542.381 693.21 545.031 691.25 547.851L689.3 550.661L684.12 556.901L676.61 565.681C663.97 580.441 638.59 600.451 621.58 610.171C598.45 623.391 566.55 635.741 540.12 639.111L527.33 640.741C525.75 640.941 523.85 640.701 522.56 641.151C519.85 641.431 517 640.551 514.46 641.631C513.82 641.901 512.59 641.391 512.08 642.111H493.98C493.63 641.101 492.28 641.951 491.6 641.631C489.23 640.531 486.52 641.451 483.98 641.151C481.83 640.471 479.21 640.931 476.85 640.611L464.63 638.931C463.05 638.711 461.39 638.351 459.8 638.041L455.02 637.091L443.72 634.651C404.32 626.141 357.53 596.291 329.9 565.591C318.84 553.301 309.08 540.211 300.6 526.001C298.09 521.801 295.85 517.891 293.93 513.461C293.72 512.991 294.09 512.321 293.87 511.921C293.51 511.261 286.67 510.711 285.78 510.611L275.31 509.401C269.86 508.771 266.75 508.271 261.48 507.551L243.4 505.091L238.54 504.251L232.79 503.311L227.48 502.451L217.21 500.811C212.13 500.001 207.85 499.071 202.71 498.151L193.82 496.551L189.46 495.701C188.05 495.431 186.58 495.021 185.2 494.741L180.45 493.791L172.39 492.231C171.16 491.991 170.05 491.781 168.8 491.461L164.71 490.411C162.12 489.741 156.74 488.871 155.13 488.451L131.35 482.171C110.42 476.641 77.84 465.791 58.32 456.141C44.93 449.521 32.1 442.091 20.59 432.561C15.21 428.111 10.12 421.591 6.42 415.661C3.2 410.511 1.46 404.901 0 399.261V390.211C3.22 374.091 14.25 360.801 27.77 351.211C44.25 339.521 62.29 330.631 81.31 323.401C98.85 316.741 116.24 311.111 134.31 306.391L155.07 300.961L162.58 299.461C163.81 299.211 165.14 298.791 166.33 298.531L170.65 297.581L174.57 296.731L182.58 295.181L186.85 294.251C188.51 293.891 189.94 293.631 191.64 293.281L196 292.381L202.26 291.361C203.94 291.091 205.45 290.781 207.07 290.481L212.37 289.491C213.88 289.211 215.18 288.901 216.77 288.661L227.07 287.091C228.72 286.841 230.5 286.961 232.06 286.411L234.83 285.431C232.29 286.331 246.74 283.771 246.92 283.731C248.35 283.411 250.12 283.481 251.57 283.251L257.36 282.331L264.44 281.341C265.28 281.221 279.38 279.411 278.83 279.431L287.17 279.121C289.26 279.041 291.23 277.771 293.43 277.871C295.35 277.951 297.21 277.971 298.89 276.951L277.39 261.031C274.04 258.551 270.89 256.161 267.66 253.591L264.47 251.051L247.67 236.881C245.64 235.171 243.94 233.441 241.91 231.681L239.11 229.251L232.01 222.561C225.64 216.561 222.75 213.941 216.61 207.511L209.82 200.401C202.09 192.311 193.77 180.841 191.82 169.451L190.78 163.391C190.27 160.401 190.25 157.081 190.76 154.101L191.75 148.331C194.85 130.151 211.43 111.981 227.76 104.061L250.86 92.851C257.41 89.671 263.09 85.791 268.68 81.081C271.94 78.341 274.83 75.261 277.76 72.111L282.6 66.931C289.63 59.411 292.55 56.681 301.44 51.071C307.19 47.451 313.27 45.111 319.68 43.131C322.13 42.371 324.47 41.441 327.01 40.941L334.53 39.471L339.74 38.501C350.01 36.5811 355.52 35.111 365.09 30.921C368.85 29.271 372.41 27.691 375.93 25.521C379.45 23.351 383.37 21.261 386.88 18.861L394.82 13.411C404.01 7.10105 413.18 1.00105 424.89 0.261047C428.39 0.0410469 431.97 -0.258953 435.33 0.411047L439.67 1.27105C450.41 3.41105 456.4 6.70105 463.49 14.931C469.96 22.441 473.69 38.581 476.13 48.161L476.99 51.551L478.48 58.591L479.42 62.861C479.76 64.421 479.92 65.701 480.29 67.301L481.27 71.551L482.76 79.611C483.04 81.141 483.37 82.781 483.71 84.291L484.68 88.611C485.02 90.121 485.28 91.451 485.56 92.951L487.07 101.051C487.33 102.421 487.7 103.891 488.01 105.281L488.94 109.521L489.84 113.471L491.32 120.981C491.64 122.581 491.95 124.201 492.29 125.761L493.22 130.001C493.52 131.361 493.84 132.551 494.11 133.951L495.81 142.661C496.17 144.501 496.8 146.351 496.74 148.281C496.71 149.091 498.25 154.381 498.54 155.601L500.21 162.561C501.04 166.041 501.33 168.471 502.3 172.381L511.1 172.671C513.55 172.751 530.55 174.401 533.14 174.911C539.74 176.221 538.77 175.451 545.1 176.631L549.49 177.451L558.38 179.131L569.86 182.341C577.25 170.821 591.68 163.781 604.52 162.561L604.48 162.571ZM287.96 113.051L302.25 95.201C311.99 83.041 324.12 78.2811 338.94 75.731L349.13 73.981C355.62 72.861 362.33 72.091 368.35 69.231C370.32 68.301 371.99 67.6711 374.08 66.9211C381.06 64.411 386.72 59.5611 392.47 55.001C403.52 46.231 413.07 37.591 427.73 36.721C434.17 36.341 439.36 39.081 441.98 45.171C444.6 51.261 445.72 57.781 446.88 64.351L447.83 69.721L454.8 116.891L457.27 134.071C459.31 148.201 461.35 162.161 464.75 176.051C465.08 176.571 466.84 176.321 467.42 176.091C468.89 175.511 485.17 173.761 488.32 173.521L484.59 157.651L474.43 109.291L464.97 62.991C462.88 52.781 460.61 43.011 457.17 33.231C455.6 28.771 453.8 24.241 450.18 21.131C445.1 16.761 438.54 14.731 431.89 14.101C420.69 13.041 411.51 18.761 402.65 25.091C393.36 31.721 383.97 37.641 373.64 42.591C363.3 47.551 352.65 50.301 341.5 52.491L336.68 53.441C320.4 56.651 307.68 61.231 295.77 73.471C290.14 79.261 285.16 85.211 279.15 90.621C271.13 97.841 262.17 103.101 252.47 107.801C245.28 111.281 238.28 114.191 231.39 118.211C222.6 123.341 215.28 130.091 210.21 138.941C204.12 149.561 202.95 162.171 207.77 173.411C209.91 178.411 212.96 182.561 216.47 186.631C230.7 203.141 262.15 232.021 279.56 245.001L303.58 262.921C306.91 265.401 310.11 267.581 313.19 270.421L325.72 254.501C318.68 246.601 311.28 239.791 303.68 232.851L297.65 227.351L275.12 206.541C263 195.341 247.15 181.041 237.5 168.071C232.63 161.521 236.5 152.281 240.15 146.001C251.08 127.181 268.67 137.131 287.97 113.031L287.96 113.051ZM428.02 93.6711L437.37 91.151C436.42 88.781 436.49 86.521 436.11 84.211L432.51 62.671C431.81 58.451 430.93 54.411 429.22 50.471C423.98 50.591 419.37 52.351 415.19 55.211C403.1 62.961 395.39 72.171 381.79 78.891L392.1 107.861C404.11 102.241 415.5 97.0611 428.02 93.691V93.6711ZM301.66 118.431L323.54 149.701C340.71 136.171 358.71 124.681 377.9 114.761C379.03 114.171 379.4 113.551 378.98 112.371L368.79 83.851C364.41 85.201 360.45 86.051 356.23 86.791L336.9 90.191C324.18 92.431 317.02 98.391 309.5 108.141C306.86 111.561 304.19 114.561 301.67 118.431H301.66ZM444.13 139.111L441.7 123.411C441.44 121.191 441.53 118.991 440.56 116.841C440.96 114.611 440.2 112.681 439.83 110.571C439.51 108.741 439.98 106.871 438.73 105.141C431.98 106.721 425.75 108.831 419.37 111.311L396.76 120.961L408.73 153.301C420.39 147.711 431.86 143.361 444.13 139.101V139.111ZM396.24 159.321L384.12 127.101C365.24 137.011 348.03 147.911 331.57 161.091L350.52 187.071C365.29 176.661 380.18 167.691 396.24 159.321ZM254.68 167.311C262.93 176.071 271.21 184.151 280.19 192.501L287.96 183.251L309.56 161.621C310.61 160.781 312.49 159.781 312.6 158.381L292.16 128.941C285.81 135.001 278.97 139.561 271.07 142.481L261.63 145.971C254.18 147.951 251.03 153.031 248.97 160.251C250.69 162.741 252.39 164.891 254.67 167.311H254.68ZM451.11 178.481L448.69 167.391L446.11 153.121C434.54 156.941 424.04 161.361 413.35 166.351L420.78 188.131C430.01 184.801 438.6 181.951 447.68 179.681C448.94 179.571 450.08 179.501 451.11 178.481ZM313.85 219.901L320.6 212.061C326.56 206.221 332.68 200.921 339.34 195.391L321.07 170.281C315.83 174.391 311.67 178.891 307.08 183.391C301.13 189.231 295.6 195.161 290.69 201.951C292.39 204.031 294.16 205.281 295.88 206.871L310.72 220.511C311.32 221.061 311.78 221.941 312.63 221.591C313.1 221.401 313.54 220.751 313.85 219.901ZM370.7 214.341C382.64 205.631 394.78 199.321 407.83 193.491L400.91 172.541C386.31 180.091 372.46 188.541 358.72 198.231L370.7 214.331V214.341ZM629.13 209.591C629.7 199.881 627.24 191.611 622.81 184.331C618.74 177.671 611.52 175.171 603.93 176.771C596.34 178.371 589.08 181.301 583.8 187.411C600.09 193.601 614.75 200.631 629.13 209.591ZM460.17 451.501H546.08C550.06 451.511 553.65 450.981 557.52 450.911L574.97 450.641L597.77 449.671C600.76 449.541 603.67 448.981 606.66 449.111C610.75 449.281 614.67 448.571 618.75 448.431C625.65 448.201 640.56 446.591 644.05 446.531L649.71 446.431C653.41 446.361 656.97 445.731 660.69 445.401L670.23 444.551L679.05 443.791L688.2 442.871L696.77 441.931L719.16 439.281C720.94 439.071 722.05 438.041 722 436.211C721.95 434.011 722.44 431.931 722.63 429.721L723.38 420.931C724.34 409.591 723.79 396.481 722.58 385.001L721.94 378.901L720.83 371.981C718.7 358.711 715.66 346.141 710.95 333.451C705.86 319.711 700.16 306.621 692.46 294.131C682.69 278.261 671.47 263.501 658.09 250.421C644.71 237.341 629.9 226.101 613.76 216.651C597.62 207.201 581.35 200.801 563.96 195.451C552.02 191.781 540.04 189.711 527.65 188.431L518.18 187.451C515.05 187.131 511.92 187.571 508.74 187.211C497.6 185.941 502.32 189.811 494.7 187.611C490.87 186.511 486.87 187.901 482.98 188.091C480.39 188.221 478.12 188.521 475.59 188.851L470.46 189.501L463.91 190.561L448.44 193.781C413.09 201.131 371.59 226.821 345.81 253.031C334.31 264.721 324.58 277.451 315.81 291.231C305.94 306.741 298.85 323.431 292.98 340.821C289.03 352.511 285.16 371.101 284.13 383.191L283.37 392.101C282.99 396.601 282.53 401.021 282.68 405.511L283.32 424.051L284.11 432.911C284.28 434.771 285.23 436.681 284.82 438.611C287.61 439.821 290.1 439.631 292.81 439.951L309.26 441.931L318.24 442.891L326.96 443.801L345.31 445.401C348.87 445.711 352.24 446.341 355.78 446.411L361.95 446.541C363.15 446.561 383.12 448.161 387.27 448.431L397.76 449.111C400.86 449.311 403.93 449.501 406.99 449.591L419.93 450.001L428.45 450.501L447.55 450.911C451.78 451.001 455.56 451.511 460.17 451.511V451.501ZM335.08 243.981C342.99 236.021 350.75 229.281 359.33 222.581L347.66 206.561L338.75 214.101C332.66 219.281 327.18 224.811 322.6 231.571L335.08 243.981ZM229.2 300.981C180.48 308.741 126.92 320.651 81 338.761C65.22 344.981 50.4 352.661 36.51 362.341C27.7 368.481 20.34 375.941 16.13 385.851C13.7 391.571 13.53 397.501 16.01 403.281C19.32 411.001 24.57 417.631 31.12 422.921C48.23 436.721 71.46 447.481 92.19 454.921C122.5 465.791 153.27 474.241 184.78 480.271L212.06 485.481L232.33 488.931L239.12 490.031L249.68 491.561L254.97 492.401L261.71 493.321L268.38 494.261L274.38 494.971L281.59 495.811L289.22 496.751L296.5 497.591L305.09 498.551L312.02 499.201L321.08 500.151C324.02 500.461 326.82 500.991 329.76 501.091L335.31 501.281C337.78 501.361 351.43 502.921 356.82 503.231C359.07 503.361 361.15 503.781 363.5 503.731C365.85 503.681 368.41 504.341 370.78 504.411L378.25 504.611C385.17 504.801 404.95 506.791 411.09 506.381C413.37 506.231 415.53 506.761 417.76 506.841L441.34 507.671L464.25 508.091L483.75 508.591C496.52 508.921 509.08 508.901 521.85 508.591L541.82 508.091L564.75 507.671L587.86 506.891C590.42 506.801 592.87 506.231 595.46 506.401C601.05 506.781 621.22 504.811 627.83 504.621L635.28 504.411C637.66 504.341 640.14 503.691 642.58 503.741C645.02 503.791 647.03 503.411 649.27 503.231L661.22 502.291L670.79 501.441L680.79 500.491L689.91 499.611L696.93 498.981L705.54 498.031L713.17 497.141L720.88 496.231L727.77 495.471L734.59 494.661L748.01 492.881L754.59 491.881L766.96 490.031L773.79 488.921L794.01 485.481L821.21 480.271C856.94 473.431 891.74 463.641 925.76 450.431C934.28 447.121 942.07 443.221 950.06 439.011C958.26 434.691 965.74 430.011 973.12 424.401C980.5 418.791 986.84 411.361 990.32 402.561C992.47 397.111 992.34 391.551 990.08 386.211C986.84 378.541 981.71 371.971 975.26 366.731C958.32 352.981 933.97 341.531 913.37 334.251C881.8 323.091 849.76 314.521 817.01 308.301L794.1 303.941L759.83 298.251C758.02 297.951 756.56 297.571 754.73 298.521C751.14 300.381 747.89 304.381 747.96 308.731C748.05 313.911 752.01 317.561 755.19 320.871C756.98 322.741 757.8 322.891 760.3 323.301C783.32 327.021 805.88 331.951 828.41 338.271C845.66 343.111 877.73 354.291 889.04 368.081C892.39 372.161 895.43 376.361 896.33 381.671C897.57 389.031 894.81 395.471 890.19 401.001C882.24 410.521 874.13 414.431 863.02 419.631C853.47 424.111 844.11 427.581 833.94 430.581C810.29 437.561 786.62 443.121 762.3 446.861L736.48 450.831L729.86 451.821L723.56 452.671L716.45 453.591L710.46 454.271L703.22 455.181L695.54 456.081L686.9 456.991L678.32 457.801L669.41 458.541L659.3 459.431L647.83 460.351C645.38 460.551 628.87 461.851 628.03 461.801C626.49 461.701 605.87 463.341 602.61 463.421L590.89 463.721L583.79 464.231L566.12 464.661C562.11 464.761 558.28 465.101 554.25 465.161L520.92 465.611C508.72 465.781 496.85 465.781 484.65 465.611L452.27 465.161C448.08 465.101 444.09 464.741 439.93 464.651L423.92 464.321L403.93 463.341C398.45 463.071 393.25 462.451 387.7 462.501C384.33 462.531 381.04 461.511 377.63 461.791C377.23 461.821 359.85 460.521 357.71 460.341L346.71 459.441L336.65 458.521L328.2 457.841C325.01 457.581 321.87 457.301 318.72 456.941L310.97 456.071C308.2 455.761 305.61 455.511 302.82 455.171L295.58 454.261L289.09 453.541C287.02 453.311 284.97 452.991 282.91 452.711L276.13 451.801L251.03 448.041L244.51 446.971C220.1 442.951 196.24 437.651 172.46 430.671C157.67 426.331 137.02 418.221 124.59 409.351C121.1 406.861 118.38 403.631 115.46 400.441C111.14 395.721 108.48 388.271 109.72 381.641C111.54 371.891 120.66 363.171 128.94 358.161C144.55 348.711 165.13 341.471 182.96 336.771C206.38 330.591 229.67 325.541 253.58 322.041C254.7 320.601 254.83 319.101 256.01 317.991C258.77 315.401 261.13 312.221 261.58 308.231C262.03 304.241 258.6 301.731 255.01 301.491C252.49 301.321 250.43 300.331 249 298.361C246.21 297.851 243.67 298.641 240.98 299.081L235.71 299.931L229.2 300.971V300.981ZM794.19 426.221L818.37 420.251L831.74 416.401C844.05 412.861 853.77 408.441 865.24 402.811C870.81 400.071 875.53 396.561 879.44 391.681C880.72 390.081 882.49 387.591 882.5 385.431C882.52 380.831 876.01 374.471 872.29 371.961C869.21 369.891 866.3 368.041 862.92 366.471L852.57 361.651C844.29 357.791 828.88 352.921 819.91 350.591L806.97 347.221L799.2 345.521C793.45 344.261 787.87 343.081 782.11 341.781L778.28 340.911C776.55 340.521 770.45 339.391 768.65 339.101L758.77 337.531L753.99 336.611C751.81 336.191 749.97 335.981 747.86 335.661L742.44 334.841L730.71 333.111C729 332.861 727.39 333.351 725.62 331.971C725.76 334.411 727.07 335.521 727.3 337.371C727.55 339.391 728.03 341.171 728.83 343.001C730.46 346.721 732.3 357.421 733.31 362.121L734.3 366.741C735.32 371.471 735.19 375.981 735.64 378.231C736.21 381.031 736.41 383.481 736.61 386.291C736.81 389.101 737.89 391.601 737.35 394.501C737.04 396.131 737.73 397.711 737.77 399.281C737.91 404.411 737.91 409.361 737.77 414.521C737.71 416.711 737.06 418.881 737.38 421.151C737.78 424.031 737 426.561 736.55 429.281C736.13 431.851 736.81 434.031 735.73 437.131C738.01 435.641 739.58 436.171 741.65 435.801L747.35 434.801C751 434.161 754.49 433.541 758.19 433.341C759.15 433.291 760.01 432.161 761.22 432.551C762.66 433.011 763.89 432.031 765.19 431.851C768.1 431.441 770.96 431.291 773.79 430.391C774.5 430.161 782.63 428.721 785.39 428.091L789.67 427.121C791.15 426.781 792.49 426.651 794.2 426.221H794.19ZM268.65 417.351V396.401C268.65 395.151 268.72 393.941 269.06 392.501C269.58 390.301 268.54 387.701 269.31 385.591C269.9 383.971 270.69 375.021 271.24 372.171L272.16 367.381C272.41 366.111 272.38 364.481 272.65 363.181L273.64 358.401C274.28 355.311 274.81 353.381 275.54 350.341L276.83 345.021L280.75 332.471C274.56 333.471 268.71 333.951 263.13 334.801L257.32 335.681C253.89 336.201 249.3 337.311 246.3 337.501C243.83 337.651 212.51 343.881 208.58 344.871L198.62 347.391L181.56 351.791C169.48 354.911 158.2 359.511 146.81 364.561C142 366.701 137.81 369.321 133.42 372.191C130.22 374.281 127.7 377.341 125.38 380.321C120.92 386.041 124.85 389.891 128.47 393.691C129.8 395.091 130.96 396.531 132.58 397.721C138.19 401.851 144.34 404.751 150.74 407.591C156.03 409.941 161.05 412.481 166.63 414.081L170.67 415.231L187.64 420.221C195.73 422.601 203.73 424.631 212.08 426.261L216.44 427.111L220.67 428.071L224.59 428.931C227.51 429.571 230.43 429.761 233.34 430.781C235.81 431.651 238.65 431.231 241.22 431.941C242.4 432.261 243.56 432.911 244.84 432.551C246.12 432.191 246.92 433.281 247.88 433.351C252.09 433.661 256.02 434.321 260.14 435.331C262.93 436.021 268.32 435.341 269.93 437.161C270.52 433.701 269.89 431.181 269.27 428.181C268.82 426.051 269.42 423.841 269.1 421.671C268.89 420.251 268.44 419.001 268.67 417.351H268.65ZM490.49 627.651C499.4 628.481 508.04 628.451 516.69 627.631L526.32 626.711L533.84 625.751C548.02 623.951 558.93 621.381 572.43 616.831C585.93 612.281 597.61 607.201 609.75 600.641C625.59 592.071 639.64 581.281 653.13 569.351C661.74 561.741 668.93 553.261 676.32 544.121C668.21 540.871 660.33 539.551 652.14 538.271C644.77 537.111 637.67 536.041 630.2 535.341C627 534.721 603.89 532.641 602.56 532.741C600.44 532.901 598.45 532.291 596.4 532.161L583.55 531.311L567.86 530.301L554.2 530.011C549.93 529.921 545.82 529.461 541.49 529.461H507.94C502.17 529.461 496.67 529.901 490.96 530.011L474.93 530.331L457.29 531.301L443.04 532.181C434.98 532.681 426.27 533.431 418.21 534.271L394.44 536.751L387.29 537.691L381.45 538.511L374.41 539.521L363.52 541.291L339.39 546.021C337.26 546.441 335.28 546.811 333.22 547.851C340.69 556.971 348.39 565.141 357.22 572.711C366.82 580.941 376.46 588.381 387.23 595.071C403.27 605.041 420.36 612.441 438.36 618.271C450.62 622.241 467.49 625.511 480.22 626.701L490.51 627.661L490.49 627.651Z" fill="#324FB6"/>
<path d="M229.2 300.981L235.71 299.941L240.98 299.091C243.66 298.661 246.2 297.861 249 298.371C250.43 300.341 252.49 301.331 255.01 301.501C258.6 301.751 262.03 304.351 261.58 308.241C261.13 312.131 258.77 315.401 256.01 318.001C254.83 319.111 254.7 320.611 253.58 322.051C229.67 325.551 206.38 330.601 182.96 336.781C165.13 341.481 144.55 348.721 128.94 358.171C120.66 363.181 111.54 371.901 109.72 381.651C108.48 388.281 111.14 395.741 115.46 400.451C118.38 403.641 121.1 406.871 124.59 409.361C137.02 418.241 157.67 426.341 172.46 430.681C196.24 437.661 220.1 442.961 244.51 446.981L251.03 448.051L276.13 451.811L282.91 452.721C284.96 453.001 287.02 453.321 289.09 453.551L295.58 454.271L302.82 455.181C305.61 455.531 308.2 455.771 310.97 456.081L318.72 456.951C321.86 457.301 325.01 457.591 328.2 457.851L336.65 458.531L346.71 459.451L357.71 460.351C359.84 460.521 377.23 461.831 377.63 461.801C381.03 461.521 384.32 462.541 387.7 462.511C393.25 462.461 398.45 463.081 403.93 463.351L423.92 464.331L439.93 464.661C444.08 464.751 448.08 465.111 452.27 465.171L484.65 465.621C496.85 465.791 508.72 465.791 520.92 465.621L554.25 465.171C558.29 465.121 562.11 464.771 566.12 464.671L583.79 464.241L590.89 463.731L602.61 463.431C605.87 463.351 626.49 461.711 628.03 461.811C628.87 461.861 645.38 460.561 647.83 460.361L659.3 459.441L669.41 458.551L678.32 457.811L686.9 457.001L695.54 456.091L703.22 455.191L710.46 454.281L716.45 453.601L723.56 452.681L729.86 451.831L736.48 450.841L762.3 446.871C786.62 443.131 810.28 437.561 833.94 430.591C844.12 427.591 853.47 424.111 863.02 419.641C874.13 414.431 882.24 410.531 890.19 401.011C894.81 395.471 897.57 389.041 896.33 381.681C895.43 376.371 892.39 372.171 889.04 368.091C877.73 354.301 845.66 343.121 828.41 338.281C805.87 331.951 783.32 327.021 760.3 323.311C757.8 322.911 756.98 322.751 755.19 320.881C752.01 317.571 748.05 313.911 747.96 308.741C747.88 304.391 751.14 300.391 754.73 298.531C756.56 297.581 758.02 297.961 759.83 298.261L794.1 303.951L817.01 308.311C849.76 314.541 881.79 323.101 913.37 334.261C933.97 341.541 958.32 352.991 975.26 366.741C981.71 371.981 986.84 378.541 990.08 386.221C992.34 391.561 992.46 397.121 990.32 402.571C986.85 411.371 980.66 418.681 973.12 424.411C965.58 430.141 958.26 434.711 950.06 439.021C942.07 443.221 934.28 447.131 925.76 450.441C891.74 463.651 856.93 473.441 821.21 480.281L794.01 485.491L773.79 488.931L766.96 490.041L754.59 491.891L748.01 492.891L734.59 494.671L727.77 495.481L720.88 496.241L713.17 497.151L705.54 498.041L696.93 498.991L689.91 499.621L680.79 500.501L670.79 501.451L661.22 502.301L649.27 503.241C647.03 503.421 644.93 503.801 642.58 503.751C640.23 503.701 637.66 504.351 635.28 504.421L627.83 504.631C621.23 504.811 601.05 506.781 595.46 506.411C592.88 506.241 590.42 506.811 587.86 506.901L564.75 507.681L541.82 508.101L521.85 508.601C509.08 508.921 496.51 508.931 483.75 508.601L464.25 508.101L441.34 507.681L417.76 506.851C415.52 506.771 413.36 506.231 411.09 506.391C404.95 506.801 385.18 504.811 378.25 504.621L370.78 504.421C368.41 504.361 365.93 503.691 363.5 503.741C361.07 503.791 359.06 503.371 356.82 503.241C351.43 502.931 337.78 501.381 335.31 501.291L329.76 501.101C326.82 501.001 324.02 500.471 321.08 500.161L312.02 499.211L305.09 498.561L296.5 497.601L289.22 496.761L281.59 495.821L274.38 494.981L268.38 494.271L261.71 493.331L254.97 492.411L249.68 491.571L239.12 490.041L232.33 488.941L212.06 485.491L184.78 480.281C153.27 474.261 122.5 465.801 92.19 454.931C71.46 447.501 48.23 436.731 31.12 422.931C24.57 417.651 19.32 411.021 16.01 403.291C13.53 397.511 13.7 391.581 16.13 385.861C20.33 375.951 27.7 368.491 36.51 362.351C50.4 352.671 65.22 344.991 81 338.771C126.93 320.661 180.48 308.751 229.2 300.991L229.2 300.981Z" fill="#BFE9F2"/>
<path d="M268.65 417.351C268.47 417.411 268.18 417.181 268.18 416.841V396.911C268.18 396.571 268.48 396.341 268.65 396.401V417.351Z" fill="#BFE9F2"/>
<path d="M453.76 574.721C444.67 571.391 430.12 570.231 420.27 572.631C416.37 573.581 412.88 574.911 409.54 577.151C406.2 579.391 401.88 578.371 399.83 575.161C397.78 571.951 398.88 567.891 402.2 565.561C413.64 557.531 428.22 556.781 441.82 558.101C449.55 558.851 456.69 560.881 463.94 563.561L482.48 570.441C496.12 575.501 509.49 577.301 524.01 575.671C535.95 574.331 547.25 571.521 558.71 567.871L584.04 559.811C597.52 555.521 611.01 552.351 624.97 550.021C631.4 548.951 637.88 548.511 643.97 549.761C648.36 550.661 650.67 554.611 649.68 558.521C648.69 562.431 644.19 564.371 640.19 563.081C636.67 561.941 627.58 563.531 623.48 564.311C607.75 567.311 592.68 571.581 577.43 576.431L560.78 581.721C546.76 586.181 528.23 590.181 513.51 590.221C499.05 590.261 486.29 586.661 472.91 581.751L453.77 574.721H453.76Z" fill="#324FB6"/>
<path d="M460.17 451.501C455.56 451.501 451.78 450.991 447.55 450.901L428.45 450.491L419.93 449.991L406.99 449.581C403.93 449.481 400.86 449.301 397.76 449.101L387.27 448.421C383.12 448.151 363.15 446.551 361.95 446.531L355.78 446.401C352.24 446.331 348.87 445.701 345.31 445.391L326.96 443.791L318.24 442.881L309.26 441.921L292.81 439.941C290.1 439.611 287.6 439.811 284.82 438.601C285.23 436.671 284.27 434.761 284.11 432.901L283.32 424.041L282.68 405.501C282.53 401.011 282.98 396.591 283.37 392.091L284.13 383.181C285.16 371.091 289.04 352.501 292.98 340.811C298.85 323.421 305.93 306.731 315.81 291.221C324.58 277.441 334.3 264.711 345.81 253.021C371.59 226.811 413.09 201.131 448.44 193.771L463.91 190.551L470.46 189.491L475.59 188.841C478.13 188.521 480.4 188.211 482.98 188.081C486.87 187.891 490.87 186.491 494.7 187.601C502.33 189.801 497.61 185.931 508.74 187.201C511.92 187.561 515.05 187.121 518.18 187.441L527.65 188.421C540.04 189.701 552.02 191.771 563.96 195.441C581.35 200.791 598.01 207.411 613.76 216.641C629.51 225.871 644.71 237.331 658.09 250.411C671.46 263.491 682.68 278.251 692.46 294.121C700.16 306.621 705.86 319.701 710.95 333.441C715.65 346.121 718.7 358.701 720.83 371.971L721.94 378.891L722.58 384.991C723.79 396.481 724.34 409.591 723.38 420.921L722.63 429.711C722.44 431.921 721.95 434.001 722 436.201C722.04 438.031 720.93 439.061 719.16 439.271L696.77 441.921L688.2 442.861L679.05 443.781L670.23 444.541L660.69 445.391C656.97 445.721 653.41 446.351 649.71 446.421L644.05 446.521C640.56 446.581 625.66 448.191 618.75 448.421C614.67 448.561 610.75 449.261 606.66 449.101C603.66 448.981 600.76 449.541 597.77 449.661L574.97 450.631L557.52 450.901C553.65 450.961 550.07 451.501 546.08 451.501H460.17ZM470.23 275.041C480.21 276.411 490.29 273.241 497.98 267.021C505.67 260.801 509.78 252.461 510.59 243.121C511.84 228.641 503.74 215.191 490.76 209.311C483.89 206.201 476.92 206.241 469.96 208.651C465.05 210.351 460.33 212.421 456.79 216.361C450.48 223.371 447.48 232.221 446.2 241.461C443.93 257.921 453.69 272.771 470.23 275.041ZM590.73 280.041C599.26 278.651 601.4 269.941 600.13 262.651C598.86 255.361 596.9 249.301 593.53 243.071C590.63 237.701 587.72 232.261 583.36 228.221C578.74 223.941 572.99 223.901 568.34 227.361C565.26 229.651 563.85 232.041 563.71 236.011C563.37 246.161 564.81 256.211 569.26 265.451C573.24 273.701 580.59 281.691 590.72 280.041H590.73ZM385.1 315.301C396.93 309.441 405.99 299.581 411.48 287.811C413.18 284.171 413.83 280.681 414.48 276.881C415.71 269.671 412.3 259.731 404.21 256.701C398.38 254.521 392.27 255.981 387.12 259.111C381.52 260.951 376.98 264.191 372.34 267.731C361.44 276.041 352.5 291.431 355.26 305.191C356.63 312.031 362.22 317.421 369.05 318.181C374.75 318.821 379.83 317.921 385.1 315.311V315.301ZM668.1 345.731L684.56 329.351C685.76 328.151 685.9 326.291 686.68 324.861C688.03 322.401 688.32 319.681 686.92 317.181C683.66 311.361 679.71 306.221 675.51 301.071C670.91 295.421 671.3 289.191 664 290.351C659.64 288.641 656.18 290.471 653.04 293.601L621.17 325.371C619.33 327.201 618.88 329.001 617.78 331.231C613.68 339.481 617.97 339.551 624.42 347.411C629.05 353.061 633.76 358.191 639.41 362.951C641.7 364.881 645.3 365.021 647.87 362.981C654.86 357.441 661.73 352.051 668.09 345.721L668.1 345.731ZM499.29 328.171C500.48 321.121 498.32 314.141 494.02 308.711C489.72 303.281 482.74 300.161 475.24 301.191C462.06 303.001 452.01 314.321 450.41 327.481C449.7 333.361 450.74 339.371 454.46 344.031C459.09 349.831 466.52 352.521 473.84 351.901C486.9 350.791 497.06 341.331 499.28 328.161L499.29 328.171ZM332.45 400.421C336.79 401.381 340.14 401.111 344.13 400.481C357.82 398.331 368.7 389.221 373.07 376.051C376.94 364.381 373.93 351.961 364.65 343.711C358.64 338.371 350.5 336.221 342.53 337.921C340.3 338.391 338.09 338.301 335.91 338.981C319.03 344.211 309.11 361.611 311.82 378.551C313.58 389.571 321.56 398.011 332.46 400.421H332.45ZM624.51 417.131L632.6 418.091L644.41 420.671C647.82 421.411 650.79 418.851 651.77 415.801C652.61 413.181 651.36 409.261 648.18 407.931C634.39 402.171 613.07 402.511 597.78 402.891C586.38 403.171 575.47 405.061 564.49 407.951L544.87 413.111C531.96 416.501 519.27 419.651 505.95 420.751C482.4 422.701 465.46 418.581 443.53 411.291C430.4 406.921 413.6 400.681 399.82 402.331C389.79 403.531 376.65 408.081 369.19 414.931C366.42 417.481 366.03 421.541 368.18 424.361C370.33 427.181 374.47 427.701 377.58 425.791C379.1 424.851 380.18 423.571 381.79 422.691C389.02 418.741 397.01 416.041 405.38 415.961C407.09 415.941 408.96 416.301 410.63 416.531C419.86 417.801 428.23 420.771 437.04 423.771C460.01 431.571 483.38 437.511 507.8 434.601L515.52 433.681C537.24 431.091 561.42 421.681 580.01 418.831L585.31 418.021C596.7 416.281 613.1 415.781 624.53 417.141L624.51 417.131Z" fill="#FDFDFE"/>
<path d="M624.51 417.131C613.08 415.781 596.68 416.271 585.29 418.011L579.99 418.821C561.4 421.661 537.21 431.081 515.5 433.671L507.78 434.591C483.37 437.501 459.99 431.561 437.02 423.761C428.21 420.771 419.84 417.791 410.61 416.521C408.94 416.291 407.07 415.931 405.36 415.951C396.99 416.031 389 418.731 381.77 422.681C380.16 423.561 379.08 424.841 377.56 425.781C374.46 427.701 370.31 427.171 368.16 424.351C366.01 421.531 366.4 417.471 369.17 414.921C376.63 408.061 389.77 403.521 399.8 402.321C413.58 400.671 430.38 406.921 443.51 411.281C465.44 418.571 482.38 422.691 505.93 420.741C519.25 419.641 531.94 416.491 544.85 413.101L564.47 407.941C575.46 405.051 586.36 403.161 597.76 402.881C613.05 402.501 634.37 402.161 648.16 407.921C651.34 409.251 652.59 413.171 651.75 415.791C650.77 418.841 647.8 421.411 644.39 420.661L632.58 418.081L624.49 417.121L624.51 417.131Z" fill="#324FB6"/>
<path d="M385.1 315.301C379.83 317.911 374.75 318.811 369.05 318.171C362.22 317.411 356.64 312.021 355.26 305.181C352.49 291.421 361.43 276.031 372.34 267.721C376.98 264.181 381.52 260.941 387.12 259.101C392.26 255.971 398.38 254.511 404.21 256.691C412.3 259.721 415.72 269.661 414.48 276.871C413.83 280.671 413.17 284.161 411.48 287.801C405.99 299.571 396.93 309.431 385.1 315.291V315.301Z" fill="#324FB6"/>
<path d="M470.23 275.041C453.69 272.771 443.93 257.921 446.2 241.461C447.47 232.211 450.47 223.371 456.79 216.361C460.34 212.421 465.05 210.351 469.96 208.651C476.92 206.241 483.89 206.201 490.76 209.311C503.74 215.191 511.84 228.651 510.59 243.121C509.78 252.461 505.28 261.111 497.98 267.021C490.3 273.241 480.21 276.421 470.23 275.041ZM478.28 260.771C487.32 259.171 494.61 253.561 495.89 244.071C497.56 241.651 496.67 239.261 496.19 236.701C494.96 230.141 490.77 224.591 484.46 222.011C480.28 220.301 475.77 221.211 471.79 223.191C470.4 223.881 468.84 224.081 467.62 225.461C463.88 229.701 461.31 235.301 460.69 241.131C460.26 245.191 459.72 249.261 461.4 253.271C464.1 259.731 471.46 261.981 478.27 260.771H478.28Z" fill="#324FB6"/>
<path d="M332.45 400.421C321.55 398.011 313.57 389.561 311.81 378.551C309.11 361.621 319.03 344.211 335.9 338.981C338.08 338.311 340.29 338.401 342.52 337.921C350.49 336.221 358.64 338.371 364.64 343.711C373.92 351.961 376.92 364.381 373.06 376.051C368.7 389.221 357.81 398.341 344.12 400.481C340.13 401.111 336.78 401.371 332.44 400.421L332.45 400.421ZM360.63 368.511C361.81 361.721 357.59 353.171 350.91 351.801C348.21 351.251 344.89 351.371 342.1 351.831C330.62 353.691 323.74 365.871 325.44 376.201C326.59 383.211 332.21 387.311 339.12 387.011C350.03 386.551 358.72 379.491 360.63 368.511Z" fill="#324FB6"/>
<path d="M590.73 280.041C580.61 281.691 573.25 273.701 569.27 265.451C564.81 256.211 563.38 246.161 563.72 236.011C563.85 232.041 565.27 229.651 568.35 227.361C573 223.901 578.75 223.941 583.37 228.221C587.73 232.261 590.64 237.701 593.54 243.071C596.91 249.301 598.93 255.721 600.14 262.651C601.41 269.941 599.27 278.661 590.74 280.041H590.73Z" fill="#324FB6"/>
<path d="M668.1 345.731C661.74 352.061 654.87 357.451 647.88 362.991C645.31 365.031 641.7 364.891 639.42 362.961C633.77 358.201 629.06 353.071 624.43 347.421C617.98 339.561 613.7 339.491 617.79 331.241C618.9 329.011 619.34 327.211 621.18 325.381L653.05 293.611C656.19 290.481 659.65 288.651 664.01 290.361C671.31 289.201 670.91 295.431 675.52 301.081C679.72 306.231 683.67 311.371 686.93 317.191C688.33 319.691 688.03 322.411 686.69 324.871C685.91 326.301 685.78 328.161 684.57 329.361L668.11 345.741L668.1 345.731ZM644.04 348.301C654.75 339.771 663.94 330.721 673.19 321.251C669.37 315.221 665.6 310.901 661.15 305.181C656.19 309.671 651.9 314.191 647.32 318.831L631.85 334.481C633.14 336.901 635.03 338.451 636.68 340.371C639.05 343.121 641.09 346.051 644.03 348.301H644.04Z" fill="#324FB6"/>
<path d="M644.04 348.301C641.1 346.051 639.05 343.121 636.69 340.371C635.04 338.451 633.15 336.891 631.86 334.481L647.33 318.831C651.91 314.191 656.2 309.681 661.16 305.181C665.6 310.901 669.38 315.221 673.2 321.251C663.95 330.721 654.76 339.771 644.05 348.301H644.04Z" fill="#BFE9F2"/>
<path d="M360.63 368.511C358.72 379.491 350.04 386.541 339.12 387.011C332.21 387.301 326.6 383.211 325.44 376.201C323.74 365.871 330.62 353.691 342.1 351.831C344.89 351.381 348.21 351.251 350.91 351.801C357.59 353.171 361.81 361.721 360.63 368.511Z" fill="#BFE9F2"/>
<path d="M499.29 328.171C497.07 341.341 486.91 350.801 473.85 351.911C466.53 352.531 459.09 349.841 454.47 344.041C450.75 339.381 449.71 333.371 450.42 327.491C452.02 314.331 462.07 303.011 475.25 301.201C482.75 300.171 489.57 303.081 494.03 308.721C498.49 314.361 500.49 321.131 499.3 328.181L499.29 328.171ZM468.07 337.371C476.02 339.861 483.76 334.771 485.41 326.851C486.55 321.401 483.7 315.161 478.26 314.751C474.95 314.501 472.53 316.511 470.18 318.331C466.09 321.501 464.1 325.901 464.28 331.221C464.37 333.851 464.93 336.381 468.07 337.371Z" fill="#324FB6"/>
<path d="M468.07 337.371C464.93 336.391 464.36 333.851 464.28 331.221C464.1 325.891 466.09 321.501 470.18 318.331C472.54 316.501 474.96 314.501 478.26 314.751C483.7 315.161 486.55 321.401 485.41 326.851C483.76 334.771 476.02 339.861 468.07 337.371Z" fill="#F9C1F9"/>
<path d="M287.96 113.051C268.66 137.151 251.07 127.201 240.14 146.021C236.5 152.291 232.62 161.531 237.49 168.091C247.14 181.061 262.99 195.361 275.11 206.561L297.64 227.371L303.67 232.871C311.26 239.801 318.67 246.611 325.71 254.521L313.18 270.441C310.09 267.601 306.9 265.431 303.57 262.941L279.55 245.021C262.14 232.031 230.69 203.161 216.46 186.651C212.95 182.581 209.9 178.431 207.76 173.431C202.95 162.191 204.12 149.581 210.2 138.961C215.27 130.111 222.59 123.361 231.38 118.231C238.27 114.211 245.27 111.301 252.46 107.821C262.16 103.121 271.12 97.861 279.14 90.641C285.15 85.221 290.13 79.2811 295.76 73.4911C307.67 61.2511 320.39 56.671 336.67 53.461L341.49 52.511C352.63 50.321 363.28 47.561 373.63 42.611C383.96 37.661 393.35 31.741 402.64 25.111C411.5 18.791 420.69 13.071 431.88 14.121C438.54 14.751 445.09 16.781 450.17 21.151C453.79 24.261 455.59 28.781 457.16 33.251C460.6 43.041 462.87 52.801 464.96 63.011L474.42 109.311L484.58 157.671L488.31 173.541C485.16 173.781 468.88 175.531 467.41 176.111C466.84 176.341 465.07 176.601 464.74 176.071C461.34 162.181 459.31 148.221 457.26 134.091L454.79 116.911L447.82 69.7411L446.87 64.371C445.71 57.801 444.57 51.241 441.97 45.191C439.37 39.141 434.16 36.361 427.72 36.741C413.06 37.611 403.51 46.251 392.46 55.021C386.71 59.581 381.06 64.431 374.07 66.941C371.98 67.691 370.31 68.311 368.34 69.251C362.32 72.111 355.61 72.881 349.12 74.001L338.93 75.751C324.11 78.301 311.98 83.0611 302.24 95.221L287.95 113.071L287.96 113.051Z" fill="#FC9AFA"/>
<path d="M301.66 118.431C304.18 114.561 306.86 111.551 309.49 108.141C317.01 98.401 324.17 92.431 336.89 90.191L356.22 86.791C360.44 86.051 364.4 85.201 368.78 83.851L378.97 112.371C379.39 113.551 379.03 114.171 377.89 114.761C358.69 124.681 340.7 136.171 323.53 149.701L301.65 118.431H301.66Z" fill="#F9C1F9"/>
<path d="M254.68 167.311C252.4 164.891 250.7 162.741 248.98 160.251C251.05 153.041 254.19 147.951 261.64 145.971L271.08 142.481C278.98 139.561 285.81 135.001 292.17 128.941L312.61 158.381C312.5 159.771 310.62 160.781 309.57 161.621L287.97 183.251L280.2 192.501C271.21 184.151 262.94 176.071 254.69 167.311H254.68Z" fill="#F9C1F9"/>
<path d="M396.24 159.321C380.18 167.691 365.29 176.661 350.52 187.071L331.57 161.091C348.03 147.911 365.24 137.011 384.12 127.101L396.24 159.321Z" fill="#F9C1F9"/>
<path d="M428.02 93.6711C415.51 97.051 404.12 102.221 392.1 107.841L381.79 78.871C395.38 72.151 403.09 62.951 415.19 55.191C419.38 52.331 423.98 50.571 429.22 50.451C430.93 54.391 431.8 58.431 432.51 62.651L436.11 84.191C436.5 86.501 436.42 88.761 437.37 91.1311L428.02 93.651V93.6711Z" fill="#F9C1F9"/>
<path d="M444.13 139.111C431.86 143.371 420.39 147.721 408.73 153.311L396.76 120.971L419.37 111.321C425.74 108.841 431.98 106.731 438.73 105.151C439.97 106.891 439.5 108.751 439.83 110.581C440.2 112.681 440.95 114.621 440.56 116.851C441.53 118.991 441.44 121.191 441.7 123.421L444.13 139.121V139.111Z" fill="#F9C1F9"/>
<path d="M313.85 219.901C313.54 220.751 313.1 221.401 312.63 221.591C311.78 221.941 311.32 221.061 310.72 220.511L295.88 206.871C294.16 205.281 292.38 204.041 290.69 201.951C295.6 195.161 301.13 189.231 307.08 183.391C311.67 178.891 315.83 174.391 321.07 170.281L339.34 195.391C332.69 200.921 326.56 206.211 320.6 212.061L313.85 219.901Z" fill="#F9C1F9"/>
<path d="M370.7 214.341L358.72 198.241C372.46 188.551 386.3 180.091 400.91 172.551L407.83 193.501C394.78 199.321 382.64 205.641 370.7 214.351V214.341Z" fill="#F9C1F9"/>
<path d="M451.11 178.481C450.08 179.511 448.95 179.571 447.68 179.681C438.59 181.941 430.01 184.801 420.78 188.131L413.35 166.351C424.04 161.361 434.54 156.951 446.11 153.121L448.69 167.391L451.11 178.481Z" fill="#F9C1F9"/>
<path d="M335.08 243.981L322.6 231.571C327.18 224.821 332.66 219.291 338.75 214.101L347.66 206.561L359.33 222.581C350.75 229.281 342.99 236.021 335.08 243.981Z" fill="#F9C1F9"/>
</svg>
