<svg width="600" height="704" viewBox="0 0 600 704" fill="none" xmlns="http://www.w3.org/2000/svg">
<path d="M535.332 597.515V594.819C535.332 594.206 535.608 593.777 536.052 593.685C535.975 594.957 536.328 596.55 535.332 597.515Z" fill="#BFE9F2"/>
<path d="M537.246 587.941C537.338 586.623 536.848 585.015 537.982 584.111C537.798 585.398 538.456 587.098 537.246 587.941Z" fill="#BFE9F2"/>
<path d="M599.625 447.845C599.257 449.209 599.058 439.389 599.058 439.221L598.828 417.988C598.966 417.927 599.257 418.111 599.257 418.386C599.227 421.588 599.196 424.575 599.426 427.762C599.931 434.518 599.625 441.197 599.625 447.845Z" fill="#BFE9F2"/>
<path d="M582.441 388.177C582.594 388.391 582.395 388.897 582.028 388.897H572.823C572.211 388.912 571.736 388.59 571.69 388.131C573.038 388.851 574.707 388.544 576.285 388.131L582.441 388.177Z" fill="#BFE9F2"/>
<path d="M598.813 417.605C598.109 415.644 598.706 413.806 598.155 409.562C597.94 407.969 598.093 406.407 598.093 404.967H598.476C598.476 406.223 598.614 407.433 598.752 408.827C599.058 411.83 598.798 414.756 598.828 417.59L598.813 417.605Z" fill="#6684F6"/>
<path d="M598.476 404.982H598.093V393.492C598.4 393.676 598.507 394.09 598.507 394.595L598.476 404.967L598.476 404.982Z" fill="#BFE9F2"/>
<path d="M592.35 388.131H588.138C589.379 387.257 591.186 387.074 592.35 388.131Z" fill="#BFE9F2"/>
<path d="M34.8496 428.329C34.6658 431.117 34.1298 421.68 34.1604 423.702L34.0532 411.493C34.0532 410.742 34.5892 410.313 34.8496 409.961C34.7577 410.573 35.064 411.447 34.773 412.136C34.0838 413.806 34.7424 415.246 34.7577 416.87L34.8496 428.329Z" fill="#BFE9F2"/>
<path d="M35.6153 451.675C35.5387 450.557 35.355 449.469 35.3243 448.182L35.1865 440.936C35.1406 438.531 34.8496 436.325 34.8496 434.073C35.064 433.997 35.6 433.997 35.6 434.456L35.6766 447.079C35.6766 448.657 36.6108 450.434 35.6153 451.691V451.675Z" fill="#BFE9F2"/>
<path d="M36.764 473.107C35.9523 473.291 36.764 470.074 35.9676 468.496L36.0288 455.122C36.7793 457.864 36.0595 460.714 36.5495 463.701C37.0703 466.872 36.764 470.043 36.7486 473.107H36.764Z" fill="#BFE9F2"/>
<path d="M55.1268 488.043C55.6015 488.534 47.0557 488.871 46.7647 488.917C45.0341 489.177 44.0693 488.242 42.8747 488.043H55.1268Z" fill="#BFE9F2"/>
<path d="M46.7188 404.982C46.7188 405.15 46.7954 405.396 46.7035 405.533C46.5963 405.717 46.3053 405.763 45.9837 405.763H39.4441C40.2405 405.595 41.0062 404.875 42.1396 404.936C43.7477 405.028 45.2638 404.982 46.7188 404.982Z" fill="#BFE9F2"/>
<path d="M37.5603 483.448C36.6874 480.981 36.7486 483.432 36.764 478.086C38.1883 477.197 37.2387 482.482 37.5603 483.448Z" fill="#BFE9F2"/>
<path d="M54.361 404.982C53.779 404.293 60.0276 404.737 60.0889 404.384C60.1654 403.986 60.0889 403.695 60.0889 403.45C60.2726 403.45 60.5024 403.481 60.6402 403.527C60.9465 403.634 60.9006 404.277 60.824 404.859C58.7871 405.074 56.4745 404.967 54.3457 404.967L54.361 404.982Z" fill="#BFE9F2"/>
<path d="M394.525 111.387C391.692 111.157 388.92 111.586 386.102 111.77C386.515 111.295 387.25 111.035 388.031 111.035H394.111C394.372 111.035 394.556 111.234 394.51 111.387H394.525Z" fill="#BFE9F2"/>
<path d="M401.417 112.536H397.986C397.557 112.398 397.404 112.092 397.542 111.816C399.012 111.862 400.36 111.509 401.417 112.536Z" fill="#6684F6"/>
<path d="M543.755 553.12C543.755 552.415 544.046 551.848 544.521 551.588C544.322 553.12 545.011 554.728 543.755 555.801V553.12Z" fill="#BFE9F2"/>
<path d="M558.642 481.533C558.795 480.215 558.274 478.607 559.407 477.703C559.101 478.974 560.066 480.767 558.642 481.533Z" fill="#BFE9F2"/>
<path d="M539.161 578.749V576.053C539.161 575.44 539.436 575.011 539.881 574.919C539.835 575.946 539.911 578.09 539.161 578.749Z" fill="#BFE9F2"/>
<path d="M545.67 546.226V543.53C545.67 542.917 545.945 542.488 546.39 542.396C546.16 543.714 546.803 545.169 545.67 546.226Z" fill="#BFE9F2"/>
<path d="M115.208 133.585C115.208 132.39 115.085 131.026 115.974 130.138C115.775 131.225 116.54 134.105 115.208 133.585Z" fill="#BFE9F2"/>
<path d="M557.493 486.894C557.906 485.822 557.462 484.382 558.289 483.448C558.289 484.658 558.642 486.19 557.493 486.894Z" fill="#6684F6"/>
<path d="M50.1953 267.613C49.6133 267.368 49.7665 266.556 49.7665 266.02C49.9043 265.668 50.1953 265.407 50.5322 265.254C50.2259 266.005 50.3944 266.802 50.1953 267.613Z" fill="#BFE9F2"/>
<path d="M50.5322 375.891C49.8431 375.308 50.2872 374.282 49.7665 373.593C50.9151 373.822 50.3331 375.094 50.5322 375.891Z" fill="#BFE9F2"/>
<path d="M558.289 483.065C558.289 482.666 558.197 482.115 558.642 481.916C558.657 482.314 558.795 482.927 558.289 483.065Z" fill="#6684F6"/>
<path d="M396.056 111.77C395.643 111.77 395.076 111.862 394.908 111.387C395.321 111.387 395.903 111.295 396.056 111.77Z" fill="#BFE9F2"/>
<path d="M547.584 294.361V279.44C548.687 280.604 548.687 293.197 547.584 294.361Z" fill="#BFE9F2"/>
<path d="M572.456 375.891C572.793 374.971 572.854 373.976 572.854 372.827V361.368C572.517 360.265 572.364 359.254 572.44 358.273C573.283 359.483 573.13 361.23 573.191 362.854L573.375 368.369C573.375 368.69 573.191 375.737 573.007 375.86C572.869 375.952 572.609 375.875 572.456 375.875V375.891Z" fill="#BFE9F2"/>
<path d="M571.69 387.365C571.613 385.925 571.904 379.919 572.41 378.939C572.379 380.701 572.869 386.384 571.69 387.365Z" fill="#BFE9F2"/>
<path d="M514.672 27.5595C514.503 25.5986 515.667 25.2769 514.641 20.2828C515.147 20.5279 515.438 21.11 515.438 21.8147V26.0122C515.438 26.7169 515.147 27.2837 514.672 27.5442V27.5595Z" fill="#BFE9F2"/>
<path d="M463.366 190.236C463.581 189.439 462.938 185.548 464.117 184.491C464.117 185.747 464.546 189.592 463.366 190.236Z" fill="#BFE9F2"/>
<path d="M464.117 179.91C463.198 178.026 463.412 175.851 463.397 173.783C464.592 175.269 464.117 177.72 464.117 179.91Z" fill="#BFE9F2"/>
<path d="M516.586 246.12C516.096 246.549 514.182 246.074 514.029 245.385C513.646 243.777 514.059 242.183 513.906 240.774C514.779 242.107 514.871 243.531 514.549 245.523L516.586 246.12Z" fill="#BFE9F2"/>
<path d="M572.41 357.507C571.889 355.822 571.69 353.938 571.69 352.146C572.823 352.467 572.44 356.282 572.41 357.507Z" fill="#BFE9F2"/>
<path d="M571.69 351.778C571.231 351.701 570.909 351.272 570.909 350.644V347.948C571.95 348.883 571.69 350.522 571.69 351.778Z" fill="#BFE9F2"/>
<path d="M48.5719 366.776C48.1737 367.005 47.9287 366.653 47.8827 366.423C47.7755 365.933 47.944 365.397 48.0052 365.06C48.8782 365.014 48.5566 366.193 48.5719 366.791V366.776Z" fill="#BFE9F2"/>
<path d="M49.7665 372.505C49.4908 372.735 49.1692 372.474 49.0007 372.229C48.7097 371.816 49.353 371.479 49.4142 371.203C49.889 371.402 49.7665 372.076 49.7665 372.505Z" fill="#BFE9F2"/>
<path d="M547.584 279.042C547.446 278.996 547.186 278.843 547.201 278.659C547.37 278.72 547.538 278.858 547.584 279.042Z" fill="#BFE9F2"/>
<path d="M489.8 0C491.76 2.46641 491.056 -0.183832 496.692 2.32854C498.423 3.09451 500.138 3.70728 501.746 4.56516C505.376 6.4954 508.423 9.32948 510.996 12.4546C512.972 14.8444 514.044 17.4334 514.641 20.2981C515.683 25.2922 514.503 25.6139 514.672 27.5748C514.84 29.5357 512.742 30.7153 511.869 32.431C511.149 33.8404 510.077 35.403 509.603 36.9196C509.235 38.0839 504.258 47.4287 502.986 50.2474C501.164 54.2611 497.825 59.9139 496.661 62.748L495.007 66.7923L492.312 71.8477C490.765 74.743 489.08 77.5924 487.84 80.6869L486.844 83.138C486.492 84.0266 485.696 84.7006 485.405 85.4512C484.47 87.933 480.58 94.5663 478.697 99.0701C478.161 100.342 477.533 101.169 476.935 102.364L458.756 138.916C457.761 138.854 458.282 140.126 457.868 140.677C457.332 141.382 456.474 141.857 456.857 142.792L454.177 147.709C455.203 149.701 456.183 151.278 456.903 153.117C456.842 155.537 456.842 153.377 458.435 157.33C459.384 159.689 461.008 164.392 461.666 166.889C461.988 168.099 462.095 168.819 462.447 169.738C462.953 171.04 462.493 172.649 463.397 173.783C463.412 175.851 463.198 178.026 464.117 179.91L464.117 184.506C462.937 185.563 463.565 189.454 463.366 190.251L462.248 194.479C461.819 196.057 461.712 197.773 461.437 199.366C462.738 199.81 464.178 198.983 465.189 199.565C467.21 200.699 470.794 199.933 473.566 200.837C474.654 201.189 475.526 202.108 476.874 202.077C479.049 202.016 480.795 203.226 482.679 203.762C484.807 204.375 486.538 205.095 488.452 206.183C490.198 207.163 492.143 207.837 493.905 209.109C496.677 211.131 499.204 213.138 501.608 215.558C503.032 216.983 503.936 218.53 505.131 220.139C506.631 222.176 508.316 223.907 509.021 226.527C509.281 227.477 510.276 228.335 510.567 229.131C511.18 230.816 511.318 232.425 512.176 234.11C512.482 234.723 513.416 240.039 513.921 240.805C514.075 242.214 513.661 243.807 514.044 245.416C514.212 246.105 516.127 246.595 516.602 246.151C523.999 248.342 529.88 249.368 536.879 256.813C540.983 261.195 543.801 266.158 545.716 271.765L546.589 274.354C547.094 275.855 547.293 277.203 547.201 278.674C547.201 278.858 547.446 279.011 547.584 279.057C547.615 279.18 547.584 279.317 547.584 279.44V294.744C547.278 294.836 547.216 295.219 547.186 295.51L546.91 298.482C546.803 299.646 551.627 305.146 552.699 306.448C553.404 307.306 553.603 308.424 554.752 309.068C555.226 309.343 555.012 310.615 555.517 310.86C556.574 311.35 556.758 312.147 557.294 312.989C560.862 318.719 565.411 329.534 567.218 335.769C567.509 336.796 567.969 337.424 568.305 338.205C569.347 340.702 570.128 347.213 570.94 347.948V350.644C570.924 351.272 571.246 351.701 571.705 351.778V352.161C571.705 353.938 571.904 355.838 572.425 357.523C572.425 357.783 572.486 358.044 572.456 358.289C572.364 359.269 572.517 360.28 572.854 361.383V372.842C572.854 373.991 572.793 374.987 572.456 375.906L572.41 378.97C571.904 379.95 571.613 385.955 571.69 387.395C571.69 387.64 571.659 387.916 571.69 388.161C571.751 388.621 572.211 388.943 572.823 388.943H582.028C582.411 388.927 582.594 388.422 582.441 388.207L588.138 388.161H592.35C593.79 387.564 596.837 390.704 597.527 391.777C597.894 392.328 597.527 393.201 598.078 393.523V405.013C598.078 406.453 597.925 408.015 598.139 409.608C598.706 413.837 598.093 415.69 598.798 417.651V418.034L599.028 439.267C599.028 439.435 599.227 449.255 599.594 447.891V454.034C599.594 454.433 599.671 454.816 599.977 454.785V459.381C599.625 459.274 599.38 459.412 599.273 459.641C599.135 459.902 599.349 460.193 599.242 460.561C598.124 464.375 594.31 466.933 590.42 466.275C591.523 464.789 584.386 465.723 583.544 465.815C579.608 466.275 575.687 465.294 572.058 466.275C570.051 466.811 567.999 466.612 565.932 466.658C564.676 466.688 563.16 466.428 561.934 466.811C561.276 467.362 561.475 468.695 561.352 469.338C561.031 470.947 560.587 472.418 560.02 474.042C559.606 475.206 559.683 476.63 559.407 477.764C558.274 478.668 558.795 480.261 558.642 481.594C558.642 481.716 558.642 481.854 558.642 481.977C558.197 482.176 558.289 482.728 558.289 483.126V483.509C557.447 484.428 557.906 485.883 557.493 486.956C557.493 486.986 556.191 493.758 556.206 494.003C556.252 495.121 555.563 496.04 555.41 496.975L554.69 501.249C554.399 503.026 553.833 504.496 553.542 506.258L552.745 511.145C552.01 515.618 551.505 515.159 550.877 520C550.647 521.807 550.019 523.263 549.713 525.024L548.917 529.528L548.151 533.741L546.971 538.643C546.665 539.93 546.604 541.278 546.39 542.458C545.945 542.55 545.654 542.979 545.654 543.591V546.288C544.996 546.9 544.705 550.133 544.521 551.649C544.046 551.91 543.755 552.477 543.755 553.181V555.847C542.745 556.72 543.204 558.374 542.882 559.569C542.499 560.948 542.071 562.036 542.163 563.506C542.254 564.9 540.845 566.264 541.121 567.643C541.305 568.592 539.972 572.943 539.881 574.981C539.436 575.073 539.145 575.501 539.145 576.114V578.81C538.854 579.071 538.594 579.944 538.533 580.373L537.966 584.157C536.848 585.061 537.323 586.654 537.231 587.987C537.415 588.554 536.511 589.274 536.542 589.84C536.634 591.357 536.128 592.491 536.036 593.732C535.592 593.823 535.301 594.252 535.301 594.865V597.561C534.291 600.441 533.954 603.95 533.249 607.289L532.055 612.957C531.534 615.439 530.967 619.238 530.462 622.072L529.727 626.254C529.436 627.863 527.69 635.89 527.705 635.553L527.506 638.372C527.766 634.588 524.274 653.094 524.872 650.811L523.784 654.963C523.524 655.959 523.172 661.55 521.977 663.22C521.457 663.955 522.192 665.303 521.763 666.008C520.92 667.417 521.365 668.888 520.951 670.221C520.369 672.075 520.032 673.729 519.711 675.629L518.975 679.796L517.735 685.05C517.413 686.398 517.367 687.654 517.092 689.094L516.357 692.939C516.035 694.655 514.994 697.152 513.508 698.286C511.9 699.496 509.403 700.691 507.367 700.798C502.604 701.059 498.101 700.906 493.583 700.921L465.434 701.089L397.619 701.365C397.282 701.365 397.128 701.457 397.159 701.641L362.532 701.886L343.219 702.07L282.035 702.499C281.729 702.499 281.576 702.637 281.607 702.836L257.317 703.02C250.348 703.066 243.61 703.219 236.841 703.219H165.365C164.997 703.219 164.86 703.464 164.905 703.602H145.011C143.342 703.173 141.764 703.326 140.417 701.58C139.574 700.507 138.181 699.282 138.027 697.551C137.798 694.946 136.955 692.541 136.144 690.029C135.409 687.762 135.072 685.494 134.076 683.242C134.673 684.575 127.475 660.83 127.613 661.397L126.939 658.333L125.714 654.902C125.592 654.565 123.141 646.016 123.003 645.419C122.651 643.979 119.603 633.715 119.175 632.689C119.711 633.975 115.53 620.188 115.56 620.28L113.952 614.52L111.149 605.068L106.448 589.488C105.605 586.7 104.84 584.034 103.997 581.124L96.1406 553.932C95.8037 552.768 95.3902 551.879 95.0992 550.776L94.3641 548.003L89.7389 532.715C89.5092 531.979 89.356 531.397 89.111 530.585L79.4931 497.495C79.1102 496.193 78.6508 495.32 78.3139 494.033L77.4409 490.694C77.2112 489.836 77.3643 488.809 76.9355 488.105C76.7823 487.844 76.6904 487.538 76.522 487.17C76.3535 486.803 75.9553 486.925 75.7869 487.339H75.404L60.9006 487.415C63.0447 487.415 52.6304 487.905 55.5097 488.105H42.89C40.3783 487.706 38.4486 486.006 37.5757 483.509C37.2387 482.544 38.2036 477.274 36.7793 478.147V473.168C36.7793 470.104 37.1009 466.949 36.5802 463.762C36.0901 460.775 36.7946 457.91 36.0595 455.183C35.7838 454.172 35.7072 452.809 35.6306 451.737C36.6261 450.496 35.7072 448.719 35.6919 447.125L35.6153 434.502C35.6153 434.043 35.0793 434.043 34.8649 434.119V428.375L34.773 416.916C34.773 415.292 34.0991 413.852 34.7883 412.182C35.0793 411.493 34.7577 410.619 34.8649 410.007C35.3856 407.862 37.3153 406.192 39.4594 405.794H45.999C46.3206 405.809 46.6116 405.763 46.7188 405.579C46.8107 405.442 46.7341 405.181 46.7341 405.028H54.3916C56.5204 405.028 58.833 405.135 60.8699 404.921C60.9465 404.339 60.9925 403.68 60.6862 403.588C60.5483 403.542 60.3186 403.511 60.1348 403.511L57.1177 396.939L52.3394 383.014C51.5277 380.655 51.1602 378.25 50.5782 375.952C50.3791 375.155 50.9611 373.884 49.8124 373.654C49.7359 373.562 49.8124 373.317 49.8124 373.21V372.582C49.8124 372.153 49.935 371.479 49.4602 371.279C49.598 370.544 49.2764 369.456 49.062 368.721C48.9701 368.43 49.0926 367.894 48.6638 367.833L48.6179 366.837C48.5872 366.255 48.9088 365.06 48.0512 365.106C48.1431 364.646 47.9746 364.187 47.9134 363.742C47.8368 363.206 48.1124 362.41 47.5611 362.088C47.6071 361.383 47.5305 360.632 47.4999 359.928C47.4692 359.223 47.2854 358.381 46.7647 357.86L46.6881 357.17C46.4584 354.934 46.0602 352.636 45.7846 350.261L45.1107 344.379L44.3143 332.874C43.7783 325.199 43.6864 317.555 44.2684 309.91L44.7278 303.936C45.0801 299.324 46.1674 285.277 47.4692 281.815C47.7143 281.171 47.4998 280.206 47.5764 279.547C48.0665 279.363 47.8368 278.674 47.9287 278.276C48.0206 277.831 48.1431 277.372 48.0665 276.928C49.0467 276.866 48.6179 275.534 48.6485 274.814V274.185C49.0773 274.155 49.016 273.603 49.0773 273.297C49.2611 272.362 49.5368 271.321 49.4908 270.371C49.9043 270.248 49.7818 269.712 49.8431 269.467L50.2719 267.675C50.471 266.863 50.3025 266.066 50.6088 265.316C50.9917 264.35 50.7467 263.048 51.2061 262.053C51.8187 260.72 52.0331 259.617 52.4007 258.223C54.7898 248.955 58.0979 240.207 61.9114 231.49C62.7077 229.667 64.2852 225.899 65.1275 224.75C65.3879 224.581 65.5257 224.214 66.0005 223.969C66.6131 226.45 74.822 236.194 75.94 237.082C75.8787 237.756 75.7715 238.491 75.4193 239.288C72.1419 246.534 69.6149 253.857 67.4861 261.516C66.6897 264.381 65.1735 270.202 64.5762 273.036L63.4888 278.107C63.1978 279.486 62.8915 280.895 62.6618 282.243L61.896 286.809L60.7474 294.499L59.9051 302.848C59.6294 305.59 59.8132 308.332 59.6447 311.12C59.17 319.163 59.3384 339.676 60.6555 347.197L61.7582 353.417C61.9573 354.581 61.896 355.792 62.1105 357.186C63.0447 363.221 64.9591 370.912 66.6437 376.764C69.4158 386.4 72.9536 395.407 77.8544 404.277C80.6571 404.277 83.2913 404.216 86.0633 404.093L94.7929 403.71L112.865 403.343L120.461 402.929L139.207 402.546L146.88 402.194L156.023 401.811L172.869 401.428L180.91 401.03L199.655 400.647L206.884 400.264L217.681 399.911L233.701 399.498L241.343 399.115L260.487 398.732L267.348 398.349L281.561 397.981L294.18 397.598L302.19 397.215L320.568 396.832L328.226 396.434L346.221 396.051L363.42 395.3L381.048 394.917L388.705 394.519L407.451 394.136L415.062 393.753L424.65 393.385L441.129 393.002L449.537 392.604L467.9 392.221L475.526 391.838L487.074 391.486L501.593 391.103L509.985 390.704L528.746 390.321L535.608 389.938L552.546 389.601C553.894 389.571 554.966 389.463 556.482 389.249C556.13 386.185 557.018 383.458 557.187 380.532C557.37 377.285 557.432 374.159 557.968 370.958C558.58 367.189 557.646 363.589 557.416 359.882C556.987 353.003 553.725 342.111 551.29 335.509C551.045 334.865 550.739 333.456 549.973 333.456C550.096 331.25 545.256 322.748 543.801 320.496C538.701 312.622 532.774 305.682 525.53 299.707C513.646 289.903 500.306 282.642 485.389 278.965L481.928 278.107L478.084 277.418C474.822 276.82 471.79 276.621 468.451 276.3L463.535 275.84C459.92 275.503 457.684 276.269 455.096 276.315C451.62 276.376 448.48 276.774 445.08 277.433L441.573 278.107C440.072 278.398 438.801 278.812 437.315 279.21L433.594 280.191C423.379 282.856 399.472 296.092 390.803 303.614C387.511 306.479 384.432 309.497 381.645 312.821C379.761 315.073 378.23 317.509 374.998 318.045C372.578 318.458 370.128 317.478 368.505 315.762C361.72 308.593 372.931 299.692 378.076 294.713L381.201 291.695C386.408 286.655 392.886 283.178 399.15 279.532C400.59 278.689 400.237 277.786 400.146 276.422L399.717 269.207C399.472 265.086 399.196 261.317 398.629 257.273C398.216 254.332 397.68 249.521 397.128 246.856L395.949 241.142C395.704 239.931 395.551 238.798 395.229 237.588L394.035 233.099C388.889 213.72 378.965 193.161 367.31 176.693C366.743 175.897 360.541 168.099 360.005 167.532C355.854 163.166 351.918 158.846 347.324 154.955C341.014 149.609 334.612 144.875 327.383 140.861C315.254 134.105 300.781 128.162 287.365 125.419L283.843 124.699L277.808 123.535L272.111 122.677C273.03 122.815 260.41 121.498 261.774 121.498H239.291L230.852 122.509C229.06 122.723 227.514 123.091 225.768 123.213L221.801 123.489C219.948 123.627 218.217 124.301 216.364 124.653L212.872 125.312C208.599 126.124 204.48 127.135 200.406 128.407L194.234 130.337C180.236 134.718 163.083 143.052 150.77 150.957L144.705 145.917C138.027 140.371 130.171 137.139 121.61 135.729C119.358 135.362 117.337 135.653 115.285 135.193V133.631C116.617 134.151 115.851 131.271 116.035 130.184C118.011 119.23 124.152 108.032 133.326 101.138L135.975 99.1467C139.253 96.6803 147.538 92.1305 151.183 91.5483C154.353 91.0428 153.006 90.2003 158.09 90.093C161.705 90.0164 159.576 88.8368 165.365 89.1279C166.988 89.2045 168.75 89.0207 170.373 89.3577C172.395 89.7713 178.628 90.6598 178.245 90.5373C189.486 94.505 197.174 101.092 204.265 110.698C204.909 111.571 206.731 111.019 207.803 110.606C209.488 109.978 211.341 110.33 212.842 109.549C214.036 108.92 215.108 109.166 216.288 109.135C217.467 109.104 218.738 108.875 219.795 108.415C221.051 108.599 222.276 108.2 223.501 107.986C224.037 107.894 224.849 108.216 225.17 107.634L229.229 107.557C229.52 107.557 230.087 107.634 230.133 107.251L230.76 107.22C233.379 107.067 235.998 106.27 238.862 106.5C240.593 106.638 242.186 106.255 243.87 106.209C248.572 106.056 253.182 105.887 257.822 106.286C260.334 106.5 262.769 106.163 265.265 106.5L272.525 107.465C275.373 107.848 279.309 108.216 282.097 108.767C291.102 110.498 299.908 112.566 308.439 115.584C308.913 115.753 309.465 115.937 309.955 115.983C310.108 116.35 310.537 116.258 310.813 116.396C311.257 116.611 311.762 116.871 312.267 116.81C312.451 117.116 312.834 117.055 313.11 117.178L324.964 122.172C327.613 123.29 330.171 124.699 332.805 126.109C333.801 126.645 334.413 127.334 335.409 127.809L338.747 129.402C338.747 129.402 347.844 135.668 348.717 136.281L351.398 138.18C352.684 139.1 353.68 140.187 354.966 141.106C355.395 141.413 355.226 142.485 356.145 142.026C356.896 141.658 365.181 123.152 374.692 116.381C378.276 113.823 381.905 112.076 386.178 111.785C388.996 111.601 391.768 111.172 394.601 111.402C394.724 111.402 394.862 111.402 394.984 111.402C395.137 111.877 395.719 111.785 396.133 111.785L397.619 111.831C397.481 112.107 397.619 112.413 398.063 112.566H401.493C402.336 113.363 403.806 113.179 404.924 113.394C405.919 113.593 407.007 114.573 408.155 114.221C409.564 113.777 409.717 112.015 410.361 110.698L426.824 77.1022L429.26 71.7404L443.349 43.0014L445.432 38.9111L447.255 35.02L460.165 8.65543C461.574 5.77539 464.683 4.41197 467.746 5.11666C471.009 2.91067 474.516 1.56257 478.344 0.68937C479.11 0.520857 479.922 0.643412 480.305 0H489.877H489.8ZM404.143 214.716C407.696 224.827 410.59 235.091 412.245 245.875L413.071 251.191L414.297 260.291C414.496 261.777 414.373 269.789 415.644 270.999C421.556 268.272 427.498 265.959 433.823 264.32L438.724 263.048L442.231 262.42C446.474 261.67 455.709 260.521 459.966 260.582L467.241 260.704L473.719 261.501C474.255 261.562 474.807 261.394 475.036 261.057C475.205 260.812 475.036 260.306 475.021 259.816L474.807 254.561L473.903 248.189C472.218 236.347 464.362 220.507 455.357 212.035C451.666 208.573 447.898 205.631 443.411 203.257C445.294 199.243 447.056 193.544 447.959 189.393L448.725 185.915C449.276 183.388 449.23 180.584 448.725 178.041L447.883 173.813C447.622 172.48 446.994 171.178 446.658 169.845C445.31 164.683 443.411 159.965 440.976 155.231C437.239 147.985 437.606 147.295 440.363 141.75L498.086 25.9663C498.683 24.7714 499.05 23.8828 499.418 22.7033C494.701 15.9321 484.716 13.1746 477.732 17.0045C475.695 18.1228 473.857 19.1032 471.56 19.9917L419.596 126.798C417.666 130.766 414.052 133.156 409.488 131.317C407.313 130.444 405.092 129.05 402.611 128.437C398.139 127.334 390.375 125.573 386.086 127.396C381.492 129.356 377.372 135.76 374.967 140.065L367.54 153.301L371.2 157.238L378.873 166.858C390.145 181.013 397.71 197.619 404.158 214.685L404.143 214.716ZM108.668 470.625L114.611 470.242L123.019 469.875L133.77 469.507L139.881 469.093L152.975 468.756L159.377 468.327L171.659 467.944L178.567 467.607L185.428 467.194L198.522 466.857L204.173 466.428L217.957 466.045L224.098 465.692L230.944 465.279L243.656 464.942L249.69 464.498L263.474 464.13L269.554 463.732L276.844 463.364L289.188 463.012L295.145 462.537L308.699 462.23L314.335 461.801L334.275 461.066L340.371 460.652L353.465 460.315L359.499 459.886L372.517 459.503L379.041 459.151L385.52 458.738L398.614 458.4L405.031 457.956L418.432 457.589L424.497 457.206L431.419 456.838L444.13 456.501L450.471 456.026L463.642 455.72L469.263 455.291L477.686 454.923L488.881 454.586L495.314 454.142L508.791 453.805L514.81 453.376L524.811 453.023L534 452.671L540.478 452.257L554.338 451.92L560.296 451.445L573.099 451.154L584.248 450.358C584.31 446.053 584.279 441.963 584.126 437.75L583.758 428.129L583.406 403.695C581.752 403.113 580.19 403.649 578.582 403.741C576.177 403.879 573.895 403.91 571.522 404.017L562.317 404.384L545.088 404.783L537.828 405.181L518.7 405.564L511.073 405.962L500.368 406.315L485.022 406.698L477.38 407.096L458.634 407.464L450.609 407.862L435.661 408.23L424.573 408.597L416.563 408.996L398.185 409.379L390.528 409.777L372.532 410.16L354.935 410.895L337.323 411.278L330.048 411.677L311.685 412.06L303.308 412.442L293.721 412.795L276.859 413.178L269.584 413.576L250.839 413.959L242.829 414.357L230.607 414.725L216.395 415.108L208.768 415.506L190.007 415.874L182.349 416.272L165.503 416.655L155.992 417.038L147.921 417.406L129.926 417.789L122.268 418.187L103.905 418.57L95.5433 418.953L86.7218 419.306L69.0942 419.704L61.8348 420.102L50.2719 420.485C49.3683 420.516 50.0422 422.4 50.0575 423.059L50.3331 436.54C50.3791 438.531 50.6394 440.324 50.7313 442.254L51.0836 449.163L51.4052 461.51L52.1863 472.663C58.588 472.923 62.9222 472.51 69.1095 472.173L76.3382 471.774L88.284 471.437L94.7163 470.993L108.653 470.61L108.668 470.625ZM230.791 687.425L293.093 687.532L295.375 687.118C299.173 687.991 303.17 687.225 307.275 687.179L334.291 686.919L402.305 686.475L437.989 686.138L469.018 685.755L501.976 685.525C503.155 680.347 503.676 677.069 504.702 672.09L505.728 667.096L506.54 662.837L507.642 657.491L508.347 653.967L509.541 648.33L510.261 644.408L511.394 639.061L512.221 634.956C512.543 633.378 512.788 631.953 513.11 630.375L514.151 625.381L514.871 621.444C515.208 619.575 515.667 617.691 516.05 615.807L516.831 611.961C517.199 610.169 517.597 608.668 517.919 606.891L518.669 602.678L519.802 597.316C520.461 594.191 520.997 591.556 521.625 588.354L522.544 583.636L523.34 579.408L524.428 574.414L525.209 570.278C525.546 568.485 525.974 566.953 526.296 565.176L527.123 560.672C527.429 559.003 527.797 557.517 528.119 555.847L529.053 551.082L530.952 541.906L531.672 538L532.805 532.653C533.096 531.305 533.341 529.88 533.632 528.532L534.719 523.462L535.562 518.927L536.358 514.73C536.695 512.968 537.277 511.206 537.507 509.46C537.706 508.035 537.935 506.871 538.227 505.523L539.375 500.192L540.08 496.301L541.244 490.969L542.025 486.833L543.02 481.992C543.709 478.668 544.215 475.344 545.072 472.188C545.471 470.748 545.149 469.201 546.282 467.607C544.337 467.01 542.821 467.607 541.029 467.684L534.382 467.96L522.835 468.281L516.081 468.756L502.604 469.093L496.906 469.492L487.717 469.875L477.334 470.227L471.223 470.641L457.363 470.978L451.022 471.453L439.061 471.805C436.595 471.882 434.222 472.004 431.787 472.173L425.691 472.586C422.138 472.831 418.371 472.127 414.879 473.015C412.612 473.597 410.851 474.731 408.37 474.93C406.532 475.068 404.526 475.374 402.657 475.665L395.383 476.799L389.946 477.519L382.365 478.683L376.958 479.419L370.94 480.276L363.619 481.395L357.861 482.161L350.571 483.294L345.164 484.03L337.231 485.148C336.082 485.317 334.918 486.037 333.678 485.776C332.116 485.439 330.829 486.236 329.42 486.374C328.103 486.496 314.442 488.472 316.05 488.411L312.696 488.534C316.556 488.396 299.188 490.632 300.015 490.525C299.066 490.648 288.621 492.302 288.881 492.317C287.702 492.226 286.507 492.164 285.466 492.639C283.613 493.482 288.468 494.37 288.1 494.278C299.786 497.235 312.482 506.044 320.155 515.388C323.111 519.004 325.224 522.849 327.95 527.062C331.58 519.739 337.185 512.095 343.235 507.269C350.31 501.632 358.136 496.638 366.988 494.324C369.561 493.65 371.69 492.869 374.6 492.501L380.466 491.751C383.866 491.322 387.557 491.306 390.956 491.751C392.718 491.98 394.219 492.333 396.026 492.455C397.741 492.563 399.502 493.283 401.218 493.65C407.849 495.075 413.853 497.649 419.565 501.264C424.803 504.573 429.535 508.234 433.701 512.753C435.248 514.439 436.412 516.124 437.775 517.916C446.566 529.39 450.762 543.331 450.854 557.762C450.869 560.902 449.721 568.026 449.031 571.258C445.739 586.608 436.044 600.732 423.195 609.786C413.745 616.45 403.775 620.203 392.197 621.368L386.178 621.965C385.596 622.026 376.131 620.985 374.477 620.709C354.813 617.4 337.17 604.639 327.981 586.455C324.994 591.066 322.575 595.294 319.19 599.124C309.725 609.801 297.014 617.844 282.878 620.326C280.458 620.755 278.344 621.046 275.863 621.368L270.917 621.996L263.336 621.368C254.116 620.602 243.84 617.155 236.044 612.145C230.577 608.622 225.477 604.823 221.25 599.875C213.562 590.882 208.232 580.511 206.149 568.899C205.521 565.406 205.016 562.48 205.016 558.911V554.361C204.985 551.205 205.445 548.448 206.042 545.353L206.976 540.466C209.013 529.773 219.182 513.336 228.448 506.519C231.251 504.466 233.808 502.321 236.932 500.758C241.435 498.491 230.515 500.728 232.246 500.651L228.877 500.789C230.99 500.712 215.935 502.796 215.859 502.811L209.809 503.638L202.55 504.787L196.807 505.538L189.532 506.672L183.774 507.438C181.584 507.729 172.486 509.337 171.077 509.199C171.399 509.23 161.199 510.777 160.311 510.9L154.874 511.65C153.358 511.865 130.646 515.235 131.35 515.051C129.39 515.572 127.567 515.572 125.622 515.833C123.264 516.154 121.12 516.936 118.669 516.859C117.398 516.813 116.127 517.671 114.825 517.533C113.14 517.349 111.731 517.993 110.123 518.207C107.413 518.56 104.61 518.544 102.037 519.77L129.221 611.716C129.941 614.152 130.508 616.45 131.304 618.488C132.223 620.877 132.866 625.366 133.969 627.74C134.337 628.537 134.597 630.054 134.857 630.911L135.883 634.389C137.553 640.042 138.977 644.73 140.662 650.444L143.771 660.999C144.751 664.308 145.608 666.989 146.589 670.359L151.842 688.405L201.478 688.129L229.995 687.869C230.393 687.869 230.653 687.67 230.791 687.501V687.425ZM304.932 592.322C305.345 591.954 305.437 591.648 305.161 591.434C304.104 590.622 302.604 592.154 300.735 592.108C293.399 591.939 291.087 593.011 283 589.902C266.751 583.651 257.102 565.881 261.283 548.478C264.515 535.058 274.409 525.484 287.656 521.991C290.183 521.317 296.478 520.765 298.882 521.286C300.276 521.593 301.838 520.949 303.186 521.593C303.967 521.96 304.748 522.619 305.59 521.639C300.46 516.721 292.174 511.007 285.42 509.245C282.633 508.525 279.876 507.514 277.012 507.315C272.326 506.993 267.501 506.335 262.983 507.346L258.006 508.449C250.257 510.18 244.896 513.106 238.602 518.023C235.891 520.137 233.762 522.236 231.649 524.963L228.815 528.624C224.068 534.767 221.051 544.327 220.224 552.032C219.504 558.696 220.224 562.02 221.495 568.133C222.827 574.628 225.63 580.342 229.489 585.674C230.944 587.696 232.353 589.657 234.145 591.418C240.041 597.24 247.025 601.728 254.943 604.225C255.571 604.424 263.091 606.079 263.351 606.094C267.731 606.339 272.157 606.615 276.461 606.018C288.146 604.394 296.11 600.028 304.916 592.276L304.932 592.322ZM378.628 606.079C383.33 606.447 388.062 606.646 392.702 606.018C403.745 604.486 413.47 599.507 421.112 591.587C419.58 590.836 418.57 592 417.344 592.031C413.5 592.108 409.641 592.552 405.904 591.863C397.986 590.423 390.926 586.776 385.581 580.894C380.573 575.379 377.494 569.083 376.453 561.683C373.65 541.539 388.184 523.063 408.263 521.256C410.866 521.026 418.355 520.949 420.224 522.144C420.622 522.405 421.342 521.991 421.265 521.562C421.204 521.24 420.729 521.256 420.484 520.995C417.988 518.299 415.124 516.43 412.091 514.439C407.834 511.635 403.3 509.613 398.262 508.479C396.439 508.066 394.479 507.392 392.595 507.315C387.955 507.116 383.437 507.009 378.796 507.361C378.49 507.392 371.797 508.97 370.832 509.215C363.16 511.176 353.343 517.885 348.181 524.013C343.617 529.436 339.773 535.411 337.982 542.427C337.675 543.622 337.216 544.863 337.017 546.012L336.128 551.328C335.056 557.731 336.557 567.398 338.824 573.74C340.631 578.795 343.372 583.391 346.635 587.619C352.761 595.6 363.818 603.138 373.681 604.961C375.289 605.252 376.974 605.972 378.597 606.094L378.628 606.079Z" fill="#314FB6"/>
<path d="M493.629 700.86C493.675 700.936 493.491 701.319 493.231 701.304C486.921 701.028 480.994 701.442 474.623 701.457L397.205 701.595C397.174 701.396 397.328 701.319 397.664 701.319L465.48 701.043L493.629 700.875V700.86Z" fill="#BFE9F2"/>
<path d="M343.25 702.008V702.391C322.82 702.545 302.205 702.621 281.653 702.774C281.607 702.591 281.775 702.437 282.081 702.437L343.265 702.008H343.25Z" fill="#D7F1EE"/>
<path d="M236.886 703.157C236.932 703.295 236.779 703.54 236.427 703.54H164.951C164.905 703.403 165.059 703.157 165.411 703.157H236.886Z" fill="#BFE9F2"/>
<path d="M392.611 701.625C392.656 701.84 392.488 701.947 392.197 701.947L365.993 702.223L343.25 702.391V702.008L362.562 701.825L392.595 701.61L392.611 701.625Z" fill="#6684F6"/>
<path d="M75.404 487.277C74.577 488.043 70.5032 487.431 67.1798 487.86C63.2438 488.35 59.3384 488.043 55.5097 488.043C52.6304 487.844 63.0294 487.339 60.9006 487.354L75.404 487.277Z" fill="#BFE9F2"/>
<path d="M590.436 466.213C588.828 465.938 587.618 465.861 585.795 466.045C581.17 466.504 576.56 466.045 572.073 466.213C575.687 465.233 579.623 466.213 583.559 465.754C584.417 465.662 591.554 464.727 590.436 466.213Z" fill="#BFE9F2"/>
<path d="M152.699 703.54C152.24 704.322 146.589 703.939 145.042 703.54H152.699Z" fill="#BFE9F2"/>
<path d="M565.947 466.596C565.886 467.577 562.807 466.321 562.256 467.47C561.919 468.174 561.98 468.986 561.352 469.277C561.475 468.649 561.276 467.301 561.934 466.749C563.16 466.366 564.691 466.627 565.932 466.596H565.947Z" fill="#BFE9F2"/>
<path d="M76.9355 488.043C76.4913 487.89 76.0625 487.676 75.7869 487.277C75.9706 486.879 76.3688 486.757 76.522 487.109C76.6751 487.461 76.767 487.783 76.9355 488.043Z" fill="#BFE9F2"/>
<path d="M108.668 470.625L94.7316 471.008L88.2993 471.453L76.3535 471.79L69.1248 472.188C62.9375 472.525 58.6033 472.938 52.2016 472.678L51.4205 461.526L51.0989 449.178L50.7467 442.269C50.6395 440.339 50.3791 438.547 50.3485 436.555L50.0728 423.074C50.0728 422.415 49.3836 420.531 50.2872 420.5L61.8501 420.117L69.1095 419.719L86.7372 419.321L95.5587 418.968L103.921 418.585L122.284 418.203L129.941 417.804L147.936 417.421L156.007 417.054L165.518 416.671L182.365 416.288L190.022 415.889L208.783 415.522L216.41 415.123L230.623 414.74L242.844 414.373L250.854 413.974L269.6 413.591L276.874 413.193L293.736 412.81L303.323 412.458L311.701 412.075L330.064 411.692L337.338 411.294L354.951 410.911L372.548 410.175L390.543 409.792L398.201 409.394L416.579 409.011L424.589 408.613L435.677 408.245L450.624 407.877L458.649 407.479L477.395 407.111L485.037 406.713L500.383 406.33L511.088 405.978L518.715 405.579L537.844 405.196L545.103 404.798L562.333 404.4L571.537 404.032C573.911 403.94 576.193 403.894 578.597 403.756C580.205 403.664 581.767 403.128 583.422 403.71L583.774 428.145L584.141 437.765C584.31 441.978 584.34 446.068 584.264 450.373L573.114 451.17L560.311 451.461L554.353 451.936L540.493 452.273L534.015 452.686L524.826 453.039L514.825 453.391L508.806 453.82L495.329 454.157L488.897 454.601L477.701 454.938L469.278 455.306L463.657 455.735L450.486 456.041L444.146 456.516L431.434 456.853L424.512 457.221L418.447 457.604L405.046 457.972L398.629 458.416L385.535 458.753L379.057 459.166L372.532 459.519L359.515 459.902L353.48 460.331L340.386 460.668L334.291 461.081L314.35 461.817L308.714 462.246L295.16 462.552L289.203 463.027L276.859 463.379L269.569 463.747L263.489 464.145L249.705 464.513L243.671 464.957L230.96 465.294L224.114 465.708L217.972 466.06L204.189 466.443L198.537 466.872L185.443 467.209L178.582 467.623L171.675 467.96L159.392 468.343L152.99 468.772L139.896 469.109L133.785 469.522L123.034 469.89L114.626 470.258L108.684 470.641L108.668 470.625Z" fill="#D7F1EE"/>
<path d="M295.375 687.118C295.375 686.965 295.406 686.72 295.314 686.582C295.237 686.459 295.023 686.26 294.578 686.26L206.731 686.551C214.879 687.256 222.934 687.409 230.791 687.425C230.653 687.593 230.393 687.777 229.995 687.792L201.478 688.053L151.842 688.328L146.589 670.282C145.608 666.912 144.751 664.231 143.771 660.922L140.662 650.367C138.977 644.653 137.568 639.965 135.883 634.312L134.857 630.835C134.597 629.977 134.337 628.46 133.969 627.664C132.866 625.305 132.238 620.801 131.304 618.411C130.508 616.373 129.941 614.076 129.221 611.64L102.037 519.693C104.61 518.468 107.397 518.483 110.123 518.13C111.731 517.931 113.125 517.288 114.825 517.456C116.127 517.594 117.398 516.736 118.669 516.782C121.12 516.859 123.264 516.078 125.622 515.756C127.583 515.496 129.39 515.496 131.35 514.975C130.646 515.159 153.358 511.788 154.874 511.574L160.311 510.823C161.184 510.701 171.384 509.153 171.077 509.123C172.486 509.261 181.584 507.652 183.774 507.361L189.532 506.595L196.807 505.461L202.55 504.711L209.809 503.562L215.859 502.735C215.935 502.735 230.99 500.636 228.877 500.712L232.246 500.575C230.515 500.636 241.45 498.415 236.932 500.682C233.808 502.26 231.251 504.389 228.448 506.442C219.182 513.259 209.013 529.681 206.976 540.39L206.042 545.276C205.445 548.386 204.985 551.128 205 554.284V558.834C205.031 562.403 205.536 565.329 206.149 568.822C208.232 580.434 213.562 590.805 221.25 599.798C225.477 604.746 230.561 608.545 236.044 612.069C243.84 617.078 254.101 620.525 263.336 621.291L270.917 621.919L275.863 621.291C278.329 620.969 280.458 620.678 282.878 620.249C297.014 617.767 309.725 609.74 319.19 599.047C322.575 595.217 324.994 590.989 327.981 586.378C337.17 604.562 354.813 617.323 374.477 620.632C376.116 620.908 385.596 621.95 386.178 621.888L392.197 621.291C403.791 620.127 413.761 616.373 423.195 609.709C436.044 600.656 445.739 586.531 449.031 571.181C449.721 567.949 450.869 560.826 450.854 557.685C450.762 543.27 446.566 529.329 437.775 517.839C436.412 516.047 435.248 514.362 433.701 512.677C429.535 508.158 424.803 504.496 419.565 501.187C413.853 497.587 407.864 494.998 401.218 493.574C399.502 493.206 397.741 492.501 396.026 492.379C394.219 492.256 392.718 491.904 390.956 491.674C387.541 491.23 383.866 491.23 380.466 491.674L374.6 492.425C371.69 492.792 369.561 493.574 366.988 494.248C358.136 496.561 350.31 501.555 343.235 507.193C337.185 512.018 331.58 519.662 327.95 526.985C325.224 522.772 323.111 518.912 320.155 515.312C312.497 505.982 299.786 497.158 288.1 494.202C288.468 494.294 283.613 493.405 285.466 492.563C286.523 492.088 287.717 492.149 288.881 492.241C288.636 492.226 299.066 490.556 300.015 490.448C299.188 490.556 316.54 488.319 312.696 488.457L316.05 488.334C314.442 488.396 328.119 486.419 329.42 486.297C330.845 486.159 332.116 485.362 333.678 485.699C334.918 485.96 336.082 485.24 337.231 485.071L345.164 483.953L350.571 483.218L357.861 482.084L363.619 481.318L370.94 480.2L376.958 479.342L382.365 478.607L389.946 477.442L395.383 476.722L402.657 475.589C404.51 475.298 406.532 475.007 408.37 474.853C410.851 474.654 412.612 473.505 414.879 472.938C418.371 472.05 422.138 472.755 425.691 472.51L431.787 472.096C434.222 471.927 436.595 471.805 439.061 471.728L451.022 471.376L457.363 470.901L471.223 470.564L477.334 470.15L487.717 469.798L496.906 469.415L502.604 469.017L516.081 468.68L522.835 468.205L534.383 467.883L541.029 467.607C542.821 467.531 544.337 466.933 546.282 467.531C545.134 469.124 545.455 470.671 545.072 472.111C544.215 475.267 543.709 478.591 543.02 481.916L542.025 486.757L541.244 490.893L540.08 496.224L539.375 500.115L538.227 505.446C537.936 506.794 537.706 507.958 537.507 509.383C537.262 511.13 536.68 512.876 536.358 514.653L535.562 518.851L534.719 523.385L533.632 528.456C533.341 529.804 533.096 531.229 532.805 532.577L531.672 537.923L530.952 541.83L529.053 551.006L528.119 555.77C527.797 557.44 527.429 558.926 527.123 560.596L526.296 565.1C525.975 566.877 525.546 568.409 525.209 570.201L524.428 574.337L523.34 579.331L522.544 583.559L521.625 588.278C520.997 591.479 520.476 594.114 519.802 597.24L518.669 602.601L517.919 606.814C517.597 608.591 517.199 610.093 516.831 611.885L516.05 615.73C515.667 617.614 515.208 619.499 514.871 621.367L514.151 625.305L513.11 630.299C512.773 631.877 512.543 633.301 512.221 634.879L511.395 638.985L510.261 644.331L509.541 648.253L508.347 653.89L507.642 657.414L506.54 662.76L505.728 667.019L504.702 672.013C503.676 676.992 503.155 680.255 501.976 685.448L469.018 685.678L437.989 686.061L402.305 686.398L334.291 686.842L307.275 687.103C303.17 687.149 299.173 687.915 295.375 687.042V687.118ZM392.856 657.812C397.22 657.475 401.294 655.622 402.06 650.98C402.519 648.268 401.187 645.833 399.334 644.193C395.704 641.022 387.802 643.136 383.054 643.351L373.497 643.795C368.183 644.04 363.083 644.454 357.784 644.729L342.852 645.511C335.378 645.909 328.195 646.644 320.737 646.614C318.639 646.614 316.54 647.135 314.458 647.181L302.129 647.456L296.018 647.87L285.405 648.222C286.967 643.994 290.321 643.703 289.724 637.621C289.479 635.201 287.733 633.179 285.956 632.29C283.598 631.126 280.871 631.264 278.697 632.52C276.246 633.929 274.669 636.35 273.168 638.74C269.125 645.159 265.863 651.776 262.432 658.563C261.115 661.167 260.441 663.971 261.391 666.805C262.126 668.98 264.132 670.589 265.786 671.079C273.183 673.285 275.435 665.947 276.813 664.507C278.084 663.189 280.979 663.342 282.786 663.327L298.04 663.189C303.078 663.143 307.979 662.24 313.033 662.285C318.393 662.331 323.417 661.826 328.731 661.535C334.046 661.244 339.36 661.397 344.797 660.677C346.344 660.478 348.212 660.355 349.759 660.386C354.507 660.478 358.902 659.896 363.588 659.666L378.23 658.946L392.886 657.797L392.856 657.812Z" fill="#BFE9F2"/>
<path d="M304.932 592.322C296.125 600.074 288.161 604.44 276.476 606.064C272.172 606.661 267.762 606.37 263.366 606.14C263.106 606.14 255.586 604.47 254.958 604.271C247.04 601.774 240.057 597.286 234.16 591.464C232.369 589.702 230.975 587.726 229.505 585.719C225.645 580.388 222.843 574.659 221.51 568.179C220.254 562.066 219.534 558.742 220.239 552.078C221.066 544.357 224.068 534.798 228.831 528.67L231.664 525.009C233.778 522.282 235.906 520.183 238.617 518.069C244.912 513.152 250.257 510.226 258.021 508.495L262.999 507.392C267.517 506.381 272.326 507.039 277.027 507.361C279.907 507.56 282.648 508.556 285.435 509.291C292.205 511.053 300.475 516.752 305.605 521.685C304.763 522.665 303.982 522.006 303.201 521.639C301.853 520.995 300.291 521.639 298.897 521.332C296.493 520.811 290.214 521.378 287.671 522.037C274.424 525.514 264.53 535.104 261.299 548.524C257.118 565.927 266.766 583.697 283.016 589.948C291.102 593.057 293.415 591.985 300.75 592.154C302.604 592.2 304.12 590.668 305.177 591.48C305.452 591.694 305.36 592 304.947 592.368L304.932 592.322Z" fill="#FDFDFE"/>
<path d="M378.628 606.079C377.004 605.956 375.304 605.236 373.712 604.945C363.849 603.138 352.791 595.6 346.665 587.604C343.418 583.36 340.662 578.78 338.854 573.724C336.588 567.382 335.102 557.716 336.159 551.312L337.047 545.996C337.231 544.847 337.706 543.607 338.012 542.412C339.804 535.38 343.648 529.421 348.212 523.998C353.373 517.87 363.19 511.145 370.863 509.199C371.828 508.954 378.521 507.376 378.827 507.346C383.467 506.993 387.985 507.101 392.626 507.3C394.51 507.376 396.47 508.066 398.292 508.464C403.346 509.598 407.864 511.62 412.122 514.423C415.154 516.43 418.018 518.299 420.515 520.98C420.76 521.24 421.234 521.225 421.296 521.547C421.372 521.976 420.652 522.389 420.254 522.129C418.386 520.934 410.912 520.995 408.293 521.24C388.215 523.048 373.681 541.523 376.484 561.668C377.51 569.067 380.603 575.364 385.611 580.878C390.941 586.761 398.001 590.407 405.935 591.847C409.672 592.521 413.531 592.092 417.375 592.016C418.6 591.985 419.611 590.821 421.143 591.571C413.5 599.492 403.775 604.47 392.733 606.002C388.093 606.646 383.36 606.446 378.658 606.063L378.628 606.079Z" fill="#FDFDFE"/>
<path d="M295.375 687.118L293.093 687.532L230.791 687.425C222.95 687.425 214.879 687.256 206.731 686.551L294.578 686.26C295.023 686.26 295.237 686.459 295.314 686.582C295.39 686.72 295.375 686.965 295.375 687.118Z" fill="#D7F1EE"/>
<path d="M392.856 657.812L378.199 658.961L363.558 659.681C358.856 659.911 354.476 660.493 349.728 660.401C348.197 660.371 346.328 660.493 344.766 660.692C339.329 661.412 334.137 661.244 328.701 661.55C323.264 661.857 318.363 662.347 313.003 662.301C307.933 662.27 303.048 663.159 298.009 663.205L282.755 663.343C280.948 663.358 278.053 663.189 276.782 664.522C275.404 665.962 273.168 673.3 265.755 671.094C264.101 670.604 262.095 668.98 261.36 666.82C260.41 663.986 261.084 661.182 262.401 658.578C265.832 651.792 269.094 645.189 273.137 638.755C274.654 636.35 276.231 633.945 278.666 632.535C280.841 631.279 283.582 631.141 285.925 632.306C287.717 633.194 289.463 635.216 289.693 637.637C290.306 643.734 286.936 644.01 285.374 648.238L295.987 647.885L302.098 647.472L314.427 647.196C316.51 647.15 318.623 646.629 320.706 646.629C328.165 646.675 335.347 645.924 342.821 645.526L357.753 644.745C363.052 644.469 368.152 644.055 373.467 643.81L383.023 643.366C387.771 643.136 395.689 641.022 399.303 644.209C401.172 645.848 402.489 648.284 402.029 650.995C401.248 655.637 397.174 657.475 392.825 657.828L392.856 657.812Z" fill="#314FB6"/>
<path d="M49.7665 266.036C49.7665 266.556 49.6133 267.384 50.1953 267.629L49.7665 269.421C49.598 269.268 49.4295 269.345 49.1998 269.467C49.0467 269.559 48.9395 269.728 49.062 269.942C49.1232 270.065 49.2917 270.187 49.4142 270.325C49.4602 271.275 49.1845 272.316 49.0007 273.251C48.8016 273.021 48.3728 273.282 48.2503 273.496C48.1431 273.68 48.4034 274.002 48.5872 274.155V274.783C47.9746 274.553 47.8215 275.166 47.8215 275.472C47.8215 275.962 47.944 276.514 47.9899 276.882C48.0512 277.341 47.9287 277.801 47.8521 278.23C47.4539 277.939 47.0251 278.398 47.0557 278.827C47.071 279.057 47.3773 279.287 47.4998 279.501C47.4233 280.16 47.6377 281.125 47.3926 281.769C32.9352 287.176 20.2696 296.444 15.966 312.193L14.9399 318.443C15.0165 328.14 18.4471 336.734 24.3893 344.287C29.8875 351.272 38.2189 355.516 46.6116 357.124L46.6881 357.814C46.3359 358.151 46.2746 358.626 46.4584 359.055C46.6422 359.484 46.9026 359.943 47.4386 359.882C47.4692 360.586 47.5458 361.337 47.4998 362.042C47.4845 362.333 46.9332 362.624 47.0098 363.068C47.0863 363.513 47.3161 363.941 47.8521 363.696C47.9134 364.141 48.0818 364.6 47.9899 365.06C47.9287 365.397 47.7602 365.948 47.8674 366.423C47.9134 366.653 48.1584 367.005 48.5566 366.776L48.6025 367.771C48.4188 367.924 48.1431 368.246 48.235 368.43C48.3728 368.675 48.7863 368.844 49.0007 368.66C49.2151 369.395 49.5368 370.483 49.3989 371.218C49.353 371.494 48.6944 371.831 48.9854 372.245C49.1539 372.49 49.4755 372.75 49.7512 372.52V373.148L45.2638 372.673C44.0539 372.551 36.6721 370.575 35.2937 370.054C19.5498 364.217 9.57964 353.494 3.19324 338.22C2.18244 335.8 0.359943 329.396 0.191477 326.654C-0.0229343 323.361 -0.206716 313.311 0.513095 310.477C1.56984 306.249 3.62206 299.661 5.98059 296.107C7.92561 293.166 9.6409 290.24 11.9535 287.483C18.5237 279.7 30.7451 271.106 39.9189 268.088L43.0738 267.047L46.4125 266.158C47.5305 265.867 48.7863 266.25 49.7818 266.036H49.7665Z" fill="#FDFDFE"/>
<path d="M47.408 281.768C46.1062 285.231 45.0188 299.279 44.6666 303.89L44.2071 309.864C43.6251 317.509 43.717 325.153 44.253 332.828L45.0494 344.333L45.7233 350.215C45.999 352.59 46.3972 354.872 46.6269 357.124C38.2495 355.531 29.9181 351.272 24.4047 344.287C18.4624 336.734 15.0318 328.14 14.9552 318.443L15.9814 312.193C20.2849 296.444 32.9505 287.176 47.408 281.768Z" fill="#BFE9F2"/>
<path d="M47.4386 359.882C46.9026 359.943 46.6422 359.499 46.4584 359.055C46.2746 358.61 46.3359 358.151 46.6881 357.814C47.2089 358.335 47.3926 359.146 47.4233 359.882H47.4386Z" fill="#BFE9F2"/>
<path d="M48.5872 274.768C48.5566 275.472 48.9854 276.805 48.0052 276.882C47.944 276.514 47.8215 275.962 47.8368 275.472C47.8368 275.151 47.9899 274.553 48.5872 274.783V274.768Z" fill="#BFE9F2"/>
<path d="M47.8674 363.681C47.3314 363.911 47.117 363.497 47.0251 363.053C46.9332 362.609 47.4845 362.333 47.5152 362.027C48.0665 362.348 47.7908 363.145 47.8674 363.681Z" fill="#BFE9F2"/>
<path d="M47.8521 278.23C47.7755 278.643 48.0052 279.317 47.4998 279.501C47.3773 279.287 47.071 279.057 47.0557 278.827C47.0251 278.383 47.4386 277.939 47.8521 278.23Z" fill="#BFE9F2"/>
<path d="M49.7665 269.421C49.7052 269.666 49.8277 270.202 49.4142 270.325C49.307 270.202 49.1386 270.065 49.062 269.942C48.9395 269.728 49.0314 269.544 49.1998 269.467C49.4295 269.345 49.598 269.268 49.7665 269.421Z" fill="#BFE9F2"/>
<path d="M49.016 273.251C48.9548 273.557 49.016 274.109 48.6025 274.139C48.4034 274.002 48.1431 273.665 48.2656 273.481C48.3881 273.266 48.8169 273.006 49.016 273.236V273.251Z" fill="#BFE9F2"/>
<path d="M49.016 368.644C48.8016 368.828 48.3881 368.675 48.2503 368.415C48.1584 368.231 48.4341 367.909 48.6179 367.756C49.0314 367.817 48.9242 368.338 49.016 368.644Z" fill="#BFE9F2"/>
<path d="M549.866 333.41C545.501 333.41 543.725 330.132 540.891 329.075C539.528 328.569 538.165 327.926 536.741 327.849L531.549 327.573C526.22 327.282 522.758 327.512 517.551 328.584L513.049 329.504C497.978 332.583 471.621 345.589 449.92 350.062L446.397 350.782L440.348 351.916L434.65 352.758C431.94 353.157 429.382 353.172 426.625 353.586C423.608 354.045 409.044 354.198 406.18 353.907L397.588 353.034C395.781 352.85 394.188 352.743 392.442 352.391L386.056 351.119C377.387 349.403 369.332 346.477 361 343.551L343.235 337.301C341.994 336.872 329.39 333.747 328.287 333.579L322.881 332.767L315.116 332.077C309.786 331.602 302.221 332.23 296.937 333.257L293.43 333.946L289.234 335.126C281.744 337.24 274.791 340.089 267.578 342.923L252.385 348.867C244.467 351.962 226.35 357.201 218.095 358.411L212.398 359.254L203.591 360.05C196.761 360.663 188.72 360.096 181.921 359.192C173.696 358.089 162.042 355.301 154.798 351.563L131.381 339.461C126.097 336.734 120.982 334.145 115.147 332.813C113.539 332.445 111.823 331.832 110.215 331.664C105.896 331.235 101.669 331.418 97.4884 331.664C83.2913 334.942 71.6518 340.288 63.0447 352.329C62.6465 352.896 62.3249 353.371 61.7123 353.371L60.6096 347.151C59.2772 339.614 59.124 319.117 59.5988 311.074C59.7672 308.286 59.5835 305.544 59.8591 302.802L60.7015 294.453L61.8501 286.763L62.6159 282.197C62.8456 280.849 63.1519 279.425 63.4429 278.061L64.5303 272.991C65.1429 270.156 66.6437 264.32 67.4401 261.47C69.5842 253.811 72.1112 246.488 75.3733 239.242C75.7256 238.445 75.8328 237.71 75.8941 237.036C82.1579 241.954 88.6669 246.427 96.7685 247.79L101.394 248.572C106.662 249.46 111.456 249.414 116.816 248.51C130.615 246.182 142.775 238.568 151.306 227.492C156.834 220.307 161.184 212.648 163.389 203.87C163.956 201.587 165.365 195.888 165.028 193.682C165.028 193.652 165.411 185.027 164.844 181.473C162.869 169.018 158.381 160.409 150.724 150.895C163.037 142.991 180.175 134.642 194.188 130.276L200.36 128.345C204.449 127.074 208.554 126.063 212.826 125.251L216.318 124.592C218.171 124.24 219.902 123.55 221.755 123.428L225.722 123.152C227.468 123.03 229.014 122.662 230.806 122.447L239.245 121.452H261.728C260.365 121.452 272.969 122.754 272.065 122.616L277.763 123.474L283.797 124.638L287.319 125.358C300.735 128.1 315.208 134.029 327.337 140.8C334.551 144.814 340.968 149.547 347.278 154.894C351.872 158.785 355.808 163.105 359.959 167.471C360.495 168.038 366.697 175.82 367.264 176.632C378.919 193.1 388.843 213.674 393.989 233.038L395.183 237.526C395.505 238.737 395.643 239.87 395.903 241.08L397.082 246.794C397.634 249.46 398.17 254.27 398.583 257.212C399.15 261.271 399.426 265.04 399.671 269.145L400.1 276.361C400.176 277.724 400.544 278.643 399.104 279.471C392.84 283.117 386.347 286.594 381.155 291.634L378.031 294.652C372.885 299.631 361.674 308.531 368.459 315.701C370.082 317.417 372.532 318.397 374.952 317.983C378.184 317.447 379.715 314.996 381.599 312.76C384.402 309.435 387.465 306.402 390.757 303.553C399.426 296.031 423.333 282.795 433.548 280.129L437.269 279.149C438.755 278.766 440.041 278.337 441.527 278.046L445.034 277.372C448.434 276.728 451.574 276.315 455.05 276.254C457.638 276.208 459.874 275.442 463.489 275.779L468.405 276.238C471.728 276.545 474.761 276.759 478.038 277.357L481.882 278.046L485.344 278.904C500.245 282.58 513.6 289.842 525.484 299.646C532.728 305.621 538.655 312.56 543.755 320.435C545.21 322.686 550.05 331.189 549.927 333.395L549.866 333.41ZM250.379 149.624C253.626 149.593 256.398 149.823 259.216 149.394C263.06 148.812 266.23 146.315 266.613 142.347C267.042 137.905 263.351 134.105 258.91 134.213L252.171 134.381C247.194 134.504 242.553 138.288 243.319 143.205C243.885 146.805 246.703 149.639 250.394 149.609L250.379 149.624ZM185.443 162.829C193.713 158.172 202.749 155.997 211.877 153.699L220.377 151.554C223.486 150.773 225.906 148.781 226.671 146.055C227.575 142.883 226.518 139.712 223.884 137.874C221.556 136.25 218.83 135.959 216.288 136.74C212.735 137.843 209.273 138.533 205.613 139.452C196.409 141.765 187.648 144.722 179.087 148.919C176.009 150.421 173.084 151.907 170.465 153.959C167.187 156.518 166.238 160.838 168.305 164.131C170.373 167.425 174.707 168.865 178.398 166.782L185.443 162.814V162.829ZM287.916 198.416C287.916 183.48 275.817 171.377 260.885 171.377C245.953 171.377 233.854 183.48 233.854 198.416C233.854 213.352 245.953 225.455 260.885 225.455C275.817 225.455 287.916 213.352 287.916 198.416ZM207.91 268.762C209.84 272.362 213.516 274.293 217.436 272.945C223.593 273.128 229.106 268.824 230.791 263.048C231.587 260.291 231.557 258.299 230.806 255.618C229.198 249.889 224.083 245.37 217.957 245.921C213.378 246.335 209.58 249.123 207.956 253.137C207.374 254.561 207.236 255.787 206.838 257.089C205.95 260.03 205.996 262.742 206.915 265.683C207.221 266.694 207.298 267.629 207.91 268.762ZM81.5606 317.907C85.8948 316.467 87.166 312.499 86.9669 308.501C86.9669 308.715 87.7939 297.027 87.7786 297.073L88.6822 291.083L89.7695 285.598C89.9993 284.434 90.2443 283.101 90.5812 281.876L91.6992 277.724C92.0056 276.621 92.1893 275.442 92.511 274.339C93.6749 270.34 95.1298 266.005 90.8263 262.604C88.4065 260.689 84.9453 260.429 82.2651 262.221C79.585 264.013 78.5742 266.863 77.8697 269.789L77.0733 273.113C76.7517 274.477 76.3382 275.641 76.0166 277.035L75.2815 280.175L74.1941 285.506C73.3824 289.474 72.9076 292.599 72.5707 296.628C72.0653 302.48 68.9257 315.701 77.3796 317.937C78.5589 318.244 80.3508 318.32 81.5453 317.922L81.5606 317.907ZM293.568 322.778C294.977 323.177 296.447 324.035 297.764 324.05C301.057 324.111 304.35 324.617 307.673 324.05C324.152 321.17 334.75 303.399 330.37 287.038C329.252 282.841 327.628 278.98 324.964 275.503C319.067 267.782 309.526 263.876 300.015 265.637C296.34 266.327 293.506 268.042 290.413 269.758C288.437 270.861 286.569 271.566 284.823 273.098C280.213 277.157 276.874 282.06 275.496 288.172C274.347 293.243 273.888 294.836 274.592 300.611C275.297 306.387 277.824 311.657 282.051 315.732C285.344 318.903 288.881 321.43 293.552 322.763L293.568 322.778ZM497.182 312.331C500.521 314.644 504.641 313.97 507.014 311.335C509.388 308.7 509.802 304.548 507.351 301.607C503.247 296.69 498.3 292.722 492.633 289.704C489.785 288.203 486.293 288.065 483.567 289.689C481.009 291.221 480.044 293.947 480.198 296.797C480.335 299.263 482.143 301.622 484.7 302.894C492.955 307.03 492.097 308.792 497.197 312.315L497.182 312.331ZM442.614 320.435C444.621 324.295 448.143 327.144 452.263 327.972C457.638 329.059 462.677 327.083 465.74 323.131C469.033 318.887 469.339 313.219 466.828 308.409C463.964 302.94 457.501 301.147 451.666 302.388C448.051 303.154 445.111 304.487 442.859 307.52C440.838 310.232 440.838 316.972 442.63 320.435H442.614Z" fill="#6684F6"/>
<path d="M549.866 333.41C550.632 333.41 550.938 334.819 551.183 335.463C553.618 342.065 556.88 352.957 557.309 359.836C557.539 363.543 558.488 367.143 557.861 370.912C557.34 374.129 557.263 377.239 557.079 380.486C556.911 383.412 556.023 386.139 556.375 389.203C554.859 389.417 553.787 389.525 552.439 389.555L535.5 389.892L528.639 390.275L509.878 390.658L501.486 391.057L486.967 391.44L475.419 391.792L467.792 392.175L449.43 392.558L441.022 392.956L424.543 393.339L414.955 393.707L407.344 394.09L388.598 394.473L380.94 394.871L363.313 395.254L346.114 396.005L328.119 396.388L320.461 396.786L302.083 397.169L294.073 397.552L281.453 397.935L267.241 398.303L260.38 398.686L241.236 399.069L233.594 399.452L217.574 399.865L206.777 400.218L199.548 400.601L180.803 400.984L172.762 401.382L155.916 401.765L146.772 402.148L139.1 402.5L120.354 402.883L112.758 403.297L94.6857 403.664L85.9561 404.047C83.1841 404.17 80.5499 404.247 77.7472 404.231C72.8617 395.377 69.3086 386.354 66.5365 376.718C64.8519 370.866 62.9375 363.16 62.0033 357.14C61.7888 355.746 61.8501 354.535 61.651 353.371C62.2636 353.371 62.5852 352.896 62.9834 352.329C71.5752 340.273 83.23 334.942 97.4271 331.664C101.608 331.418 105.835 331.25 110.154 331.664C111.777 331.817 113.477 332.445 115.085 332.813C120.936 334.145 126.036 336.719 131.319 339.461L154.736 351.563C161.98 355.301 173.635 358.089 181.859 359.192C188.659 360.112 196.7 360.678 203.53 360.05L212.336 359.254L218.034 358.411C226.288 357.186 244.391 351.962 252.324 348.867L267.517 342.923C274.73 340.105 281.698 337.24 289.172 335.126L293.369 333.946L296.876 333.257C302.159 332.23 309.725 331.602 315.055 332.077L322.82 332.767L328.226 333.578C329.328 333.747 341.933 336.872 343.173 337.301L360.939 343.551C369.27 346.477 377.326 349.403 385.994 351.119L392.381 352.391C394.127 352.743 395.719 352.85 397.527 353.034L406.118 353.907C408.982 354.198 423.547 354.045 426.564 353.586C429.306 353.172 431.863 353.157 434.589 352.758L440.286 351.916L446.336 350.782L449.858 350.062C471.56 345.589 497.933 332.583 512.987 329.504L517.49 328.584C522.697 327.527 526.158 327.298 531.488 327.573L536.68 327.849C538.089 327.926 539.467 328.569 540.83 329.075C543.663 330.132 545.44 333.41 549.805 333.41L549.866 333.41Z" fill="#FDFDFE"/>
<path d="M324.887 122.156L313.033 117.162C313.033 117.009 313.064 116.795 313.033 116.58C313.003 116.366 312.773 116.335 312.558 116.442C312.436 116.504 312.329 116.764 312.206 116.795C311.701 116.856 311.195 116.611 310.751 116.381C310.843 116.228 310.812 116.044 310.751 115.799C310.705 115.646 310.445 115.523 310.292 115.646L309.894 115.952C309.404 115.906 308.852 115.722 308.377 115.554C305.789 106.209 302.435 97.9518 295.528 90.6139C291.133 85.9568 285.987 82.2648 279.876 80.212C278.145 79.6299 276.568 79.4308 274.868 79.0937C271.1 78.3584 267.762 78.3737 263.964 79.0937L259.538 79.9516C248.817 82.0197 237.407 92.8352 233.823 103.436C233.563 104.202 232.705 104.83 233.425 105.872C232.568 106.209 230.102 106.393 230.699 107.159L230.071 107.189C229.933 107.006 229.627 106.699 229.443 106.776C229.152 106.914 228.953 107.266 229.168 107.48L225.109 107.557C224.818 107.373 224.451 107.067 224.083 107.082C223.608 107.097 223.195 107.419 223.44 107.909C222.215 108.124 220.989 108.522 219.734 108.338C219.06 108.246 220.683 107.618 216.609 108.292C217.207 107.097 216.594 105.504 217.191 104.279C217.727 103.176 217.88 102.165 218.233 101.046C219.55 96.9867 221.28 93.0956 223.379 89.4649C225.477 85.8342 228.034 82.9695 230.73 79.9822C236.32 73.8239 243.181 69.32 250.93 66.4859C252.554 65.8885 256.704 64.4944 257.929 64.4791C260.196 64.4484 261.988 63.5752 264.132 63.3301C267.578 62.9318 271.284 62.6714 274.669 63.3148L281.132 64.5404C287.074 65.6587 292.542 68.937 297.611 72.0162C299.479 73.1498 300.842 74.6358 302.466 75.9992C310.996 83.1227 317.49 93.693 320.936 104.171C321.273 105.183 322.712 109.12 322.774 109.901C322.896 111.372 323.723 112.413 323.968 113.731C324.259 115.247 324.106 116.549 324.749 117.99C325.316 119.261 324.627 120.916 324.887 122.141V122.156Z" fill="#FDFDFE"/>
<path d="M219.718 108.369C218.677 108.829 217.39 109.058 216.211 109.089L216.594 108.323C220.668 107.649 219.044 108.277 219.718 108.369Z" fill="#BFE9F2"/>
<path d="M308.362 115.554C299.832 112.536 291.025 110.468 282.02 108.737C279.217 108.2 275.281 107.817 272.448 107.434L265.189 106.469C262.692 106.132 260.257 106.469 257.746 106.255C253.105 105.841 248.495 106.025 243.794 106.178C242.109 106.224 240.501 106.607 238.786 106.469C235.922 106.24 233.318 107.036 230.684 107.189C230.102 106.408 232.568 106.24 233.41 105.903C232.675 104.861 233.548 104.217 233.808 103.467C237.392 92.8658 248.802 82.0657 259.522 79.9822L263.948 79.1244C267.731 78.389 271.07 78.3737 274.853 79.1244C276.553 79.4614 278.115 79.6605 279.861 80.2427C285.956 82.2802 291.117 85.9874 295.513 90.6445C302.435 97.9825 305.774 106.24 308.362 115.584V115.554Z" fill="#BFE9F2"/>
<path d="M225.094 107.588C224.772 108.17 223.961 107.848 223.424 107.94C223.195 107.45 223.593 107.143 224.068 107.113C224.435 107.097 224.803 107.404 225.094 107.588Z" fill="#BFE9F2"/>
<path d="M313.033 117.147C312.758 117.024 312.375 117.086 312.191 116.779C312.313 116.749 312.421 116.488 312.543 116.427C312.758 116.32 312.987 116.366 313.018 116.565C313.049 116.795 313.018 116.994 313.018 117.147H313.033Z" fill="#BFE9F2"/>
<path d="M310.751 116.381C310.476 116.243 310.047 116.335 309.894 115.967L310.292 115.661C310.445 115.538 310.705 115.661 310.751 115.814C310.828 116.059 310.843 116.228 310.751 116.396L310.751 116.381Z" fill="#BFE9F2"/>
<path d="M230.071 107.205C230.01 107.572 229.443 107.496 229.168 107.511C228.969 107.281 229.168 106.944 229.443 106.806C229.627 106.714 229.949 107.036 230.071 107.22V107.205Z" fill="#BFE9F2"/>
<path d="M547.186 295.51C547.216 295.219 547.263 294.836 547.584 294.744C547.584 295.05 547.538 295.433 547.186 295.51Z" fill="#BFE9F2"/>
<path d="M115.208 135.147C117.26 135.607 119.297 135.316 121.533 135.683C130.11 137.077 137.951 140.31 144.628 145.871L150.693 150.911C158.351 160.424 162.823 169.034 164.814 181.488C165.38 185.042 164.982 193.667 164.997 193.698C165.35 195.904 163.941 201.602 163.359 203.885C161.169 212.678 156.804 220.338 151.275 227.507C142.744 238.583 130.584 246.197 116.785 248.526C111.425 249.429 106.631 249.475 101.363 248.587L96.7379 247.806C88.6362 246.442 82.1273 241.954 75.8634 237.051C74.7301 236.163 66.5212 226.42 65.9239 223.938C65.4338 224.168 65.3113 224.551 65.051 224.719C65.2347 222.192 61.5897 217.305 60.6402 212.663L59.9817 209.461C58.7411 203.364 58.7718 194.326 59.9204 188.321C60.2573 186.544 60.6862 185.073 61.0843 183.25L61.8195 179.818C64.8672 165.525 80.6877 144.752 97.7487 139.146C98.8055 138.793 99.9541 138.778 100.919 138.043C102.389 136.909 112.497 134.565 115.239 135.178L115.208 135.147ZM117.597 232.869C127.705 230.004 135.868 223.739 141.596 215.022C144.95 209.921 147.676 204.896 148.993 198.814C149.33 197.252 149.345 195.597 150.08 193.973C149.851 190.695 150.463 187.417 149.866 184.184L149.085 179.941C148.626 177.444 147.645 175.192 146.711 172.863C142.836 163.212 135.087 155.598 125.239 152.182C120.17 150.421 114.641 149.364 109.771 151.861C108.27 152.627 106.616 152.749 105.069 153.393C103.875 153.883 102.925 154.603 101.516 154.725C99.2802 154.909 97.3812 155.844 95.5433 157.222C87.4723 163.258 81.4228 171.561 77.8238 181.059C76.8436 183.664 76.0319 186.344 75.6031 189.087L74.822 194.127C74.2094 198.11 74.5923 205.248 75.7715 208.986C79.34 220.215 87.9471 229.943 99.51 232.808C104.411 234.033 112.834 234.187 117.597 232.839V232.869Z" fill="#FDFDFE"/>
<path d="M117.597 232.869C112.834 234.217 104.411 234.049 99.51 232.839C87.9471 229.974 79.34 220.231 75.7715 209.017C74.577 205.279 74.1941 198.14 74.822 194.157L75.6031 189.117C76.0319 186.375 76.8436 183.679 77.8238 181.09C81.4228 171.592 87.4723 163.289 95.5434 157.253C97.3812 155.874 99.2802 154.94 101.516 154.756C102.925 154.633 103.875 153.913 105.069 153.423C106.616 152.78 108.27 152.657 109.771 151.891C114.641 149.394 120.155 150.451 125.239 152.213C135.087 155.614 142.836 163.243 146.711 172.894C147.645 175.223 148.626 177.474 149.085 179.972L149.866 184.215C150.463 187.447 149.866 190.726 150.08 194.004C149.345 195.628 149.33 197.282 148.993 198.845C147.691 204.942 144.965 209.967 141.596 215.053C135.868 223.754 127.705 230.035 117.597 232.9V232.869Z" fill="#BFE9F2"/>
<path d="M293.568 322.778C288.897 321.446 285.359 318.918 282.066 315.747C277.824 311.657 275.343 306.555 274.608 300.627C273.872 294.698 274.363 293.258 275.511 288.187C276.89 282.06 280.244 277.173 284.838 273.113C286.584 271.581 288.452 270.876 290.428 269.773C293.522 268.073 296.355 266.342 300.031 265.653C309.541 263.891 319.083 267.797 324.979 275.518C327.629 278.996 329.252 282.856 330.385 287.054C334.765 303.415 324.167 321.185 307.688 324.065C304.365 324.647 301.057 324.142 297.779 324.065C296.447 324.035 294.992 323.192 293.583 322.794L293.568 322.778Z" fill="#FDFDFE"/>
<path d="M260.901 225.455C275.829 225.455 287.932 213.349 287.932 198.416C287.932 183.483 275.829 171.377 260.901 171.377C245.972 171.377 233.869 183.483 233.869 198.416C233.869 213.349 245.972 225.455 260.901 225.455Z" fill="#FD9AFB"/>
<path d="M185.443 162.829L178.398 166.797C174.707 168.88 170.419 167.517 168.305 164.147C166.192 160.776 167.203 156.548 170.465 153.975C173.084 151.922 176.009 150.436 179.087 148.935C187.648 144.737 196.409 141.78 205.613 139.467C209.258 138.548 212.735 137.859 216.288 136.756C218.83 135.959 221.556 136.265 223.884 137.889C226.518 139.728 227.575 142.899 226.671 146.07C225.89 148.797 223.486 150.788 220.377 151.57L211.877 153.714C202.749 156.012 193.713 158.203 185.443 162.845L185.443 162.829Z" fill="#FDFDFE"/>
<path d="M81.5606 317.907C80.3661 318.305 78.5589 318.244 77.3949 317.922C68.9257 315.686 72.0806 302.465 72.586 296.613C72.9382 292.584 73.413 289.459 74.2094 285.491L75.2968 280.16L76.0319 277.02C76.3535 275.641 76.767 274.461 77.0886 273.098L77.885 269.773C78.5895 266.848 79.6769 263.952 82.2805 262.206C84.884 260.459 88.4065 260.674 90.8416 262.589C95.1451 265.99 93.6902 270.325 92.5263 274.323C92.2047 275.426 92.0056 276.606 91.7146 277.709L90.5966 281.86C90.2596 283.086 90.0146 284.419 89.7849 285.583L88.6975 291.067L87.7939 297.057C87.7939 297.057 86.9822 308.7 86.9822 308.485C87.1813 312.468 85.9255 316.452 81.576 317.892L81.5606 317.907Z" fill="#FDFDFE"/>
<path d="M442.614 320.435C440.822 316.988 440.822 310.247 442.844 307.52C445.095 304.487 448.051 303.154 451.65 302.388C457.485 301.147 463.948 302.94 466.812 308.409C469.339 313.219 469.018 318.887 465.725 323.131C462.662 327.083 457.623 329.059 452.248 327.972C448.128 327.144 444.605 324.295 442.599 320.435L442.614 320.435Z" fill="#FD9AFB"/>
<path d="M207.91 268.762C207.313 267.629 207.236 266.694 206.915 265.683C205.996 262.742 205.95 260.015 206.838 257.089C207.236 255.787 207.374 254.561 207.956 253.137C209.595 249.123 213.378 246.335 217.957 245.921C224.083 245.37 229.198 249.889 230.806 255.618C231.557 258.299 231.587 260.291 230.791 263.048C229.106 268.824 223.593 273.128 217.436 272.945C213.5 274.277 209.825 272.362 207.91 268.762Z" fill="#FD9AFB"/>
<path d="M497.182 312.331C492.082 308.807 492.925 307.045 484.685 302.909C482.143 301.638 480.32 299.263 480.182 296.812C480.029 293.947 480.994 291.221 483.552 289.704C486.278 288.08 489.77 288.218 492.618 289.719C498.285 292.722 503.232 296.705 507.336 301.622C509.786 304.564 509.419 308.654 506.999 311.35C504.579 314.046 500.521 314.659 497.167 312.346L497.182 312.331Z" fill="#FDFDFE"/>
<path d="M250.379 149.624C246.688 149.655 243.87 146.82 243.304 143.22C242.538 138.288 247.178 134.519 252.156 134.397L258.894 134.228C263.351 134.105 267.027 137.905 266.598 142.363C266.215 146.33 263.045 148.827 259.201 149.409C256.398 149.838 253.611 149.609 250.364 149.639L250.379 149.624Z" fill="#FDFDFE"/>
<path d="M459.982 260.597C459.813 256.584 458.956 249.598 457.73 245.692C455.632 238.966 452.967 232.502 448.434 226.987C443.64 221.15 437.377 216.278 430.117 214.026C429.244 213.751 426.579 214.348 420.974 212.433C417.222 211.146 407.818 213.383 404.158 214.716C397.71 197.65 390.16 181.029 378.873 166.889L371.2 157.268L367.54 153.331L374.967 140.095C377.372 135.791 381.507 129.387 386.086 127.426C390.359 125.603 398.139 127.365 402.611 128.468C405.092 129.081 407.313 130.475 409.488 131.348C414.052 133.186 417.666 130.796 419.596 126.829L471.56 20.0224C473.857 19.1492 475.695 18.1687 477.732 17.0351C484.716 13.2053 494.701 15.9474 499.418 22.7339C499.051 23.9135 498.683 24.802 498.086 25.9969L440.363 141.78C437.606 147.311 437.239 148.015 440.976 155.261C443.426 159.995 445.31 164.729 446.658 169.876C447.01 171.209 447.622 172.511 447.883 173.844L448.725 178.072C449.23 180.615 449.276 183.403 448.725 185.946L447.959 189.424C447.056 193.575 445.294 199.274 443.411 203.288C447.898 205.662 451.65 208.603 455.357 212.066C464.377 220.522 472.234 236.362 473.903 248.219L474.807 254.592L475.021 259.847C475.036 260.337 475.22 260.842 475.036 261.087C474.791 261.424 474.24 261.593 473.719 261.532L467.241 260.735L459.966 260.613L459.982 260.597ZM431.067 197.819C431.266 192.273 432.813 190.19 431.771 182.453C430.592 173.645 427.207 165.755 421.633 158.907C420.101 157.023 418.861 155.17 416.946 153.592C413.378 150.635 409.335 148.107 404.878 146.698L401.325 145.58C397.879 144.492 394.219 145.564 392.381 148.444C390.543 151.324 390.742 155.185 393.269 157.835C394.249 158.877 395.674 160.026 397.144 160.347C401.447 161.313 405.506 163.074 408.324 166.46C414.725 174.135 417.85 181.626 416.395 191.752C416.15 193.499 416.471 195.276 415.935 197.007C418.279 197.252 420.239 197.022 422.475 197.129C424.711 197.236 431.021 198.968 431.051 197.803L431.067 197.819Z" fill="#FDFDFE"/>
<path d="M459.982 260.597C455.724 260.536 446.489 261.67 442.247 262.436L438.74 263.064L433.839 264.335C427.514 265.974 421.556 268.288 415.66 271.014C414.373 269.789 414.511 261.777 414.312 260.306L413.087 251.206L412.26 245.891C410.59 235.106 407.696 224.827 404.158 214.731C407.834 213.398 417.222 211.162 420.974 212.449C426.564 214.363 429.229 213.766 430.117 214.042C437.377 216.294 443.64 221.165 448.434 227.002C452.967 232.532 455.632 238.997 457.73 245.707C458.956 249.629 459.813 256.599 459.982 260.612V260.597Z" fill="#FD9AFB"/>
<path d="M458.42 157.314C456.827 153.362 456.827 155.522 456.888 153.101C457.332 152.734 458.879 157.038 458.42 157.314Z" fill="#BFE9F2"/>
<path d="M458.756 138.9C458.619 140.386 457.516 141.581 456.857 142.776C456.474 141.842 457.332 141.382 457.868 140.662C458.282 140.095 457.776 138.824 458.756 138.9Z" fill="#BFE9F2"/>
<path d="M431.067 197.819C431.021 198.983 424.742 197.252 422.49 197.145C420.239 197.037 418.294 197.252 415.951 197.022C416.487 195.291 416.165 193.529 416.41 191.767C417.85 181.657 414.741 174.15 408.339 166.475C405.521 163.105 401.463 161.328 397.159 160.363C395.674 160.026 394.265 158.892 393.284 157.85C390.757 155.2 390.543 151.37 392.396 148.46C394.249 145.549 397.894 144.507 401.34 145.595L404.893 146.713C409.35 148.107 413.393 150.65 416.962 153.607C418.876 155.185 420.116 157.038 421.648 158.923C427.207 165.771 430.607 173.66 431.787 182.469C432.813 190.205 431.281 192.288 431.082 197.834L431.067 197.819Z" fill="#314FB6"/>
</svg>
