<svg width="277" height="405" viewBox="0 0 277 405" fill="none" xmlns="http://www.w3.org/2000/svg">
<g clip-path="url(#clip0_760_2896)">
<path d="M0 95.2198V92.3398C0.55 89.1298 1.02 86.0298 2.55 83.1498C5.67 78.6698 7.83 75.6398 13.68 75.7598C20.76 75.9098 26.44 82.2798 27.18 88.9498C27.71 93.7398 25.86 99.2898 22.2 102.54C18.99 105.38 14.9 106.89 10.67 106.39C6.82 105.94 3.77 103.9 1.77 100.61C0.76 98.9398 0.55 97.0098 0 95.2198ZM13.08 102.48C18.28 101.96 22.03 98.1698 23.03 93.2998C23.86 89.2498 22.81 85.4198 19.87 82.5098C17.57 80.2398 14.35 79.0498 11.12 79.9898C9.62 80.4298 8.22 81.6898 7.68 83.1198C7.36 83.9698 6.56 84.1698 6.18 84.8798C4.4 88.1198 3.67 92.1098 4.22 95.7398C4.88 100.11 8.62 102.92 13.08 102.48Z" fill="#1D44C2"/>
<path d="M119.18 0C125.53 0 131.46 2.44 136.92 5.75L146.2 11.37C151.47 14.56 156.85 17.18 162.8 18.95C169.52 20.94 180.41 22.52 185.62 24.45C193.91 27.52 201.26 31.76 204.03 40.79C204.93 43.72 204.88 46.69 204.66 49.69C204.45 52.53 204.38 55.27 202.74 57.74L206.72 62.37C211.36 67.77 215.24 74.52 215.9 81.77C215.99 82.77 216.23 83.67 215.86 84.69C215.07 97.4 201.99 105.26 190.09 102.68C188.3 108.69 185.82 114.12 182.58 119.44C184.93 120.79 186.65 122.45 188.46 124.3C195.23 131.85 196.37 143.18 192.1 152.31L192.99 159L193.26 161.4C193.39 162.56 193.47 163.62 193.49 164.76L193.58 169.54C193.17 170.36 193.35 171.08 193.3 172C192.6 183.73 189.03 195.03 183.1 205.21L167.34 261.4C168.27 261.6 168.96 260.96 169.81 260.97C171.08 260.99 172.36 260.81 173.62 260.99C177.65 261.56 180.95 263.79 183.66 266.76C192.33 276.24 191.25 289.31 188.16 300.94C187.96 301.23 188.16 301.28 188.49 301.25L195.68 301.19C195.41 301.19 198.79 300.9 198.8 300.86C198.88 300.6 198.76 300.33 198.8 300.04C199.55 295.3 201.22 290.48 204.63 287.23C207.44 284.55 210.74 284.24 214.44 284.33L223.66 284.55L234.64 284.82L245 285.05L255.98 285.31L266.56 285.55L273.83 285.73C274.45 285.75 275.26 286.27 275.7 286.73C276.08 287.12 276.28 288.46 275.92 288.9C274.6 290.52 273.44 292.02 272.45 293.86C266.93 304.1 272.31 308.09 274.64 316.78C275.74 320.91 275.53 324.98 273.97 328.94C271.63 334.9 267.32 338.2 265.01 342.51C261.37 349.3 264.05 352.19 263.48 353.26C263.25 353.69 262.86 354.46 262.08 354.47L244.49 354.61L211.39 354.86C202.8 354.92 198.84 346.96 198.03 339.4C195.67 339.37 193.41 339.48 191.02 339.28C187.09 338.96 183.19 339.27 179.29 339.15L173.49 348.61C167.65 358.13 159.64 366.56 147.93 367.6C145.71 367.8 143.53 367.86 141.34 367.62L137.69 367.21L127.9 402.25C127.58 403.38 127.17 404.24 125.96 404.26C125.01 404.28 124.09 403.77 123.79 402.65L114.18 366.81C108.24 366.06 105.04 363.65 100.76 360.03C100.01 359.39 99.4799 358.84 98.8099 358.08C93.6999 352.27 90.3699 344.99 94.9299 337.56C92.6299 336.55 90.5199 334.95 88.7499 332.95C84.5499 328.2 84.5599 321.37 88.9399 316.75C89.0099 316.67 89.2399 316.57 89.2299 316.49C89.1799 316.16 82.4999 313.96 82.6499 305.82C82.7899 298.23 87.9299 295.71 94.7399 294.15L91.5099 282.21C84.3699 281.51 76.6099 277.52 76.2699 269.61C75.9999 263.45 78.4399 257.76 84.3299 255.28L77.7899 230.72C77.5299 229.74 77.2399 229.27 76.3699 228.72C73.7099 227.03 71.3199 225.09 68.9699 222.95C67.2299 221.37 63.2499 217.43 61.8199 215.68C57.3999 210.27 53.5599 204.5 50.6899 198.09C47.2499 190.41 44.8999 182.51 44.3599 174.15L44.0999 170.05C43.9699 168.08 43.8499 166.28 44.1199 164.3C44.2599 163.3 44.1799 159.01 44.8299 157.68C42.0699 153.77 37.6099 151.55 35.0199 148.48C31.8199 144.67 29.8099 139.9 30.3399 134.88C30.8299 130.29 32.5599 126.17 35.1199 122.43C36.5099 120.41 37.8299 118.56 39.6299 116.92C33.8199 109.38 33.8899 99.9 36.8899 91.22C35.8699 90.45 34.8199 89.59 34.0199 88.3C29.0399 80.3 27.7099 70.59 30.3299 61.51C31.9299 55.96 34.7499 51.23 38.6299 46.99C43.1599 42.05 48.3799 38.07 54.2799 34.83C61.1099 31.08 68.1099 28.1 75.4999 25.64C76.6199 21.58 81.5299 16.08 84.5799 13.33C92.9299 5.8 101.95 1.36 112.97 0H119.2L119.18 0ZM121.96 97.01L133.51 100.32C150.38 105.15 160.16 90.97 176.83 95.4L185.87 97.8C188.26 98.44 190.53 98.87 193.03 99.1C198.87 99.64 204.57 97.52 208.39 93.08C211.51 89.45 212.59 84.83 211.71 80.16C210.58 74.18 207.08 68.8 203.15 64.24L195.95 55.87C194.77 54.5 193.99 52.9 193.94 51.1C193.9 49.76 194.76 48.74 195.97 48.79C197.18 48.84 197.76 49.86 197.85 51.08C197.95 52.48 199.05 53.52 199.89 54.49C201 52.58 200.88 44.95 200.52 43.08C198.56 32.89 187.06 28.44 178.08 26.45L163.92 23.32C157.1 21.81 150.93 18.8 144.98 15.21L134.21 8.73C124.77 3.05 113.33 2.43 103.02 6.37C97.6899 8.41 92.9599 11.29 88.6499 14.99C85.7999 17.43 83.0999 19.96 81.1199 23.42C85.9099 21.48 90.1499 19.33 94.4399 17.05C95.4199 16.24 96.8099 16.38 97.4699 17.46C97.9899 18.31 97.6899 19.54 96.6599 20.18C93.7699 21.99 90.6999 23.3 87.5999 24.81C83.9199 26.61 80.3699 28.12 76.4599 29.45C69.0899 31.96 62.0799 34.9 55.3099 38.74C49.5299 42.02 44.5599 46.05 40.2599 51.1C33.0199 59.61 30.8899 71.04 34.9899 81.55C35.8299 83.69 36.7199 85.78 38.4199 87.43C39.8699 84.4 41.3299 81.48 43.6299 79.13L47.5299 75.13C48.2999 74.34 49.5199 74.31 50.2899 75.01C51.0599 75.71 51.1399 76.96 50.3699 77.74L46.5699 81.62C39.5199 88.83 33.1199 109.46 47.4099 119.02C53.8299 123.31 61.7599 121.64 67.9999 117.93C70.1299 116.67 72.0599 115.39 73.9899 113.83L84.1899 105.58C95.9199 96.09 107.08 92.74 121.94 97L121.96 97.01ZM85.1099 109.96C83.8099 110.62 75.6099 117.97 70.0999 121.22C67.8799 122.53 65.6399 123.56 63.0799 124.42C76.5499 141.48 96.7999 151.25 118.12 151.43C139.44 151.61 159.91 142.1 173.58 125.4C176.96 121.27 179.71 116.79 182.24 112C178.08 105.65 170.56 102.53 163.73 100.12C163.04 99.88 162.95 99.37 162.02 99.7L153.75 102.68L146.2 104.86L143.26 106.84C137.16 110.94 128.88 110.35 121.76 107.96L113.66 105.25C100.47 100.83 96.5599 104.16 87.7599 108.61L85.0999 109.96H85.1099ZM124.08 161.16C139.76 156.14 148.91 157.78 164.48 159.5C167.61 159.85 170.51 159.95 173.61 159.83C180.15 159.58 185.67 156.15 188.6 150.18C191.53 144.21 191.31 136.44 187.95 130.33C186.16 127.07 183.48 124.65 180.38 122.73C177.4 127.23 174.04 131.02 170.51 134.41C137.91 165.78 85.4899 161.11 58.7699 125.15C52.7499 126.31 46.6599 124.07 42.1799 119.82C37.2199 125.03 32.4499 133.19 34.8199 140.46C35.9499 143.92 38.2799 146.64 41.1599 148.81C47.5799 153.65 49.7299 157.46 53.1899 164.59C55.2399 168.81 58.4399 172.02 62.6899 174.02C65.1899 175.2 67.6999 176.31 70.5299 176.46C83.2799 177.11 94.5899 172.7 106.18 167.88C112.13 165.41 117.83 163.17 124.08 161.17V161.16ZM145.29 164.28C141.08 162.98 128.55 166.31 124.18 167.89L106.17 174.39L95.8499 179.57C90.4299 182.29 84.8399 184.12 78.9099 185.59C76.7099 186.14 74.3299 186.32 71.9399 186.58C64.5099 187.37 54.6299 185.55 49.1399 179.84C49.8799 185.86 52.0799 191.14 54.3899 196.49C61.8499 213.79 77.1599 227.75 95.1999 233.87C102.87 236.47 110.5 237.97 118.89 237.98C144.44 238.01 168.19 224.08 180.67 201.47C184.63 194.29 187.45 186.34 188.66 178.04C189.66 171.15 189.94 164.2 188.73 156.96C187.15 158.46 185.7 159.85 183.82 160.87C182.45 166.14 173.25 167.78 168.59 167.96C164.58 168.11 160.8 167.47 156.89 166.65L145.31 164.28H145.29ZM155.49 272.45C157.39 269.3 159.51 266.58 162.44 264.33L172.38 228.59L143.55 246.32L154.1 273.8C154.82 273.78 155.1 273.08 155.48 272.44L155.49 272.45ZM126.42 277.95L130.44 287.84L150.79 275.92L140.21 248.43L129.3 255.18C132.7 257.97 134.12 262.03 133.58 266.24C133.23 271.23 130.77 275.33 126.43 277.95H126.42ZM117.42 276.6C115.08 275.4 113.14 274.29 111.73 272.26C109.53 269.11 109.59 265.04 111.56 261.72C112.92 259.3 115.01 257.7 117.28 256C109.52 255.87 102.09 256.02 94.5399 256.72C91.7199 256.98 89.0999 257.52 86.5499 258.49C82.8599 259.88 80.8099 262.85 80.2199 266.65C79.0799 273.89 84.5999 277.23 90.9199 278.19C99.5099 279.5 108.69 278.16 117.42 276.59V276.6ZM124.97 274.21C126.6 273.15 127.93 271.81 128.69 270.01C130.57 265.54 130.43 259.56 125.43 257.49C124.54 257.84 123.34 257.91 122.34 258.16C119.19 258.96 116.38 261.19 114.78 263.96C113.18 266.73 113.95 269.75 116.33 271.49C120.09 274.24 121.67 273.09 124.97 274.21ZM144.12 344.09L138.72 363.28C148.27 365.03 156.34 362.87 163.08 355.74C165.93 352.73 168.27 349.58 170.44 346.06L176.27 336.58C176.74 335.81 177.43 335.32 178.42 335.32L206.49 335.36C209.15 330.9 211.3 326.4 213.54 321.72C216.22 316.11 218.96 310.75 221.34 304.71L186.67 305.2C185.34 307.94 183.97 310.54 182.24 313.03C181.69 313.82 180.49 313.82 179.83 313.41C178.04 312.29 179.4 310.24 180.29 308.88C182.61 305.3 184.11 301.47 185 297.28C186.94 288.11 187.87 278.52 181.74 270.61C177.88 265.63 172.06 262.75 166.18 266.51C159.07 270.76 154.84 281.17 153.66 289.27C160.24 290.05 165.47 293.73 168.37 299.48C170.72 294.91 172.08 290.41 172.94 285.66L173.2 282.34C173.34 281.18 174.17 280.39 175.19 280.43C176.26 280.47 177.08 281.34 177.06 282.54C176.92 289.76 173.47 299.76 169.08 305.57C165.71 310.03 160.43 313.81 154.92 310.06C152.18 320.67 153.2 333.79 155.2 344.38C155.4 345.45 154.37 346.26 153.62 346.37C150.6 346.79 150.99 341.07 150.29 338.57C148.16 340.09 146.27 343.22 144.14 344.06L144.12 344.09ZM126.05 290.32C126.5 290.28 127.06 289.89 126.91 289.51L123 279.68C121.77 279.46 120.91 280.08 119.97 280.73C115.4 283.94 110.75 286.79 105.95 289.66C106.26 290.62 106.52 291.33 106.97 292.14L126.05 290.31V290.32ZM145.4 324.99L151.07 304.89C148.03 296.74 149.42 287.87 152.02 279.69L134.45 290C136.96 290.51 139.18 291.29 141.3 292.6C143.9 294.45 145.43 297.3 145.56 300.53C145.83 305.31 144.04 309.77 140.49 313.05L145.4 324.99ZM222.12 300.78C220.95 296.04 216.78 287.39 211.1 288.16C205.75 289.11 203.09 296.2 202.75 301.05L222.12 300.79V300.78ZM262.99 338.28L268.19 331.36C271.35 326.9 272.43 321.54 270.41 316.46L267.48 309.09C265.57 304.29 265.67 299.17 267.77 294.47C268.51 292.8 269.38 291.37 270.37 289.58L220.21 288.48C223.43 292.54 225.34 296.87 226.34 301.79C228.08 310.28 228.15 318.81 227.13 327.43C226.5 332.74 225.5 337.73 223.66 342.7C222.58 345.64 221.17 348.17 219.09 350.84L259.01 350.67C258.95 346.14 260.27 341.93 263 338.29L262.99 338.28ZM161.64 307.18C163.37 306.23 164.7 305.01 165.81 303.41C163.57 297.39 159.59 294.07 153.24 293.12C153.06 297.21 153.56 303.31 156.55 306.33C157.84 307.8 159.82 308.19 161.64 307.18ZM130.65 313.25C133.1 313.12 134.84 312.51 136.6 311.23C140.17 308.65 142.18 304.55 141.64 300.11C141.34 297.67 139.8 295.78 137.45 294.98C136.73 294.74 135.38 293.82 134.72 294.27C133.84 294.88 133.07 295.04 132.1 295.47C129.41 296.65 126.99 298.7 125.3 301.11C123.43 303.78 123.98 307.17 125.88 309.66C127.23 311.17 128.83 312.46 130.66 313.24L130.65 313.25ZM104.58 315C111.25 315.19 117.71 314.74 124.59 313.97C119.84 309.63 118.69 303.11 122.7 298.07C123.76 296.59 125.15 295.65 126.49 294.22L108.73 295.84C103.36 296.33 94.9299 297.5 90.1899 299.79C87.7699 300.96 86.4599 303.12 86.5299 305.83C86.5799 307.97 87.1399 310.08 88.8099 311.51C92.5399 314.69 99.7699 314.87 104.58 315ZM125.27 337.18C125.76 338.39 125.9 338.96 126.43 339.84L143 329.69L137.27 315.41C135.92 316.13 134.78 316.53 133.26 316.92C137.98 322.41 136.99 328.82 131.67 333.44C129.76 335.1 127.6 336.06 125.28 337.19L125.27 337.18ZM126.01 332.51C128.07 331.5 129.74 330.22 131 328.5C132.76 326.08 132.89 323.1 131.21 320.62C130.32 319.31 129.23 318.22 127.71 317.57L120.2 318.36C118.96 320.15 117.52 321.67 117.54 324.06C117.58 328.37 121.66 332.72 126.01 332.52V332.51ZM111.24 336.38C114.28 336.32 117.08 335.76 120.08 334.83C114.56 331.32 111.71 324.68 115.19 318.73C107.58 319.01 100.56 319.27 93.3999 317.78C89.6899 320.88 88.0999 325.33 91.0099 329.45C94.7699 334.77 102.38 336.59 108.59 336.54C109.43 335.8 110.31 336.4 111.25 336.38H111.24ZM135.19 361.48L142.75 334.46L127.83 343.51L135.19 361.48ZM120.57 343.41C121.49 342.9 122.27 342.47 123.02 341.9L121.56 338.48L116.73 339.75C118.2 340.97 119.32 342.05 120.57 343.41ZM107.88 351.26C111.57 349.09 115.44 348.65 119.95 348.99C110.1 336.1 110.33 342.67 98.6599 338.95C96.9999 341.48 96.3999 343.77 96.7599 346.49C97.6799 350.29 99.7299 353.58 102.61 356.37C104.01 354.17 105.7 352.56 107.88 351.27V351.26ZM215.79 348.58C218.17 345.97 219.59 342.87 220.69 339.36L201.98 339.26C202.33 343.1 203.8 347.32 206.98 349.65C209.78 351.71 213.37 351.27 215.79 348.58ZM118.18 366.7L121.55 379.21L132.35 371.54C132.78 370.13 133.22 368.93 133.42 367.47L124.52 345.68C123.87 345.9 123.42 346.14 123.03 346.62C124.54 349.04 125.74 351.52 126.27 354.32C126.67 356.38 126.61 358.39 125.95 360.34C124.77 363.83 121.93 366.18 118.18 366.71V366.7ZM122.29 354.33C120.65 353.12 118.79 352.76 116.77 352.77C112.67 352.8 108.73 354.44 106.35 357.75C106.04 358.18 105.9 358.69 105.99 359.12C106.06 359.45 106.47 359.62 106.83 359.87C110.09 362.14 113.9 363.41 117.86 362.82C122.02 362.2 123.35 357.95 122.28 354.33H122.29ZM125.79 395L130.71 377.48L122.63 383.26L125.79 395Z" fill="#1D44C2"/>
<path d="M262.99 338.28C260.26 341.92 258.94 346.13 259 350.66L219.08 350.83C221.17 348.16 222.57 345.63 223.65 342.69C225.49 337.72 226.49 332.73 227.12 327.42C228.15 318.81 228.07 310.27 226.33 301.78C225.32 296.85 223.42 292.52 220.2 288.47L270.36 289.57C269.37 291.36 268.51 292.79 267.76 294.46C265.67 299.16 265.57 304.28 267.47 309.08L270.4 316.45C272.42 321.53 271.34 326.89 268.18 331.35L262.98 338.27L262.99 338.28Z" fill="white"/>
<path d="M222.12 300.78L202.75 301.04C203.09 296.19 205.75 289.1 211.1 288.15C216.78 287.38 220.95 296.04 222.12 300.77V300.78Z" fill="#D8F2EE"/>
<path d="M215.79 348.58C213.38 351.27 209.79 351.71 206.98 349.65C203.8 347.31 202.33 343.09 201.98 339.26L220.69 339.36C219.58 342.87 218.17 345.97 215.79 348.58Z" fill="#D8F2EE"/>
<path d="M144.12 344.09C146.25 343.25 148.14 340.12 150.27 338.6C150.96 341.1 150.57 346.82 153.6 346.4C154.35 346.29 155.38 345.48 155.18 344.41C153.18 333.82 152.16 320.7 154.9 310.09C160.41 313.84 165.69 310.06 169.06 305.6C173.46 299.78 176.9 289.79 177.04 282.57C177.06 281.37 176.24 280.49 175.17 280.46C174.16 280.43 173.32 281.22 173.18 282.37L172.92 285.69C172.06 290.44 170.71 294.94 168.35 299.51C165.44 293.75 160.21 290.07 153.64 289.3C154.82 281.2 159.05 270.79 166.16 266.54C172.04 262.77 177.86 265.65 181.72 270.64C187.85 278.56 186.92 288.14 184.98 297.31C184.1 301.5 182.59 305.33 180.27 308.91C179.39 310.27 178.02 312.32 179.81 313.44C180.47 313.85 181.67 313.85 182.22 313.06C183.95 310.57 185.32 307.98 186.65 305.23L221.32 304.74C218.93 310.78 216.2 316.13 213.52 321.75C211.28 326.43 209.13 330.94 206.47 335.39L178.4 335.35C177.41 335.35 176.72 335.84 176.25 336.61L170.42 346.09C168.25 349.61 165.91 352.76 163.06 355.77C156.31 362.9 148.25 365.05 138.7 363.31L144.1 344.12L144.12 344.09Z" fill="#F8B0D5"/>
<path d="M117.42 276.6C108.7 278.17 99.5098 279.51 90.9198 278.2C84.6098 277.23 79.0898 273.9 80.2198 266.66C80.8198 262.86 82.8598 259.89 86.5498 258.5C89.1098 257.54 91.7298 256.99 94.5398 256.73C102.09 256.03 109.51 255.87 117.28 256.01C115.01 257.71 112.91 259.31 111.56 261.73C109.59 265.04 109.53 269.11 111.73 272.27C113.13 274.3 115.08 275.41 117.42 276.61V276.6Z" fill="#F8B0D5"/>
<path d="M104.58 315C99.7698 314.87 92.5398 314.69 88.8098 311.51C87.1398 310.08 86.5898 307.97 86.5298 305.83C86.4598 303.13 87.7698 300.97 90.1898 299.79C94.9298 297.5 103.36 296.32 108.73 295.84L126.49 294.22C125.15 295.65 123.75 296.6 122.7 298.07C118.69 303.11 119.84 309.63 124.59 313.97C117.71 314.74 111.25 315.19 104.58 315Z" fill="#F8B0D5"/>
<path d="M155.49 272.45C155.1 273.09 154.82 273.79 154.11 273.81L143.56 246.33L172.39 228.6L162.45 264.34C159.52 266.59 157.4 269.3 155.5 272.46L155.49 272.45Z" fill="#E85CAA"/>
<path d="M126.42 277.95C130.76 275.33 133.22 271.23 133.57 266.24C134.11 262.03 132.69 257.97 129.29 255.18L140.2 248.43L150.78 275.92L130.43 287.84L126.41 277.95H126.42Z" fill="#E85CAA"/>
<path d="M111.24 336.38C110.31 336.4 109.42 335.8 108.58 336.54C102.37 336.59 94.7599 334.78 90.9999 329.45C88.0899 325.33 89.6799 320.89 93.3899 317.78C100.56 319.27 107.58 319 115.18 318.73C111.7 324.68 114.55 331.32 120.07 334.83C117.07 335.76 114.27 336.32 111.23 336.38H111.24Z" fill="#F8B0D5"/>
<path d="M145.4 324.99L140.49 313.05C144.04 309.78 145.83 305.31 145.56 300.53C145.43 297.29 143.9 294.44 141.3 292.6C139.18 291.29 136.96 290.51 134.45 290L152.02 279.69C149.42 287.86 148.02 296.74 151.07 304.89L145.4 324.99Z" fill="#E85CAA"/>
<path d="M130.65 313.25C128.82 312.47 127.22 311.18 125.87 309.67C123.98 307.17 123.42 303.78 125.29 301.12C126.98 298.71 129.41 296.66 132.09 295.48C133.06 295.05 133.83 294.89 134.71 294.28C135.37 293.82 136.72 294.74 137.44 294.99C139.79 295.79 141.33 297.68 141.63 300.12C142.17 304.56 140.16 308.66 136.59 311.24C134.83 312.51 133.1 313.13 130.64 313.26L130.65 313.25Z" fill="#D8F2EE"/>
<path d="M107.88 351.26C105.7 352.55 104.01 354.16 102.61 356.36C99.7298 353.57 97.6798 350.28 96.7598 346.48C96.3998 343.76 96.9998 341.47 98.6598 338.94C110.33 342.66 110.09 336.09 119.95 348.98C115.44 348.65 111.57 349.08 107.88 351.25V351.26Z" fill="#F8B0D5"/>
<path d="M118.18 366.7C121.93 366.17 124.78 363.82 125.95 360.33C126.61 358.38 126.67 356.37 126.27 354.31C125.74 351.5 124.54 349.02 123.03 346.61C123.42 346.13 123.86 345.89 124.52 345.67L133.42 367.46C133.21 368.92 132.78 370.12 132.35 371.53L121.55 379.2L118.18 366.69V366.7Z" fill="#E85CAA"/>
<path d="M124.97 274.21C121.67 273.09 120.09 274.23 116.33 271.49C113.95 269.75 113.24 266.63 114.78 263.96C116.32 261.29 119.19 258.96 122.34 258.16C123.34 257.91 124.55 257.83 125.43 257.49C130.43 259.56 130.57 265.54 128.69 270.01C127.93 271.82 126.6 273.16 124.97 274.21Z" fill="#D8F2EE"/>
<path d="M126.01 332.51C121.65 332.71 117.58 328.36 117.54 324.05C117.52 321.66 118.95 320.14 120.2 318.35L127.71 317.56C129.24 318.22 130.33 319.3 131.21 320.61C132.89 323.09 132.76 326.06 131 328.49C129.75 330.21 128.07 331.5 126.01 332.5V332.51Z" fill="#D8F2EE"/>
<path d="M135.19 361.48L127.83 343.51L142.75 334.46L135.19 361.48Z" fill="#E85CAA"/>
<path d="M126.05 290.32L106.97 292.15C106.52 291.34 106.26 290.63 105.95 289.67C110.75 286.81 115.4 283.95 119.97 280.74C120.91 280.08 121.77 279.47 123 279.69L126.91 289.52C127.06 289.9 126.51 290.28 126.05 290.33V290.32Z" fill="#E85CAA"/>
<path d="M122.29 354.33C123.36 357.96 122.03 362.2 117.87 362.82C113.71 363.44 110.09 362.15 106.84 359.87C106.48 359.62 106.07 359.45 106 359.12C105.91 358.69 106.05 358.18 106.36 357.75C108.74 354.44 112.68 352.8 116.78 352.77C118.8 352.75 120.66 353.12 122.3 354.33H122.29Z" fill="#D8F2EE"/>
<path d="M161.64 307.18C159.82 308.18 157.84 307.8 156.55 306.33C153.56 303.31 153.06 297.21 153.24 293.12C159.59 294.06 163.57 297.39 165.81 303.41C164.7 305.01 163.37 306.23 161.64 307.18Z" fill="#D8F2EE"/>
<path d="M125.27 337.18C127.59 336.06 129.75 335.09 131.66 333.43C136.99 328.81 137.97 322.41 133.25 316.91C134.77 316.52 135.91 316.12 137.26 315.4L142.99 329.68L126.42 339.83C125.89 338.95 125.75 338.38 125.26 337.17L125.27 337.18Z" fill="#E85CAA"/>
<path d="M125.79 395L122.63 383.26L130.71 377.48L125.79 395Z" fill="#E85CAA"/>
<path d="M120.57 343.41C119.33 342.05 118.21 340.97 116.73 339.75L121.56 338.48L123.02 341.9C122.26 342.47 121.49 342.9 120.57 343.41Z" fill="#E85CAA"/>
<path d="M13.0799 102.48C8.61988 102.92 4.87988 100.12 4.21988 95.7399C3.66988 92.1099 4.39988 88.1199 6.17988 84.8799C6.56988 84.1699 7.35988 83.98 7.67988 83.12C8.21988 81.69 9.61988 80.4199 11.1199 79.9899C14.3499 79.0499 17.5799 80.24 19.8699 82.51C22.8099 85.42 23.8699 89.24 23.0299 93.3C22.0299 98.17 18.2799 101.96 13.0799 102.48Z" fill="#6684F6"/>
<path d="M124.08 161.16C117.83 163.16 112.13 165.4 106.18 167.87C94.5898 172.69 83.2698 177.11 70.5298 176.45C67.6998 176.3 65.1898 175.18 62.6898 174.01C58.4398 172.02 55.2398 168.8 53.1898 164.58C49.7298 157.45 47.5898 153.64 41.1598 148.8C38.2798 146.63 35.9498 143.91 34.8198 140.45C32.4498 133.18 37.2198 125.01 42.1798 119.81C46.6498 124.06 52.7498 126.3 58.7698 125.14C85.4898 161.1 137.91 165.77 170.51 134.4C174.04 131 177.4 127.22 180.38 122.72C183.48 124.64 186.16 127.06 187.95 130.32C191.31 136.43 191.65 143.97 188.6 150.17C185.55 156.37 180.15 159.57 173.61 159.82C170.51 159.94 167.61 159.84 164.48 159.49C148.91 157.77 139.76 156.13 124.08 161.15V161.16ZM47.7498 144.65C44.3398 140.76 40.9998 135.79 45.0198 131.17C45.7898 130.29 45.5798 128.94 44.7598 128.31C43.8598 127.62 42.7398 127.89 41.9598 128.79C36.7498 134.89 40.0098 142.18 44.8998 147.18C45.6898 147.99 46.9198 147.95 47.6298 147.29C48.2998 146.66 48.4898 145.49 47.7498 144.65ZM186.18 135.66C185.76 134.58 184.54 134.23 183.7 134.51C182.63 134.88 182.18 136.03 182.59 137.09C183.03 138.23 182.92 139.35 183.02 140.54C183.1 141.64 184.23 142.22 185.22 142.04C187.88 141.55 186.82 137.3 186.18 135.66ZM179.3 154.85C180.66 153.95 181.96 152.91 183.01 151.65C183.75 150.76 183.53 149.47 182.71 148.85C180.5 147.19 179.35 151.03 175.92 152.19C173.97 152.85 171.33 151.5 170.26 153.2C169.83 153.89 169.92 154.74 170.4 155.41C171.21 156.54 176.22 156.89 179.3 154.86V154.85ZM80.4798 168.54C75.4598 169.99 69.6798 170.53 65.8698 166.32C65.1298 165.5 63.8598 165.5 63.1298 166.17C62.4498 166.8 62.2598 167.94 62.9298 168.75C65.0498 171.33 68.0098 172.89 71.3698 173.28C74.7298 173.67 78.2698 173.32 81.5198 172.22C82.5798 171.86 83.0698 170.71 82.8098 169.82C82.5398 168.86 81.5398 168.22 80.4798 168.53V168.54Z" fill="#F8B0D5"/>
<path d="M47.7497 144.65C48.4897 145.49 48.2997 146.66 47.6297 147.29C46.9197 147.95 45.6797 147.99 44.8997 147.18C40.0097 142.18 36.7497 134.89 41.9597 128.79C42.7297 127.88 43.8597 127.62 44.7597 128.31C45.5797 128.94 45.7897 130.29 45.0197 131.17C41.0097 135.79 44.3397 140.76 47.7497 144.65Z" fill="white"/>
<path d="M80.4799 168.54C81.5399 168.23 82.5399 168.88 82.8099 169.83C83.0599 170.72 82.5799 171.87 81.5199 172.23C78.2599 173.33 74.8099 173.69 71.3699 173.29C67.9299 172.89 65.0499 171.34 62.9299 168.76C62.2599 167.95 62.4499 166.81 63.1299 166.18C63.8499 165.51 65.1299 165.51 65.8699 166.33C69.6799 170.54 75.4599 170 80.4799 168.55V168.54Z" fill="white"/>
<path d="M179.3 154.85C176.23 156.88 171.21 156.53 170.4 155.4C169.92 154.73 169.83 153.88 170.26 153.19C171.33 151.49 173.97 152.84 175.92 152.18C179.35 151.03 180.5 147.18 182.71 148.84C183.53 149.46 183.75 150.75 183.01 151.64C181.96 152.9 180.66 153.94 179.3 154.84V154.85Z" fill="white"/>
<path d="M186.18 135.66C186.83 137.3 187.88 141.55 185.22 142.04C184.23 142.22 183.11 141.65 183.02 140.54C182.93 139.34 183.04 138.23 182.59 137.09C182.18 136.03 182.63 134.88 183.7 134.51C184.54 134.22 185.75 134.58 186.18 135.66Z" fill="white"/>
<path d="M188.65 178.04C172.79 176.89 153.24 187.8 150.5 204.82C131.45 204.95 118.02 219.17 118.88 237.98C110.49 237.97 102.86 236.47 95.1899 233.87C96.5599 229.41 96.5399 224.8 96.1599 220.18C97.5599 220.7 98.8499 220.82 100.1 219.83C101.07 219.06 101.85 218.1 101.9 216.94C102 214.53 99.5899 212.36 97.3199 212.87C96.5499 213.05 95.5199 213.69 94.9599 214.71C92.8999 207.31 88.8299 200.75 81.8999 196.84C75.0299 192.97 61.2099 192.43 54.3699 196.49C52.0599 191.15 49.8599 185.86 49.1199 179.84C54.6199 185.56 64.4899 187.38 71.9199 186.58C74.3099 186.32 76.6899 186.14 78.8899 185.59C82.1999 191.44 90.2399 193.89 96.8799 193.34C106.3 192.49 113.44 188.31 119.63 181.36C132.13 182.31 141.05 175.47 145.27 164.28L156.85 166.65C160.76 167.47 164.53 168.11 168.55 167.96C173.21 167.78 182.41 166.14 183.78 160.87C185.67 159.85 187.11 158.46 188.69 156.96C189.91 164.19 189.63 171.15 188.62 178.04H188.65ZM141.1 181.59C140.95 179.74 139.61 178.87 138.11 178.46C136.37 177.98 134.88 178.14 133.46 179.43C131.76 180.97 131.16 184 132.87 185.85C134.29 187.39 136.68 187.32 138.47 186.42C140.1 185.6 141.27 183.71 141.1 181.58V181.59ZM106.08 201.34C106.08 198.71 103.95 196.58 101.33 196.58C98.7099 196.58 96.5799 198.71 96.5799 201.34C96.5799 203.97 98.7099 206.1 101.33 206.1C103.95 206.1 106.08 203.97 106.08 201.34Z" fill="#D8F2EE"/>
<path d="M145.29 164.28C141.07 175.47 132.15 182.31 119.65 181.36C113.46 188.31 106.32 192.49 96.8999 193.34C90.2599 193.89 82.2099 191.44 78.9099 185.59C84.8399 184.11 90.4299 182.28 95.8499 179.57L106.17 174.39L124.18 167.89C128.55 166.31 141.08 162.98 145.29 164.28Z" fill="#6684F6"/>
<path d="M101.33 206.1C103.959 206.1 106.09 203.969 106.09 201.34C106.09 198.711 103.959 196.58 101.33 196.58C98.701 196.58 96.5698 198.711 96.5698 201.34C96.5698 203.969 98.701 206.1 101.33 206.1Z" fill="#1D44C2"/>
<path d="M141.1 181.59C141.27 183.71 140.1 185.61 138.47 186.43C136.68 187.33 134.28 187.4 132.87 185.86C131.16 184.01 131.76 180.97 133.46 179.44C134.89 178.16 136.37 178 138.11 178.47C139.61 178.88 140.95 179.74 141.1 181.6V181.59Z" fill="#1D44C2"/>
<path d="M96.1599 220.16C95.1899 219.52 94.4698 218.69 94.2698 217.83C93.9998 216.66 94.4499 215.63 94.9699 214.69C95.5299 213.67 96.5499 213.03 97.3299 212.85C99.5899 212.34 102.01 214.51 101.91 216.92C101.86 218.08 101.08 219.03 100.11 219.81C98.8598 220.81 97.5698 220.68 96.1698 220.16H96.1599Z" fill="#1D44C2"/>
<path d="M188.65 178.04C187.44 186.33 184.62 194.29 180.66 201.47C168.18 224.08 144.43 238.01 118.88 237.98C118.02 219.18 131.45 204.96 150.5 204.82C153.25 187.81 172.8 176.89 188.65 178.04ZM171 199.01C172.2 197.43 172.49 195.3 171.18 193.78C170.23 192.67 168.33 192.27 167 192.98C165.44 193.82 164.58 195.66 164.73 197.37C164.86 198.87 165.95 200.1 167.08 200.41C168.61 200.82 170.03 200.27 170.99 199L171 199.01ZM137.7 220.58C138.11 219.23 137.64 217.88 136.58 216.94C135.6 216.06 134.29 215.7 132.98 216.12C131.95 216.45 130.93 217.36 130.61 218.64C130.27 220.02 130.66 221.43 131.48 222.49C132.86 224.3 136.98 222.96 137.7 220.59V220.58Z" fill="#6684F6"/>
<path d="M171 199.01C170.04 200.28 168.62 200.83 167.09 200.42C165.96 200.12 164.86 198.88 164.74 197.38C164.6 195.66 165.45 193.83 167.01 192.99C168.33 192.28 170.23 192.67 171.19 193.79C172.49 195.31 172.21 197.44 171.01 199.02L171 199.01Z" fill="#1D44C2"/>
<path d="M137.7 220.58C136.98 222.96 132.87 224.29 131.48 222.48C130.67 221.42 130.28 220.01 130.61 218.63C130.92 217.35 131.95 216.44 132.98 216.11C134.29 215.69 135.6 216.06 136.58 216.93C137.64 217.87 138.11 219.23 137.7 220.57V220.58Z" fill="#1D44C2"/>
<path d="M94.9699 214.69C94.4499 215.63 93.9999 216.66 94.2699 217.83C94.4699 218.69 95.1899 219.52 96.1599 220.16C96.5399 224.79 96.5599 229.39 95.1899 233.85C77.1499 227.73 61.8499 213.77 54.3799 196.47C61.2299 192.41 75.0499 192.94 81.9099 196.82C88.8399 200.73 92.8999 207.29 94.9699 214.69ZM75.1599 209.24C76.1399 211.24 78.5099 211.93 80.4299 211.31C82.1999 210.74 83.6799 209.11 83.5699 207.05C83.4499 204.7 81.6199 202.55 79.1799 202.79C78.0999 202.9 76.9099 203.49 76.1199 204.22C74.8399 205.4 74.3399 207.57 75.1599 209.24Z" fill="#6684F6"/>
<path d="M75.16 209.24C74.35 207.58 74.84 205.4 76.12 204.22C76.91 203.49 78.1 202.9 79.18 202.79C81.62 202.55 83.44 204.7 83.57 207.05C83.68 209.11 82.2 210.74 80.43 211.31C78.51 211.92 76.14 211.23 75.16 209.24Z" fill="#1D44C2"/>
<path d="M215.87 146.47C212.24 146.8 209.13 145.65 206.04 144.11C200.35 141.28 196.16 136 195.68 129.57C195.42 126.04 196.03 122.65 197.78 119.66C199.53 116.67 202.1 114.91 205 113.45C206.14 112.87 207.27 112.38 208.59 112.52C212.44 111.35 216.48 114.04 219.16 116.61C224.5 121.73 227.23 129.24 226.21 136.61C225.47 141.96 221.29 145.99 215.85 146.48L215.87 146.47ZM213.73 142.5C218.24 143.06 221.87 140.13 222.38 135.78C223.17 129.06 220.3 122.32 214.98 118.15C213.77 117.2 212.44 116.39 210.91 116.25C207.66 115.96 203.89 118.11 202.11 120.37C198.26 125.3 198.74 132.27 202.95 136.91C205.68 139.93 209.53 141.97 213.73 142.49V142.5Z" fill="#1D44C2"/>
<path d="M213.73 142.5C209.53 141.98 205.68 139.94 202.95 136.92C198.74 132.27 198.26 125.3 202.11 120.38C203.88 118.11 207.66 115.97 210.91 116.26C212.44 116.39 213.77 117.21 214.98 118.16C220.3 122.33 223.17 129.07 222.38 135.79C221.87 140.13 218.24 143.07 213.73 142.51V142.5ZM206.65 128.61C206 126.92 206.87 125.35 208.21 124.33C209.2 123.58 209.31 122.17 208.55 121.37C207.68 120.44 206.55 120.72 205.58 121.47C202.3 124.01 201.55 128.52 204.05 131.92C204.85 133.01 205.69 134.1 206.87 134.81C207.76 135.34 208.86 135.13 209.45 134.33C211.01 132.2 207.73 131.4 206.65 128.61Z" fill="#6684F6"/>
<path d="M206.65 128.61C207.73 131.39 211.01 132.19 209.45 134.33C208.87 135.13 207.76 135.34 206.87 134.81C205.69 134.11 204.85 133.02 204.05 131.92C201.56 128.53 202.3 124.02 205.58 121.47C206.55 120.72 207.67 120.44 208.55 121.37C209.31 122.17 209.19 123.58 208.21 124.33C206.87 125.35 206 126.93 206.65 128.61Z" fill="white"/>
<path d="M121.96 97.01C107.1 92.75 95.9398 96.1 84.2098 105.59L74.0098 113.84C72.0798 115.4 70.1398 116.68 68.0198 117.94C61.7698 121.65 53.8398 123.32 47.4298 119.03C33.1398 109.47 39.5398 88.84 46.5898 81.63L50.3898 77.75C51.1598 76.97 51.0398 75.69 50.3098 75.02C49.5798 74.35 48.3198 74.35 47.5498 75.14L43.6498 79.14C41.3498 81.5 39.8898 84.41 38.4398 87.44C36.7298 85.78 35.8398 83.7 35.0098 81.56C30.9098 71.05 33.0398 59.62 40.2798 51.11C44.5798 46.05 49.5498 42.02 55.3298 38.75C62.0998 34.91 69.1098 31.97 76.4798 29.46C80.3898 28.13 83.9298 26.63 87.6198 24.82C90.7198 23.3 93.7798 21.99 96.6798 20.19C97.7098 19.55 98.0098 18.32 97.4898 17.47C96.8298 16.39 95.4398 16.26 94.4598 17.06C90.1698 19.34 85.9298 21.5 81.1398 23.43C83.1198 19.97 85.8298 17.44 88.6698 15C92.9898 11.3 97.7098 8.42 103.04 6.38C113.35 2.44 124.79 3.06 134.23 8.74L145 15.22C150.96 18.81 157.12 21.82 163.94 23.33L178.1 26.46C187.08 28.45 198.58 32.9 200.54 43.09C200.9 44.95 201.02 52.58 199.91 54.5C199.06 53.53 197.97 52.49 197.87 51.09C197.78 49.87 197.18 48.86 195.99 48.8C194.8 48.74 193.92 49.76 193.96 51.11C194.01 52.91 194.8 54.52 195.97 55.88L203.17 64.25C207.1 68.81 210.59 74.19 211.73 80.17C212.62 84.84 211.53 89.46 208.41 93.09C204.6 97.53 198.89 99.65 193.05 99.11C190.55 98.88 188.28 98.44 185.89 97.81L176.85 95.41C160.17 90.98 150.39 105.16 133.53 100.33L121.98 97.02L121.96 97.01ZM127.94 23.12C126.91 21.91 125.62 21.7 124.12 21.98C122.42 22.29 121.21 23.1 120.23 24.59C119.25 26.08 118.57 27.69 119.17 29.56C119.59 30.88 120.56 32.37 122.18 32.95C123.8 33.53 125.63 33.28 127 32.27C130.06 30 129.92 25.47 127.93 23.13L127.94 23.12ZM161.92 47C163.08 46.63 163.2 45.56 163.11 44.61C162.9 42.39 162.42 40.46 161.45 38.51C159.98 35.55 158.15 32.88 155.64 30.69C154 29.25 151.39 28.14 149.55 29.77C147.83 31.29 148.55 34.43 149.26 36.38C150.67 40.21 152.82 43.56 156.19 45.91C157.86 47.08 159.92 47.64 161.91 47H161.92ZM97.8298 64.16C101.57 65.74 105.74 65.62 108.96 63.18C112.87 60.22 112.85 53.89 110.78 49.67C111.75 42.15 106.42 35.81 99.4698 33.9C96.2798 33.02 92.6998 33.4 90.0698 35.38C88.9398 36.23 87.8598 36.98 86.8498 37.96C83.8098 40.9 81.9098 44.93 81.5198 49.12C80.7698 57.14 87.1498 62.19 94.6398 62.54C95.6998 62.65 96.6898 63.68 97.8398 64.16H97.8298ZM67.9898 48.89C70.2398 48.64 71.9498 47.03 72.1498 44.86C72.2898 43.31 71.5898 41.73 70.1398 41.23C68.0598 40.52 66.2298 41.53 64.9998 43.16C64.0698 44.39 63.6698 45.82 64.4398 47.17C65.0998 48.34 66.3398 49.08 67.9998 48.89H67.9898ZM41.7598 65.03C42.5098 63.04 43.4898 61.25 44.4798 59.39C44.9998 58.41 44.7298 57.27 43.8598 56.72C43.0598 56.21 41.7998 56.4 41.2298 57.35C37.9798 62.83 36.1198 67.7 37.1198 74.2C37.2798 75.27 38.5198 75.81 39.3098 75.64C42.3798 74.96 39.3898 71.31 41.7498 65.03H41.7598ZM153.41 77.29C157.39 73.12 160.65 66.87 158.39 61.34C157.48 59.12 155.5 58.36 153.21 58.51C151.62 58.61 150.32 58.7 148.87 59.52C144.13 62.21 140.26 66.31 138.05 71.36C137.25 73.18 136.96 75.18 137.33 77.09C137.96 80.31 140.9 82.19 144.14 82.01C147.81 81.81 150.84 79.99 153.41 77.29ZM126.02 70.4C128.27 70.34 129.64 68.29 129.26 66.2C129.04 64.96 128.34 64.01 127.4 63.61C126.28 63.14 125.14 63.47 124.24 64.05C122.81 64.98 122.75 66.2 123.22 67.66C123.64 68.98 124.26 70.44 126.02 70.39V70.4ZM199.48 67.43C198.79 66.61 197.6 66.57 196.88 67.1C195.08 68.43 196.93 70.48 197.8 71.75C198.4 72.63 199.59 72.86 200.46 72.3C202.36 71.07 200.56 68.71 199.48 67.43ZM86.7798 77.56C87.7698 78.03 88.6898 78.26 89.6298 77.6C91.0798 76.59 91.3498 74.09 89.9698 72.74C89.2598 72.04 88.1798 71.67 87.1198 72.14C85.9298 72.66 85.2598 74.04 85.1698 75.3C85.0898 76.44 85.7998 77.1 86.7798 77.56ZM115.44 84.15C118.09 83.17 119.2 80.5 118.18 77.95C117.51 76.28 115.81 75 113.96 75.44C111.8 75.96 110.76 78.01 110.69 80.03C110.63 81.48 110.75 82.75 111.79 83.6C112.83 84.45 114.12 84.64 115.45 84.15H115.44ZM177.83 83.62C179.32 85.02 181.36 84.82 182.85 83.81C184.44 82.73 185.22 81.05 184.78 79.13C184.43 77.6 183.2 76.04 181.24 75.89C180.28 75.82 178.79 75.9 177.96 76.56C175.82 78.26 175.83 81.75 177.83 83.62ZM197.46 96.11C199.73 95.56 201.4 94.2 203 92.74C206.32 89.69 207.99 85.58 207.65 81.07C207.55 79.68 207.73 78.33 207.04 77.1C206.5 76.15 205.46 75.7 204.51 76.1C201.95 77.17 205.02 80.18 203.32 85.35C202.28 88.52 199.66 91.13 196.62 92.33C195.49 92.77 194.77 93.46 194.98 94.62C195.16 95.64 196.17 96.41 197.47 96.1L197.46 96.11ZM49.4098 93.56C50.9898 90.19 53.0298 87.31 55.4898 84.57C56.3198 83.64 56.2298 82.24 55.3098 81.56C54.3898 80.88 53.2998 81.19 52.5298 82.06C46.1598 89.17 42.1198 97.37 44.0398 107.16C44.2698 108.34 45.2198 109.1 46.3998 108.87C50.0398 108.15 44.9498 103.09 49.3998 93.57L49.4098 93.56ZM73.4098 95.56C77.2398 95.81 80.2198 92.84 80.7198 89.19C81.0098 87.03 80.5598 85.03 79.0798 83.46C77.7898 82.09 75.8498 81.2 73.7598 81.45C71.3898 81.74 69.9098 83.42 68.7398 85.32C67.4098 87.47 66.8898 89.58 68.0298 92.01C68.8898 93.86 70.8598 95.39 73.4198 95.55L73.4098 95.56ZM54.1498 113.06C53.0198 112.51 51.6998 112.6 51.1198 113.8C50.6398 114.78 51.1498 116.01 52.3398 116.54C54.2598 117.41 56.3798 117.47 58.5198 117.48C59.7498 117.48 60.6398 116.6 60.6098 115.51C60.5298 112.58 56.3498 114.14 54.1498 113.06Z" fill="#6684F6"/>
<path d="M153.41 77.2899C150.84 79.99 147.8 81.8099 144.14 82.01C140.9 82.19 137.96 80.3099 137.33 77.0899C136.96 75.1799 137.25 73.1899 138.05 71.3599C140.26 66.2999 144.14 62.2099 148.87 59.5199C150.32 58.6899 151.62 58.6099 153.21 58.5099C155.5 58.3599 157.48 59.1199 158.39 61.3399C160.65 66.8699 157.39 73.1199 153.41 77.2899Z" fill="#D8F2EE"/>
<path d="M161.92 46.9999C159.92 47.6399 157.86 47.0799 156.2 45.9099C152.84 43.5599 150.68 40.1999 149.27 36.3799C148.55 34.4399 147.83 31.2899 149.56 29.7699C151.4 28.1399 154.01 29.2599 155.65 30.6899C158.15 32.8799 159.99 35.5398 161.46 38.5098C162.43 40.4698 162.91 42.3899 163.12 44.6099C163.21 45.5499 163.09 46.6199 161.93 46.9999H161.92Z" fill="#D8F2EE"/>
<path d="M73.4097 95.5598C70.8497 95.3898 68.8797 93.8598 68.0197 92.0198C66.8897 89.5898 67.3997 87.4798 68.7297 85.3298C69.8997 83.4298 71.3797 81.7498 73.7497 81.4598C75.8397 81.1998 77.7797 82.0998 79.0697 83.4698C80.5497 85.0398 80.9997 87.0398 80.7097 89.1998C80.2197 92.8498 77.2297 95.8198 73.3997 95.5698L73.4097 95.5598Z" fill="#D8F2EE"/>
<path d="M49.4099 93.5602C44.9499 103.08 50.0399 108.14 46.4099 108.86C45.2299 109.09 44.2799 108.33 44.0499 107.15C42.1299 97.3602 46.1599 89.1602 52.5399 82.0502C53.3199 81.1802 54.4099 80.8802 55.3199 81.5502C56.2299 82.2202 56.3299 83.6302 55.4999 84.5602C53.0399 87.3002 50.9899 90.1802 49.4199 93.5502L49.4099 93.5602Z" fill="white"/>
<path d="M127.94 23.1201C129.93 25.4601 130.07 29.9901 127.01 32.2601C125.65 33.2701 123.86 33.5401 122.19 32.9401C120.52 32.3401 119.6 30.8701 119.18 29.5501C118.58 27.6801 119.26 26.0601 120.24 24.5801C121.22 23.1001 122.43 22.2901 124.13 21.9701C125.63 21.6901 126.92 21.9101 127.95 23.1101L127.94 23.1201Z" fill="#D8F2EE"/>
<path d="M197.46 96.11C196.16 96.42 195.15 95.66 194.97 94.63C194.77 93.47 195.48 92.78 196.61 92.34C199.66 91.14 202.27 88.53 203.31 85.36C205.01 80.18 201.94 77.18 204.5 76.11C205.46 75.71 206.5 76.16 207.03 77.11C207.72 78.33 207.54 79.69 207.64 81.08C207.98 85.59 206.31 89.7 202.99 92.75C201.39 94.21 199.72 95.57 197.45 96.12L197.46 96.11Z" fill="white"/>
<path d="M41.7598 65.0302C39.3998 71.3102 42.3898 74.9702 39.3198 75.6402C38.5198 75.8202 37.2898 75.2702 37.1298 74.2002C36.1298 67.7002 37.9898 62.8302 41.2398 57.3502C41.7998 56.4002 43.0698 56.2102 43.8698 56.7202C44.7298 57.2702 45.0098 58.4002 44.4898 59.3902C43.4998 61.2502 42.5198 63.0402 41.7698 65.0302H41.7598Z" fill="white"/>
<path d="M177.83 83.6199C175.83 81.7499 175.82 78.2599 177.96 76.5599C178.79 75.8999 180.28 75.8199 181.24 75.8899C183.2 76.0399 184.44 77.6099 184.78 79.1299C185.22 81.0499 184.44 82.7299 182.85 83.8099C181.36 84.8199 179.33 85.0199 177.83 83.6199Z" fill="#D8F2EE"/>
<path d="M115.44 84.1501C114.11 84.6401 112.79 84.4301 111.78 83.6001C110.77 82.7701 110.63 81.4801 110.68 80.0301C110.76 78.0101 111.79 75.9601 113.95 75.4401C115.8 74.9901 117.5 76.2801 118.17 77.9501C119.19 80.5001 118.08 83.1701 115.43 84.1501H115.44Z" fill="#D8F2EE"/>
<path d="M67.9898 48.8901C66.3298 49.0701 65.0898 48.3401 64.4298 47.1701C63.6698 45.8201 64.0598 44.3901 64.9898 43.1601C66.2198 41.5301 68.0598 40.5201 70.1298 41.2301C71.5798 41.7301 72.2798 43.3201 72.1398 44.8601C71.9398 47.0301 70.2298 48.6401 67.9798 48.8901H67.9898Z" fill="#D8F2EE"/>
<path d="M54.1499 113.06C56.3399 114.13 60.5299 112.57 60.6099 115.51C60.6399 116.6 59.7499 117.49 58.5199 117.48C56.3699 117.48 54.2599 117.41 52.3399 116.54C51.1599 116 50.6499 114.78 51.1199 113.8C51.6999 112.59 53.0199 112.51 54.1499 113.06Z" fill="white"/>
<path d="M126.02 70.4002C124.26 70.4502 123.65 68.9902 123.22 67.6702C122.75 66.2102 122.81 64.9802 124.24 64.0602C125.14 63.4802 126.28 63.1502 127.4 63.6202C128.34 64.0102 129.03 64.9702 129.26 66.2102C129.64 68.3002 128.27 70.3502 126.02 70.4102V70.4002Z" fill="#D8F2EE"/>
<path d="M86.7797 77.5598C85.7997 77.0998 85.0897 76.4398 85.1697 75.2998C85.2597 74.0398 85.9297 72.6598 87.1197 72.1398C88.1797 71.6798 89.2597 72.0398 89.9697 72.7398C91.3497 74.0998 91.0797 76.5898 89.6297 77.5998C88.6897 78.2498 87.7697 78.0198 86.7797 77.5598Z" fill="#D8F2EE"/>
<path d="M199.48 67.4301C200.56 68.7201 202.35 71.0701 200.46 72.3001C199.59 72.8601 198.41 72.6301 197.8 71.7501C196.93 70.4801 195.08 68.4201 196.88 67.1001C197.6 66.5701 198.79 66.6001 199.48 67.4301Z" fill="white"/>
<path d="M97.8297 64.16C96.6797 63.67 95.6797 62.65 94.6297 62.54C87.1497 62.19 80.7697 57.14 81.5097 49.12C81.8997 44.93 83.7997 40.91 86.8397 37.96C87.8497 36.98 88.9297 36.23 90.0597 35.38C92.6897 33.4 96.2697 33.02 99.4597 33.9C106.41 35.81 111.74 42.15 110.77 49.67C112.84 53.9 112.86 60.22 108.95 63.18C105.74 65.62 101.56 65.7401 97.8197 64.16H97.8297ZM90.8497 57.79C95.7297 59.62 101.31 58.04 104.67 54.12C107.75 50.53 107.7 45.34 104.76 41.81C102.14 38.67 97.5597 36.36 93.4597 37.85C92.8897 38.91 91.7497 39.09 90.7997 39.78C87.6397 42.07 85.6397 45.93 85.3897 49.84C85.1397 53.75 87.2997 56.46 90.8497 57.79Z" fill="#1D44C2"/>
<path d="M85.1098 109.96L87.7698 108.61C96.5698 104.15 100.48 100.83 113.67 105.25L121.77 107.96C128.89 110.35 137.17 110.94 143.27 106.84L146.21 104.86L153.76 102.68L162.03 99.7002C162.96 99.3602 163.05 99.8702 163.74 100.12C170.56 102.53 178.09 105.65 182.25 112C179.72 116.8 176.97 121.28 173.59 125.4C159.92 142.1 139.56 151.61 118.13 151.43C96.6998 151.25 76.5598 141.48 63.0898 124.42C65.6498 123.56 67.8898 122.53 70.1098 121.22C75.6198 117.97 83.8198 110.62 85.1198 109.96H85.1098ZM153.72 123.86L157.29 121.57C157.89 121.19 158.3 120.64 158.51 119.97C158.84 118.94 158.24 117.97 157.55 117.65C156.47 117.15 155.8 117.8 154.99 118.36L151.45 120.78C150.53 121.41 150.48 122.66 151.07 123.43C151.66 124.2 152.77 124.46 153.72 123.86ZM103.82 124.92C101.21 124.1 98.8998 121.7 97.6098 123.85C97.1498 124.62 97.2298 125.79 98.0898 126.38C99.7298 127.5 104.35 130.25 105.11 127.16C105.3 126.37 104.9 125.26 103.82 124.92ZM92.2198 126.53C89.4298 125.15 87.8798 122.37 86.1498 124.2C85.4998 124.89 85.4198 126.07 86.1498 126.84C87.4398 128.2 91.9198 131.98 93.1698 129.05C93.5898 128.07 93.1998 127.01 92.2298 126.53H92.2198ZM80.7898 131C79.9398 130.07 78.6898 129.78 77.8098 130.54C76.8398 131.38 77.0498 132.72 77.9098 133.64C79.7898 135.64 82.0698 137.08 84.2698 138.75C85.2598 139.51 86.5598 139.63 87.3198 138.58C89.2098 136 83.9598 134.48 80.7898 130.99V131ZM155.22 136.84C156.88 135.92 158.39 134.85 159.66 133.61C160.48 132.82 160.33 131.46 159.56 130.78C158.87 130.17 157.76 130.18 156.96 130.88C155.73 131.95 154.41 132.79 153.04 133.68C152.17 134.24 152.07 135.44 152.62 136.23C153.08 136.89 154.21 137.39 155.22 136.83V136.84ZM139.54 135.27C140.45 134.63 140.6 133.41 140.11 132.64C138.78 130.52 136.99 132.78 133.7 133.57C132.57 133.84 131.93 134.82 132.13 135.87C132.72 139.08 138.28 136.16 139.54 135.27ZM98.8398 136.66C97.9598 135.86 96.6298 135.71 95.8698 136.54C95.0398 137.44 95.2898 138.73 96.2198 139.52C98.2898 141.29 100.57 142.58 103.36 142.7C104.52 142.75 105.38 141.99 105.44 140.91C105.58 138.08 102.39 139.86 98.8498 136.66H98.8398ZM123.25 145.36C126.33 145.87 129.39 145.48 132.28 144.3C133.32 143.88 133.54 142.58 133.15 141.75C131.98 139.24 129.43 142.32 123.98 141.56C122.85 141.4 121.82 142.18 121.65 143.09C121.46 144.16 122.09 145.16 123.25 145.35V145.36Z" fill="white"/>
<path d="M80.7897 131C83.9697 134.49 89.2097 136.01 87.3197 138.59C86.5597 139.63 85.2597 139.51 84.2697 138.76C82.0697 137.09 79.7897 135.65 77.9097 133.65C77.0497 132.73 76.8297 131.39 77.8097 130.55C78.6897 129.79 79.9397 130.08 80.7897 131.01V131Z" fill="#1D44C2"/>
<path d="M123.25 145.36C122.09 145.17 121.46 144.17 121.65 143.1C121.81 142.19 122.85 141.41 123.98 141.57C129.43 142.33 131.98 139.25 133.15 141.76C133.54 142.59 133.32 143.89 132.28 144.31C129.4 145.49 126.33 145.88 123.25 145.37V145.36Z" fill="#1D44C2"/>
<path d="M98.8398 136.66C102.38 139.86 105.57 138.08 105.43 140.91C105.38 141.99 104.51 142.75 103.35 142.7C100.56 142.59 98.2798 141.3 96.2098 139.52C95.2898 138.73 95.0298 137.44 95.8598 136.54C96.6198 135.71 97.9498 135.86 98.8298 136.66H98.8398Z" fill="#1D44C2"/>
<path d="M155.22 136.84C154.21 137.4 153.09 136.9 152.62 136.24C152.07 135.45 152.17 134.25 153.04 133.69C154.41 132.8 155.73 131.96 156.96 130.89C157.76 130.2 158.87 130.18 159.56 130.79C160.33 131.46 160.48 132.82 159.66 133.62C158.38 134.85 156.88 135.93 155.22 136.85V136.84Z" fill="#1D44C2"/>
<path d="M153.72 123.86C152.77 124.47 151.66 124.21 151.07 123.43C150.48 122.65 150.53 121.41 151.45 120.78L154.99 118.36C155.8 117.81 156.47 117.15 157.55 117.65C158.24 117.97 158.84 118.95 158.51 119.97C158.3 120.63 157.88 121.19 157.29 121.57L153.72 123.86Z" fill="#1D44C2"/>
<path d="M139.54 135.27C138.28 136.16 132.73 139.07 132.13 135.87C131.94 134.82 132.57 133.84 133.7 133.57C136.99 132.78 138.77 130.52 140.11 132.64C140.6 133.41 140.44 134.63 139.54 135.27Z" fill="#1D44C2"/>
<path d="M92.2198 126.53C93.1898 127.01 93.5698 128.06 93.1598 129.05C91.9198 131.98 87.4298 128.21 86.1398 126.84C85.4098 126.07 85.4898 124.89 86.1398 124.2C87.8798 122.37 89.4198 125.15 92.2098 126.53H92.2198Z" fill="#1D44C2"/>
<path d="M103.82 124.92C104.9 125.26 105.3 126.37 105.11 127.16C104.35 130.25 99.7298 127.5 98.0898 126.38C97.2298 125.79 97.1498 124.61 97.6098 123.85C98.8898 121.71 101.21 124.11 103.82 124.92Z" fill="#1D44C2"/>
</g>
<defs>
<clipPath id="clip0_760_2896">
<rect width="276.08" height="404.26" fill="white"/>
</clipPath>
</defs>
</svg>
