<svg width="177" height="227" viewBox="0 0 177 227" fill="none" xmlns="http://www.w3.org/2000/svg">
<g clip-path="url(#clip0_760_3521)">
<path d="M127.599 110.237L133.102 204.072C132.8 204.69 132.49 205.311 131.966 205.408C131.559 205.487 130.761 205.556 130.3 205.064L68.5317 140.242C70.14 140.206 71.7606 139.902 73.4626 140.148C77.5171 140.719 81.0529 143.831 85.564 145.375C88.6414 146.432 91.9656 146.436 94.891 144.927C100.182 142.203 102.629 135.831 103.899 130.372L105 125.604C105.115 125.109 105.56 124.489 106.021 124.214C111.103 121.116 114.352 120.975 120.134 117.121C122.973 115.228 125.526 113.068 127.603 110.244L127.599 110.237ZM123.669 134.353L125.67 131.581L124.663 114.585L116.746 125.785C117.482 126.422 117.931 127.064 118.467 127.738L123.669 134.353ZM116.169 144.81L121.724 137.108L114.924 128.357L109.095 136.62L110.436 137.808L116.169 144.81ZM114.192 147.535L108.375 140.273C108.017 139.887 107.709 139.532 107.174 139.31L99.6036 150.007L106.808 157.813L114.196 147.524L114.192 147.535ZM126.971 154.706L126.328 142.698C125.27 141.813 124.669 140.78 123.771 139.731L118.208 147.456L125.609 156.669C126.07 156.042 126.818 155.472 126.971 154.706ZM104.895 160.463L97.7594 152.688L92.2388 160.484L99.4294 168.025L104.895 160.463ZM123.67 159.34L116.243 150.148L108.992 160.265L116.723 168.686L123.677 159.337L123.67 159.34ZM109.433 178.46L114.767 171.319L107.084 162.885L101.679 170.402L109.433 178.46ZM127.55 164.298C126.908 163.375 126.392 162.665 125.695 161.956L118.887 171.111L128.558 181.708L127.55 164.298ZM126.863 184.556L116.954 173.716L111.649 180.843L121.387 191.076L126.863 184.556ZM129.507 199.516C129.618 197.66 129.312 196.112 129.248 194.445C129.16 192.057 129.087 189.779 128.811 187.316C126.908 189.419 125.1 191.317 123.684 193.476L129.503 199.509L129.507 199.516Z" fill="#1D44C2"/>
<path d="M123.67 159.34L116.716 168.689L108.985 160.268L116.235 150.151L123.67 159.34Z" fill="#F8B0D5"/>
<path d="M114.192 147.535L106.804 157.824L99.5995 150.018L107.17 139.32C107.705 139.543 108.021 139.895 108.371 140.284L114.188 147.546L114.192 147.535Z" fill="#F8B0D5"/>
<path d="M126.863 184.556L121.388 191.076L111.649 180.843L116.958 173.705L126.863 184.556Z" fill="#F8B0D5"/>
<path d="M116.169 144.81L110.429 137.811L109.087 136.623L114.917 128.361L121.727 137.115L116.169 144.81Z" fill="#F8B0D5"/>
<path d="M109.433 178.46L101.676 170.394L107.081 162.878L114.764 171.312L109.433 178.46Z" fill="#F8B0D5"/>
<path d="M104.895 160.463L99.4294 168.025L92.2353 160.476L97.7594 152.688L104.895 160.463Z" fill="#F8B0D5"/>
<path d="M127.55 164.298L128.559 181.708L118.887 171.111L125.696 161.956C126.392 162.665 126.905 163.367 127.55 164.298Z" fill="#F8B0D5"/>
<path d="M123.669 134.353L118.467 127.738C117.931 127.064 117.482 126.422 116.746 125.785L124.663 114.585L125.67 131.581L123.669 134.353Z" fill="#F8B0D5"/>
<path d="M126.971 154.706C126.818 155.472 126.07 156.042 125.609 156.669L118.208 147.456L123.771 139.731C124.669 140.78 125.27 141.813 126.328 142.698L126.971 154.706Z" fill="#F8B0D5"/>
<path d="M129.506 199.516L123.687 193.484C125.096 191.327 126.911 189.427 128.814 187.323C129.09 189.787 129.164 192.064 129.252 194.452C129.312 196.112 129.621 197.667 129.51 199.524L129.506 199.516Z" fill="#F8B0D5"/>
<path d="M46.4311 103.878C46.2927 104.872 46.6672 105.999 46.409 107.066L37.5141 107.197L37.6683 114.926L47.839 115.056C48.3757 116.163 48.8632 117.203 49.4544 118.213L36.5172 118.191C35.8053 118.194 34.5707 117.905 34.5413 116.998L34.2532 105.232C34.2366 104.608 34.8449 104.066 35.1927 103.861C35.6455 103.589 36.2511 103.924 36.7465 103.922L46.4311 103.878Z" fill="#1D44C2"/>
<path d="M45.142 21.3552C48.2666 20.6121 51.4233 20.2333 54.7506 20.5975C67.7746 22.0232 80.6258 28.8004 89.4775 38.4207C92.98 42.225 97.5461 48.7715 99.1988 53.4995C100.093 56.0491 101.041 58.4831 101.524 61.2763C104.616 61.4055 108.114 62.3953 110.993 63.6881C117.58 66.6416 123.217 71.3771 127.043 77.5512C127.228 77.8543 127.18 78.3004 127.531 78.22L130.079 83.7548C131.998 89.7866 132.734 96.0922 131.112 102.355C130.436 104.986 129.085 108.189 127.585 110.225C125.509 113.05 122.958 115.216 120.116 117.103C114.334 120.956 111.085 121.097 106.003 124.195C105.546 124.477 105.097 125.09 104.982 125.585L103.881 130.353C102.619 135.809 100.164 142.184 94.8731 144.908C91.9477 146.417 88.6235 146.413 85.546 145.356C81.0349 143.812 77.4991 140.7 73.4446 140.129C71.7461 139.891 70.1221 140.187 68.5138 140.223C63.1338 140.361 59.0931 138.683 55.8087 134.489C53.2747 131.259 51.3011 126.697 52.4651 122.577C52.8583 121.196 51.2219 121.19 49.4512 118.187C48.86 117.177 48.3725 116.138 47.8358 115.031L37.6651 114.9L37.5109 107.172L46.4058 107.04C46.6641 105.974 46.282 104.85 46.428 103.853C46.7083 101.873 46.9159 99.9899 47.6646 98.1647C43.7607 96.5674 41.0873 93.564 39.5878 89.6592C37.0795 83.1314 39.2892 76.9686 42.6746 71.4382C43.2753 70.4485 44.2187 69.7524 44.6774 68.7288C43.0442 65.1022 42.6408 60.7742 45.6381 57.8327C48.3321 55.1934 52.0162 56.0975 54.8552 57.9504C55.7912 57.2577 56.1302 56.1899 56.7169 55.4053C60.3261 50.5572 60.2625 44.4568 56.9012 39.2334C55.2383 36.6406 53.0489 34.2179 50.0722 33.2229C48.5223 32.6996 46.5712 32.4421 45.0386 32.9761C42.619 33.819 40.14 33.4344 38.6498 31.06C37.9728 29.9814 37.9538 28.4104 38.3446 27.1021C38.8929 25.2337 40.3506 24.0663 41.7281 22.8815L45.1175 21.3214L45.142 21.3552ZM51.1818 114.474C52.5005 118.183 55.7321 120.83 59.6821 121.566C63.9678 122.365 71.1602 121.32 75.3198 119.884C76.1993 119.578 77.0617 120.256 77.2529 120.926C77.5 121.796 76.9935 122.598 76.0985 122.929C72.5513 124.264 68.891 124.667 65.1209 124.949C61.7959 125.197 58.6312 124.912 55.5546 123.602C54.6835 127.514 57.2726 131.649 59.8131 134.108C62.7587 136.977 66.5815 137.222 70.5212 136.916C77.4737 136.37 80.5158 140.115 86.5348 142.346C90.3455 143.76 94.1618 142.618 96.6393 139.41C98.385 137.162 99.5669 134.65 100.226 131.846L102.277 123.102L103.797 117.148C104.352 114.979 106.403 111.336 108.273 113.066C108.936 113.682 108.937 114.683 108.265 115.381C107.016 116.669 106.701 118.357 106.303 120.355C108.008 119.471 109.682 118.773 111.518 118.054C115.186 116.61 118.499 114.669 121.498 112.142C127.883 106.775 129.789 98.206 128.373 90.2274C126.868 81.3689 121.669 73.4076 113.81 68.9637C110.501 66.5416 106.432 65.1737 102.132 64.4992C102.834 73.4199 102.215 80.5477 97.6891 88.3456L95.3619 92.3507C94.9075 93.1286 93.8719 93.2713 93.2279 92.8726C92.4941 92.4159 92.2717 91.4621 92.7158 90.6618C93.9191 88.5101 95.1726 86.5068 96.2573 84.2742C98.564 79.5382 99.2845 74.4942 99.2086 69.23C99.1164 62.9893 97.5778 56.9991 94.6769 51.3832C87.3613 37.2553 73.4564 27.4242 58.0424 24.3363C53.6675 23.4613 47.8183 23.2468 43.9293 25.5063C42.3889 26.396 40.4784 28.4038 41.8189 29.845C42.2337 30.2951 42.8215 30.1599 43.4729 29.9865C51.973 27.762 58.4767 33.7326 61.4669 41.131C63.1111 45.2129 63.1427 49.5767 61.4381 53.6202C60.2899 56.3425 58.7479 58.7585 56.6758 60.8858L49.8943 67.8441C45.018 72.842 40.3709 79.9462 42.2089 87.234C44.0468 94.5218 51.0155 97.2271 57.7949 96.3634C63.1261 95.6879 68.2345 93.9594 72.8439 91.2057C73.7345 90.6694 74.6509 90.5816 75.2577 91.4487C75.8154 92.2483 75.4866 93.3385 74.521 93.9274C68.457 97.6395 58.2135 100.901 50.9654 99.2362C50.6287 99.662 50.4164 100.103 50.2961 100.646C49.2496 105.217 49.5053 110.028 51.2104 114.497L51.1818 114.474Z" fill="#BEE8F6"/>
<path d="M51.1817 114.474C52.2688 113.875 51.6852 112.175 53.0833 109.898C55.4991 105.987 59.6352 103.46 64.2512 103.232C66.3166 103.129 68.1876 103.252 70.2326 103.557C77.3794 104.609 84.4738 103.646 91.0666 100.376C97.6594 97.1068 103.412 91.7775 107.508 85.4958C107.705 85.7664 107.609 86.0091 107.451 86.3709L100.076 103.18C99.5535 104.36 100.93 105.586 101.883 105.969L109.524 108.997C110.473 109.372 111.277 108.785 111.643 107.894L118.694 90.5388C119.149 89.427 118.933 88.389 117.75 87.8591L110.021 84.3844C109.088 83.9654 108.268 84.6948 107.504 85.5067C110.754 80.526 112.574 74.7322 113.787 68.9739C121.643 73.4287 126.839 81.3826 128.351 90.2377C129.766 98.2163 127.864 106.792 121.475 112.153C118.473 114.672 115.152 116.616 111.495 118.065C109.663 118.791 107.986 119.481 106.28 120.366C106.679 118.368 106.994 116.679 108.242 115.391C108.914 114.694 108.914 113.692 108.251 113.076C106.38 111.346 104.333 114.979 103.775 117.159L102.254 123.112L100.204 131.856C99.5444 134.66 98.3626 137.172 96.6168 139.42C94.1359 142.62 90.3196 143.763 86.5123 142.356C80.4967 140.133 77.4587 136.377 70.4987 136.926C66.5625 137.24 62.7362 136.988 59.7907 134.119C57.2542 131.648 54.6576 127.517 55.5321 123.612C58.6087 124.922 61.7769 125.215 65.0985 124.959C68.8686 124.677 72.5288 124.274 76.0761 122.939C76.9676 122.601 77.4776 121.807 77.2305 120.936C77.0393 120.266 76.1768 119.589 75.2974 119.894C71.1412 121.338 63.9527 122.372 59.6597 121.576C55.7096 120.84 52.4815 118.2 51.1593 114.485L51.1817 114.474ZM70.4904 107.961C69.3658 105.517 66.4796 104.445 64.0363 105.569C61.593 106.694 60.531 109.584 61.6557 112.027C62.7804 114.471 65.6665 115.544 68.1098 114.419C70.5532 113.294 71.6151 110.404 70.4904 107.961Z" fill="white"/>
<path d="M107.508 85.4958C108.272 84.6839 109.095 83.9619 110.025 84.3735L117.754 87.8482C118.926 88.3741 119.149 89.4087 118.698 90.5279L111.647 107.884C111.281 108.774 110.484 109.358 109.528 108.986L101.887 105.958C100.938 105.582 99.5609 104.356 100.08 103.169L107.454 86.36C107.609 86.0091 107.709 85.7555 107.512 85.4849L107.508 85.4958Z" fill="#1D44C2"/>
<path d="M68.11 114.419C70.5497 113.296 71.6155 110.404 70.4906 107.961C69.3658 105.517 66.4762 104.446 64.0365 105.569C61.5969 106.692 60.531 109.584 61.6559 112.027C62.7808 114.471 65.6704 115.542 68.11 114.419Z" fill="#1D44C2"/>
<path d="M56.738 55.4316C56.1513 56.2162 55.8123 57.284 54.8763 57.9767C52.0339 56.1163 48.3498 55.2122 45.6592 57.859C42.6619 60.8004 43.0578 65.132 44.6985 68.7551C44.2364 69.7712 43.2964 70.4748 42.6957 71.4644C41.0949 69.2222 40.2575 66.4029 40.2106 63.5357C40.1243 58.3665 43.6368 53.4457 49.0365 53.0365C51.854 52.8229 54.5506 53.8566 56.7415 55.439L56.738 55.4316Z" fill="#1D44C2"/>
<path d="M113.792 68.963C112.571 74.7247 110.755 80.5259 107.508 85.4958C103.409 91.77 97.8465 97.0027 91.0669 100.376C84.2873 103.75 77.3831 104.617 70.2329 103.557C68.1879 103.252 66.3094 103.133 64.2515 103.231C59.6355 103.46 55.496 105.98 53.0836 109.898C51.682 112.168 52.2691 113.875 51.182 114.474C49.4769 110.005 49.2212 105.194 50.2677 100.623C50.3913 100.087 50.6003 99.639 50.9369 99.2132C58.185 100.878 68.4285 97.6165 74.4925 93.9044C75.4582 93.3155 75.7869 92.2253 75.2293 91.4257C74.6259 90.566 73.7094 90.6538 72.8154 91.1827C68.206 93.9364 63.0976 95.6649 57.7664 96.3404C50.9871 97.2041 44.0184 94.4988 42.1804 87.211C40.3425 79.9232 44.9929 72.8265 49.8658 67.8211L56.6473 60.8628C58.7194 58.7355 60.2614 56.3195 61.4097 53.5972C63.1143 49.5537 63.0901 45.1865 61.4385 41.108C58.4482 33.7096 51.9445 27.739 43.4444 29.9635C42.7821 30.1329 42.2052 30.2721 41.7904 29.822C40.45 28.3808 42.3604 26.373 43.9009 25.4833C47.7824 23.2272 53.6316 23.4417 58.0139 24.3133C73.428 27.4012 87.3328 37.2322 94.6484 51.3602C97.5602 56.9801 99.088 62.9662 99.1801 69.207C99.2595 74.4786 98.5356 79.5152 96.2289 84.2512C95.1441 86.4838 93.8906 88.4871 92.6874 90.6388C92.2433 91.4391 92.4657 92.3929 93.1995 92.8496C93.8434 93.2483 94.8865 93.1022 95.3335 92.3277L97.6606 88.3225C102.187 80.5246 102.806 73.3969 102.103 64.4762C106.415 65.1547 110.476 66.526 113.781 68.9406L113.792 68.963ZM76.8866 50.0752C79.1628 48.7836 79.8789 45.809 78.5207 43.7801C77.3553 42.0326 75.309 41.8821 73.7671 43.0432C71.8154 44.5103 71.1846 47.0034 72.533 49.1091C73.4944 50.472 75.2418 51.0128 76.8866 50.0752ZM90.8356 62.0615C89.9515 58.5325 87.4072 55.8489 83.96 55.1065C79.1643 54.0821 74.6919 57.2512 73.5714 61.9557C72.8363 65.0655 73.1928 68.2326 75.5029 70.7802C77.2673 72.7305 80.2314 74.2278 83.244 73.771C88.738 72.9392 92.1966 67.5286 90.8356 62.0615ZM61.1857 76.1157C59.5568 74.4009 57.4695 74.6124 55.7432 75.8043C54.6663 76.5437 53.9382 77.1587 53.6036 78.4321C53.2184 79.9094 53.159 81.4082 54.1113 82.7122C54.9051 83.8093 56.2404 84.7293 57.7903 84.6839C59.8288 84.6213 61.5244 83.245 62.2513 81.4118C62.9421 79.6765 62.5697 77.573 61.1857 76.1157ZM74.0076 85.2806C75.2678 84.5471 75.6547 83.1322 75.3254 81.9658C74.967 80.6773 73.8471 79.7936 72.4747 79.9107C71.7867 79.9656 71.2029 80.2073 70.696 80.7927C70.513 81.0033 69.829 84.0083 71.2855 85.1524C71.9224 85.6537 73.0201 85.8616 74.011 85.2881L74.0076 85.2806Z" fill="#6684F6"/>
<path d="M61.1855 76.1156C62.5695 77.573 62.942 79.6765 62.2512 81.4118C61.5168 83.2484 59.8178 84.6172 57.7902 84.6839C56.2403 84.7293 54.9084 83.8167 54.1111 82.7122C53.1663 81.4048 53.2182 79.9094 53.6035 78.4321C53.9421 77.1478 54.6661 76.5437 55.7431 75.8043C57.4768 74.609 59.5567 74.4009 61.1855 76.1156Z" fill="#1D44C2"/>
<path d="M76.8866 50.0752C75.2384 51.0054 73.4909 50.4646 72.533 49.1091C71.1846 47.0035 71.8154 44.5104 73.7671 43.0433C75.309 41.8822 77.3552 42.0326 78.5207 43.7801C79.8789 45.809 79.1628 48.7837 76.8866 50.0752Z" fill="#1D44C2"/>
<path d="M74.0077 85.2806C73.0203 85.8615 71.9226 85.6536 71.2822 85.1449C69.8291 84.0083 70.5057 81.0066 70.6927 80.7852C71.1996 80.1998 71.776 79.9615 72.4714 79.9032C73.8513 79.7826 74.9638 80.6698 75.3221 81.9583C75.6514 83.1247 75.2645 84.5396 74.0043 85.2731L74.0077 85.2806Z" fill="#1D44C2"/>
<path d="M90.8354 62.0615C92.1964 67.5286 88.7378 72.9393 83.2438 73.771C80.2312 74.2279 77.2671 72.7306 75.5027 70.7803C73.1926 68.2327 72.8327 65.0581 73.5712 61.9557C74.6843 57.2546 79.1567 54.0856 83.9598 55.1066C87.407 55.8489 89.9587 58.5291 90.8354 62.0615ZM83.1571 70.543C87.3179 69.6388 89.0053 65.1067 87.2764 61.488C85.895 58.5851 82.5408 57.1229 79.6479 58.7614C76.755 60.4 75.7212 63.7827 76.7754 66.8182C77.652 69.3306 80.4228 71.1335 83.1537 70.5355L83.1571 70.543Z" fill="#1D44C2"/>
<path d="M83.1569 70.5429C80.4301 71.1301 77.6518 69.3305 76.7786 66.8256C75.717 63.7935 76.874 60.3451 79.6511 58.7688C82.4283 57.1926 85.8983 58.5925 87.2796 61.4954C88.9976 65.1101 87.3211 69.6462 83.1604 70.5504L83.1569 70.5429Z" fill="white"/>
</g>
<defs>
<clipPath id="clip0_760_3521">
<rect width="100.767" height="203.519" fill="white" transform="translate(0 42.1342) rotate(-24.7167)"/>
</clipPath>
</defs>
</svg>
