<svg width="219" height="246" viewBox="0 0 219 246" fill="none" xmlns="http://www.w3.org/2000/svg">
<g clip-path="url(#clip0_760_3551)">
<path d="M126.289 36.2548C124.716 35.809 123.296 34.975 122.749 33.545C121.974 31.5177 122.755 29.553 124.362 28.2825C126.122 26.8853 128.281 26.5821 130.4 27.4263C131.282 27.7777 132.095 28.1991 132.394 29.2065C134.534 28.8164 133.642 29.3039 136.067 29.5165C140.355 29.8869 142.249 34.2601 141.26 37.6758C140.461 40.4186 138.107 42.2207 135.267 42.7671C132.639 43.266 129.694 42.5041 127.731 40.6553C126.523 39.5122 126.132 37.8691 126.28 36.2589L126.289 36.2548ZM130.392 39.3332C132.48 40.5076 134.91 40.5625 136.863 39.2927C138.031 38.5407 138.801 37.3781 138.813 35.8646C138.821 34.8289 138.442 33.2921 137.23 32.67C135.516 31.7887 132.326 31.8326 130.945 32.9587C129.892 33.8169 129.305 35.1541 129.01 36.4282C128.714 37.7023 129.266 38.7129 130.39 39.3396L130.392 39.3332Z" fill="#1D44C2"/>
<path d="M164.775 41.7357C164.308 41.1983 164.812 40.8628 164.946 40.4677C165.499 38.8573 166.58 37.5152 168.203 37.0495C171.415 36.1345 174.883 37.2793 175.629 40.6468C176.139 42.9497 174.907 45.0801 172.768 46.1385C170.12 47.4436 167.032 46.7976 165.362 44.2911C164.879 43.5739 164.575 42.6809 164.784 41.7316L164.775 41.7357ZM167.548 41.601C167.225 42.0592 167.485 42.4279 167.77 42.9074C168.592 44.2978 170.532 44.4463 171.931 43.552C172.739 43.0347 173.186 42.1703 173.003 41.2409C172.612 39.2129 169.923 39.1743 168.528 39.874C167.927 40.1751 167.567 40.9396 167.546 41.6074L167.548 41.601Z" fill="#1D44C2"/>
<path d="M130.392 39.3332C129.27 38.7 128.734 37.6443 129.012 36.4217C129.289 35.1992 129.894 33.8105 130.947 32.9522C132.325 31.8326 135.515 31.7887 137.232 32.6635C138.444 33.2856 138.823 34.8224 138.815 35.8581C138.803 37.3716 138.033 38.5342 136.866 39.2862C134.905 40.5538 132.475 40.4989 130.394 39.3267L130.392 39.3332Z" fill="#1D44C2"/>
<path d="M167.772 42.9009C167.959 42.4593 167.893 41.9346 167.551 41.5945C167.572 40.9267 167.932 40.1621 168.532 39.8611C169.927 39.1613 172.614 39.2064 173.008 41.228C173.191 42.1573 172.744 43.0217 171.936 43.539C170.534 44.4398 168.597 44.2848 167.775 42.8945L167.772 42.9009Z" fill="#BEE8F6"/>
<path d="M79.6996 70.5064C79.4737 71.6457 78.6089 72.4841 77.5318 72.8617C76.4548 73.2394 75.5224 73.0297 74.821 72.2344C74.1765 71.503 74.0419 70.46 74.5152 69.46C75.086 68.2478 76.4375 67.4672 77.6825 67.7958C79.067 68.1599 79.9814 69.0893 79.6996 70.5064Z" fill="#1D44C2"/>
<path d="M86.0304 70.3723C84.9168 69.4732 85.8698 67.4754 86.5565 67.1762C87.3544 66.8294 88.7059 67.1236 89.1487 67.9935C89.3825 68.4547 89.3831 68.9196 89.1433 69.5093C88.6635 70.7104 87.123 71.2492 86.0304 70.3723Z" fill="#1D44C2"/>
<path d="M196.91 113.565L195.916 116.347C195.757 116.305 195.638 116.538 195.59 116.732C195.331 117.7 194.957 118.423 194.522 119.357C189.228 130.602 179.972 139.531 168.523 144.314L166.368 145.214C162.228 146.945 157.791 147.719 153.281 148.091C144.846 148.78 136.973 147.448 129.206 144.157C123.592 141.759 118.697 138.442 114.268 134.208C110.653 130.694 107.617 126.698 105.059 122.174L40.9241 206.016L39.8719 206.344L39.255 206.124C38.7325 205.436 38.5619 204.656 38.5755 203.746L38.6395 199.085L39.1624 172.838L39.3992 160.149L39.4237 158.843L39.6882 147.05L40.218 120.784L40.7414 94.5151L41.042 79.6192C41.0678 78.452 40.8874 77.2329 41.459 76.1808C41.8798 75.4089 42.3387 74.5707 42.9655 73.9523C47.9694 68.9939 66.0816 73.2873 72.2192 74.9721L74.2772 75.5404L76.8809 76.3256L89.8829 80.9062C90.4677 81.1151 90.8934 81.5868 91.5523 81.6697C91.7676 81.6958 95.1196 83.2058 95.5983 83.4277L100.568 85.7846C100.555 84.8068 101.053 84.0625 101.219 83.2139C101.524 81.6091 102.177 80.2084 102.82 78.7318L103.682 76.7667C106.542 70.2434 112.372 62.8715 118.036 58.6211C115.13 56.7332 112.208 55.217 109.15 53.6958C108.516 53.382 107.832 53.2467 107.28 52.7443C106.466 52.6495 105.861 52.1719 105.15 51.889L102.631 50.8872C101.217 50.3236 99.7593 49.7375 98.2706 49.2999L96.5074 48.7788C91.1921 47.2063 85.8096 46.3287 80.2704 46.0923C76.2327 45.9131 72.409 46.3115 68.5191 47.2599C66.8846 47.6562 65.347 48.0654 63.7822 48.6318C63.2751 48.8137 62.812 49.1566 62.2587 49.184C61.4418 49.2189 61.0607 48.6833 60.8675 47.9462C60.738 47.4569 61.1118 46.7554 61.7847 46.4947C71.6727 42.6933 80.6227 42.6526 90.9637 44.6411C92.4686 44.9319 95.9833 45.7231 97.3081 46.1529L100.073 47.0538C100.905 47.322 101.61 47.581 102.425 47.8943L105.153 48.9415C105.936 49.2433 106.646 49.5694 107.426 49.9209L109.626 50.9247C113.409 52.647 116.964 54.6651 120.348 56.8764C133.119 47.9471 149.008 45.4406 163.747 49.8865C176.09 53.6143 186.769 62.2229 192.984 73.5067C199.936 86.1358 201.021 99.9512 196.917 113.568L196.91 113.565ZM147.823 50.5433C138.971 50.5321 130.206 53.5653 122.646 58.4964C123.19 59.1846 123.41 59.8877 122.988 60.5212C122.534 61.2016 121.562 61.1662 120.976 60.674C120.837 60.5586 120.462 60.127 120.244 60.2889C113.602 65.3516 108.431 72.0949 105.227 79.9475C103.366 84.5042 102.072 89.343 101.778 94.3432L101.684 95.9653C100.656 113.608 110.199 130.91 125.81 139.385C128.724 140.964 131.673 142.446 134.909 143.45C151.917 148.743 170.602 144.033 182.971 131.22C190.359 123.563 195.25 113.771 196.326 102.95C197.302 93.0812 195.335 83.192 190.43 74.4462C187.229 68.7418 182.861 63.9927 177.607 59.9951C169.167 53.5805 158.573 50.0491 147.814 50.5474L147.823 50.5433ZM53.0961 78.3347C67.257 79.5097 86.5129 86.1797 99.2226 92.8562L99.8841 88.5103C90.937 83.9189 81.6942 80.3984 72.076 77.7458C65.2604 75.8696 54.5767 73.4609 47.6589 74.649C46.6013 74.8303 44.3835 75.4394 44.5518 76.8139C44.6371 77.5488 44.9437 78.2321 45.4286 78.7612C46.277 77.7862 51.8247 78.2218 53.1071 78.3242L53.0961 78.3347ZM56.3471 90.3894C53.3736 88.7532 50.7403 87.057 48.1187 85.1253C46.5154 83.9134 45.1839 82.6098 43.7196 81.0698L43.3799 96.6634L56.3478 96.33L56.3448 90.3959L56.3471 90.3894ZM91.8351 104.08L97.4958 102.232C95.5181 101.743 93.6719 101.657 91.7682 101.63C91.772 102.634 91.636 103.319 91.8328 104.086L91.8351 104.08ZM103.28 120.014C103.77 119.862 103.775 119.297 103.576 119.023C101.397 114.453 100.13 109.665 99.3801 104.503L91.7083 106.888L91.5964 123.609L103.28 120.014ZM72.793 109.933L89.0771 104.902L89.0647 101.55C83.4795 101.544 78.062 101.961 72.6155 102.905C72.9846 105.259 72.5742 107.422 72.7907 109.939L72.793 109.933ZM67.594 95.8461L59.1013 91.8892L59.0284 96.2711L67.6004 95.8484L67.594 95.8461ZM72.6039 129.466L88.933 124.451L89.0565 107.698L72.7053 112.734L72.6103 129.468L72.6039 129.466ZM54.3851 115.614L70.08 110.772L70.0636 103.395C67.5429 103.838 65.219 104.46 62.8033 105.136L54.4087 108.084L54.3851 115.614ZM91.5251 135.45L100.42 123.741L91.5652 126.394L91.5228 135.456L91.5251 135.45ZM69.9276 130.303L70.0226 113.569L54.3144 118.428L54.2111 135.144L69.9276 130.303ZM42.9987 119.126L51.7071 116.436L51.7433 109.216C48.4601 110.555 45.5953 112.306 43.0381 114.696L43.001 119.12L42.9987 119.126ZM84.6169 144.52L88.8283 138.981L88.9041 127.229L72.5395 132.282L72.4397 148.259L84.6169 144.52ZM51.5551 135.945L51.6584 119.229L42.8825 121.946L42.54 138.744L51.5551 135.945ZM54.0819 153.921L69.7809 149.088L69.8918 133.101L54.1625 137.937L54.0819 153.921ZM72.3686 160.485L81.6762 148.248L72.4038 151.057L72.3686 160.485ZM42.1737 157.596L51.3992 154.756L51.5143 138.777L43.7741 141.131C43.3436 141.363 42.9358 141.449 42.4609 141.643L42.1585 157.598L42.1737 157.596ZM63.2173 172.487L69.663 164.02L69.7474 151.879L54.0309 156.721L53.8958 175.372L63.2237 172.489L63.2173 172.487ZM51.2416 176.188L51.357 157.552L42.0942 160.415L41.7272 179.106L51.2352 176.186L51.2416 176.188ZM53.8882 184.621L60.2388 176.259L53.8448 178.171L53.8882 184.621ZM41.2982 201.095L51.1858 188.209L51.2017 178.977L41.6781 181.921L41.3005 201.089L41.2982 201.095Z" fill="#1D44C2"/>
<path d="M72.604 129.466L72.699 112.732L89.0566 107.698L88.9331 124.451L72.604 129.466Z" fill="#BEE8F6"/>
<path d="M63.217 172.487L53.8955 175.372L54.0307 156.721L69.7472 151.879L69.6628 164.02L63.217 172.487Z" fill="#BEE8F6"/>
<path d="M69.9274 130.303L54.2109 135.144L54.3165 118.421L70.0224 113.569L69.9274 130.303Z" fill="#BEE8F6"/>
<path d="M84.6171 144.52L72.4398 148.259L72.5397 132.282L88.9043 127.229L88.8285 138.981L84.6171 144.52Z" fill="#BEE8F6"/>
<path d="M54.0818 153.921L54.1624 137.937L69.8958 133.109L69.7785 149.095L54.0818 153.921Z" fill="#BEE8F6"/>
<path d="M53.0962 78.3347C51.8225 78.2282 46.2725 77.7991 45.4177 78.7717C44.9328 78.2426 44.6285 77.5529 44.5409 76.8245C44.3726 75.4499 46.5991 74.8367 47.648 74.6596C54.5722 73.4737 65.2582 75.876 72.0651 77.7564C81.6832 80.4089 90.926 83.9295 99.8732 88.5208L99.2116 92.8668C86.4979 86.1815 67.2461 79.5202 53.0851 78.3453L53.0962 78.3347Z" fill="#1D44C2"/>
<path d="M51.2416 176.188L41.7337 179.109L42.1007 160.417L51.357 157.552L51.2416 176.188Z" fill="#BEE8F6"/>
<path d="M103.28 120.014L91.5965 123.609L91.7084 106.888L99.3802 104.503C100.13 109.665 101.397 114.453 103.577 119.023C103.782 119.3 103.776 119.864 103.28 120.014Z" fill="#BEE8F6"/>
<path d="M51.5552 135.945L42.54 138.744L42.8761 121.944L51.6562 119.235L51.5552 135.945Z" fill="#BEE8F6"/>
<path d="M42.1739 157.596L42.4763 141.641C42.9448 141.445 43.359 141.361 43.7894 141.13L51.5296 138.776L51.4146 154.754L42.1891 157.594L42.1739 157.596Z" fill="#BEE8F6"/>
<path d="M41.2985 201.095L41.676 181.928L51.2019 178.977L51.1861 188.209L41.2985 201.095Z" fill="#BEE8F6"/>
<path d="M56.3469 90.3894L56.3499 96.3235L43.382 96.6569L43.7217 81.0634C45.1861 82.6033 46.5175 83.9069 48.1208 85.1189C50.7337 87.0547 53.3734 88.7532 56.3493 90.383L56.3469 90.3894Z" fill="#BEE8F6"/>
<path d="M54.385 115.614L54.4086 108.084L62.8032 105.136C65.2189 104.46 67.5405 103.844 70.0635 103.395L70.0799 110.772L54.385 115.614Z" fill="#BEE8F6"/>
<path d="M72.7929 109.933C72.5764 107.416 72.9869 105.253 72.6178 102.899C78.0619 101.961 83.4817 101.538 89.067 101.544L89.0794 104.896L72.7952 109.927L72.7929 109.933Z" fill="#BEE8F6"/>
<path d="M42.9985 119.127L43.0356 114.703C45.5928 112.312 48.4576 110.562 51.7408 109.222L51.7046 116.442L42.9962 119.133L42.9985 119.127Z" fill="#BEE8F6"/>
<path d="M72.3686 160.485L72.4039 151.057L81.6763 148.248L72.3686 160.485Z" fill="#BEE8F6"/>
<path d="M91.525 135.45L91.5673 126.387L100.419 123.741L91.525 135.45Z" fill="#BEE8F6"/>
<path d="M53.8881 184.621L53.8511 178.174L60.2451 176.261L53.8881 184.621Z" fill="#BEE8F6"/>
<path d="M67.5942 95.8461L59.0222 96.2688L59.1016 91.8892L67.5942 95.8461Z" fill="#BEE8F6"/>
<path d="M91.8352 104.08C91.6361 103.319 91.7721 102.634 91.7706 101.624C93.6743 101.65 95.5205 101.736 97.4982 102.225L91.8375 104.073L91.8352 104.08Z" fill="#BEE8F6"/>
<path d="M94.1431 56.7138C89.839 55.597 85.5991 54.9897 81.2541 54.9403C79.1819 54.9188 77.1963 55.1824 75.2856 55.865C74.6959 56.0754 74.1475 56.2716 73.662 55.8658C73.1765 55.4599 72.9556 55.0033 73.1085 54.4334C73.2941 53.7518 73.6924 53.5092 74.3189 53.2973C76.3462 52.6129 78.3126 52.2408 80.4849 52.2255C85.3801 52.1955 90.1998 52.8429 94.9474 54.1182C96.6129 54.568 98.1255 54.9996 99.6484 55.7471C101.171 56.4946 105.112 57.6341 103.737 59.5972C102.76 60.9912 101.431 59.4194 99.3591 58.5848C97.6685 57.9009 96.0193 57.2026 94.1344 56.7179L94.1431 56.7138Z" fill="#1D44C2"/>
<path d="M109.164 61.5656C108.602 63.0785 106.387 62.1998 105.419 61.6217C104.836 61.2679 104.593 60.7092 104.689 60.0754C104.77 59.5668 105.455 58.8457 106.07 59.0294C106.963 59.2902 107.843 59.5248 108.604 59.9709C109.143 60.2871 109.325 61.1148 109.158 61.5633L109.164 61.5656Z" fill="#1D44C2"/>
<path d="M177.614 59.9974C172.988 64.423 169.82 70.2695 173.389 76.5265C175.527 80.2755 179.605 82.0882 179.845 88.7171C180.099 95.8956 181.604 100.769 188.997 103.222C188.893 103.998 189.196 104.752 190.012 104.942C190.629 105.083 191.572 104.592 191.711 103.676C193.289 103.804 194.862 103.538 196.339 102.955C195.269 113.778 190.378 123.57 182.983 131.225C180.848 126.33 174.784 124.947 169.839 125.947C167.159 126.492 164.718 127.421 162.215 128.524C157.556 130.57 153.335 132.039 148.135 131.524C143.871 131.105 141.281 129.388 136.352 129.696C133.526 129.877 131.068 131.098 129.212 133.252C128.033 134.624 125.959 137.689 125.814 139.394C110.197 130.916 100.651 113.62 101.688 95.974L101.782 94.3519C102.076 89.3517 103.37 84.5129 105.231 79.9562C106.73 79.3084 108.178 78.4606 109.898 78.2909C111.731 78.1107 113.657 78.6027 114.996 79.8654C116.102 80.907 116.715 82.2951 117.167 83.7275C117.813 85.7521 118.277 87.7189 118.686 89.8186C119.718 95.1037 124.194 98.9835 129.639 98.8957C131.272 98.8691 132.873 98.4462 134.146 97.5579C138.179 100.044 142.837 100.758 147.55 99.1301C143.851 107.452 148.006 116.693 156.278 119.504C164.55 122.314 173.367 117.433 175.48 108.863C176.756 103.67 175.015 98.2183 171.421 94.7483C167.176 90.6462 161.454 89.6037 155.989 91.3909C158.091 86.238 157.769 80.3059 154.243 75.9161C155.839 72.7466 155.818 69.0136 153.913 65.9074C152.196 63.1079 149.336 61.1345 147.453 58.4722C147.961 57.4772 147.232 56.3742 146.638 56.3943C146.525 54.357 146.732 52.3177 147.813 50.5691C158.572 50.0707 169.166 53.6021 177.607 60.0167L177.614 59.9974ZM169.287 63.5653C170.139 63.7171 170.747 63.0918 170.805 62.401C170.858 61.7663 170.416 61.1581 169.681 60.9828C168.448 60.7019 167.264 60.3659 166.043 60.1913C165.299 60.0849 164.69 60.6518 164.6 61.3095C164.523 61.8702 164.875 62.5479 165.551 62.7242C166.764 63.0414 167.967 63.3259 169.281 63.563L169.287 63.5653ZM109.136 87.1177C109.468 86.4305 108.933 85.6365 108.369 85.4496C107.748 85.242 107.091 85.4792 106.74 86.1163C105.621 88.1713 105.205 90.4116 104.977 92.7338C104.895 93.5906 105.39 94.2756 106.2 94.3401C108.276 94.4936 107.049 91.4556 109.129 87.1154L109.136 87.1177ZM111.681 104.272C111.011 102.842 111.938 101.198 110.313 100.879C109.731 100.765 109.035 101.068 108.866 101.785C108.576 103.003 108.737 104.317 109.311 105.386C109.685 106.086 110.516 106.354 111.15 106C111.703 105.689 111.992 104.921 111.683 104.266L111.681 104.272ZM131.731 111.72C132.524 111.996 132.896 112.434 133.551 112.203C134 112.044 134.44 111.642 134.45 110.985C134.467 109.277 130.403 107.709 127.36 108.64C125.349 109.258 124.088 111.044 124.185 113.126C124.275 114.982 125.219 116.72 126.791 117.718C127.936 118.446 129.247 118.552 130.401 117.998C132.878 116.806 133.06 113.64 131.74 111.716L131.731 111.72ZM107.875 109.934C107.218 108.262 107.327 106.457 105.778 106.615C105.094 106.683 104.556 107.318 104.647 108.055C104.792 109.312 105.395 112.309 107.171 111.6C107.789 111.349 108.143 110.604 107.883 109.93L107.875 109.934Z" fill="white"/>
<path d="M147.822 50.5433C146.741 52.2919 146.532 54.3377 146.647 56.3685C144.873 56.4462 143.071 56.8629 141.32 57.3843C140.605 57.6008 140.22 58.313 140.359 58.9581C140.484 59.5619 141.186 60.1107 141.894 59.9351C143.203 59.5969 144.475 59.2817 145.831 59.098C146.433 59.0154 146.957 58.8252 147.462 58.4464C149.345 61.1088 152.203 63.0886 153.922 65.8816C155.827 68.9878 155.848 72.7208 154.252 75.8903C148.499 68.7293 137.9 68.3335 131.663 74.9573C125.378 81.6364 126.606 92.3363 134.168 97.5367C132.894 98.425 131.294 98.848 129.661 98.8745C124.207 98.9665 119.74 95.0825 118.708 89.7974C118.299 87.6977 117.832 85.7374 117.188 83.7063C116.736 82.2739 116.124 80.8858 115.017 79.8442C113.672 78.5792 111.753 78.0895 109.92 78.2697C108.2 78.4394 106.752 79.2872 105.252 79.9351C108.459 72.0761 113.623 65.3304 120.27 60.2765C120.481 60.1122 120.862 60.5462 121.002 60.6615C121.585 61.1603 122.558 61.1956 123.014 60.5088C123.436 59.8753 123.216 59.1722 122.672 58.484C130.231 53.5529 138.997 50.5196 147.849 50.5309L147.822 50.5433ZM119.89 69.8574C122.046 67.2726 125.127 65.585 128.052 64.0521C128.729 63.6986 128.901 62.8523 128.622 62.3166C128.328 61.7396 127.582 61.3932 126.945 61.6957C123.932 63.11 119.941 65.5182 117.898 68.1723C117.416 68.7916 117.557 69.6552 118.051 70.0353C118.624 70.4798 119.42 70.4228 119.89 69.8574ZM125.937 70.7833C127.921 69.3282 129.967 68.2657 132.158 67.3273C132.977 66.9811 133.376 66.1071 132.995 65.3898C132.613 64.6726 131.78 64.5709 131.023 64.9249C128.659 66.0262 126.332 67.0828 124.302 68.7468C123.728 69.2171 123.658 70.0417 124.102 70.5851C124.47 71.0361 125.283 71.2542 125.93 70.7811L125.937 70.7833Z" fill="#F8B0D5"/>
<path d="M196.341 102.948C194.871 103.534 193.291 103.797 191.714 103.669C191.931 102.251 192.533 99.2274 190.503 99.3516C188.762 99.456 189.573 101.953 188.99 103.219C181.598 100.767 180.095 95.8868 179.839 88.7148C179.601 82.0795 175.528 80.2755 173.382 76.5242C169.813 70.2672 172.98 64.4272 177.607 59.9951C182.86 63.9927 187.231 68.7354 190.43 74.4462C195.335 83.192 197.308 93.0835 196.326 102.95L196.341 102.948Z" fill="#F8B0D5"/>
<path d="M131.731 111.72C133.051 113.644 132.869 116.81 130.392 118.002C129.238 118.556 127.934 118.453 126.782 117.722C125.213 116.718 124.267 114.986 124.176 113.131C124.077 111.055 125.341 109.262 127.352 108.644C130.395 107.713 134.458 109.281 134.442 110.989C134.434 111.64 133.991 112.048 133.543 112.207C132.888 112.438 132.515 112 131.723 111.724L131.731 111.72Z" fill="#1D44C2"/>
<path d="M109.136 87.1177C107.058 91.4514 108.291 94.4917 106.206 94.3423C105.394 94.2843 104.895 93.5906 104.983 92.7361C105.211 90.4139 105.628 88.1735 106.746 86.1186C107.091 85.4792 107.754 85.2443 108.376 85.4519C108.933 85.6365 109.468 86.4304 109.142 87.12L109.136 87.1177Z" fill="#1D44C2"/>
<path d="M146.645 56.375C147.235 56.3462 147.97 57.4515 147.46 58.4529C146.955 58.8317 146.428 59.0283 145.829 59.1045C144.475 59.2818 143.201 59.6034 141.892 59.9416C141.182 60.1236 140.481 59.5684 140.357 58.9646C140.22 58.313 140.605 57.6009 141.318 57.3908C143.069 56.8694 144.868 56.4592 146.645 56.375Z" fill="#1D44C2"/>
<path d="M169.287 63.5653C167.973 63.3282 166.768 63.0501 165.558 62.7265C164.888 62.5525 164.536 61.8748 164.607 61.3119C164.697 60.6541 165.305 60.0872 166.05 60.1936C167.268 60.3746 168.448 60.702 169.688 60.9851C170.418 61.1517 170.866 61.7622 170.811 62.4033C170.753 63.0941 170.145 63.7194 169.294 63.5676L169.287 63.5653Z" fill="#1D44C2"/>
<path d="M191.713 103.669C191.574 104.586 190.631 105.076 190.014 104.936C189.192 104.744 188.895 103.991 188.999 103.215C189.582 101.949 188.771 99.4518 190.511 99.3474C192.535 99.2209 191.939 102.247 191.722 103.665L191.713 103.669Z" fill="#1D44C2"/>
<path d="M111.68 104.272C111.99 104.927 111.701 105.696 111.148 106.006C110.514 106.361 109.682 106.093 109.309 105.393C108.734 104.323 108.573 103.009 108.864 101.791C109.035 101.068 109.728 100.771 110.311 100.885C111.945 101.2 111.008 102.848 111.678 104.279L111.68 104.272Z" fill="#1D44C2"/>
<path d="M107.874 109.934C108.134 110.608 107.78 111.353 107.162 111.604C105.387 112.313 104.79 109.319 104.638 108.059C104.553 107.324 105.092 106.689 105.769 106.619C107.318 106.461 107.216 108.269 107.866 109.939L107.874 109.934Z" fill="#1D44C2"/>
<path d="M119.891 69.8573C119.421 70.4228 118.618 70.4774 118.052 70.0353C117.557 69.6552 117.416 68.7916 117.898 68.1723C119.939 65.5246 123.932 63.11 126.945 61.6957C127.582 61.3932 128.328 61.7396 128.622 62.3166C128.902 62.8523 128.73 63.6986 128.052 64.0521C125.134 65.5873 122.055 67.2684 119.891 69.8573Z" fill="#1D44C2"/>
<path d="M125.937 70.7834C125.29 71.2565 124.476 71.0384 124.108 70.5874C123.665 70.044 123.735 69.2194 124.309 68.7491C126.338 67.0851 128.665 66.0285 131.03 64.9272C131.787 64.5732 132.605 64.6551 133.001 65.3921C133.398 66.1291 132.986 66.9769 132.164 67.3296C129.967 68.2657 127.921 69.3282 125.943 70.7857L125.937 70.7834Z" fill="#1D44C2"/>
<path d="M182.986 131.218C170.617 144.031 151.937 148.75 134.924 143.448C131.688 142.444 128.739 140.962 125.825 139.384C125.971 137.678 128.037 134.611 129.223 133.241C131.08 131.087 133.538 129.867 136.363 129.685C141.286 129.375 143.876 131.092 148.146 131.514C153.346 132.028 157.561 130.557 162.226 128.513C164.735 127.413 167.17 126.482 169.85 125.936C174.795 124.936 180.853 126.317 182.995 131.214L182.986 131.218ZM163.58 138.881C164.922 138.329 166.166 137.749 167.361 137.08C168.076 136.682 168.267 135.762 167.934 135.215C167.481 134.472 166.662 134.412 165.962 134.83C163.833 136.103 161.14 136.462 161.885 138.209C162.103 138.716 162.852 139.172 163.576 138.872L163.58 138.881ZM145.232 141.838C147.654 141.955 150.083 141.77 152.402 141.161C153.225 140.946 153.602 140.094 153.44 139.513C153.19 138.61 152.404 138.438 151.601 138.638C149.725 139.1 147.79 139.302 145.854 139.184C144.996 139.132 144.325 139.327 144.116 140.255C143.985 140.847 144.376 141.8 145.23 141.844L145.232 141.838Z" fill="#F8B0D5"/>
<path d="M145.232 141.838C144.37 141.798 143.987 140.841 144.119 140.249C144.325 139.327 144.999 139.125 145.857 139.178C147.793 139.296 149.734 139.096 151.603 138.631C152.406 138.432 153.19 138.61 153.443 139.506C153.602 140.094 153.228 140.94 152.405 141.154C150.085 141.763 147.659 141.942 145.235 141.831L145.232 141.838Z" fill="#1D44C2"/>
<path d="M163.58 138.88C162.857 139.181 162.107 138.724 161.889 138.218C161.146 136.464 163.844 136.114 165.967 134.839C166.667 134.421 167.488 134.475 167.938 135.224C168.271 135.771 168.074 136.688 167.366 137.089C166.17 137.758 164.92 138.335 163.584 138.889L163.58 138.88Z" fill="#1D44C2"/>
<path d="M154.25 75.8968C157.776 80.2866 158.098 86.2187 155.996 91.3716C161.461 89.5844 167.188 90.6357 171.428 94.729C175.022 98.199 176.769 103.653 175.487 108.844C173.374 117.414 164.473 122.265 156.285 119.484C148.097 116.704 143.865 107.435 147.557 99.1108C142.844 100.738 138.186 100.025 134.154 97.5386C126.591 92.3382 125.357 81.636 131.649 74.9592C137.885 68.3354 148.484 68.7312 154.237 75.8922L154.25 75.8968ZM152.4 78.1549C152.102 77.4675 151.523 76.9991 150.927 76.3942C147.031 72.453 140.764 71.8186 136.082 74.7206C131.4 77.6226 129.088 83.6664 130.904 89.05C132.719 94.4336 137.936 97.9461 143.759 97.2455C139.221 95.7692 136.602 91.275 137.782 86.7149C138.962 82.1549 143.493 79.373 148.087 80.4699C151.201 81.2051 153.432 83.4184 154.505 86.4597C154.963 83.4135 154.052 80.5681 152.397 78.1613L152.4 78.1549ZM173.105 106.809C173.995 99.5314 168.399 93.4722 161.481 93.2006C154.563 92.9291 148.748 98.6145 148.843 105.569C148.938 112.524 154.827 118.252 162.121 117.532C158.138 115.942 155.711 112.351 156.123 108.316C156.536 104.28 159.912 100.897 163.951 100.546C167.989 100.196 171.775 102.805 173.105 106.809Z" fill="#1D44C2"/>
<path d="M173.105 106.809C171.772 102.811 168.175 100.182 163.951 100.546C159.726 100.91 156.556 104.084 156.123 108.316C155.691 112.547 158.136 115.948 162.121 117.532C154.827 118.252 148.933 112.457 148.843 105.569C148.753 98.6817 154.533 92.9328 161.481 93.2007C168.429 93.4686 173.995 99.5315 173.105 106.809Z" fill="white"/>
<path d="M150.925 76.4006C150.719 76.8354 150.833 77.3265 151.126 77.6634C151.454 78.0422 151.952 78.0893 152.404 78.1636C154.058 80.5704 154.969 83.4158 154.511 86.4619C153.438 83.4207 151.205 81.2138 148.093 80.4722C143.499 79.3753 138.939 82.2409 137.788 86.7172C136.638 91.1935 139.231 95.7802 143.765 97.2478C137.942 97.9484 132.698 94.3316 130.91 89.0523C129.122 83.7731 131.249 77.7211 136.088 74.7229C140.928 71.7247 147.037 72.4552 150.933 76.3965L150.925 76.4006Z" fill="white"/>
<path d="M152.399 78.1549C151.948 78.0806 151.45 78.0335 151.122 77.6547C150.835 77.32 150.712 76.8331 150.921 76.3919C151.516 76.9969 152.102 77.4675 152.393 78.1526L152.399 78.1549Z" fill="#F8B0D5"/>
</g>
<defs>
<clipPath id="clip0_760_3551">
<rect width="159" height="204" fill="white" transform="translate(68.644) rotate(19.6631)"/>
</clipPath>
</defs>
</svg>
